M48
; DRILL file {KiCad (5.1.5)-3} date 4/15/2020 9:12:12 PM
; FORMAT={-:-/ absolute / inch / decimal}
; #@! TF.CreationDate,2020-04-15T21:12:12-07:00
; #@! TF.GenerationSoftware,Kicad,Pcbnew,(5.1.5)-3
; #@! TF.FileFunction,Plated,1,4,PTH
FMAT,2
INCH
T1C0.0157
T2C0.0197
T3C0.0315
T4C0.0319
T5C0.0393
T6C0.0394
T7C0.0669
T8C0.0709
T9C0.0906
T10C0.0984
T11C0.1181
%
G90
G05
T1
X1.14Y-3.05
X1.19Y-3.42
X1.2Y-2.57
X1.23Y-3.81
X1.31Y-2.91
X1.43Y-3.1
X1.76Y-1.34
X1.77Y-2.7
X1.78Y-1.22
X1.85Y-2.57
X1.88Y-3.05
X1.93Y-2.86
X1.94Y-3.19
X1.96Y-2.46
X2.09Y-3.44
X2.16Y-1.98
X2.24Y-2.46
X2.295Y-2.445
X2.3Y-2.09
X2.33Y-2.41
X2.34Y-1.35
X2.3441Y-1.2103
X2.52Y-3.09
X2.56Y-3.0
X2.59Y-3.11
X2.7Y-2.68
X2.72Y-3.39
X2.76Y-2.88
X2.76Y-2.98
X2.7972Y-2.8618
X2.81Y-2.9
X2.83Y-2.5
X2.83Y-2.6
X2.83Y-2.84
X2.84Y-2.93
X2.8413Y-2.6438
X2.86Y-3.38
X2.8618Y-2.9628
X2.8938Y-2.7962
X2.91Y-2.98
X2.91Y-2.8321
X2.932Y-2.7816
X2.95Y-1.37
X2.9541Y-1.2459
X2.9747Y-3.2647
X2.99Y-2.63
X2.99Y-3.36
X2.99Y-3.41
X2.9978Y-2.4252
X3.03Y-2.63
X3.06Y-2.86
X3.0602Y-2.8198
X3.0685Y-3.49
X3.11Y-2.64
X3.11Y-2.68
X3.11Y-2.73
X3.16Y-2.29
X3.16Y-2.34
X3.18Y-2.65
X3.21Y-2.29
X3.21Y-3.17
X3.26Y-2.29
X3.31Y-2.29
X3.31Y-2.34
X3.31Y-2.68
X3.3106Y-2.7898
X3.34Y-2.9
X3.34Y-3.03
X3.46Y-2.3
X3.46Y-2.35
X3.46Y-2.4
X3.46Y-2.45
X3.46Y-2.82
X3.5Y-3.73
X3.58Y-1.36
X3.58Y-3.88
X3.5841Y-1.2403
X3.66Y-3.27
X3.74Y-4.75
X3.76Y-3.02
X3.79Y-3.15
X3.81Y-3.02
X3.83Y-3.15
X3.93Y-1.89
X3.97Y-4.49
X3.99Y-1.84
X3.99Y-2.34
X4.04Y-2.36
X4.25Y-2.31
X4.34Y-2.3
X4.43Y-2.35
X4.44Y-1.58
X4.4622Y-1.9522
X4.49Y-1.5
X4.49Y-2.18
X4.51Y-1.85
T3
X2.74Y-4.6
X2.74Y-4.9
X2.84Y-4.6
X2.84Y-4.9
X1.89Y-4.6
X1.89Y-4.9
X1.99Y-4.6
X1.99Y-4.9
X2.09Y-4.6
X2.09Y-4.9
X2.19Y-4.6
X2.19Y-4.9
T4
X2.0032Y-1.6996
X2.0284Y-1.2996
X2.128Y-1.2996
X2.1532Y-1.6996
X3.237Y-1.7096
X3.2622Y-1.3096
X3.3618Y-1.3096
X3.387Y-1.7096
X1.4201Y-1.6996
X1.4453Y-1.2996
X1.5449Y-1.2996
X1.5701Y-1.6996
X2.61Y-1.71
X2.6352Y-1.31
X2.7348Y-1.31
X2.76Y-1.71
T5
X4.45Y-1.11
X4.55Y-1.11
X2.23Y-2.31
X2.33Y-2.31
X2.43Y-2.31
X2.53Y-2.31
X3.26Y-1.11
X3.36Y-1.11
X3.84Y-1.11
X3.94Y-1.11
X1.22Y-3.51
X1.32Y-3.51
X1.42Y-3.51
X1.52Y-3.51
X1.62Y-3.51
X1.72Y-3.51
X1.22Y-3.66
X1.32Y-3.66
X1.42Y-3.66
X1.52Y-3.66
X1.62Y-3.66
X1.72Y-3.66
X4.87Y-1.75
X4.87Y-1.85
X4.87Y-1.95
X3.51Y-2.72
X3.61Y-2.72
X4.87Y-2.08
X4.87Y-2.18
X4.87Y-2.28
X3.64Y-4.91
X3.74Y-4.91
X4.87Y-2.42
X4.87Y-2.52
X4.87Y-2.62
X3.46Y-2.54
X3.56Y-2.54
X3.66Y-2.54
X1.45Y-1.09
X1.55Y-1.09
X4.87Y-1.4
X4.87Y-1.5
X4.87Y-1.6
X4.1Y-1.11
X4.2Y-1.11
X2.64Y-1.11
X2.74Y-1.11
X2.45Y-2.61
X2.45Y-2.71
X2.45Y-2.81
X2.45Y-2.91
X2.45Y-3.01
X2.45Y-3.11
X1.84Y-2.31
X1.94Y-2.31
X4.09Y-4.91
X4.19Y-4.91
X2.03Y-1.09
X2.13Y-1.09
T6
X2.0731Y-3.91
X2.1716Y-3.91
X2.27Y-3.91
X2.63Y-3.9119
X2.7285Y-3.9119
X2.8269Y-3.9119
X3.1864Y-3.9113
X3.2848Y-3.9113
X3.3833Y-3.9113
X4.3012Y-3.9123
X4.3997Y-3.9123
X4.4981Y-3.9123
X1.52Y-3.9109
X1.6185Y-3.9109
X1.7169Y-3.9109
X3.7431Y-3.91
X3.8416Y-3.91
X3.94Y-3.91
T7
X4.29Y-2.9322
X4.29Y-3.57
X4.54Y-2.9322
X4.54Y-3.57
X4.79Y-2.9322
X4.79Y-3.57
T8
X1.9826Y-4.2053
X2.3606Y-4.2053
X2.5395Y-4.2072
X2.9174Y-4.2072
X3.0959Y-4.2066
X3.4738Y-4.2066
X4.2107Y-4.2075
X4.5886Y-4.2075
X1.4295Y-4.2062
X1.8074Y-4.2062
X3.6526Y-4.2053
X4.0306Y-4.2053
T9
X1.2438Y-2.27
T10
X1.2044Y-2.0928
X1.2044Y-2.4472
T11
X1.48Y-2.27
T2
G00X1.0687Y-2.6701
M15
G01X1.0411Y-2.6701
M16
G05
G00X1.0687Y-2.9299
M15
G01X1.0411Y-2.9299
M16
G05
T0
M30
