G04 #@! TF.GenerationSoftware,KiCad,Pcbnew,(5.1.5)-3*
G04 #@! TF.CreationDate,2020-07-30T23:32:09-07:00*
G04 #@! TF.ProjectId,AnalogBoard_Rev0,416e616c-6f67-4426-9f61-72645f526576,rev?*
G04 #@! TF.SameCoordinates,Original*
G04 #@! TF.FileFunction,Legend,Bot*
G04 #@! TF.FilePolarity,Positive*
%FSLAX46Y46*%
G04 Gerber Fmt 4.6, Leading zero omitted, Abs format (unit mm)*
G04 Created by KiCad (PCBNEW (5.1.5)-3) date 2020-07-30 23:32:09*
%MOMM*%
%LPD*%
G04 APERTURE LIST*
%ADD10C,0.120000*%
%ADD11C,0.150000*%
G04 APERTURE END LIST*
D10*
X100501267Y-55628000D02*
X100158733Y-55628000D01*
X100501267Y-54608000D02*
X100158733Y-54608000D01*
X100247267Y-77472000D02*
X99904733Y-77472000D01*
X100247267Y-76452000D02*
X99904733Y-76452000D01*
X100247267Y-69852000D02*
X99904733Y-69852000D01*
X100247267Y-68832000D02*
X99904733Y-68832000D01*
X100247267Y-120906000D02*
X99904733Y-120906000D01*
X100247267Y-119886000D02*
X99904733Y-119886000D01*
X100247267Y-113286000D02*
X99904733Y-113286000D01*
X100247267Y-112266000D02*
X99904733Y-112266000D01*
X100247267Y-92204000D02*
X99904733Y-92204000D01*
X100247267Y-91184000D02*
X99904733Y-91184000D01*
X100247267Y-84330000D02*
X99904733Y-84330000D01*
X100247267Y-83310000D02*
X99904733Y-83310000D01*
X100247267Y-63248000D02*
X99904733Y-63248000D01*
X100247267Y-62228000D02*
X99904733Y-62228000D01*
X100501267Y-98808000D02*
X100158733Y-98808000D01*
X100501267Y-97788000D02*
X100158733Y-97788000D01*
X100247267Y-106682000D02*
X99904733Y-106682000D01*
X100247267Y-105662000D02*
X99904733Y-105662000D01*
D11*
X100972857Y-54045142D02*
X101020476Y-54092761D01*
X101163333Y-54140380D01*
X101258571Y-54140380D01*
X101401428Y-54092761D01*
X101496666Y-53997523D01*
X101544285Y-53902285D01*
X101591904Y-53711809D01*
X101591904Y-53568952D01*
X101544285Y-53378476D01*
X101496666Y-53283238D01*
X101401428Y-53188000D01*
X101258571Y-53140380D01*
X101163333Y-53140380D01*
X101020476Y-53188000D01*
X100972857Y-53235619D01*
X100591904Y-53235619D02*
X100544285Y-53188000D01*
X100449047Y-53140380D01*
X100210952Y-53140380D01*
X100115714Y-53188000D01*
X100068095Y-53235619D01*
X100020476Y-53330857D01*
X100020476Y-53426095D01*
X100068095Y-53568952D01*
X100639523Y-54140380D01*
X100020476Y-54140380D01*
X99687142Y-53140380D02*
X99068095Y-53140380D01*
X99401428Y-53521333D01*
X99258571Y-53521333D01*
X99163333Y-53568952D01*
X99115714Y-53616571D01*
X99068095Y-53711809D01*
X99068095Y-53949904D01*
X99115714Y-54045142D01*
X99163333Y-54092761D01*
X99258571Y-54140380D01*
X99544285Y-54140380D01*
X99639523Y-54092761D01*
X99687142Y-54045142D01*
X100718857Y-75889142D02*
X100766476Y-75936761D01*
X100909333Y-75984380D01*
X101004571Y-75984380D01*
X101147428Y-75936761D01*
X101242666Y-75841523D01*
X101290285Y-75746285D01*
X101337904Y-75555809D01*
X101337904Y-75412952D01*
X101290285Y-75222476D01*
X101242666Y-75127238D01*
X101147428Y-75032000D01*
X101004571Y-74984380D01*
X100909333Y-74984380D01*
X100766476Y-75032000D01*
X100718857Y-75079619D01*
X100337904Y-75079619D02*
X100290285Y-75032000D01*
X100195047Y-74984380D01*
X99956952Y-74984380D01*
X99861714Y-75032000D01*
X99814095Y-75079619D01*
X99766476Y-75174857D01*
X99766476Y-75270095D01*
X99814095Y-75412952D01*
X100385523Y-75984380D01*
X99766476Y-75984380D01*
X99385523Y-75079619D02*
X99337904Y-75032000D01*
X99242666Y-74984380D01*
X99004571Y-74984380D01*
X98909333Y-75032000D01*
X98861714Y-75079619D01*
X98814095Y-75174857D01*
X98814095Y-75270095D01*
X98861714Y-75412952D01*
X99433142Y-75984380D01*
X98814095Y-75984380D01*
X100718857Y-68269142D02*
X100766476Y-68316761D01*
X100909333Y-68364380D01*
X101004571Y-68364380D01*
X101147428Y-68316761D01*
X101242666Y-68221523D01*
X101290285Y-68126285D01*
X101337904Y-67935809D01*
X101337904Y-67792952D01*
X101290285Y-67602476D01*
X101242666Y-67507238D01*
X101147428Y-67412000D01*
X101004571Y-67364380D01*
X100909333Y-67364380D01*
X100766476Y-67412000D01*
X100718857Y-67459619D01*
X100337904Y-67459619D02*
X100290285Y-67412000D01*
X100195047Y-67364380D01*
X99956952Y-67364380D01*
X99861714Y-67412000D01*
X99814095Y-67459619D01*
X99766476Y-67554857D01*
X99766476Y-67650095D01*
X99814095Y-67792952D01*
X100385523Y-68364380D01*
X99766476Y-68364380D01*
X98814095Y-68364380D02*
X99385523Y-68364380D01*
X99099809Y-68364380D02*
X99099809Y-67364380D01*
X99195047Y-67507238D01*
X99290285Y-67602476D01*
X99385523Y-67650095D01*
X100718857Y-119323142D02*
X100766476Y-119370761D01*
X100909333Y-119418380D01*
X101004571Y-119418380D01*
X101147428Y-119370761D01*
X101242666Y-119275523D01*
X101290285Y-119180285D01*
X101337904Y-118989809D01*
X101337904Y-118846952D01*
X101290285Y-118656476D01*
X101242666Y-118561238D01*
X101147428Y-118466000D01*
X101004571Y-118418380D01*
X100909333Y-118418380D01*
X100766476Y-118466000D01*
X100718857Y-118513619D01*
X100337904Y-118513619D02*
X100290285Y-118466000D01*
X100195047Y-118418380D01*
X99956952Y-118418380D01*
X99861714Y-118466000D01*
X99814095Y-118513619D01*
X99766476Y-118608857D01*
X99766476Y-118704095D01*
X99814095Y-118846952D01*
X100385523Y-119418380D01*
X99766476Y-119418380D01*
X99147428Y-118418380D02*
X99052190Y-118418380D01*
X98956952Y-118466000D01*
X98909333Y-118513619D01*
X98861714Y-118608857D01*
X98814095Y-118799333D01*
X98814095Y-119037428D01*
X98861714Y-119227904D01*
X98909333Y-119323142D01*
X98956952Y-119370761D01*
X99052190Y-119418380D01*
X99147428Y-119418380D01*
X99242666Y-119370761D01*
X99290285Y-119323142D01*
X99337904Y-119227904D01*
X99385523Y-119037428D01*
X99385523Y-118799333D01*
X99337904Y-118608857D01*
X99290285Y-118513619D01*
X99242666Y-118466000D01*
X99147428Y-118418380D01*
X100718857Y-111703142D02*
X100766476Y-111750761D01*
X100909333Y-111798380D01*
X101004571Y-111798380D01*
X101147428Y-111750761D01*
X101242666Y-111655523D01*
X101290285Y-111560285D01*
X101337904Y-111369809D01*
X101337904Y-111226952D01*
X101290285Y-111036476D01*
X101242666Y-110941238D01*
X101147428Y-110846000D01*
X101004571Y-110798380D01*
X100909333Y-110798380D01*
X100766476Y-110846000D01*
X100718857Y-110893619D01*
X99766476Y-111798380D02*
X100337904Y-111798380D01*
X100052190Y-111798380D02*
X100052190Y-110798380D01*
X100147428Y-110941238D01*
X100242666Y-111036476D01*
X100337904Y-111084095D01*
X99290285Y-111798380D02*
X99099809Y-111798380D01*
X99004571Y-111750761D01*
X98956952Y-111703142D01*
X98861714Y-111560285D01*
X98814095Y-111369809D01*
X98814095Y-110988857D01*
X98861714Y-110893619D01*
X98909333Y-110846000D01*
X99004571Y-110798380D01*
X99195047Y-110798380D01*
X99290285Y-110846000D01*
X99337904Y-110893619D01*
X99385523Y-110988857D01*
X99385523Y-111226952D01*
X99337904Y-111322190D01*
X99290285Y-111369809D01*
X99195047Y-111417428D01*
X99004571Y-111417428D01*
X98909333Y-111369809D01*
X98861714Y-111322190D01*
X98814095Y-111226952D01*
X100718857Y-90621142D02*
X100766476Y-90668761D01*
X100909333Y-90716380D01*
X101004571Y-90716380D01*
X101147428Y-90668761D01*
X101242666Y-90573523D01*
X101290285Y-90478285D01*
X101337904Y-90287809D01*
X101337904Y-90144952D01*
X101290285Y-89954476D01*
X101242666Y-89859238D01*
X101147428Y-89764000D01*
X101004571Y-89716380D01*
X100909333Y-89716380D01*
X100766476Y-89764000D01*
X100718857Y-89811619D01*
X99766476Y-90716380D02*
X100337904Y-90716380D01*
X100052190Y-90716380D02*
X100052190Y-89716380D01*
X100147428Y-89859238D01*
X100242666Y-89954476D01*
X100337904Y-90002095D01*
X99195047Y-90144952D02*
X99290285Y-90097333D01*
X99337904Y-90049714D01*
X99385523Y-89954476D01*
X99385523Y-89906857D01*
X99337904Y-89811619D01*
X99290285Y-89764000D01*
X99195047Y-89716380D01*
X99004571Y-89716380D01*
X98909333Y-89764000D01*
X98861714Y-89811619D01*
X98814095Y-89906857D01*
X98814095Y-89954476D01*
X98861714Y-90049714D01*
X98909333Y-90097333D01*
X99004571Y-90144952D01*
X99195047Y-90144952D01*
X99290285Y-90192571D01*
X99337904Y-90240190D01*
X99385523Y-90335428D01*
X99385523Y-90525904D01*
X99337904Y-90621142D01*
X99290285Y-90668761D01*
X99195047Y-90716380D01*
X99004571Y-90716380D01*
X98909333Y-90668761D01*
X98861714Y-90621142D01*
X98814095Y-90525904D01*
X98814095Y-90335428D01*
X98861714Y-90240190D01*
X98909333Y-90192571D01*
X99004571Y-90144952D01*
X100718857Y-82747142D02*
X100766476Y-82794761D01*
X100909333Y-82842380D01*
X101004571Y-82842380D01*
X101147428Y-82794761D01*
X101242666Y-82699523D01*
X101290285Y-82604285D01*
X101337904Y-82413809D01*
X101337904Y-82270952D01*
X101290285Y-82080476D01*
X101242666Y-81985238D01*
X101147428Y-81890000D01*
X101004571Y-81842380D01*
X100909333Y-81842380D01*
X100766476Y-81890000D01*
X100718857Y-81937619D01*
X99766476Y-82842380D02*
X100337904Y-82842380D01*
X100052190Y-82842380D02*
X100052190Y-81842380D01*
X100147428Y-81985238D01*
X100242666Y-82080476D01*
X100337904Y-82128095D01*
X99433142Y-81842380D02*
X98766476Y-81842380D01*
X99195047Y-82842380D01*
X100718857Y-61665142D02*
X100766476Y-61712761D01*
X100909333Y-61760380D01*
X101004571Y-61760380D01*
X101147428Y-61712761D01*
X101242666Y-61617523D01*
X101290285Y-61522285D01*
X101337904Y-61331809D01*
X101337904Y-61188952D01*
X101290285Y-60998476D01*
X101242666Y-60903238D01*
X101147428Y-60808000D01*
X101004571Y-60760380D01*
X100909333Y-60760380D01*
X100766476Y-60808000D01*
X100718857Y-60855619D01*
X99766476Y-61760380D02*
X100337904Y-61760380D01*
X100052190Y-61760380D02*
X100052190Y-60760380D01*
X100147428Y-60903238D01*
X100242666Y-60998476D01*
X100337904Y-61046095D01*
X98909333Y-60760380D02*
X99099809Y-60760380D01*
X99195047Y-60808000D01*
X99242666Y-60855619D01*
X99337904Y-60998476D01*
X99385523Y-61188952D01*
X99385523Y-61569904D01*
X99337904Y-61665142D01*
X99290285Y-61712761D01*
X99195047Y-61760380D01*
X99004571Y-61760380D01*
X98909333Y-61712761D01*
X98861714Y-61665142D01*
X98814095Y-61569904D01*
X98814095Y-61331809D01*
X98861714Y-61236571D01*
X98909333Y-61188952D01*
X99004571Y-61141333D01*
X99195047Y-61141333D01*
X99290285Y-61188952D01*
X99337904Y-61236571D01*
X99385523Y-61331809D01*
X100972857Y-97225142D02*
X101020476Y-97272761D01*
X101163333Y-97320380D01*
X101258571Y-97320380D01*
X101401428Y-97272761D01*
X101496666Y-97177523D01*
X101544285Y-97082285D01*
X101591904Y-96891809D01*
X101591904Y-96748952D01*
X101544285Y-96558476D01*
X101496666Y-96463238D01*
X101401428Y-96368000D01*
X101258571Y-96320380D01*
X101163333Y-96320380D01*
X101020476Y-96368000D01*
X100972857Y-96415619D01*
X100020476Y-97320380D02*
X100591904Y-97320380D01*
X100306190Y-97320380D02*
X100306190Y-96320380D01*
X100401428Y-96463238D01*
X100496666Y-96558476D01*
X100591904Y-96606095D01*
X99115714Y-96320380D02*
X99591904Y-96320380D01*
X99639523Y-96796571D01*
X99591904Y-96748952D01*
X99496666Y-96701333D01*
X99258571Y-96701333D01*
X99163333Y-96748952D01*
X99115714Y-96796571D01*
X99068095Y-96891809D01*
X99068095Y-97129904D01*
X99115714Y-97225142D01*
X99163333Y-97272761D01*
X99258571Y-97320380D01*
X99496666Y-97320380D01*
X99591904Y-97272761D01*
X99639523Y-97225142D01*
X100718857Y-105099142D02*
X100766476Y-105146761D01*
X100909333Y-105194380D01*
X101004571Y-105194380D01*
X101147428Y-105146761D01*
X101242666Y-105051523D01*
X101290285Y-104956285D01*
X101337904Y-104765809D01*
X101337904Y-104622952D01*
X101290285Y-104432476D01*
X101242666Y-104337238D01*
X101147428Y-104242000D01*
X101004571Y-104194380D01*
X100909333Y-104194380D01*
X100766476Y-104242000D01*
X100718857Y-104289619D01*
X99766476Y-105194380D02*
X100337904Y-105194380D01*
X100052190Y-105194380D02*
X100052190Y-104194380D01*
X100147428Y-104337238D01*
X100242666Y-104432476D01*
X100337904Y-104480095D01*
X98909333Y-104527714D02*
X98909333Y-105194380D01*
X99147428Y-104146761D02*
X99385523Y-104861047D01*
X98766476Y-104861047D01*
M02*
