%TF.GenerationSoftware,KiCad,Pcbnew,(5.1.7)-1*%
%TF.CreationDate,2021-10-21T20:17:54-07:00*%
%TF.ProjectId,Digital Board Rev 2,44696769-7461-46c2-9042-6f6172642052,rev?*%
%TF.SameCoordinates,Original*%
%TF.FileFunction,Paste,Top*%
%TF.FilePolarity,Positive*%
%FSLAX46Y46*%
G04 Gerber Fmt 4.6, Leading zero omitted, Abs format (unit mm)*
G04 Created by KiCad (PCBNEW (5.1.7)-1) date 2021-10-21 20:17:54*
%MOMM*%
%LPD*%
G01*
G04 APERTURE LIST*
%TA.AperFunction,Profile*%
%ADD10C,0.050000*%
%TD*%
%ADD11R,1.300000X1.300000*%
%ADD12R,1.300000X2.000000*%
%ADD13R,2.000000X0.700000*%
%ADD14R,2.500000X1.800000*%
G04 APERTURE END LIST*
D10*
X177750000Y-40750000D02*
X182750000Y-40750000D01*
X177750000Y-35750000D02*
X177750000Y-40750000D01*
X128250000Y-40750000D02*
X128250000Y-35750000D01*
X123250000Y-40750000D02*
X128250000Y-40750000D01*
X182750000Y-40750000D02*
X182750000Y-132080000D01*
X128250000Y-35750000D02*
X177750000Y-35750000D01*
X123250000Y-132080000D02*
X123250000Y-40750000D01*
X182750000Y-132080000D02*
X123250000Y-132080000D01*
%TO.C,R51*%
G36*
G01*
X172040500Y-54742501D02*
X172040500Y-53842499D01*
G75*
G02*
X172290499Y-53592500I249999J0D01*
G01*
X172990501Y-53592500D01*
G75*
G02*
X173240500Y-53842499I0J-249999D01*
G01*
X173240500Y-54742501D01*
G75*
G02*
X172990501Y-54992500I-249999J0D01*
G01*
X172290499Y-54992500D01*
G75*
G02*
X172040500Y-54742501I0J249999D01*
G01*
G37*
G36*
G01*
X170040500Y-54742501D02*
X170040500Y-53842499D01*
G75*
G02*
X170290499Y-53592500I249999J0D01*
G01*
X170990501Y-53592500D01*
G75*
G02*
X171240500Y-53842499I0J-249999D01*
G01*
X171240500Y-54742501D01*
G75*
G02*
X170990501Y-54992500I-249999J0D01*
G01*
X170290499Y-54992500D01*
G75*
G02*
X170040500Y-54742501I0J249999D01*
G01*
G37*
%TD*%
%TO.C,R12*%
G36*
G01*
X179622500Y-48571999D02*
X179622500Y-49472001D01*
G75*
G02*
X179372501Y-49722000I-249999J0D01*
G01*
X178672499Y-49722000D01*
G75*
G02*
X178422500Y-49472001I0J249999D01*
G01*
X178422500Y-48571999D01*
G75*
G02*
X178672499Y-48322000I249999J0D01*
G01*
X179372501Y-48322000D01*
G75*
G02*
X179622500Y-48571999I0J-249999D01*
G01*
G37*
G36*
G01*
X181622500Y-48571999D02*
X181622500Y-49472001D01*
G75*
G02*
X181372501Y-49722000I-249999J0D01*
G01*
X180672499Y-49722000D01*
G75*
G02*
X180422500Y-49472001I0J249999D01*
G01*
X180422500Y-48571999D01*
G75*
G02*
X180672499Y-48322000I249999J0D01*
G01*
X181372501Y-48322000D01*
G75*
G02*
X181622500Y-48571999I0J-249999D01*
G01*
G37*
%TD*%
%TO.C,D7*%
G36*
G01*
X174706000Y-58337500D02*
X174706000Y-59137500D01*
G75*
G02*
X174456000Y-59387500I-250000J0D01*
G01*
X173631000Y-59387500D01*
G75*
G02*
X173381000Y-59137500I0J250000D01*
G01*
X173381000Y-58337500D01*
G75*
G02*
X173631000Y-58087500I250000J0D01*
G01*
X174456000Y-58087500D01*
G75*
G02*
X174706000Y-58337500I0J-250000D01*
G01*
G37*
G36*
G01*
X176631000Y-58337500D02*
X176631000Y-59137500D01*
G75*
G02*
X176381000Y-59387500I-250000J0D01*
G01*
X175556000Y-59387500D01*
G75*
G02*
X175306000Y-59137500I0J250000D01*
G01*
X175306000Y-58337500D01*
G75*
G02*
X175556000Y-58087500I250000J0D01*
G01*
X176381000Y-58087500D01*
G75*
G02*
X176631000Y-58337500I0J-250000D01*
G01*
G37*
%TD*%
D11*
%TO.C,RV9*%
X145500000Y-57600000D03*
D12*
X140000000Y-58750000D03*
D11*
X145500000Y-59900000D03*
%TD*%
%TO.C,RV8*%
X145500000Y-52350000D03*
D12*
X140000000Y-53500000D03*
D11*
X145500000Y-54650000D03*
%TD*%
%TO.C,C19*%
G36*
G01*
X170225000Y-59300000D02*
X169275000Y-59300000D01*
G75*
G02*
X169025000Y-59050000I0J250000D01*
G01*
X169025000Y-58375000D01*
G75*
G02*
X169275000Y-58125000I250000J0D01*
G01*
X170225000Y-58125000D01*
G75*
G02*
X170475000Y-58375000I0J-250000D01*
G01*
X170475000Y-59050000D01*
G75*
G02*
X170225000Y-59300000I-250000J0D01*
G01*
G37*
G36*
G01*
X170225000Y-61375000D02*
X169275000Y-61375000D01*
G75*
G02*
X169025000Y-61125000I0J250000D01*
G01*
X169025000Y-60450000D01*
G75*
G02*
X169275000Y-60200000I250000J0D01*
G01*
X170225000Y-60200000D01*
G75*
G02*
X170475000Y-60450000I0J-250000D01*
G01*
X170475000Y-61125000D01*
G75*
G02*
X170225000Y-61375000I-250000J0D01*
G01*
G37*
%TD*%
%TO.C,C18*%
G36*
G01*
X156950000Y-54975000D02*
X156950000Y-54025000D01*
G75*
G02*
X157200000Y-53775000I250000J0D01*
G01*
X157875000Y-53775000D01*
G75*
G02*
X158125000Y-54025000I0J-250000D01*
G01*
X158125000Y-54975000D01*
G75*
G02*
X157875000Y-55225000I-250000J0D01*
G01*
X157200000Y-55225000D01*
G75*
G02*
X156950000Y-54975000I0J250000D01*
G01*
G37*
G36*
G01*
X154875000Y-54975000D02*
X154875000Y-54025000D01*
G75*
G02*
X155125000Y-53775000I250000J0D01*
G01*
X155800000Y-53775000D01*
G75*
G02*
X156050000Y-54025000I0J-250000D01*
G01*
X156050000Y-54975000D01*
G75*
G02*
X155800000Y-55225000I-250000J0D01*
G01*
X155125000Y-55225000D01*
G75*
G02*
X154875000Y-54975000I0J250000D01*
G01*
G37*
%TD*%
%TO.C,R52*%
G36*
G01*
X180359000Y-51631001D02*
X180359000Y-50730999D01*
G75*
G02*
X180608999Y-50481000I249999J0D01*
G01*
X181309001Y-50481000D01*
G75*
G02*
X181559000Y-50730999I0J-249999D01*
G01*
X181559000Y-51631001D01*
G75*
G02*
X181309001Y-51881000I-249999J0D01*
G01*
X180608999Y-51881000D01*
G75*
G02*
X180359000Y-51631001I0J249999D01*
G01*
G37*
G36*
G01*
X178359000Y-51631001D02*
X178359000Y-50730999D01*
G75*
G02*
X178608999Y-50481000I249999J0D01*
G01*
X179309001Y-50481000D01*
G75*
G02*
X179559000Y-50730999I0J-249999D01*
G01*
X179559000Y-51631001D01*
G75*
G02*
X179309001Y-51881000I-249999J0D01*
G01*
X178608999Y-51881000D01*
G75*
G02*
X178359000Y-51631001I0J249999D01*
G01*
G37*
%TD*%
D13*
%TO.C,K1*%
X160500000Y-59800000D03*
X166500000Y-59800000D03*
X160500000Y-57600000D03*
X166500000Y-57600000D03*
X160500000Y-55400000D03*
X166500000Y-55400000D03*
X160500000Y-52200000D03*
X166500000Y-52200000D03*
%TD*%
%TO.C,D5*%
G36*
G01*
X174706000Y-60623500D02*
X174706000Y-61423500D01*
G75*
G02*
X174456000Y-61673500I-250000J0D01*
G01*
X173631000Y-61673500D01*
G75*
G02*
X173381000Y-61423500I0J250000D01*
G01*
X173381000Y-60623500D01*
G75*
G02*
X173631000Y-60373500I250000J0D01*
G01*
X174456000Y-60373500D01*
G75*
G02*
X174706000Y-60623500I0J-250000D01*
G01*
G37*
G36*
G01*
X176631000Y-60623500D02*
X176631000Y-61423500D01*
G75*
G02*
X176381000Y-61673500I-250000J0D01*
G01*
X175556000Y-61673500D01*
G75*
G02*
X175306000Y-61423500I0J250000D01*
G01*
X175306000Y-60623500D01*
G75*
G02*
X175556000Y-60373500I250000J0D01*
G01*
X176381000Y-60373500D01*
G75*
G02*
X176631000Y-60623500I0J-250000D01*
G01*
G37*
%TD*%
%TO.C,D4*%
G36*
G01*
X174706000Y-56051500D02*
X174706000Y-56851500D01*
G75*
G02*
X174456000Y-57101500I-250000J0D01*
G01*
X173631000Y-57101500D01*
G75*
G02*
X173381000Y-56851500I0J250000D01*
G01*
X173381000Y-56051500D01*
G75*
G02*
X173631000Y-55801500I250000J0D01*
G01*
X174456000Y-55801500D01*
G75*
G02*
X174706000Y-56051500I0J-250000D01*
G01*
G37*
G36*
G01*
X176631000Y-56051500D02*
X176631000Y-56851500D01*
G75*
G02*
X176381000Y-57101500I-250000J0D01*
G01*
X175556000Y-57101500D01*
G75*
G02*
X175306000Y-56851500I0J250000D01*
G01*
X175306000Y-56051500D01*
G75*
G02*
X175556000Y-55801500I250000J0D01*
G01*
X176381000Y-55801500D01*
G75*
G02*
X176631000Y-56051500I0J-250000D01*
G01*
G37*
%TD*%
D14*
%TO.C,D3*%
X164750000Y-48750000D03*
X160750000Y-48750000D03*
%TD*%
%TO.C,C5*%
G36*
G01*
X150183000Y-122522000D02*
X150183000Y-121572000D01*
G75*
G02*
X150433000Y-121322000I250000J0D01*
G01*
X151108000Y-121322000D01*
G75*
G02*
X151358000Y-121572000I0J-250000D01*
G01*
X151358000Y-122522000D01*
G75*
G02*
X151108000Y-122772000I-250000J0D01*
G01*
X150433000Y-122772000D01*
G75*
G02*
X150183000Y-122522000I0J250000D01*
G01*
G37*
G36*
G01*
X148108000Y-122522000D02*
X148108000Y-121572000D01*
G75*
G02*
X148358000Y-121322000I250000J0D01*
G01*
X149033000Y-121322000D01*
G75*
G02*
X149283000Y-121572000I0J-250000D01*
G01*
X149283000Y-122522000D01*
G75*
G02*
X149033000Y-122772000I-250000J0D01*
G01*
X148358000Y-122772000D01*
G75*
G02*
X148108000Y-122522000I0J250000D01*
G01*
G37*
%TD*%
M02*
