%TF.GenerationSoftware,KiCad,Pcbnew,(5.1.7)-1*%
%TF.CreationDate,2021-10-21T20:27:42-07:00*%
%TF.ProjectId,AnalogBoard_Rev2,416e616c-6f67-4426-9f61-72645f526576,rev?*%
%TF.SameCoordinates,Original*%
%TF.FileFunction,Copper,L1,Top*%
%TF.FilePolarity,Positive*%
%FSLAX46Y46*%
G04 Gerber Fmt 4.6, Leading zero omitted, Abs format (unit mm)*
G04 Created by KiCad (PCBNEW (5.1.7)-1) date 2021-10-21 20:27:42*
%MOMM*%
%LPD*%
G01*
G04 APERTURE LIST*
%TA.AperFunction,Profile*%
%ADD10C,0.050000*%
%TD*%
%TA.AperFunction,ComponentPad*%
%ADD11C,1.440000*%
%TD*%
%TA.AperFunction,ComponentPad*%
%ADD12O,1.700000X1.700000*%
%TD*%
%TA.AperFunction,ComponentPad*%
%ADD13R,1.700000X1.700000*%
%TD*%
%TA.AperFunction,SMDPad,CuDef*%
%ADD14R,1.120000X2.440000*%
%TD*%
%TA.AperFunction,ComponentPad*%
%ADD15O,1.570000X2.290000*%
%TD*%
%TA.AperFunction,ComponentPad*%
%ADD16O,1.600000X1.600000*%
%TD*%
%TA.AperFunction,ComponentPad*%
%ADD17R,1.600000X1.600000*%
%TD*%
%TA.AperFunction,ComponentPad*%
%ADD18C,1.600000*%
%TD*%
%TA.AperFunction,ComponentPad*%
%ADD19O,1.500000X1.500000*%
%TD*%
%TA.AperFunction,ComponentPad*%
%ADD20R,1.500000X1.500000*%
%TD*%
%TA.AperFunction,ViaPad*%
%ADD21C,0.800000*%
%TD*%
%TA.AperFunction,Conductor*%
%ADD22C,0.250000*%
%TD*%
G04 APERTURE END LIST*
D10*
X143250000Y-148100000D02*
X148250000Y-148100000D01*
X143250000Y-153000000D02*
X143250000Y-148100000D01*
X93750000Y-148100000D02*
X88750000Y-148100000D01*
X93750000Y-153000000D02*
X93750000Y-148100000D01*
X143250000Y-42750000D02*
X143250000Y-38500000D01*
X148250000Y-42750000D02*
X143250000Y-42750000D01*
X93750000Y-42750000D02*
X93750000Y-38500000D01*
X88750000Y-42750000D02*
X93750000Y-42750000D01*
X148250000Y-148100000D02*
X148250000Y-126500000D01*
X88750000Y-148100000D02*
X88750000Y-126500000D01*
X122250000Y-126500000D02*
X148250000Y-126500000D01*
X122250000Y-65250000D02*
X148250000Y-65250000D01*
X88750000Y-126500000D02*
X114750000Y-126500000D01*
X88750000Y-65250000D02*
X114750000Y-65250000D01*
X114750000Y-126500000D02*
X114750000Y-65250000D01*
X122250000Y-126500000D02*
X122250000Y-65250000D01*
X148250000Y-42750000D02*
X148250000Y-65250000D01*
X88750000Y-65250000D02*
X88750000Y-42750000D01*
X143250000Y-153000000D02*
X93750000Y-153000000D01*
X93750000Y-38500000D02*
X143250000Y-38500000D01*
D11*
%TO.P,RV4,1*%
%TO.N,GNDD*%
X112014000Y-61722000D03*
%TO.P,RV4,2*%
%TO.N,/TRIM_2*%
X117094000Y-59182000D03*
%TO.P,RV4,3*%
%TO.N,+3V3*%
X112014000Y-56642000D03*
%TD*%
%TO.P,RV3,1*%
%TO.N,GNDD*%
X101727000Y-61722000D03*
%TO.P,RV3,2*%
%TO.N,/TRIM_1*%
X106807000Y-59182000D03*
%TO.P,RV3,3*%
%TO.N,+3V3*%
X101727000Y-56642000D03*
%TD*%
%TO.P,RV2,1*%
%TO.N,/LDRC_2*%
X121000000Y-150250000D03*
%TO.P,RV2,2*%
X126080000Y-147710000D03*
%TO.P,RV2,3*%
%TO.N,Net-(R13-Pad1)*%
X121000000Y-145170000D03*
%TD*%
%TO.P,RV1,1*%
%TO.N,/LDRA_2*%
X110750000Y-145000000D03*
%TO.P,RV1,2*%
X113290000Y-150080000D03*
%TO.P,RV1,3*%
%TO.N,Net-(R12-Pad1)*%
X115830000Y-145000000D03*
%TD*%
D12*
%TO.P,J4,8*%
%TO.N,GND*%
X123470000Y-40500000D03*
%TO.P,J4,7*%
%TO.N,+9V*%
X126010000Y-40500000D03*
%TO.P,J4,6*%
%TO.N,/TRIM_2*%
X128550000Y-40500000D03*
%TO.P,J4,5*%
%TO.N,/TRIM_1*%
X131090000Y-40500000D03*
%TO.P,J4,4*%
%TO.N,-9V*%
X133630000Y-40500000D03*
%TO.P,J4,3*%
%TO.N,/CH2_EFF*%
X136170000Y-40500000D03*
%TO.P,J4,2*%
%TO.N,/CH2_BYP*%
X138710000Y-40500000D03*
D13*
%TO.P,J4,1*%
%TO.N,/IN2*%
X141250000Y-40500000D03*
%TD*%
D14*
%TO.P,SW1,8*%
%TO.N,GNDD*%
X110236000Y-52057000D03*
%TO.P,SW1,4*%
%TO.N,/DIP4*%
X102616000Y-43447000D03*
%TO.P,SW1,7*%
%TO.N,GNDD*%
X107696000Y-52057000D03*
%TO.P,SW1,3*%
%TO.N,/DIP3*%
X105156000Y-43447000D03*
%TO.P,SW1,6*%
%TO.N,GNDD*%
X105156000Y-52057000D03*
%TO.P,SW1,2*%
%TO.N,/DIP2*%
X107696000Y-43447000D03*
%TO.P,SW1,5*%
%TO.N,GNDD*%
X102616000Y-52057000D03*
%TO.P,SW1,1*%
%TO.N,/DIP1*%
X110236000Y-43447000D03*
%TD*%
D12*
%TO.P,J3,6*%
%TO.N,/PWM_VOL2*%
X133550000Y-130000000D03*
%TO.P,J3,5*%
%TO.N,/PWM_VOL2_RTN*%
X136090000Y-130000000D03*
%TO.P,J3,4*%
%TO.N,/PWM_4*%
X138630000Y-130000000D03*
%TO.P,J3,3*%
%TO.N,/PWM_4_RTN*%
X141170000Y-130000000D03*
%TO.P,J3,2*%
%TO.N,/PWM_3*%
X143710000Y-130000000D03*
D13*
%TO.P,J3,1*%
%TO.N,/PWM_3_RTN*%
X146250000Y-130000000D03*
%TD*%
D12*
%TO.P,J2,10*%
%TO.N,GND*%
X118610000Y-40500000D03*
%TO.P,J2,9*%
%TO.N,+3V3*%
X116070000Y-40500000D03*
%TO.P,J2,8*%
%TO.N,/DIP1*%
X113530000Y-40500000D03*
%TO.P,J2,7*%
%TO.N,/DIP2*%
X110990000Y-40500000D03*
%TO.P,J2,6*%
%TO.N,/DIP3*%
X108450000Y-40500000D03*
%TO.P,J2,5*%
%TO.N,/DIP4*%
X105910000Y-40500000D03*
%TO.P,J2,4*%
%TO.N,GNDD*%
X103370000Y-40500000D03*
%TO.P,J2,3*%
%TO.N,/CH1_EFF*%
X100830000Y-40500000D03*
%TO.P,J2,2*%
%TO.N,/CH1_BYP*%
X98290000Y-40500000D03*
D13*
%TO.P,J2,1*%
%TO.N,/IN1*%
X95750000Y-40500000D03*
%TD*%
D12*
%TO.P,J1,6*%
%TO.N,/PWM_VOL1_RTN*%
X103450000Y-130000000D03*
%TO.P,J1,5*%
%TO.N,/PWM_VOL1*%
X100910000Y-130000000D03*
%TO.P,J1,4*%
%TO.N,/PWM_2_RTN*%
X98370000Y-130000000D03*
%TO.P,J1,3*%
%TO.N,/PWM_2*%
X95830000Y-130000000D03*
%TO.P,J1,2*%
%TO.N,/PWM_1_RTN*%
X93290000Y-130000000D03*
D13*
%TO.P,J1,1*%
%TO.N,/PWM_1*%
X90750000Y-130000000D03*
%TD*%
%TO.P,U9,1*%
%TO.N,/PWM_4*%
%TA.AperFunction,ComponentPad*%
G36*
G01*
X134464630Y-135855000D02*
X135535370Y-135855000D01*
G75*
G02*
X135785000Y-136104630I0J-249630D01*
G01*
X135785000Y-137895370D01*
G75*
G02*
X135535370Y-138145000I-249630J0D01*
G01*
X134464630Y-138145000D01*
G75*
G02*
X134215000Y-137895370I0J249630D01*
G01*
X134215000Y-136104630D01*
G75*
G02*
X134464630Y-135855000I249630J0D01*
G01*
G37*
%TD.AperFunction*%
D15*
%TO.P,U9,2*%
%TO.N,/PWM_4_RTN*%
X138200000Y-137000000D03*
%TO.P,U9,3*%
%TO.N,/LDRC_2*%
X137700000Y-140500000D03*
%TO.P,U9,4*%
%TO.N,/LDRD_1*%
X135500000Y-140500000D03*
%TD*%
%TO.P,U8,1*%
%TO.N,/PWM_3*%
%TA.AperFunction,ComponentPad*%
G36*
G01*
X141964630Y-135855000D02*
X143035370Y-135855000D01*
G75*
G02*
X143285000Y-136104630I0J-249630D01*
G01*
X143285000Y-137895370D01*
G75*
G02*
X143035370Y-138145000I-249630J0D01*
G01*
X141964630Y-138145000D01*
G75*
G02*
X141715000Y-137895370I0J249630D01*
G01*
X141715000Y-136104630D01*
G75*
G02*
X141964630Y-135855000I249630J0D01*
G01*
G37*
%TD.AperFunction*%
%TO.P,U8,2*%
%TO.N,/PWM_3_RTN*%
X145700000Y-137000000D03*
%TO.P,U8,3*%
%TO.N,/LDRC_2*%
X145200000Y-140500000D03*
%TO.P,U8,4*%
%TO.N,/LDRC_1*%
X143000000Y-140500000D03*
%TD*%
%TO.P,U7,1*%
%TO.N,/PWM_2*%
%TA.AperFunction,ComponentPad*%
G36*
G01*
X97964630Y-135855000D02*
X99035370Y-135855000D01*
G75*
G02*
X99285000Y-136104630I0J-249630D01*
G01*
X99285000Y-137895370D01*
G75*
G02*
X99035370Y-138145000I-249630J0D01*
G01*
X97964630Y-138145000D01*
G75*
G02*
X97715000Y-137895370I0J249630D01*
G01*
X97715000Y-136104630D01*
G75*
G02*
X97964630Y-135855000I249630J0D01*
G01*
G37*
%TD.AperFunction*%
%TO.P,U7,2*%
%TO.N,/PWM_2_RTN*%
X101700000Y-137000000D03*
%TO.P,U7,3*%
%TO.N,/LDRA_2*%
X101200000Y-140500000D03*
%TO.P,U7,4*%
%TO.N,/LDRB_1*%
X99000000Y-140500000D03*
%TD*%
%TO.P,U6,1*%
%TO.N,/PWM_1*%
%TA.AperFunction,ComponentPad*%
G36*
G01*
X90464630Y-135888000D02*
X91535370Y-135888000D01*
G75*
G02*
X91785000Y-136137630I0J-249630D01*
G01*
X91785000Y-137928370D01*
G75*
G02*
X91535370Y-138178000I-249630J0D01*
G01*
X90464630Y-138178000D01*
G75*
G02*
X90215000Y-137928370I0J249630D01*
G01*
X90215000Y-136137630D01*
G75*
G02*
X90464630Y-135888000I249630J0D01*
G01*
G37*
%TD.AperFunction*%
%TO.P,U6,2*%
%TO.N,/PWM_1_RTN*%
X94200000Y-137033000D03*
%TO.P,U6,3*%
%TO.N,/LDRA_2*%
X93700000Y-140533000D03*
%TO.P,U6,4*%
%TO.N,/LDRA_1*%
X91500000Y-140533000D03*
%TD*%
%TO.P,U13,1*%
%TO.N,/PWM_VOL2*%
%TA.AperFunction,ComponentPad*%
G36*
G01*
X126964630Y-135855000D02*
X128035370Y-135855000D01*
G75*
G02*
X128285000Y-136104630I0J-249630D01*
G01*
X128285000Y-137895370D01*
G75*
G02*
X128035370Y-138145000I-249630J0D01*
G01*
X126964630Y-138145000D01*
G75*
G02*
X126715000Y-137895370I0J249630D01*
G01*
X126715000Y-136104630D01*
G75*
G02*
X126964630Y-135855000I249630J0D01*
G01*
G37*
%TD.AperFunction*%
%TO.P,U13,2*%
%TO.N,/PWM_VOL2_RTN*%
X130700000Y-137000000D03*
%TO.P,U13,3*%
%TO.N,Net-(R13-Pad1)*%
X130200000Y-140500000D03*
%TO.P,U13,4*%
%TO.N,/LDRC_2*%
X128000000Y-140500000D03*
%TD*%
%TO.P,U12,1*%
%TO.N,/PWM_VOL1*%
%TA.AperFunction,ComponentPad*%
G36*
G01*
X105464630Y-135855000D02*
X106535370Y-135855000D01*
G75*
G02*
X106785000Y-136104630I0J-249630D01*
G01*
X106785000Y-137895370D01*
G75*
G02*
X106535370Y-138145000I-249630J0D01*
G01*
X105464630Y-138145000D01*
G75*
G02*
X105215000Y-137895370I0J249630D01*
G01*
X105215000Y-136104630D01*
G75*
G02*
X105464630Y-135855000I249630J0D01*
G01*
G37*
%TD.AperFunction*%
%TO.P,U12,2*%
%TO.N,/PWM_VOL1_RTN*%
X109200000Y-137000000D03*
%TO.P,U12,3*%
%TO.N,Net-(R12-Pad1)*%
X108700000Y-140500000D03*
%TO.P,U12,4*%
%TO.N,/LDRA_2*%
X106500000Y-140500000D03*
%TD*%
D16*
%TO.P,U5,8*%
%TO.N,+9V*%
X121500000Y-52880000D03*
%TO.P,U5,4*%
%TO.N,-9V*%
X129120000Y-60500000D03*
%TO.P,U5,7*%
%TO.N,Net-(R11-Pad1)*%
X124040000Y-52880000D03*
%TO.P,U5,3*%
%TO.N,/CH1_BYP*%
X126580000Y-60500000D03*
%TO.P,U5,6*%
%TO.N,Net-(R11-Pad1)*%
X126580000Y-52880000D03*
%TO.P,U5,2*%
%TO.N,Net-(D2-Pad2)*%
X124040000Y-60500000D03*
%TO.P,U5,5*%
%TO.N,Net-(C10-Pad2)*%
X129120000Y-52880000D03*
D17*
%TO.P,U5,1*%
%TO.N,Net-(D2-Pad1)*%
X121500000Y-60500000D03*
%TD*%
D16*
%TO.P,U4,8*%
%TO.N,+9V*%
X130500000Y-143880000D03*
%TO.P,U4,4*%
%TO.N,-9V*%
X138120000Y-151500000D03*
%TO.P,U4,7*%
%TO.N,/LDRD_1*%
X133040000Y-143880000D03*
%TO.P,U4,3*%
%TO.N,Net-(C8-Pad2)*%
X135580000Y-151500000D03*
%TO.P,U4,6*%
%TO.N,/LDRD_1*%
X135580000Y-143880000D03*
%TO.P,U4,2*%
%TO.N,/LDRC_1*%
X133040000Y-151500000D03*
%TO.P,U4,5*%
%TO.N,Net-(C5-Pad1)*%
X138120000Y-143880000D03*
D17*
%TO.P,U4,1*%
%TO.N,/LDRC_1*%
X130500000Y-151500000D03*
%TD*%
D16*
%TO.P,U3,8*%
%TO.N,+9V*%
X106500000Y-151620000D03*
%TO.P,U3,4*%
%TO.N,-9V*%
X98880000Y-144000000D03*
%TO.P,U3,7*%
%TO.N,/LDRB_1*%
X103960000Y-151620000D03*
%TO.P,U3,3*%
%TO.N,Net-(C7-Pad2)*%
X101420000Y-144000000D03*
%TO.P,U3,6*%
%TO.N,/LDRB_1*%
X101420000Y-151620000D03*
%TO.P,U3,2*%
%TO.N,/LDRA_1*%
X103960000Y-144000000D03*
%TO.P,U3,5*%
%TO.N,Net-(C4-Pad1)*%
X98880000Y-151620000D03*
D17*
%TO.P,U3,1*%
%TO.N,/LDRA_1*%
X106500000Y-144000000D03*
%TD*%
D16*
%TO.P,U2,8*%
%TO.N,+9V*%
X146870000Y-51000000D03*
%TO.P,U2,4*%
%TO.N,-9V*%
X139250000Y-58620000D03*
%TO.P,U2,7*%
%TO.N,/CH2_EFF*%
X146870000Y-53540000D03*
%TO.P,U2,3*%
%TO.N,Net-(C2-Pad1)*%
X139250000Y-56080000D03*
%TO.P,U2,6*%
%TO.N,/LDRC_2*%
X146870000Y-56080000D03*
%TO.P,U2,2*%
%TO.N,/CH2_BYP*%
X139250000Y-53540000D03*
%TO.P,U2,5*%
%TO.N,GND*%
X146870000Y-58620000D03*
D17*
%TO.P,U2,1*%
%TO.N,/CH2_BYP*%
X139250000Y-51000000D03*
%TD*%
D16*
%TO.P,U1,8*%
%TO.N,+9V*%
X97870000Y-51000000D03*
%TO.P,U1,4*%
%TO.N,-9V*%
X90250000Y-58620000D03*
%TO.P,U1,7*%
%TO.N,/CH1_EFF*%
X97870000Y-53540000D03*
%TO.P,U1,3*%
%TO.N,Net-(C1-Pad1)*%
X90250000Y-56080000D03*
%TO.P,U1,6*%
%TO.N,/LDRA_2*%
X97870000Y-56080000D03*
%TO.P,U1,2*%
%TO.N,/CH1_BYP*%
X90250000Y-53540000D03*
%TO.P,U1,5*%
%TO.N,GND*%
X97870000Y-58620000D03*
D17*
%TO.P,U1,1*%
%TO.N,/CH1_BYP*%
X90250000Y-51000000D03*
%TD*%
D16*
%TO.P,R13,2*%
%TO.N,/CH2_EFF*%
X120250000Y-106630000D03*
D18*
%TO.P,R13,1*%
%TO.N,Net-(R13-Pad1)*%
X120250000Y-114250000D03*
%TD*%
D16*
%TO.P,R12,2*%
%TO.N,/CH1_EFF*%
X116750000Y-106630000D03*
D18*
%TO.P,R12,1*%
%TO.N,Net-(R12-Pad1)*%
X116750000Y-114250000D03*
%TD*%
D16*
%TO.P,R11,2*%
%TO.N,/ENV_OUT*%
X117856000Y-43815000D03*
D18*
%TO.P,R11,1*%
%TO.N,Net-(R11-Pad1)*%
X125476000Y-43815000D03*
%TD*%
D16*
%TO.P,R10,2*%
%TO.N,GND*%
X136000000Y-60370000D03*
D18*
%TO.P,R10,1*%
%TO.N,Net-(C10-Pad2)*%
X136000000Y-52750000D03*
%TD*%
D16*
%TO.P,R9,2*%
%TO.N,Net-(C10-Pad2)*%
X132500000Y-52880000D03*
D18*
%TO.P,R9,1*%
%TO.N,Net-(D3-Pad1)*%
X132500000Y-60500000D03*
%TD*%
D16*
%TO.P,R8,2*%
%TO.N,Net-(D3-Pad1)*%
X114681000Y-50927000D03*
D18*
%TO.P,R8,1*%
%TO.N,Net-(D2-Pad2)*%
X114681000Y-43307000D03*
%TD*%
D16*
%TO.P,R7,2*%
%TO.N,Net-(C5-Pad1)*%
X120250000Y-127620000D03*
D18*
%TO.P,R7,1*%
%TO.N,GND*%
X120250000Y-120000000D03*
%TD*%
D16*
%TO.P,R6,2*%
%TO.N,Net-(C4-Pad1)*%
X116750000Y-127620000D03*
D18*
%TO.P,R6,1*%
%TO.N,GND*%
X116750000Y-120000000D03*
%TD*%
D16*
%TO.P,R5,2*%
%TO.N,GND*%
X120250000Y-74803000D03*
D18*
%TO.P,R5,1*%
%TO.N,Net-(D2-Pad2)*%
X120250000Y-67183000D03*
%TD*%
D16*
%TO.P,R4,2*%
%TO.N,Net-(C8-Pad2)*%
X130870000Y-130000000D03*
D18*
%TO.P,R4,1*%
%TO.N,/CH2_BYP*%
X123250000Y-130000000D03*
%TD*%
D16*
%TO.P,R3,2*%
%TO.N,Net-(C7-Pad2)*%
X106130000Y-130000000D03*
D18*
%TO.P,R3,1*%
%TO.N,/CH1_BYP*%
X113750000Y-130000000D03*
%TD*%
D16*
%TO.P,R2,2*%
%TO.N,Net-(C2-Pad1)*%
X139130000Y-62000000D03*
D18*
%TO.P,R2,1*%
%TO.N,GND*%
X146750000Y-62000000D03*
%TD*%
D16*
%TO.P,R1,2*%
%TO.N,Net-(C1-Pad1)*%
X90130000Y-62250000D03*
D18*
%TO.P,R1,1*%
%TO.N,GND*%
X97750000Y-62250000D03*
%TD*%
D19*
%TO.P,D4,2*%
%TO.N,GND*%
X136017000Y-43561000D03*
D20*
%TO.P,D4,1*%
%TO.N,/ENV_OUT*%
X128397000Y-43561000D03*
%TD*%
D16*
%TO.P,D3,2*%
%TO.N,Net-(D2-Pad1)*%
X117729000Y-50038000D03*
D17*
%TO.P,D3,1*%
%TO.N,Net-(D3-Pad1)*%
X125349000Y-50038000D03*
%TD*%
D16*
%TO.P,D2,2*%
%TO.N,Net-(D2-Pad2)*%
X125222000Y-47244000D03*
D17*
%TO.P,D2,1*%
%TO.N,Net-(D2-Pad1)*%
X117602000Y-47244000D03*
%TD*%
D18*
%TO.P,C11,2*%
%TO.N,/ENV_OUT*%
X130270000Y-48768000D03*
D17*
%TO.P,C11,1*%
%TO.N,GND*%
X128270000Y-48768000D03*
%TD*%
D18*
%TO.P,C10,2*%
%TO.N,Net-(C10-Pad2)*%
X134017000Y-48768000D03*
D17*
%TO.P,C10,1*%
%TO.N,GND*%
X136017000Y-48768000D03*
%TD*%
D18*
%TO.P,C8,2*%
%TO.N,Net-(C8-Pad2)*%
X141500000Y-145000000D03*
%TO.P,C8,1*%
%TO.N,GND*%
X146500000Y-145000000D03*
%TD*%
%TO.P,C7,2*%
%TO.N,Net-(C7-Pad2)*%
X95500000Y-145000000D03*
%TO.P,C7,1*%
%TO.N,GND*%
X90500000Y-145000000D03*
%TD*%
%TO.P,C5,2*%
%TO.N,/CH2_BYP*%
X121500000Y-138500000D03*
%TO.P,C5,1*%
%TO.N,Net-(C5-Pad1)*%
X121500000Y-133500000D03*
%TD*%
%TO.P,C4,2*%
%TO.N,/CH1_BYP*%
X115500000Y-133500000D03*
%TO.P,C4,1*%
%TO.N,Net-(C4-Pad1)*%
X115500000Y-138500000D03*
%TD*%
%TO.P,C2,2*%
%TO.N,/IN2*%
X146500000Y-45600000D03*
%TO.P,C2,1*%
%TO.N,Net-(C2-Pad1)*%
X141500000Y-45600000D03*
%TD*%
%TO.P,C1,2*%
%TO.N,/IN1*%
X91000000Y-45600000D03*
%TO.P,C1,1*%
%TO.N,Net-(C1-Pad1)*%
X96000000Y-45600000D03*
%TD*%
D21*
%TO.N,GND*%
X108500000Y-147000000D03*
X97000000Y-147750000D03*
X128500000Y-148500000D03*
X140000000Y-146750000D03*
X142212500Y-53462500D03*
X132212500Y-55712500D03*
X124212500Y-57787500D03*
X93250000Y-53000000D03*
%TO.N,/CH1_BYP*%
X116205000Y-61214000D03*
X115824000Y-63246000D03*
%TO.N,/LDRA_2*%
X116000002Y-150250000D03*
%TD*%
D22*
%TO.N,/IN1*%
X91750000Y-45600000D02*
X91000000Y-45600000D01*
X95750000Y-41600000D02*
X91750000Y-45600000D01*
X95750000Y-40500000D02*
X95750000Y-41600000D01*
%TO.N,Net-(C1-Pad1)*%
X90130000Y-62250000D02*
X92500000Y-59880000D01*
X92500000Y-58330000D02*
X90250000Y-56080000D01*
X92500000Y-59880000D02*
X92500000Y-58330000D01*
%TO.N,/IN2*%
X145250000Y-45600000D02*
X146500000Y-45600000D01*
X141250000Y-41600000D02*
X145250000Y-45600000D01*
X141250000Y-40500000D02*
X141250000Y-41600000D01*
%TO.N,Net-(C2-Pad1)*%
X139250000Y-56080000D02*
X140750000Y-57580000D01*
X140750000Y-57580000D02*
X140750000Y-59750000D01*
X139130000Y-61370000D02*
X139130000Y-62000000D01*
X140750000Y-59750000D02*
X139130000Y-61370000D01*
X142937501Y-46687501D02*
X142937501Y-54812499D01*
X141500000Y-45250000D02*
X142937501Y-46687501D01*
X141670000Y-56080000D02*
X139250000Y-56080000D01*
X142937501Y-54812499D02*
X141670000Y-56080000D01*
%TO.N,/CH1_BYP*%
X90250000Y-53540000D02*
X90250000Y-51000000D01*
X115824000Y-63246000D02*
X115824000Y-63246000D01*
X115824000Y-63246000D02*
X115320001Y-63749999D01*
X90250000Y-53540000D02*
X94500000Y-57790000D01*
X94500000Y-60665002D02*
X97584997Y-63749999D01*
X94500000Y-57790000D02*
X94500000Y-60665002D01*
X114750001Y-63749999D02*
X112250000Y-63749999D01*
X97584997Y-63749999D02*
X114750001Y-63749999D01*
X115320001Y-63749999D02*
X114750001Y-63749999D01*
X125004989Y-62075011D02*
X126580000Y-60500000D01*
X120253599Y-62075011D02*
X125004989Y-62075011D01*
X119392588Y-61214000D02*
X120253599Y-62075011D01*
X116205000Y-61214000D02*
X119392588Y-61214000D01*
X113750000Y-131750000D02*
X115500000Y-133500000D01*
X113750000Y-130000000D02*
X113750000Y-131750000D01*
X98290000Y-41644998D02*
X98290000Y-40500000D01*
X90250000Y-49684998D02*
X98290000Y-41644998D01*
X90250000Y-51000000D02*
X90250000Y-49684998D01*
X115824000Y-63246000D02*
X115750000Y-63320000D01*
X115174989Y-113825011D02*
X115100010Y-113899990D01*
X115750000Y-63320000D02*
X115174989Y-63895011D01*
X115174989Y-108075011D02*
X115174989Y-113825011D01*
X115174989Y-63895011D02*
X115174989Y-108075011D01*
X113750000Y-128750000D02*
X113750000Y-130000000D01*
X117875001Y-124624999D02*
X113750000Y-128750000D01*
X117875001Y-112875001D02*
X117875001Y-124624999D01*
X115174989Y-110174989D02*
X117875001Y-112875001D01*
X115174989Y-108075011D02*
X115174989Y-110174989D01*
%TO.N,Net-(C4-Pad1)*%
X116500000Y-127620000D02*
X117500000Y-128620000D01*
X117500000Y-136500000D02*
X115500000Y-138500000D01*
X117500000Y-128620000D02*
X117500000Y-136500000D01*
X117750000Y-147176998D02*
X117750000Y-140750000D01*
X117750000Y-140750000D02*
X116299999Y-139299999D01*
X109750000Y-152000000D02*
X112926998Y-152000000D01*
X107250000Y-149500000D02*
X109750000Y-152000000D01*
X116299999Y-139299999D02*
X115500000Y-138500000D01*
X112926998Y-152000000D02*
X117750000Y-147176998D01*
X101000000Y-149500000D02*
X107250000Y-149500000D01*
X98880000Y-151620000D02*
X101000000Y-149500000D01*
%TO.N,/CH2_BYP*%
X139250000Y-51000000D02*
X139250000Y-53540000D01*
%TO.N,Net-(C5-Pad1)*%
X138120000Y-143880000D02*
X140250000Y-141750000D01*
X136629791Y-133500000D02*
X121500000Y-133500000D01*
X140250000Y-137120209D02*
X136629791Y-133500000D01*
X140250000Y-141750000D02*
X140250000Y-137120209D01*
%TO.N,/CH2_BYP*%
X123250000Y-130000000D02*
X120250000Y-130000000D01*
X138710000Y-44960000D02*
X139250000Y-45500000D01*
X138710000Y-40500000D02*
X138710000Y-44960000D01*
X139250000Y-51000000D02*
X139250000Y-45500000D01*
X138124999Y-59910003D02*
X138124999Y-54665001D01*
X121122801Y-62900019D02*
X135134983Y-62900019D01*
X117349978Y-66672842D02*
X121122801Y-62900019D01*
X135134983Y-62900019D02*
X138124999Y-59910003D01*
X117349978Y-77220800D02*
X117349978Y-66672842D01*
X118549989Y-78420811D02*
X117349978Y-77220800D01*
X118549989Y-109913578D02*
X118549989Y-78420811D01*
X118950011Y-110313600D02*
X118549989Y-109913578D01*
X118950011Y-128700011D02*
X118950011Y-110313600D01*
X138124999Y-54665001D02*
X139250000Y-53540000D01*
X120250000Y-130000000D02*
X118950011Y-128700011D01*
X118950011Y-135950011D02*
X121500000Y-138500000D01*
X118950011Y-131299989D02*
X118950011Y-135950011D01*
X120250000Y-130000000D02*
X118950011Y-131299989D01*
%TO.N,Net-(C7-Pad2)*%
X96299999Y-145799999D02*
X99620001Y-145799999D01*
X99620001Y-145799999D02*
X101420000Y-144000000D01*
X95500000Y-145000000D02*
X96299999Y-145799999D01*
X106130000Y-130000000D02*
X103130000Y-133000000D01*
X103130000Y-133000000D02*
X92250000Y-133000000D01*
X89889990Y-135360010D02*
X89889990Y-142139990D01*
X92250000Y-133000000D02*
X89889990Y-135360010D01*
X92750000Y-145000000D02*
X95500000Y-145000000D01*
X89889990Y-142139990D02*
X92750000Y-145000000D01*
%TO.N,Net-(C8-Pad2)*%
X141500000Y-146454998D02*
X141500000Y-145000000D01*
X136454998Y-151500000D02*
X141500000Y-146454998D01*
X135580000Y-151500000D02*
X136454998Y-151500000D01*
X141500000Y-145000000D02*
X143500000Y-145000000D01*
X146810010Y-141689990D02*
X146810010Y-135310010D01*
X143500000Y-145000000D02*
X146810010Y-141689990D01*
X146810010Y-135310010D02*
X143750000Y-132250000D01*
X133120000Y-132250000D02*
X130870000Y-130000000D01*
X143750000Y-132250000D02*
X133120000Y-132250000D01*
%TO.N,Net-(C10-Pad2)*%
X132500000Y-52880000D02*
X129120000Y-52880000D01*
X135870000Y-52880000D02*
X136000000Y-52750000D01*
X132500000Y-52880000D02*
X135870000Y-52880000D01*
X134017000Y-51363000D02*
X132500000Y-52880000D01*
X134017000Y-48768000D02*
X134017000Y-51363000D01*
%TO.N,/ENV_OUT*%
X127525999Y-42689999D02*
X128397000Y-43561000D01*
X118981001Y-42689999D02*
X127525999Y-42689999D01*
X117856000Y-43815000D02*
X118981001Y-42689999D01*
X130270000Y-45434000D02*
X130270000Y-48768000D01*
X128397000Y-43561000D02*
X130270000Y-45434000D01*
%TO.N,Net-(D2-Pad2)*%
X122918001Y-44940001D02*
X125222000Y-47244000D01*
X116314001Y-44940001D02*
X122918001Y-44940001D01*
X114681000Y-43307000D02*
X116314001Y-44940001D01*
X114681000Y-43307000D02*
X113538000Y-44450000D01*
X117278990Y-56318990D02*
X117278990Y-57588990D01*
X113538000Y-52578000D02*
X117278990Y-56318990D01*
X113538000Y-44450000D02*
X113538000Y-52578000D01*
X122914999Y-61625001D02*
X124040000Y-60500000D01*
X120439999Y-61625001D02*
X122914999Y-61625001D01*
X120374999Y-61560001D02*
X120439999Y-61625001D01*
X120374999Y-60684999D02*
X120374999Y-61560001D01*
X117278990Y-57588990D02*
X120374999Y-60684999D01*
%TO.N,Net-(D2-Pad1)*%
X117602000Y-49911000D02*
X117729000Y-50038000D01*
X117602000Y-47244000D02*
X117602000Y-49911000D01*
X117729000Y-56729000D02*
X117729000Y-50038000D01*
X121500000Y-60500000D02*
X117729000Y-56729000D01*
%TO.N,Net-(D3-Pad1)*%
X114681000Y-47979998D02*
X116940998Y-45720000D01*
X114681000Y-50927000D02*
X114681000Y-47979998D01*
X121031000Y-45720000D02*
X125349000Y-50038000D01*
X116940998Y-45720000D02*
X121031000Y-45720000D01*
X124299000Y-50038000D02*
X122682000Y-51655000D01*
X125349000Y-50038000D02*
X124299000Y-50038000D01*
X131374999Y-59374999D02*
X132500000Y-60500000D01*
X128869997Y-59374999D02*
X131374999Y-59374999D01*
X122682000Y-53187002D02*
X128869997Y-59374999D01*
X122682000Y-51655000D02*
X122682000Y-53187002D01*
%TO.N,Net-(R11-Pad1)*%
X124040000Y-52880000D02*
X126580000Y-52880000D01*
X126580000Y-52880000D02*
X126580000Y-44919000D01*
X126580000Y-44919000D02*
X125476000Y-43815000D01*
%TO.N,/CH1_EFF*%
X96744999Y-52414999D02*
X97870000Y-53540000D01*
X96744999Y-50459999D02*
X96744999Y-52414999D01*
X97125001Y-50079997D02*
X96744999Y-50459999D01*
X97919991Y-49285007D02*
X96744999Y-50459999D01*
X97919991Y-43410009D02*
X97919991Y-49285007D01*
X100830000Y-40500000D02*
X97919991Y-43410009D01*
X114300000Y-61976000D02*
X116713001Y-61976000D01*
X116899967Y-66486443D02*
X116899967Y-77407200D01*
X117299999Y-105830001D02*
X116500000Y-106630000D01*
X116713001Y-61976000D02*
X118875304Y-64138304D01*
X113426022Y-62849978D02*
X114300000Y-61976000D01*
X118875304Y-64138304D02*
X118875304Y-64511106D01*
X100006989Y-61651579D02*
X101205388Y-62849978D01*
X97870000Y-53540000D02*
X100006989Y-55676989D01*
X101205388Y-62849978D02*
X113426022Y-62849978D01*
X100006989Y-55676989D02*
X100006989Y-61651579D01*
X117299999Y-77807232D02*
X117299999Y-105830001D01*
X116899967Y-77407200D02*
X117299999Y-77807232D01*
X118875304Y-64511106D02*
X116899967Y-66486443D01*
%TO.N,Net-(R12-Pad1)*%
X108700000Y-141450000D02*
X108700000Y-140500000D01*
X112250000Y-145000000D02*
X108700000Y-141450000D01*
X115580000Y-145000000D02*
X112250000Y-145000000D01*
X110310010Y-130439990D02*
X113000000Y-127750000D01*
X110310010Y-138889990D02*
X110310010Y-130439990D01*
X108700000Y-140500000D02*
X110310010Y-138889990D01*
X113000000Y-127750000D02*
X113250000Y-127750000D01*
X113750000Y-127750000D02*
X114000000Y-127750000D01*
X113250000Y-127750000D02*
X113750000Y-127750000D01*
X115750000Y-115000000D02*
X116500000Y-114250000D01*
X115750000Y-119334998D02*
X115750000Y-115000000D01*
X115624999Y-120540001D02*
X115624999Y-119459999D01*
X115624999Y-119459999D02*
X115750000Y-119334998D01*
X115750000Y-120665002D02*
X115624999Y-120540001D01*
X115750000Y-125994988D02*
X115750000Y-125500000D01*
X113994988Y-127750000D02*
X115750000Y-125994988D01*
X113000000Y-127750000D02*
X113994988Y-127750000D01*
X115750000Y-125500000D02*
X115750000Y-120665002D01*
%TO.N,/CH2_EFF*%
X146870000Y-53540000D02*
X144750000Y-51420000D01*
X144750000Y-51420000D02*
X144750000Y-46750000D01*
X144750000Y-46750000D02*
X140000000Y-42000000D01*
X137345001Y-39324999D02*
X136170000Y-40500000D01*
X139274001Y-39324999D02*
X137345001Y-39324999D01*
X140000000Y-40050998D02*
X139274001Y-39324999D01*
X140000000Y-42000000D02*
X140000000Y-40050998D01*
X118250000Y-76848000D02*
X118250000Y-67045640D01*
X120750000Y-79348000D02*
X118250000Y-76848000D01*
X120750000Y-106630000D02*
X120750000Y-79348000D01*
X121495600Y-63800040D02*
X141199960Y-63800040D01*
X118250000Y-67045640D02*
X121495600Y-63800040D01*
X145738630Y-53540000D02*
X143250000Y-56028630D01*
X146870000Y-53540000D02*
X145738630Y-53540000D01*
X143250000Y-61750000D02*
X141199960Y-63800040D01*
X143250000Y-56028630D02*
X143250000Y-61750000D01*
%TO.N,Net-(R13-Pad1)*%
X130200000Y-140500000D02*
X128700000Y-139000000D01*
X127170000Y-139000000D02*
X121000000Y-145170000D01*
X127250000Y-139000000D02*
X127170000Y-139000000D01*
X128700000Y-139000000D02*
X127250000Y-139000000D01*
X124500000Y-139000000D02*
X119500000Y-134000000D01*
X119500000Y-134000000D02*
X119500000Y-131500000D01*
X119500000Y-131500000D02*
X124000000Y-131500000D01*
X124000000Y-131500000D02*
X124750000Y-130750000D01*
X124750000Y-130750000D02*
X124750000Y-128500000D01*
X124750000Y-128500000D02*
X124250000Y-128000000D01*
X127250000Y-139000000D02*
X124500000Y-139000000D01*
X124250000Y-128000000D02*
X122250000Y-128000000D01*
X122250000Y-128000000D02*
X121250000Y-127000000D01*
X121375001Y-121374999D02*
X121250000Y-121500000D01*
X121375001Y-115375001D02*
X121375001Y-121374999D01*
X120250000Y-114250000D02*
X121375001Y-115375001D01*
X121250000Y-127000000D02*
X121250000Y-121500000D01*
%TO.N,/LDRA_2*%
X99729990Y-139029990D02*
X101200000Y-140500000D01*
X95203010Y-139029990D02*
X99729990Y-139029990D01*
X93700000Y-140533000D02*
X95203010Y-139029990D01*
X101200000Y-140500000D02*
X106500000Y-140500000D01*
X106500000Y-141000000D02*
X106500000Y-140500000D01*
X110500000Y-145000000D02*
X106500000Y-141000000D01*
X113040000Y-147540000D02*
X110500000Y-145000000D01*
X113040000Y-150080000D02*
X113040000Y-147540000D01*
X99556978Y-57766978D02*
X99556978Y-61837979D01*
X101018988Y-63299989D02*
X113612422Y-63299989D01*
X116526601Y-62426011D02*
X118425295Y-64324705D01*
X99556978Y-61837979D02*
X101018988Y-63299989D01*
X118425295Y-64324705D02*
X115624999Y-67125001D01*
X118500000Y-110500000D02*
X118500000Y-147750002D01*
X118500000Y-147750002D02*
X116000002Y-150250000D01*
X115624999Y-107624999D02*
X118500000Y-110500000D01*
X115624999Y-67125001D02*
X115624999Y-107624999D01*
X114486400Y-62426011D02*
X116526601Y-62426011D01*
X113612422Y-63299989D02*
X114486400Y-62426011D01*
X97870000Y-56080000D02*
X99556978Y-57766978D01*
%TO.N,/LDRC_2*%
X123540000Y-150250000D02*
X126080000Y-147710000D01*
X121000000Y-150250000D02*
X123540000Y-150250000D01*
X128000000Y-140500000D02*
X128000000Y-146500000D01*
X126790000Y-147710000D02*
X126080000Y-147710000D01*
X128000000Y-146500000D02*
X126790000Y-147710000D01*
X128000000Y-140500000D02*
X129750000Y-142250000D01*
X135950000Y-142250000D02*
X137700000Y-140500000D01*
X129750000Y-142250000D02*
X132250000Y-142250000D01*
X132250000Y-142250000D02*
X135950000Y-142250000D01*
X137700000Y-140500000D02*
X135950000Y-138750000D01*
X134506594Y-138750000D02*
X132750000Y-136993406D01*
X135950000Y-138750000D02*
X134506594Y-138750000D01*
X132750000Y-136993406D02*
X132750000Y-135750000D01*
X132750000Y-135750000D02*
X132250000Y-135250000D01*
X121584998Y-135250000D02*
X120000000Y-133665002D01*
X132250000Y-135250000D02*
X121584998Y-135250000D01*
X120000000Y-133665002D02*
X120000000Y-132750000D01*
X124186401Y-131950009D02*
X125250000Y-130886410D01*
X120799990Y-131950010D02*
X124186401Y-131950009D01*
X120000000Y-132750000D02*
X120799990Y-131950010D01*
X122500000Y-127500000D02*
X121700010Y-126700010D01*
X124386410Y-127500000D02*
X122500000Y-127500000D01*
X125250000Y-128363590D02*
X124386410Y-127500000D01*
X125250000Y-130886410D02*
X125250000Y-128363590D01*
X121825011Y-64924989D02*
X122499950Y-64250050D01*
X121825011Y-121561399D02*
X121825011Y-64924989D01*
X121700010Y-121686400D02*
X121825011Y-121561399D01*
X121700010Y-126700010D02*
X121700010Y-121686400D01*
X122499950Y-64250050D02*
X141749950Y-64250050D01*
X141749950Y-64250050D02*
X145250000Y-60750000D01*
X145250000Y-57700000D02*
X146870000Y-56080000D01*
X145250000Y-60750000D02*
X145250000Y-57700000D01*
%TO.N,/LDRB_1*%
X101420000Y-151620000D02*
X103960000Y-151620000D01*
%TO.N,/LDRA_1*%
X106500000Y-144000000D02*
X103960000Y-144000000D01*
X93003010Y-142003010D02*
X91533000Y-140533000D01*
X101963010Y-142003010D02*
X93003010Y-142003010D01*
X91533000Y-140533000D02*
X91500000Y-140533000D01*
X103960000Y-144000000D02*
X101963010Y-142003010D01*
%TO.N,/LDRD_1*%
X135580000Y-143880000D02*
X133040000Y-143880000D01*
%TO.N,/LDRC_1*%
X133040000Y-151500000D02*
X130500000Y-151500000D01*
X143000000Y-140500000D02*
X143000000Y-141500000D01*
X133040000Y-151460000D02*
X133040000Y-151500000D01*
X143000000Y-141500000D02*
X133040000Y-151460000D01*
%TO.N,GNDD*%
X112014000Y-61722000D02*
X101727000Y-61722000D01*
X110236000Y-52057000D02*
X102616000Y-52057000D01*
X102592000Y-52081000D02*
X102616000Y-52057000D01*
X101716000Y-52081000D02*
X102592000Y-52081000D01*
X101727000Y-61722000D02*
X100457000Y-60452000D01*
X100457000Y-60452000D02*
X100457000Y-53340000D01*
X100457000Y-53340000D02*
X101716000Y-52081000D01*
X102616000Y-52057000D02*
X102616000Y-50366000D01*
X102616000Y-50366000D02*
X100250000Y-48000000D01*
X103197998Y-40500000D02*
X103370000Y-40500000D01*
X100250000Y-43447998D02*
X103197998Y-40500000D01*
X100250000Y-48000000D02*
X100250000Y-43447998D01*
%TO.N,/DIP4*%
X102190000Y-43021000D02*
X102616000Y-43447000D01*
X105563000Y-40500000D02*
X105910000Y-40500000D01*
X102616000Y-43447000D02*
X105563000Y-40500000D01*
%TO.N,/DIP2*%
X110196500Y-40500000D02*
X110990000Y-40500000D01*
X107696000Y-43000500D02*
X110196500Y-40500000D01*
X107696000Y-43447000D02*
X107696000Y-43000500D01*
%TO.N,/DIP3*%
X108103000Y-40500000D02*
X108450000Y-40500000D01*
X105156000Y-43447000D02*
X108103000Y-40500000D01*
%TO.N,/DIP1*%
X110583000Y-43447000D02*
X113530000Y-40500000D01*
X110236000Y-43447000D02*
X110583000Y-43447000D01*
%TO.N,+3V3*%
X101727000Y-56642000D02*
X112014000Y-56642000D01*
X112014000Y-56642000D02*
X112014000Y-49264000D01*
X112014000Y-49264000D02*
X109250000Y-46500000D01*
X109250000Y-46500000D02*
X109250000Y-42082910D01*
X109250000Y-42082910D02*
X109582910Y-41750000D01*
X109582910Y-41750000D02*
X111643590Y-41750000D01*
X114894999Y-39324999D02*
X116070000Y-40500000D01*
X112965999Y-39324999D02*
X114894999Y-39324999D01*
X112354999Y-41038591D02*
X112354999Y-39935999D01*
X112354999Y-39935999D02*
X112965999Y-39324999D01*
X111643590Y-41750000D02*
X112354999Y-41038591D01*
%TO.N,/TRIM_2*%
X116374001Y-58462001D02*
X117094000Y-59182000D01*
X112914022Y-43472388D02*
X112914022Y-52968612D01*
X126868000Y-42182000D02*
X114204410Y-42182000D01*
X116374001Y-56428591D02*
X116374001Y-58462001D01*
X114204410Y-42182000D02*
X112914022Y-43472388D01*
X112914022Y-52968612D02*
X116374001Y-56428591D01*
X128550000Y-40500000D02*
X126868000Y-42182000D01*
%TO.N,/TRIM_1*%
X127985999Y-39324999D02*
X129914999Y-39324999D01*
X127374999Y-39935999D02*
X127985999Y-39324999D01*
X127374999Y-40874003D02*
X127374999Y-39935999D01*
X126517013Y-41731989D02*
X127374999Y-40874003D01*
X113059001Y-57882999D02*
X113059001Y-53750001D01*
X111760000Y-59182000D02*
X113059001Y-57882999D01*
X129914999Y-39324999D02*
X131090000Y-40500000D01*
X112464011Y-53155011D02*
X112464011Y-43285989D01*
X114018011Y-41731989D02*
X126517013Y-41731989D01*
X106807000Y-59182000D02*
X111760000Y-59182000D01*
X113059001Y-53750001D02*
X112464011Y-53155011D01*
X112464011Y-43285989D02*
X114018011Y-41731989D01*
%TD*%
M02*
