%TF.GenerationSoftware,KiCad,Pcbnew,(5.1.7)-1*%
%TF.CreationDate,2021-10-21T20:27:42-07:00*%
%TF.ProjectId,AnalogBoard_Rev2,416e616c-6f67-4426-9f61-72645f526576,rev?*%
%TF.SameCoordinates,Original*%
%TF.FileFunction,Paste,Bot*%
%TF.FilePolarity,Positive*%
%FSLAX46Y46*%
G04 Gerber Fmt 4.6, Leading zero omitted, Abs format (unit mm)*
G04 Created by KiCad (PCBNEW (5.1.7)-1) date 2021-10-21 20:27:42*
%MOMM*%
%LPD*%
G01*
G04 APERTURE LIST*
%TA.AperFunction,Profile*%
%ADD10C,0.050000*%
%TD*%
G04 APERTURE END LIST*
D10*
X143250000Y-148100000D02*
X148250000Y-148100000D01*
X143250000Y-153000000D02*
X143250000Y-148100000D01*
X93750000Y-148100000D02*
X88750000Y-148100000D01*
X93750000Y-153000000D02*
X93750000Y-148100000D01*
X143250000Y-42750000D02*
X143250000Y-38500000D01*
X148250000Y-42750000D02*
X143250000Y-42750000D01*
X93750000Y-42750000D02*
X93750000Y-38500000D01*
X88750000Y-42750000D02*
X93750000Y-42750000D01*
X148250000Y-148100000D02*
X148250000Y-126500000D01*
X88750000Y-148100000D02*
X88750000Y-126500000D01*
X122250000Y-126500000D02*
X148250000Y-126500000D01*
X122250000Y-65250000D02*
X148250000Y-65250000D01*
X88750000Y-126500000D02*
X114750000Y-126500000D01*
X88750000Y-65250000D02*
X114750000Y-65250000D01*
X114750000Y-126500000D02*
X114750000Y-65250000D01*
X122250000Y-126500000D02*
X122250000Y-65250000D01*
X148250000Y-42750000D02*
X148250000Y-65250000D01*
X88750000Y-65250000D02*
X88750000Y-42750000D01*
X143250000Y-153000000D02*
X93750000Y-153000000D01*
X93750000Y-38500000D02*
X143250000Y-38500000D01*
%TO.C,C20*%
G36*
G01*
X139911001Y-45328000D02*
X137710999Y-45328000D01*
G75*
G02*
X137461000Y-45078001I0J249999D01*
G01*
X137461000Y-44252999D01*
G75*
G02*
X137710999Y-44003000I249999J0D01*
G01*
X139911001Y-44003000D01*
G75*
G02*
X140161000Y-44252999I0J-249999D01*
G01*
X140161000Y-45078001D01*
G75*
G02*
X139911001Y-45328000I-249999J0D01*
G01*
G37*
G36*
G01*
X139911001Y-48453000D02*
X137710999Y-48453000D01*
G75*
G02*
X137461000Y-48203001I0J249999D01*
G01*
X137461000Y-47377999D01*
G75*
G02*
X137710999Y-47128000I249999J0D01*
G01*
X139911001Y-47128000D01*
G75*
G02*
X140161000Y-47377999I0J-249999D01*
G01*
X140161000Y-48203001D01*
G75*
G02*
X139911001Y-48453000I-249999J0D01*
G01*
G37*
%TD*%
%TO.C,C19*%
G36*
G01*
X122639001Y-45455000D02*
X120438999Y-45455000D01*
G75*
G02*
X120189000Y-45205001I0J249999D01*
G01*
X120189000Y-44379999D01*
G75*
G02*
X120438999Y-44130000I249999J0D01*
G01*
X122639001Y-44130000D01*
G75*
G02*
X122889000Y-44379999I0J-249999D01*
G01*
X122889000Y-45205001D01*
G75*
G02*
X122639001Y-45455000I-249999J0D01*
G01*
G37*
G36*
G01*
X122639001Y-48580000D02*
X120438999Y-48580000D01*
G75*
G02*
X120189000Y-48330001I0J249999D01*
G01*
X120189000Y-47504999D01*
G75*
G02*
X120438999Y-47255000I249999J0D01*
G01*
X122639001Y-47255000D01*
G75*
G02*
X122889000Y-47504999I0J-249999D01*
G01*
X122889000Y-48330001D01*
G75*
G02*
X122639001Y-48580000I-249999J0D01*
G01*
G37*
%TD*%
%TO.C,C18*%
G36*
G01*
X128775000Y-57200000D02*
X129725000Y-57200000D01*
G75*
G02*
X129975000Y-57450000I0J-250000D01*
G01*
X129975000Y-58125000D01*
G75*
G02*
X129725000Y-58375000I-250000J0D01*
G01*
X128775000Y-58375000D01*
G75*
G02*
X128525000Y-58125000I0J250000D01*
G01*
X128525000Y-57450000D01*
G75*
G02*
X128775000Y-57200000I250000J0D01*
G01*
G37*
G36*
G01*
X128775000Y-55125000D02*
X129725000Y-55125000D01*
G75*
G02*
X129975000Y-55375000I0J-250000D01*
G01*
X129975000Y-56050000D01*
G75*
G02*
X129725000Y-56300000I-250000J0D01*
G01*
X128775000Y-56300000D01*
G75*
G02*
X128525000Y-56050000I0J250000D01*
G01*
X128525000Y-55375000D01*
G75*
G02*
X128775000Y-55125000I250000J0D01*
G01*
G37*
%TD*%
%TO.C,C17*%
G36*
G01*
X121025000Y-57200000D02*
X121975000Y-57200000D01*
G75*
G02*
X122225000Y-57450000I0J-250000D01*
G01*
X122225000Y-58125000D01*
G75*
G02*
X121975000Y-58375000I-250000J0D01*
G01*
X121025000Y-58375000D01*
G75*
G02*
X120775000Y-58125000I0J250000D01*
G01*
X120775000Y-57450000D01*
G75*
G02*
X121025000Y-57200000I250000J0D01*
G01*
G37*
G36*
G01*
X121025000Y-55125000D02*
X121975000Y-55125000D01*
G75*
G02*
X122225000Y-55375000I0J-250000D01*
G01*
X122225000Y-56050000D01*
G75*
G02*
X121975000Y-56300000I-250000J0D01*
G01*
X121025000Y-56300000D01*
G75*
G02*
X120775000Y-56050000I0J250000D01*
G01*
X120775000Y-55375000D01*
G75*
G02*
X121025000Y-55125000I250000J0D01*
G01*
G37*
%TD*%
%TO.C,C16*%
G36*
G01*
X137775000Y-148200000D02*
X138725000Y-148200000D01*
G75*
G02*
X138975000Y-148450000I0J-250000D01*
G01*
X138975000Y-149125000D01*
G75*
G02*
X138725000Y-149375000I-250000J0D01*
G01*
X137775000Y-149375000D01*
G75*
G02*
X137525000Y-149125000I0J250000D01*
G01*
X137525000Y-148450000D01*
G75*
G02*
X137775000Y-148200000I250000J0D01*
G01*
G37*
G36*
G01*
X137775000Y-146125000D02*
X138725000Y-146125000D01*
G75*
G02*
X138975000Y-146375000I0J-250000D01*
G01*
X138975000Y-147050000D01*
G75*
G02*
X138725000Y-147300000I-250000J0D01*
G01*
X137775000Y-147300000D01*
G75*
G02*
X137525000Y-147050000I0J250000D01*
G01*
X137525000Y-146375000D01*
G75*
G02*
X137775000Y-146125000I250000J0D01*
G01*
G37*
%TD*%
%TO.C,C15*%
G36*
G01*
X130025000Y-147950000D02*
X130975000Y-147950000D01*
G75*
G02*
X131225000Y-148200000I0J-250000D01*
G01*
X131225000Y-148875000D01*
G75*
G02*
X130975000Y-149125000I-250000J0D01*
G01*
X130025000Y-149125000D01*
G75*
G02*
X129775000Y-148875000I0J250000D01*
G01*
X129775000Y-148200000D01*
G75*
G02*
X130025000Y-147950000I250000J0D01*
G01*
G37*
G36*
G01*
X130025000Y-145875000D02*
X130975000Y-145875000D01*
G75*
G02*
X131225000Y-146125000I0J-250000D01*
G01*
X131225000Y-146800000D01*
G75*
G02*
X130975000Y-147050000I-250000J0D01*
G01*
X130025000Y-147050000D01*
G75*
G02*
X129775000Y-146800000I0J250000D01*
G01*
X129775000Y-146125000D01*
G75*
G02*
X130025000Y-145875000I250000J0D01*
G01*
G37*
%TD*%
%TO.C,C14*%
G36*
G01*
X99225000Y-147300000D02*
X98275000Y-147300000D01*
G75*
G02*
X98025000Y-147050000I0J250000D01*
G01*
X98025000Y-146375000D01*
G75*
G02*
X98275000Y-146125000I250000J0D01*
G01*
X99225000Y-146125000D01*
G75*
G02*
X99475000Y-146375000I0J-250000D01*
G01*
X99475000Y-147050000D01*
G75*
G02*
X99225000Y-147300000I-250000J0D01*
G01*
G37*
G36*
G01*
X99225000Y-149375000D02*
X98275000Y-149375000D01*
G75*
G02*
X98025000Y-149125000I0J250000D01*
G01*
X98025000Y-148450000D01*
G75*
G02*
X98275000Y-148200000I250000J0D01*
G01*
X99225000Y-148200000D01*
G75*
G02*
X99475000Y-148450000I0J-250000D01*
G01*
X99475000Y-149125000D01*
G75*
G02*
X99225000Y-149375000I-250000J0D01*
G01*
G37*
%TD*%
%TO.C,C13*%
G36*
G01*
X106975000Y-147550000D02*
X106025000Y-147550000D01*
G75*
G02*
X105775000Y-147300000I0J250000D01*
G01*
X105775000Y-146625000D01*
G75*
G02*
X106025000Y-146375000I250000J0D01*
G01*
X106975000Y-146375000D01*
G75*
G02*
X107225000Y-146625000I0J-250000D01*
G01*
X107225000Y-147300000D01*
G75*
G02*
X106975000Y-147550000I-250000J0D01*
G01*
G37*
G36*
G01*
X106975000Y-149625000D02*
X106025000Y-149625000D01*
G75*
G02*
X105775000Y-149375000I0J250000D01*
G01*
X105775000Y-148700000D01*
G75*
G02*
X106025000Y-148450000I250000J0D01*
G01*
X106975000Y-148450000D01*
G75*
G02*
X107225000Y-148700000I0J-250000D01*
G01*
X107225000Y-149375000D01*
G75*
G02*
X106975000Y-149625000I-250000J0D01*
G01*
G37*
%TD*%
%TO.C,C12*%
G36*
G01*
X142550000Y-58275000D02*
X142550000Y-59225000D01*
G75*
G02*
X142300000Y-59475000I-250000J0D01*
G01*
X141625000Y-59475000D01*
G75*
G02*
X141375000Y-59225000I0J250000D01*
G01*
X141375000Y-58275000D01*
G75*
G02*
X141625000Y-58025000I250000J0D01*
G01*
X142300000Y-58025000D01*
G75*
G02*
X142550000Y-58275000I0J-250000D01*
G01*
G37*
G36*
G01*
X144625000Y-58275000D02*
X144625000Y-59225000D01*
G75*
G02*
X144375000Y-59475000I-250000J0D01*
G01*
X143700000Y-59475000D01*
G75*
G02*
X143450000Y-59225000I0J250000D01*
G01*
X143450000Y-58275000D01*
G75*
G02*
X143700000Y-58025000I250000J0D01*
G01*
X144375000Y-58025000D01*
G75*
G02*
X144625000Y-58275000I0J-250000D01*
G01*
G37*
%TD*%
%TO.C,C9*%
G36*
G01*
X142800000Y-50525000D02*
X142800000Y-51475000D01*
G75*
G02*
X142550000Y-51725000I-250000J0D01*
G01*
X141875000Y-51725000D01*
G75*
G02*
X141625000Y-51475000I0J250000D01*
G01*
X141625000Y-50525000D01*
G75*
G02*
X141875000Y-50275000I250000J0D01*
G01*
X142550000Y-50275000D01*
G75*
G02*
X142800000Y-50525000I0J-250000D01*
G01*
G37*
G36*
G01*
X144875000Y-50525000D02*
X144875000Y-51475000D01*
G75*
G02*
X144625000Y-51725000I-250000J0D01*
G01*
X143950000Y-51725000D01*
G75*
G02*
X143700000Y-51475000I0J250000D01*
G01*
X143700000Y-50525000D01*
G75*
G02*
X143950000Y-50275000I250000J0D01*
G01*
X144625000Y-50275000D01*
G75*
G02*
X144875000Y-50525000I0J-250000D01*
G01*
G37*
%TD*%
%TO.C,C6*%
G36*
G01*
X93550000Y-58275000D02*
X93550000Y-59225000D01*
G75*
G02*
X93300000Y-59475000I-250000J0D01*
G01*
X92625000Y-59475000D01*
G75*
G02*
X92375000Y-59225000I0J250000D01*
G01*
X92375000Y-58275000D01*
G75*
G02*
X92625000Y-58025000I250000J0D01*
G01*
X93300000Y-58025000D01*
G75*
G02*
X93550000Y-58275000I0J-250000D01*
G01*
G37*
G36*
G01*
X95625000Y-58275000D02*
X95625000Y-59225000D01*
G75*
G02*
X95375000Y-59475000I-250000J0D01*
G01*
X94700000Y-59475000D01*
G75*
G02*
X94450000Y-59225000I0J250000D01*
G01*
X94450000Y-58275000D01*
G75*
G02*
X94700000Y-58025000I250000J0D01*
G01*
X95375000Y-58025000D01*
G75*
G02*
X95625000Y-58275000I0J-250000D01*
G01*
G37*
%TD*%
%TO.C,C3*%
G36*
G01*
X93800000Y-50525000D02*
X93800000Y-51475000D01*
G75*
G02*
X93550000Y-51725000I-250000J0D01*
G01*
X92875000Y-51725000D01*
G75*
G02*
X92625000Y-51475000I0J250000D01*
G01*
X92625000Y-50525000D01*
G75*
G02*
X92875000Y-50275000I250000J0D01*
G01*
X93550000Y-50275000D01*
G75*
G02*
X93800000Y-50525000I0J-250000D01*
G01*
G37*
G36*
G01*
X95875000Y-50525000D02*
X95875000Y-51475000D01*
G75*
G02*
X95625000Y-51725000I-250000J0D01*
G01*
X94950000Y-51725000D01*
G75*
G02*
X94700000Y-51475000I0J250000D01*
G01*
X94700000Y-50525000D01*
G75*
G02*
X94950000Y-50275000I250000J0D01*
G01*
X95625000Y-50275000D01*
G75*
G02*
X95875000Y-50525000I0J-250000D01*
G01*
G37*
%TD*%
M02*
