%TF.GenerationSoftware,KiCad,Pcbnew,(5.1.7)-1*%
%TF.CreationDate,2021-10-21T20:27:42-07:00*%
%TF.ProjectId,AnalogBoard_Rev2,416e616c-6f67-4426-9f61-72645f526576,rev?*%
%TF.SameCoordinates,Original*%
%TF.FileFunction,Soldermask,Top*%
%TF.FilePolarity,Negative*%
%FSLAX46Y46*%
G04 Gerber Fmt 4.6, Leading zero omitted, Abs format (unit mm)*
G04 Created by KiCad (PCBNEW (5.1.7)-1) date 2021-10-21 20:27:42*
%MOMM*%
%LPD*%
G01*
G04 APERTURE LIST*
%TA.AperFunction,Profile*%
%ADD10C,0.050000*%
%TD*%
%ADD11C,1.440000*%
%ADD12O,1.700000X1.700000*%
%ADD13R,1.700000X1.700000*%
%ADD14R,1.120000X2.440000*%
%ADD15O,1.570000X2.290000*%
%ADD16O,1.600000X1.600000*%
%ADD17R,1.600000X1.600000*%
%ADD18C,1.600000*%
%ADD19O,1.500000X1.500000*%
%ADD20R,1.500000X1.500000*%
%ADD21C,0.800000*%
G04 APERTURE END LIST*
D10*
X143250000Y-148100000D02*
X148250000Y-148100000D01*
X143250000Y-153000000D02*
X143250000Y-148100000D01*
X93750000Y-148100000D02*
X88750000Y-148100000D01*
X93750000Y-153000000D02*
X93750000Y-148100000D01*
X143250000Y-42750000D02*
X143250000Y-38500000D01*
X148250000Y-42750000D02*
X143250000Y-42750000D01*
X93750000Y-42750000D02*
X93750000Y-38500000D01*
X88750000Y-42750000D02*
X93750000Y-42750000D01*
X148250000Y-148100000D02*
X148250000Y-126500000D01*
X88750000Y-148100000D02*
X88750000Y-126500000D01*
X122250000Y-126500000D02*
X148250000Y-126500000D01*
X122250000Y-65250000D02*
X148250000Y-65250000D01*
X88750000Y-126500000D02*
X114750000Y-126500000D01*
X88750000Y-65250000D02*
X114750000Y-65250000D01*
X114750000Y-126500000D02*
X114750000Y-65250000D01*
X122250000Y-126500000D02*
X122250000Y-65250000D01*
X148250000Y-42750000D02*
X148250000Y-65250000D01*
X88750000Y-65250000D02*
X88750000Y-42750000D01*
X143250000Y-153000000D02*
X93750000Y-153000000D01*
X93750000Y-38500000D02*
X143250000Y-38500000D01*
D11*
%TO.C,RV4*%
X112014000Y-61722000D03*
X117094000Y-59182000D03*
X112014000Y-56642000D03*
%TD*%
%TO.C,RV3*%
X101727000Y-61722000D03*
X106807000Y-59182000D03*
X101727000Y-56642000D03*
%TD*%
%TO.C,RV2*%
X121000000Y-150250000D03*
X126080000Y-147710000D03*
X121000000Y-145170000D03*
%TD*%
%TO.C,RV1*%
X110750000Y-145000000D03*
X113290000Y-150080000D03*
X115830000Y-145000000D03*
%TD*%
D12*
%TO.C,J4*%
X123470000Y-40500000D03*
X126010000Y-40500000D03*
X128550000Y-40500000D03*
X131090000Y-40500000D03*
X133630000Y-40500000D03*
X136170000Y-40500000D03*
X138710000Y-40500000D03*
D13*
X141250000Y-40500000D03*
%TD*%
D14*
%TO.C,SW1*%
X110236000Y-52057000D03*
X102616000Y-43447000D03*
X107696000Y-52057000D03*
X105156000Y-43447000D03*
X105156000Y-52057000D03*
X107696000Y-43447000D03*
X102616000Y-52057000D03*
X110236000Y-43447000D03*
%TD*%
D12*
%TO.C,J3*%
X133550000Y-130000000D03*
X136090000Y-130000000D03*
X138630000Y-130000000D03*
X141170000Y-130000000D03*
X143710000Y-130000000D03*
D13*
X146250000Y-130000000D03*
%TD*%
D12*
%TO.C,J2*%
X118610000Y-40500000D03*
X116070000Y-40500000D03*
X113530000Y-40500000D03*
X110990000Y-40500000D03*
X108450000Y-40500000D03*
X105910000Y-40500000D03*
X103370000Y-40500000D03*
X100830000Y-40500000D03*
X98290000Y-40500000D03*
D13*
X95750000Y-40500000D03*
%TD*%
D12*
%TO.C,J1*%
X103450000Y-130000000D03*
X100910000Y-130000000D03*
X98370000Y-130000000D03*
X95830000Y-130000000D03*
X93290000Y-130000000D03*
D13*
X90750000Y-130000000D03*
%TD*%
%TO.C,U9*%
G36*
G01*
X134464630Y-135855000D02*
X135535370Y-135855000D01*
G75*
G02*
X135785000Y-136104630I0J-249630D01*
G01*
X135785000Y-137895370D01*
G75*
G02*
X135535370Y-138145000I-249630J0D01*
G01*
X134464630Y-138145000D01*
G75*
G02*
X134215000Y-137895370I0J249630D01*
G01*
X134215000Y-136104630D01*
G75*
G02*
X134464630Y-135855000I249630J0D01*
G01*
G37*
D15*
X138200000Y-137000000D03*
X137700000Y-140500000D03*
X135500000Y-140500000D03*
%TD*%
%TO.C,U8*%
G36*
G01*
X141964630Y-135855000D02*
X143035370Y-135855000D01*
G75*
G02*
X143285000Y-136104630I0J-249630D01*
G01*
X143285000Y-137895370D01*
G75*
G02*
X143035370Y-138145000I-249630J0D01*
G01*
X141964630Y-138145000D01*
G75*
G02*
X141715000Y-137895370I0J249630D01*
G01*
X141715000Y-136104630D01*
G75*
G02*
X141964630Y-135855000I249630J0D01*
G01*
G37*
X145700000Y-137000000D03*
X145200000Y-140500000D03*
X143000000Y-140500000D03*
%TD*%
%TO.C,U7*%
G36*
G01*
X97964630Y-135855000D02*
X99035370Y-135855000D01*
G75*
G02*
X99285000Y-136104630I0J-249630D01*
G01*
X99285000Y-137895370D01*
G75*
G02*
X99035370Y-138145000I-249630J0D01*
G01*
X97964630Y-138145000D01*
G75*
G02*
X97715000Y-137895370I0J249630D01*
G01*
X97715000Y-136104630D01*
G75*
G02*
X97964630Y-135855000I249630J0D01*
G01*
G37*
X101700000Y-137000000D03*
X101200000Y-140500000D03*
X99000000Y-140500000D03*
%TD*%
%TO.C,U6*%
G36*
G01*
X90464630Y-135888000D02*
X91535370Y-135888000D01*
G75*
G02*
X91785000Y-136137630I0J-249630D01*
G01*
X91785000Y-137928370D01*
G75*
G02*
X91535370Y-138178000I-249630J0D01*
G01*
X90464630Y-138178000D01*
G75*
G02*
X90215000Y-137928370I0J249630D01*
G01*
X90215000Y-136137630D01*
G75*
G02*
X90464630Y-135888000I249630J0D01*
G01*
G37*
X94200000Y-137033000D03*
X93700000Y-140533000D03*
X91500000Y-140533000D03*
%TD*%
%TO.C,U13*%
G36*
G01*
X126964630Y-135855000D02*
X128035370Y-135855000D01*
G75*
G02*
X128285000Y-136104630I0J-249630D01*
G01*
X128285000Y-137895370D01*
G75*
G02*
X128035370Y-138145000I-249630J0D01*
G01*
X126964630Y-138145000D01*
G75*
G02*
X126715000Y-137895370I0J249630D01*
G01*
X126715000Y-136104630D01*
G75*
G02*
X126964630Y-135855000I249630J0D01*
G01*
G37*
X130700000Y-137000000D03*
X130200000Y-140500000D03*
X128000000Y-140500000D03*
%TD*%
%TO.C,U12*%
G36*
G01*
X105464630Y-135855000D02*
X106535370Y-135855000D01*
G75*
G02*
X106785000Y-136104630I0J-249630D01*
G01*
X106785000Y-137895370D01*
G75*
G02*
X106535370Y-138145000I-249630J0D01*
G01*
X105464630Y-138145000D01*
G75*
G02*
X105215000Y-137895370I0J249630D01*
G01*
X105215000Y-136104630D01*
G75*
G02*
X105464630Y-135855000I249630J0D01*
G01*
G37*
X109200000Y-137000000D03*
X108700000Y-140500000D03*
X106500000Y-140500000D03*
%TD*%
D16*
%TO.C,U5*%
X121500000Y-52880000D03*
X129120000Y-60500000D03*
X124040000Y-52880000D03*
X126580000Y-60500000D03*
X126580000Y-52880000D03*
X124040000Y-60500000D03*
X129120000Y-52880000D03*
D17*
X121500000Y-60500000D03*
%TD*%
D16*
%TO.C,U4*%
X130500000Y-143880000D03*
X138120000Y-151500000D03*
X133040000Y-143880000D03*
X135580000Y-151500000D03*
X135580000Y-143880000D03*
X133040000Y-151500000D03*
X138120000Y-143880000D03*
D17*
X130500000Y-151500000D03*
%TD*%
D16*
%TO.C,U3*%
X106500000Y-151620000D03*
X98880000Y-144000000D03*
X103960000Y-151620000D03*
X101420000Y-144000000D03*
X101420000Y-151620000D03*
X103960000Y-144000000D03*
X98880000Y-151620000D03*
D17*
X106500000Y-144000000D03*
%TD*%
D16*
%TO.C,U2*%
X146870000Y-51000000D03*
X139250000Y-58620000D03*
X146870000Y-53540000D03*
X139250000Y-56080000D03*
X146870000Y-56080000D03*
X139250000Y-53540000D03*
X146870000Y-58620000D03*
D17*
X139250000Y-51000000D03*
%TD*%
D16*
%TO.C,U1*%
X97870000Y-51000000D03*
X90250000Y-58620000D03*
X97870000Y-53540000D03*
X90250000Y-56080000D03*
X97870000Y-56080000D03*
X90250000Y-53540000D03*
X97870000Y-58620000D03*
D17*
X90250000Y-51000000D03*
%TD*%
D16*
%TO.C,R13*%
X120250000Y-106630000D03*
D18*
X120250000Y-114250000D03*
%TD*%
D16*
%TO.C,R12*%
X116750000Y-106630000D03*
D18*
X116750000Y-114250000D03*
%TD*%
D16*
%TO.C,R11*%
X117856000Y-43815000D03*
D18*
X125476000Y-43815000D03*
%TD*%
D16*
%TO.C,R10*%
X136000000Y-60370000D03*
D18*
X136000000Y-52750000D03*
%TD*%
D16*
%TO.C,R9*%
X132500000Y-52880000D03*
D18*
X132500000Y-60500000D03*
%TD*%
D16*
%TO.C,R8*%
X114681000Y-50927000D03*
D18*
X114681000Y-43307000D03*
%TD*%
D16*
%TO.C,R7*%
X120250000Y-127620000D03*
D18*
X120250000Y-120000000D03*
%TD*%
D16*
%TO.C,R6*%
X116750000Y-127620000D03*
D18*
X116750000Y-120000000D03*
%TD*%
D16*
%TO.C,R5*%
X120250000Y-74803000D03*
D18*
X120250000Y-67183000D03*
%TD*%
D16*
%TO.C,R4*%
X130870000Y-130000000D03*
D18*
X123250000Y-130000000D03*
%TD*%
D16*
%TO.C,R3*%
X106130000Y-130000000D03*
D18*
X113750000Y-130000000D03*
%TD*%
D16*
%TO.C,R2*%
X139130000Y-62000000D03*
D18*
X146750000Y-62000000D03*
%TD*%
D16*
%TO.C,R1*%
X90130000Y-62250000D03*
D18*
X97750000Y-62250000D03*
%TD*%
D19*
%TO.C,D4*%
X136017000Y-43561000D03*
D20*
X128397000Y-43561000D03*
%TD*%
D16*
%TO.C,D3*%
X117729000Y-50038000D03*
D17*
X125349000Y-50038000D03*
%TD*%
D16*
%TO.C,D2*%
X125222000Y-47244000D03*
D17*
X117602000Y-47244000D03*
%TD*%
D18*
%TO.C,C11*%
X130270000Y-48768000D03*
D17*
X128270000Y-48768000D03*
%TD*%
D18*
%TO.C,C10*%
X134017000Y-48768000D03*
D17*
X136017000Y-48768000D03*
%TD*%
D18*
%TO.C,C8*%
X141500000Y-145000000D03*
X146500000Y-145000000D03*
%TD*%
%TO.C,C7*%
X95500000Y-145000000D03*
X90500000Y-145000000D03*
%TD*%
%TO.C,C5*%
X121500000Y-138500000D03*
X121500000Y-133500000D03*
%TD*%
%TO.C,C4*%
X115500000Y-133500000D03*
X115500000Y-138500000D03*
%TD*%
%TO.C,C2*%
X146500000Y-45600000D03*
X141500000Y-45600000D03*
%TD*%
%TO.C,C1*%
X91000000Y-45600000D03*
X96000000Y-45600000D03*
%TD*%
D21*
X108500000Y-147000000D03*
X97000000Y-147750000D03*
X128500000Y-148500000D03*
X140000000Y-146750000D03*
X142212500Y-53462500D03*
X132212500Y-55712500D03*
X124212500Y-57787500D03*
X93250000Y-53000000D03*
X116205000Y-61214000D03*
X115824000Y-63246000D03*
X116000002Y-150250000D03*
M02*
