%TF.GenerationSoftware,KiCad,Pcbnew,(5.1.7)-1*%
%TF.CreationDate,2021-10-21T20:27:42-07:00*%
%TF.ProjectId,AnalogBoard_Rev2,416e616c-6f67-4426-9f61-72645f526576,rev?*%
%TF.SameCoordinates,Original*%
%TF.FileFunction,Profile,NP*%
%FSLAX46Y46*%
G04 Gerber Fmt 4.6, Leading zero omitted, Abs format (unit mm)*
G04 Created by KiCad (PCBNEW (5.1.7)-1) date 2021-10-21 20:27:42*
%MOMM*%
%LPD*%
G01*
G04 APERTURE LIST*
%TA.AperFunction,Profile*%
%ADD10C,0.050000*%
%TD*%
G04 APERTURE END LIST*
D10*
X143250000Y-148100000D02*
X148250000Y-148100000D01*
X143250000Y-153000000D02*
X143250000Y-148100000D01*
X93750000Y-148100000D02*
X88750000Y-148100000D01*
X93750000Y-153000000D02*
X93750000Y-148100000D01*
X143250000Y-42750000D02*
X143250000Y-38500000D01*
X148250000Y-42750000D02*
X143250000Y-42750000D01*
X93750000Y-42750000D02*
X93750000Y-38500000D01*
X88750000Y-42750000D02*
X93750000Y-42750000D01*
X148250000Y-148100000D02*
X148250000Y-126500000D01*
X88750000Y-148100000D02*
X88750000Y-126500000D01*
X122250000Y-126500000D02*
X148250000Y-126500000D01*
X122250000Y-65250000D02*
X148250000Y-65250000D01*
X88750000Y-126500000D02*
X114750000Y-126500000D01*
X88750000Y-65250000D02*
X114750000Y-65250000D01*
X114750000Y-126500000D02*
X114750000Y-65250000D01*
X122250000Y-126500000D02*
X122250000Y-65250000D01*
X148250000Y-42750000D02*
X148250000Y-65250000D01*
X88750000Y-65250000D02*
X88750000Y-42750000D01*
X143250000Y-153000000D02*
X93750000Y-153000000D01*
X93750000Y-38500000D02*
X143250000Y-38500000D01*
M02*
