G04 #@! TF.GenerationSoftware,KiCad,Pcbnew,(5.1.5)-3*
G04 #@! TF.CreationDate,2020-04-16T22:09:37-07:00*
G04 #@! TF.ProjectId,Digital_Board_Rev_1,44696769-7461-46c5-9f42-6f6172645f52,rev?*
G04 #@! TF.SameCoordinates,Original*
G04 #@! TF.FileFunction,Legend,Top*
G04 #@! TF.FilePolarity,Positive*
%FSLAX46Y46*%
G04 Gerber Fmt 4.6, Leading zero omitted, Abs format (unit mm)*
G04 Created by KiCad (PCBNEW (5.1.5)-3) date 2020-04-16 22:09:37*
%MOMM*%
%LPD*%
G04 APERTURE LIST*
%ADD10C,0.508000*%
%ADD11C,0.150000*%
%ADD12C,0.228600*%
%ADD13C,0.203200*%
%ADD14C,0.330200*%
%ADD15C,0.007620*%
%ADD16C,0.127000*%
%ADD17C,0.120000*%
%ADD18C,0.063500*%
%ADD19C,0.152400*%
G04 APERTURE END LIST*
D10*
X71700571Y-56242857D02*
X71700571Y-53194857D01*
X72861714Y-53194857D01*
X73151999Y-53340000D01*
X73297142Y-53485142D01*
X73442285Y-53775428D01*
X73442285Y-54210857D01*
X73297142Y-54501142D01*
X73151999Y-54646285D01*
X72861714Y-54791428D01*
X71700571Y-54791428D01*
X74748571Y-56242857D02*
X74748571Y-53194857D01*
X76199999Y-56242857D02*
X76199999Y-53194857D01*
X77941714Y-56242857D01*
X77941714Y-53194857D01*
X79393142Y-54646285D02*
X80409142Y-54646285D01*
X80844571Y-56242857D02*
X79393142Y-56242857D01*
X79393142Y-53194857D01*
X80844571Y-53194857D01*
X83166857Y-54646285D02*
X83602285Y-54791428D01*
X83747428Y-54936571D01*
X83892571Y-55226857D01*
X83892571Y-55662285D01*
X83747428Y-55952571D01*
X83602285Y-56097714D01*
X83311999Y-56242857D01*
X82150857Y-56242857D01*
X82150857Y-53194857D01*
X83166857Y-53194857D01*
X83457142Y-53340000D01*
X83602285Y-53485142D01*
X83747428Y-53775428D01*
X83747428Y-54065714D01*
X83602285Y-54356000D01*
X83457142Y-54501142D01*
X83166857Y-54646285D01*
X82150857Y-54646285D01*
X85779428Y-53194857D02*
X86359999Y-53194857D01*
X86650285Y-53340000D01*
X86940571Y-53630285D01*
X87085714Y-54210857D01*
X87085714Y-55226857D01*
X86940571Y-55807428D01*
X86650285Y-56097714D01*
X86359999Y-56242857D01*
X85779428Y-56242857D01*
X85489142Y-56097714D01*
X85198857Y-55807428D01*
X85053714Y-55226857D01*
X85053714Y-54210857D01*
X85198857Y-53630285D01*
X85489142Y-53340000D01*
X85779428Y-53194857D01*
X88101714Y-53194857D02*
X90133714Y-56242857D01*
X90133714Y-53194857D02*
X88101714Y-56242857D01*
X93617142Y-54646285D02*
X94633142Y-54646285D01*
X95068571Y-56242857D02*
X93617142Y-56242857D01*
X93617142Y-53194857D01*
X95068571Y-53194857D01*
X97390857Y-54646285D02*
X96374857Y-54646285D01*
X96374857Y-56242857D02*
X96374857Y-53194857D01*
X97826285Y-53194857D01*
X100003428Y-54646285D02*
X98987428Y-54646285D01*
X98987428Y-56242857D02*
X98987428Y-53194857D01*
X100438857Y-53194857D01*
X101599999Y-54646285D02*
X102615999Y-54646285D01*
X103051428Y-56242857D02*
X101599999Y-56242857D01*
X101599999Y-53194857D01*
X103051428Y-53194857D01*
X106099428Y-55952571D02*
X105954285Y-56097714D01*
X105518857Y-56242857D01*
X105228571Y-56242857D01*
X104793142Y-56097714D01*
X104502857Y-55807428D01*
X104357714Y-55517142D01*
X104212571Y-54936571D01*
X104212571Y-54501142D01*
X104357714Y-53920571D01*
X104502857Y-53630285D01*
X104793142Y-53340000D01*
X105228571Y-53194857D01*
X105518857Y-53194857D01*
X105954285Y-53340000D01*
X106099428Y-53485142D01*
X106970285Y-53194857D02*
X108711999Y-53194857D01*
X107841142Y-56242857D02*
X107841142Y-53194857D01*
X109582857Y-56097714D02*
X110018285Y-56242857D01*
X110743999Y-56242857D01*
X111034285Y-56097714D01*
X111179428Y-55952571D01*
X111324571Y-55662285D01*
X111324571Y-55372000D01*
X111179428Y-55081714D01*
X111034285Y-54936571D01*
X110743999Y-54791428D01*
X110163428Y-54646285D01*
X109873142Y-54501142D01*
X109727999Y-54356000D01*
X109582857Y-54065714D01*
X109582857Y-53775428D01*
X109727999Y-53485142D01*
X109873142Y-53340000D01*
X110163428Y-53194857D01*
X110889142Y-53194857D01*
X111324571Y-53340000D01*
D11*
X97631714Y-67095714D02*
X97631714Y-67762380D01*
X97393619Y-66714761D02*
X97155523Y-67429047D01*
X97774571Y-67429047D01*
X98869809Y-66714761D02*
X98012666Y-68000476D01*
X99726952Y-67762380D02*
X99155523Y-67762380D01*
X99441238Y-67762380D02*
X99441238Y-66762380D01*
X99346000Y-66905238D01*
X99250761Y-67000476D01*
X99155523Y-67048095D01*
X100584095Y-67095714D02*
X100584095Y-67762380D01*
X100346000Y-66714761D02*
X100107904Y-67429047D01*
X100726952Y-67429047D01*
X101822190Y-66714761D02*
X100965047Y-68000476D01*
X102107904Y-66857619D02*
X102155523Y-66810000D01*
X102250761Y-66762380D01*
X102488857Y-66762380D01*
X102584095Y-66810000D01*
X102631714Y-66857619D01*
X102679333Y-66952857D01*
X102679333Y-67048095D01*
X102631714Y-67190952D01*
X102060285Y-67762380D01*
X102679333Y-67762380D01*
X103298380Y-66762380D02*
X103393619Y-66762380D01*
X103488857Y-66810000D01*
X103536476Y-66857619D01*
X103584095Y-66952857D01*
X103631714Y-67143333D01*
X103631714Y-67381428D01*
X103584095Y-67571904D01*
X103536476Y-67667142D01*
X103488857Y-67714761D01*
X103393619Y-67762380D01*
X103298380Y-67762380D01*
X103203142Y-67714761D01*
X103155523Y-67667142D01*
X103107904Y-67571904D01*
X103060285Y-67381428D01*
X103060285Y-67143333D01*
X103107904Y-66952857D01*
X103155523Y-66857619D01*
X103203142Y-66810000D01*
X103298380Y-66762380D01*
X104012666Y-66857619D02*
X104060285Y-66810000D01*
X104155523Y-66762380D01*
X104393619Y-66762380D01*
X104488857Y-66810000D01*
X104536476Y-66857619D01*
X104584095Y-66952857D01*
X104584095Y-67048095D01*
X104536476Y-67190952D01*
X103965047Y-67762380D01*
X104584095Y-67762380D01*
X105203142Y-66762380D02*
X105298380Y-66762380D01*
X105393619Y-66810000D01*
X105441238Y-66857619D01*
X105488857Y-66952857D01*
X105536476Y-67143333D01*
X105536476Y-67381428D01*
X105488857Y-67571904D01*
X105441238Y-67667142D01*
X105393619Y-67714761D01*
X105298380Y-67762380D01*
X105203142Y-67762380D01*
X105107904Y-67714761D01*
X105060285Y-67667142D01*
X105012666Y-67571904D01*
X104965047Y-67381428D01*
X104965047Y-67143333D01*
X105012666Y-66952857D01*
X105060285Y-66857619D01*
X105107904Y-66810000D01*
X105203142Y-66762380D01*
D12*
X97360619Y-64328523D02*
X97360619Y-65235666D01*
X97300142Y-65417095D01*
X97179190Y-65538047D01*
X96997761Y-65598523D01*
X96876809Y-65598523D01*
X98449190Y-65538047D02*
X98328238Y-65598523D01*
X98086333Y-65598523D01*
X97965380Y-65538047D01*
X97904904Y-65417095D01*
X97904904Y-64933285D01*
X97965380Y-64812333D01*
X98086333Y-64751857D01*
X98328238Y-64751857D01*
X98449190Y-64812333D01*
X98509666Y-64933285D01*
X98509666Y-65054238D01*
X97904904Y-65175190D01*
X99053952Y-65598523D02*
X99053952Y-64751857D01*
X99053952Y-64993761D02*
X99114428Y-64872809D01*
X99174904Y-64812333D01*
X99295857Y-64751857D01*
X99416809Y-64751857D01*
X100323952Y-65538047D02*
X100203000Y-65598523D01*
X99961095Y-65598523D01*
X99840142Y-65538047D01*
X99779666Y-65417095D01*
X99779666Y-64933285D01*
X99840142Y-64812333D01*
X99961095Y-64751857D01*
X100203000Y-64751857D01*
X100323952Y-64812333D01*
X100384428Y-64933285D01*
X100384428Y-65054238D01*
X99779666Y-65175190D01*
X100928714Y-65598523D02*
X100928714Y-64751857D01*
X100928714Y-64872809D02*
X100989190Y-64812333D01*
X101110142Y-64751857D01*
X101291571Y-64751857D01*
X101412523Y-64812333D01*
X101473000Y-64933285D01*
X101473000Y-65598523D01*
X101473000Y-64933285D02*
X101533476Y-64812333D01*
X101654428Y-64751857D01*
X101835857Y-64751857D01*
X101956809Y-64812333D01*
X102017285Y-64933285D01*
X102017285Y-65598523D01*
X102622047Y-65598523D02*
X102622047Y-64751857D01*
X102622047Y-64328523D02*
X102561571Y-64389000D01*
X102622047Y-64449476D01*
X102682523Y-64389000D01*
X102622047Y-64328523D01*
X102622047Y-64449476D01*
X103771095Y-65598523D02*
X103771095Y-64933285D01*
X103710619Y-64812333D01*
X103589666Y-64751857D01*
X103347761Y-64751857D01*
X103226809Y-64812333D01*
X103771095Y-65538047D02*
X103650142Y-65598523D01*
X103347761Y-65598523D01*
X103226809Y-65538047D01*
X103166333Y-65417095D01*
X103166333Y-65296142D01*
X103226809Y-65175190D01*
X103347761Y-65114714D01*
X103650142Y-65114714D01*
X103771095Y-65054238D01*
X104375857Y-65598523D02*
X104375857Y-64328523D01*
X104920142Y-65598523D02*
X104920142Y-64933285D01*
X104859666Y-64812333D01*
X104738714Y-64751857D01*
X104557285Y-64751857D01*
X104436333Y-64812333D01*
X104375857Y-64872809D01*
X107097285Y-65598523D02*
X106492523Y-65598523D01*
X106492523Y-64328523D01*
X107520619Y-65598523D02*
X107520619Y-64751857D01*
X107520619Y-64328523D02*
X107460142Y-64389000D01*
X107520619Y-64449476D01*
X107581095Y-64389000D01*
X107520619Y-64328523D01*
X107520619Y-64449476D01*
X108306809Y-65598523D02*
X108185857Y-65538047D01*
X108125380Y-65417095D01*
X108125380Y-64328523D01*
X108972047Y-65598523D02*
X108851095Y-65538047D01*
X108790619Y-65417095D01*
X108790619Y-64328523D01*
X110000142Y-65598523D02*
X110000142Y-64933285D01*
X109939666Y-64812333D01*
X109818714Y-64751857D01*
X109576809Y-64751857D01*
X109455857Y-64812333D01*
X110000142Y-65538047D02*
X109879190Y-65598523D01*
X109576809Y-65598523D01*
X109455857Y-65538047D01*
X109395380Y-65417095D01*
X109395380Y-65296142D01*
X109455857Y-65175190D01*
X109576809Y-65114714D01*
X109879190Y-65114714D01*
X110000142Y-65054238D01*
X110604904Y-64751857D02*
X110604904Y-65598523D01*
X110604904Y-64872809D02*
X110665380Y-64812333D01*
X110786333Y-64751857D01*
X110967761Y-64751857D01*
X111088714Y-64812333D01*
X111149190Y-64933285D01*
X111149190Y-65598523D01*
X112298238Y-65598523D02*
X112298238Y-64328523D01*
X112298238Y-65538047D02*
X112177285Y-65598523D01*
X111935380Y-65598523D01*
X111814428Y-65538047D01*
X111753952Y-65477571D01*
X111693476Y-65356619D01*
X111693476Y-64993761D01*
X111753952Y-64872809D01*
X111814428Y-64812333D01*
X111935380Y-64751857D01*
X112177285Y-64751857D01*
X112298238Y-64812333D01*
D13*
X56787142Y-94693619D02*
X56787142Y-94161428D01*
X56738761Y-94064666D01*
X56642000Y-94016285D01*
X56448476Y-94016285D01*
X56351714Y-94064666D01*
X56787142Y-94645238D02*
X56690380Y-94693619D01*
X56448476Y-94693619D01*
X56351714Y-94645238D01*
X56303333Y-94548476D01*
X56303333Y-94451714D01*
X56351714Y-94354952D01*
X56448476Y-94306571D01*
X56690380Y-94306571D01*
X56787142Y-94258190D01*
X57270952Y-94693619D02*
X57270952Y-93677619D01*
X57367714Y-94306571D02*
X57658000Y-94693619D01*
X57658000Y-94016285D02*
X57270952Y-94403333D01*
X58528857Y-94693619D02*
X58528857Y-94161428D01*
X58480476Y-94064666D01*
X58383714Y-94016285D01*
X58190190Y-94016285D01*
X58093428Y-94064666D01*
X58528857Y-94645238D02*
X58432095Y-94693619D01*
X58190190Y-94693619D01*
X58093428Y-94645238D01*
X58045047Y-94548476D01*
X58045047Y-94451714D01*
X58093428Y-94354952D01*
X58190190Y-94306571D01*
X58432095Y-94306571D01*
X58528857Y-94258190D01*
X59786761Y-94693619D02*
X59786761Y-93677619D01*
X59786761Y-94064666D02*
X59883523Y-94016285D01*
X60077047Y-94016285D01*
X60173809Y-94064666D01*
X60222190Y-94113047D01*
X60270571Y-94209809D01*
X60270571Y-94500095D01*
X60222190Y-94596857D01*
X60173809Y-94645238D01*
X60077047Y-94693619D01*
X59883523Y-94693619D01*
X59786761Y-94645238D01*
X60706000Y-94693619D02*
X60706000Y-94016285D01*
X60706000Y-93677619D02*
X60657619Y-93726000D01*
X60706000Y-93774380D01*
X60754380Y-93726000D01*
X60706000Y-93677619D01*
X60706000Y-93774380D01*
X61625238Y-94016285D02*
X61625238Y-94838761D01*
X61576857Y-94935523D01*
X61528476Y-94983904D01*
X61431714Y-95032285D01*
X61286571Y-95032285D01*
X61189809Y-94983904D01*
X61625238Y-94645238D02*
X61528476Y-94693619D01*
X61334952Y-94693619D01*
X61238190Y-94645238D01*
X61189809Y-94596857D01*
X61141428Y-94500095D01*
X61141428Y-94209809D01*
X61189809Y-94113047D01*
X61238190Y-94064666D01*
X61334952Y-94016285D01*
X61528476Y-94016285D01*
X61625238Y-94064666D01*
X62738000Y-94016285D02*
X63125047Y-94016285D01*
X62883142Y-93677619D02*
X62883142Y-94548476D01*
X62931523Y-94645238D01*
X63028285Y-94693619D01*
X63125047Y-94693619D01*
X63850761Y-94645238D02*
X63754000Y-94693619D01*
X63560476Y-94693619D01*
X63463714Y-94645238D01*
X63415333Y-94548476D01*
X63415333Y-94161428D01*
X63463714Y-94064666D01*
X63560476Y-94016285D01*
X63754000Y-94016285D01*
X63850761Y-94064666D01*
X63899142Y-94161428D01*
X63899142Y-94258190D01*
X63415333Y-94354952D01*
X64286190Y-94645238D02*
X64382952Y-94693619D01*
X64576476Y-94693619D01*
X64673238Y-94645238D01*
X64721619Y-94548476D01*
X64721619Y-94500095D01*
X64673238Y-94403333D01*
X64576476Y-94354952D01*
X64431333Y-94354952D01*
X64334571Y-94306571D01*
X64286190Y-94209809D01*
X64286190Y-94161428D01*
X64334571Y-94064666D01*
X64431333Y-94016285D01*
X64576476Y-94016285D01*
X64673238Y-94064666D01*
X65011904Y-94016285D02*
X65398952Y-94016285D01*
X65157047Y-93677619D02*
X65157047Y-94548476D01*
X65205428Y-94645238D01*
X65302190Y-94693619D01*
X65398952Y-94693619D01*
X66463333Y-93629238D02*
X65592476Y-94935523D01*
X66802000Y-94693619D02*
X66802000Y-93677619D01*
X66802000Y-94064666D02*
X66898761Y-94016285D01*
X67092285Y-94016285D01*
X67189047Y-94064666D01*
X67237428Y-94113047D01*
X67285809Y-94209809D01*
X67285809Y-94500095D01*
X67237428Y-94596857D01*
X67189047Y-94645238D01*
X67092285Y-94693619D01*
X66898761Y-94693619D01*
X66802000Y-94645238D01*
X67721238Y-94693619D02*
X67721238Y-94016285D01*
X67721238Y-94209809D02*
X67769619Y-94113047D01*
X67818000Y-94064666D01*
X67914761Y-94016285D01*
X68011523Y-94016285D01*
X68737238Y-94645238D02*
X68640476Y-94693619D01*
X68446952Y-94693619D01*
X68350190Y-94645238D01*
X68301809Y-94548476D01*
X68301809Y-94161428D01*
X68350190Y-94064666D01*
X68446952Y-94016285D01*
X68640476Y-94016285D01*
X68737238Y-94064666D01*
X68785619Y-94161428D01*
X68785619Y-94258190D01*
X68301809Y-94354952D01*
X69656476Y-94693619D02*
X69656476Y-94161428D01*
X69608095Y-94064666D01*
X69511333Y-94016285D01*
X69317809Y-94016285D01*
X69221047Y-94064666D01*
X69656476Y-94645238D02*
X69559714Y-94693619D01*
X69317809Y-94693619D01*
X69221047Y-94645238D01*
X69172666Y-94548476D01*
X69172666Y-94451714D01*
X69221047Y-94354952D01*
X69317809Y-94306571D01*
X69559714Y-94306571D01*
X69656476Y-94258190D01*
X70140285Y-94693619D02*
X70140285Y-93677619D01*
X70237047Y-94306571D02*
X70527333Y-94693619D01*
X70527333Y-94016285D02*
X70140285Y-94403333D01*
X71107904Y-94693619D02*
X71011142Y-94645238D01*
X70962761Y-94596857D01*
X70914380Y-94500095D01*
X70914380Y-94209809D01*
X70962761Y-94113047D01*
X71011142Y-94064666D01*
X71107904Y-94016285D01*
X71253047Y-94016285D01*
X71349809Y-94064666D01*
X71398190Y-94113047D01*
X71446571Y-94209809D01*
X71446571Y-94500095D01*
X71398190Y-94596857D01*
X71349809Y-94645238D01*
X71253047Y-94693619D01*
X71107904Y-94693619D01*
X72317428Y-94016285D02*
X72317428Y-94693619D01*
X71882000Y-94016285D02*
X71882000Y-94548476D01*
X71930380Y-94645238D01*
X72027142Y-94693619D01*
X72172285Y-94693619D01*
X72269047Y-94645238D01*
X72317428Y-94596857D01*
X72656095Y-94016285D02*
X73043142Y-94016285D01*
X72801238Y-93677619D02*
X72801238Y-94548476D01*
X72849619Y-94645238D01*
X72946380Y-94693619D01*
X73043142Y-94693619D01*
X74155904Y-94693619D02*
X74155904Y-93677619D01*
X74155904Y-94064666D02*
X74252666Y-94016285D01*
X74446190Y-94016285D01*
X74542952Y-94064666D01*
X74591333Y-94113047D01*
X74639714Y-94209809D01*
X74639714Y-94500095D01*
X74591333Y-94596857D01*
X74542952Y-94645238D01*
X74446190Y-94693619D01*
X74252666Y-94693619D01*
X74155904Y-94645238D01*
X75220285Y-94693619D02*
X75123523Y-94645238D01*
X75075142Y-94596857D01*
X75026761Y-94500095D01*
X75026761Y-94209809D01*
X75075142Y-94113047D01*
X75123523Y-94064666D01*
X75220285Y-94016285D01*
X75365428Y-94016285D01*
X75462190Y-94064666D01*
X75510571Y-94113047D01*
X75558952Y-94209809D01*
X75558952Y-94500095D01*
X75510571Y-94596857D01*
X75462190Y-94645238D01*
X75365428Y-94693619D01*
X75220285Y-94693619D01*
X76429809Y-94693619D02*
X76429809Y-94161428D01*
X76381428Y-94064666D01*
X76284666Y-94016285D01*
X76091142Y-94016285D01*
X75994380Y-94064666D01*
X76429809Y-94645238D02*
X76333047Y-94693619D01*
X76091142Y-94693619D01*
X75994380Y-94645238D01*
X75946000Y-94548476D01*
X75946000Y-94451714D01*
X75994380Y-94354952D01*
X76091142Y-94306571D01*
X76333047Y-94306571D01*
X76429809Y-94258190D01*
X76913619Y-94693619D02*
X76913619Y-94016285D01*
X76913619Y-94209809D02*
X76962000Y-94113047D01*
X77010380Y-94064666D01*
X77107142Y-94016285D01*
X77203904Y-94016285D01*
X77978000Y-94693619D02*
X77978000Y-93677619D01*
X77978000Y-94645238D02*
X77881238Y-94693619D01*
X77687714Y-94693619D01*
X77590952Y-94645238D01*
X77542571Y-94596857D01*
X77494190Y-94500095D01*
X77494190Y-94209809D01*
X77542571Y-94113047D01*
X77590952Y-94064666D01*
X77687714Y-94016285D01*
X77881238Y-94016285D01*
X77978000Y-94064666D01*
X79090761Y-94016285D02*
X79477809Y-94016285D01*
X79235904Y-93677619D02*
X79235904Y-94548476D01*
X79284285Y-94645238D01*
X79381047Y-94693619D01*
X79477809Y-94693619D01*
X79816476Y-94693619D02*
X79816476Y-93677619D01*
X80251904Y-94693619D02*
X80251904Y-94161428D01*
X80203523Y-94064666D01*
X80106761Y-94016285D01*
X79961619Y-94016285D01*
X79864857Y-94064666D01*
X79816476Y-94113047D01*
X80735714Y-94693619D02*
X80735714Y-94016285D01*
X80735714Y-93677619D02*
X80687333Y-93726000D01*
X80735714Y-93774380D01*
X80784095Y-93726000D01*
X80735714Y-93677619D01*
X80735714Y-93774380D01*
X81219523Y-94016285D02*
X81219523Y-94693619D01*
X81219523Y-94113047D02*
X81267904Y-94064666D01*
X81364666Y-94016285D01*
X81509809Y-94016285D01*
X81606571Y-94064666D01*
X81654952Y-94161428D01*
X81654952Y-94693619D01*
X82574190Y-94016285D02*
X82574190Y-94838761D01*
X82525809Y-94935523D01*
X82477428Y-94983904D01*
X82380666Y-95032285D01*
X82235523Y-95032285D01*
X82138761Y-94983904D01*
X82574190Y-94645238D02*
X82477428Y-94693619D01*
X82283904Y-94693619D01*
X82187142Y-94645238D01*
X82138761Y-94596857D01*
X82090380Y-94500095D01*
X82090380Y-94209809D01*
X82138761Y-94113047D01*
X82187142Y-94064666D01*
X82283904Y-94016285D01*
X82477428Y-94016285D01*
X82574190Y-94064666D01*
X82961238Y-94016285D02*
X83203142Y-94693619D01*
X83445047Y-94016285D02*
X83203142Y-94693619D01*
X83106380Y-94935523D01*
X83058000Y-94983904D01*
X82961238Y-95032285D01*
D14*
X53315809Y-89680142D02*
X54476952Y-89680142D01*
X53896380Y-91966142D02*
X53896380Y-89680142D01*
X55154285Y-91966142D02*
X55154285Y-90442142D01*
X55154285Y-90877571D02*
X55251047Y-90659857D01*
X55347809Y-90551000D01*
X55541333Y-90442142D01*
X55734857Y-90442142D01*
X57186285Y-91857285D02*
X56992761Y-91966142D01*
X56605714Y-91966142D01*
X56412190Y-91857285D01*
X56315428Y-91639571D01*
X56315428Y-90768714D01*
X56412190Y-90551000D01*
X56605714Y-90442142D01*
X56992761Y-90442142D01*
X57186285Y-90551000D01*
X57283047Y-90768714D01*
X57283047Y-90986428D01*
X56315428Y-91204142D01*
X58153904Y-91966142D02*
X58153904Y-90442142D01*
X58153904Y-90659857D02*
X58250666Y-90551000D01*
X58444190Y-90442142D01*
X58734476Y-90442142D01*
X58928000Y-90551000D01*
X59024761Y-90768714D01*
X59024761Y-91966142D01*
X59024761Y-90768714D02*
X59121523Y-90551000D01*
X59315047Y-90442142D01*
X59605333Y-90442142D01*
X59798857Y-90551000D01*
X59895619Y-90768714D01*
X59895619Y-91966142D01*
X61153523Y-91966142D02*
X60960000Y-91857285D01*
X60863238Y-91748428D01*
X60766476Y-91530714D01*
X60766476Y-90877571D01*
X60863238Y-90659857D01*
X60960000Y-90551000D01*
X61153523Y-90442142D01*
X61443809Y-90442142D01*
X61637333Y-90551000D01*
X61734095Y-90659857D01*
X61830857Y-90877571D01*
X61830857Y-91530714D01*
X61734095Y-91748428D01*
X61637333Y-91857285D01*
X61443809Y-91966142D01*
X61153523Y-91966142D01*
X62992000Y-91966142D02*
X62798476Y-91857285D01*
X62701714Y-91639571D01*
X62701714Y-89680142D01*
X64056380Y-91966142D02*
X63862857Y-91857285D01*
X63766095Y-91748428D01*
X63669333Y-91530714D01*
X63669333Y-90877571D01*
X63766095Y-90659857D01*
X63862857Y-90551000D01*
X64056380Y-90442142D01*
X64346666Y-90442142D01*
X64540190Y-90551000D01*
X64636952Y-90659857D01*
X64733714Y-90877571D01*
X64733714Y-91530714D01*
X64636952Y-91748428D01*
X64540190Y-91857285D01*
X64346666Y-91966142D01*
X64056380Y-91966142D01*
X67152761Y-91966142D02*
X67152761Y-89680142D01*
X67636571Y-89680142D01*
X67926857Y-89789000D01*
X68120380Y-90006714D01*
X68217142Y-90224428D01*
X68313904Y-90659857D01*
X68313904Y-90986428D01*
X68217142Y-91421857D01*
X68120380Y-91639571D01*
X67926857Y-91857285D01*
X67636571Y-91966142D01*
X67152761Y-91966142D01*
X69184761Y-91966142D02*
X69184761Y-90442142D01*
X69184761Y-89680142D02*
X69088000Y-89789000D01*
X69184761Y-89897857D01*
X69281523Y-89789000D01*
X69184761Y-89680142D01*
X69184761Y-89897857D01*
X71023238Y-90442142D02*
X71023238Y-92292714D01*
X70926476Y-92510428D01*
X70829714Y-92619285D01*
X70636190Y-92728142D01*
X70345904Y-92728142D01*
X70152380Y-92619285D01*
X71023238Y-91857285D02*
X70829714Y-91966142D01*
X70442666Y-91966142D01*
X70249142Y-91857285D01*
X70152380Y-91748428D01*
X70055619Y-91530714D01*
X70055619Y-90877571D01*
X70152380Y-90659857D01*
X70249142Y-90551000D01*
X70442666Y-90442142D01*
X70829714Y-90442142D01*
X71023238Y-90551000D01*
X71990857Y-91966142D02*
X71990857Y-90442142D01*
X71990857Y-89680142D02*
X71894095Y-89789000D01*
X71990857Y-89897857D01*
X72087619Y-89789000D01*
X71990857Y-89680142D01*
X71990857Y-89897857D01*
X72668190Y-90442142D02*
X73442285Y-90442142D01*
X72958476Y-89680142D02*
X72958476Y-91639571D01*
X73055238Y-91857285D01*
X73248761Y-91966142D01*
X73442285Y-91966142D01*
X74990476Y-91966142D02*
X74990476Y-90768714D01*
X74893714Y-90551000D01*
X74700190Y-90442142D01*
X74313142Y-90442142D01*
X74119619Y-90551000D01*
X74990476Y-91857285D02*
X74796952Y-91966142D01*
X74313142Y-91966142D01*
X74119619Y-91857285D01*
X74022857Y-91639571D01*
X74022857Y-91421857D01*
X74119619Y-91204142D01*
X74313142Y-91095285D01*
X74796952Y-91095285D01*
X74990476Y-90986428D01*
X76248380Y-91966142D02*
X76054857Y-91857285D01*
X75958095Y-91639571D01*
X75958095Y-89680142D01*
X79248000Y-90768714D02*
X79538285Y-90877571D01*
X79635047Y-90986428D01*
X79731809Y-91204142D01*
X79731809Y-91530714D01*
X79635047Y-91748428D01*
X79538285Y-91857285D01*
X79344761Y-91966142D01*
X78570666Y-91966142D01*
X78570666Y-89680142D01*
X79248000Y-89680142D01*
X79441523Y-89789000D01*
X79538285Y-89897857D01*
X79635047Y-90115571D01*
X79635047Y-90333285D01*
X79538285Y-90551000D01*
X79441523Y-90659857D01*
X79248000Y-90768714D01*
X78570666Y-90768714D01*
X80892952Y-91966142D02*
X80699428Y-91857285D01*
X80602666Y-91748428D01*
X80505904Y-91530714D01*
X80505904Y-90877571D01*
X80602666Y-90659857D01*
X80699428Y-90551000D01*
X80892952Y-90442142D01*
X81183238Y-90442142D01*
X81376761Y-90551000D01*
X81473523Y-90659857D01*
X81570285Y-90877571D01*
X81570285Y-91530714D01*
X81473523Y-91748428D01*
X81376761Y-91857285D01*
X81183238Y-91966142D01*
X80892952Y-91966142D01*
X83312000Y-91966142D02*
X83312000Y-90768714D01*
X83215238Y-90551000D01*
X83021714Y-90442142D01*
X82634666Y-90442142D01*
X82441142Y-90551000D01*
X83312000Y-91857285D02*
X83118476Y-91966142D01*
X82634666Y-91966142D01*
X82441142Y-91857285D01*
X82344380Y-91639571D01*
X82344380Y-91421857D01*
X82441142Y-91204142D01*
X82634666Y-91095285D01*
X83118476Y-91095285D01*
X83312000Y-90986428D01*
X84279619Y-91966142D02*
X84279619Y-90442142D01*
X84279619Y-90877571D02*
X84376380Y-90659857D01*
X84473142Y-90551000D01*
X84666666Y-90442142D01*
X84860190Y-90442142D01*
X86408380Y-91966142D02*
X86408380Y-89680142D01*
X86408380Y-91857285D02*
X86214857Y-91966142D01*
X85827809Y-91966142D01*
X85634285Y-91857285D01*
X85537523Y-91748428D01*
X85440761Y-91530714D01*
X85440761Y-90877571D01*
X85537523Y-90659857D01*
X85634285Y-90551000D01*
X85827809Y-90442142D01*
X86214857Y-90442142D01*
X86408380Y-90551000D01*
X90085333Y-91966142D02*
X89408000Y-90877571D01*
X88924190Y-91966142D02*
X88924190Y-89680142D01*
X89698285Y-89680142D01*
X89891809Y-89789000D01*
X89988571Y-89897857D01*
X90085333Y-90115571D01*
X90085333Y-90442142D01*
X89988571Y-90659857D01*
X89891809Y-90768714D01*
X89698285Y-90877571D01*
X88924190Y-90877571D01*
X91730285Y-91857285D02*
X91536761Y-91966142D01*
X91149714Y-91966142D01*
X90956190Y-91857285D01*
X90859428Y-91639571D01*
X90859428Y-90768714D01*
X90956190Y-90551000D01*
X91149714Y-90442142D01*
X91536761Y-90442142D01*
X91730285Y-90551000D01*
X91827047Y-90768714D01*
X91827047Y-90986428D01*
X90859428Y-91204142D01*
X92504380Y-90442142D02*
X92988190Y-91966142D01*
X93472000Y-90442142D01*
X96181333Y-89680142D02*
X96374857Y-89680142D01*
X96568380Y-89789000D01*
X96665142Y-89897857D01*
X96761904Y-90115571D01*
X96858666Y-90551000D01*
X96858666Y-91095285D01*
X96761904Y-91530714D01*
X96665142Y-91748428D01*
X96568380Y-91857285D01*
X96374857Y-91966142D01*
X96181333Y-91966142D01*
X95987809Y-91857285D01*
X95891047Y-91748428D01*
X95794285Y-91530714D01*
X95697523Y-91095285D01*
X95697523Y-90551000D01*
X95794285Y-90115571D01*
X95891047Y-89897857D01*
X95987809Y-89789000D01*
X96181333Y-89680142D01*
D11*
X48196476Y-115101714D02*
X48196476Y-115768380D01*
X47958380Y-114720761D02*
X47720285Y-115435047D01*
X48339333Y-115435047D01*
X50212666Y-114768380D02*
X50831714Y-114768380D01*
X50498380Y-115149333D01*
X50641238Y-115149333D01*
X50736476Y-115196952D01*
X50784095Y-115244571D01*
X50831714Y-115339809D01*
X50831714Y-115577904D01*
X50784095Y-115673142D01*
X50736476Y-115720761D01*
X50641238Y-115768380D01*
X50355523Y-115768380D01*
X50260285Y-115720761D01*
X50212666Y-115673142D01*
X52800285Y-114863619D02*
X52847904Y-114816000D01*
X52943142Y-114768380D01*
X53181238Y-114768380D01*
X53276476Y-114816000D01*
X53324095Y-114863619D01*
X53371714Y-114958857D01*
X53371714Y-115054095D01*
X53324095Y-115196952D01*
X52752666Y-115768380D01*
X53371714Y-115768380D01*
X55911714Y-115768380D02*
X55340285Y-115768380D01*
X55626000Y-115768380D02*
X55626000Y-114768380D01*
X55530761Y-114911238D01*
X55435523Y-115006476D01*
X55340285Y-115054095D01*
X43275333Y-121626380D02*
X43465809Y-121626380D01*
X43561047Y-121674000D01*
X43656285Y-121769238D01*
X43703904Y-121959714D01*
X43703904Y-122293047D01*
X43656285Y-122483523D01*
X43561047Y-122578761D01*
X43465809Y-122626380D01*
X43275333Y-122626380D01*
X43180095Y-122578761D01*
X43084857Y-122483523D01*
X43037238Y-122293047D01*
X43037238Y-121959714D01*
X43084857Y-121769238D01*
X43180095Y-121674000D01*
X43275333Y-121626380D01*
X43989619Y-121959714D02*
X44370571Y-121959714D01*
X44132476Y-122626380D02*
X44132476Y-121769238D01*
X44180095Y-121674000D01*
X44275333Y-121626380D01*
X44370571Y-121626380D01*
X44561047Y-121959714D02*
X44942000Y-121959714D01*
X44703904Y-122626380D02*
X44703904Y-121769238D01*
X44751523Y-121674000D01*
X44846761Y-121626380D01*
X44942000Y-121626380D01*
X43648380Y-118578380D02*
X43838857Y-118578380D01*
X43934095Y-118626000D01*
X44029333Y-118721238D01*
X44076952Y-118911714D01*
X44076952Y-119245047D01*
X44029333Y-119435523D01*
X43934095Y-119530761D01*
X43838857Y-119578380D01*
X43648380Y-119578380D01*
X43553142Y-119530761D01*
X43457904Y-119435523D01*
X43410285Y-119245047D01*
X43410285Y-118911714D01*
X43457904Y-118721238D01*
X43553142Y-118626000D01*
X43648380Y-118578380D01*
X44505523Y-118911714D02*
X44505523Y-119578380D01*
X44505523Y-119006952D02*
X44553142Y-118959333D01*
X44648380Y-118911714D01*
X44791238Y-118911714D01*
X44886476Y-118959333D01*
X44934095Y-119054571D01*
X44934095Y-119578380D01*
X63222380Y-119530761D02*
X63365238Y-119578380D01*
X63603333Y-119578380D01*
X63698571Y-119530761D01*
X63746190Y-119483142D01*
X63793809Y-119387904D01*
X63793809Y-119292666D01*
X63746190Y-119197428D01*
X63698571Y-119149809D01*
X63603333Y-119102190D01*
X63412857Y-119054571D01*
X63317619Y-119006952D01*
X63270000Y-118959333D01*
X63222380Y-118864095D01*
X63222380Y-118768857D01*
X63270000Y-118673619D01*
X63317619Y-118626000D01*
X63412857Y-118578380D01*
X63650952Y-118578380D01*
X63793809Y-118626000D01*
X64127142Y-118911714D02*
X64365238Y-119578380D01*
X64603333Y-118911714D02*
X64365238Y-119578380D01*
X64270000Y-119816476D01*
X64222380Y-119864095D01*
X64127142Y-119911714D01*
X64984285Y-118911714D02*
X64984285Y-119578380D01*
X64984285Y-119006952D02*
X65031904Y-118959333D01*
X65127142Y-118911714D01*
X65270000Y-118911714D01*
X65365238Y-118959333D01*
X65412857Y-119054571D01*
X65412857Y-119578380D01*
X66317619Y-119530761D02*
X66222380Y-119578380D01*
X66031904Y-119578380D01*
X65936666Y-119530761D01*
X65889047Y-119483142D01*
X65841428Y-119387904D01*
X65841428Y-119102190D01*
X65889047Y-119006952D01*
X65936666Y-118959333D01*
X66031904Y-118911714D01*
X66222380Y-118911714D01*
X66317619Y-118959333D01*
X63603333Y-122626380D02*
X63603333Y-121626380D01*
X63984285Y-121626380D01*
X64079523Y-121674000D01*
X64127142Y-121721619D01*
X64174761Y-121816857D01*
X64174761Y-121959714D01*
X64127142Y-122054952D01*
X64079523Y-122102571D01*
X63984285Y-122150190D01*
X63603333Y-122150190D01*
X65031904Y-122626380D02*
X65031904Y-122102571D01*
X64984285Y-122007333D01*
X64889047Y-121959714D01*
X64698571Y-121959714D01*
X64603333Y-122007333D01*
X65031904Y-122578761D02*
X64936666Y-122626380D01*
X64698571Y-122626380D01*
X64603333Y-122578761D01*
X64555714Y-122483523D01*
X64555714Y-122388285D01*
X64603333Y-122293047D01*
X64698571Y-122245428D01*
X64936666Y-122245428D01*
X65031904Y-122197809D01*
X65508095Y-121959714D02*
X65508095Y-122626380D01*
X65508095Y-122054952D02*
X65555714Y-122007333D01*
X65650952Y-121959714D01*
X65793809Y-121959714D01*
X65889047Y-122007333D01*
X65936666Y-122102571D01*
X65936666Y-122626380D01*
X75708285Y-122626380D02*
X75708285Y-121626380D01*
X75708285Y-122102571D02*
X76279714Y-122102571D01*
X76279714Y-122626380D02*
X76279714Y-121626380D01*
X77184476Y-122626380D02*
X77184476Y-122102571D01*
X77136857Y-122007333D01*
X77041619Y-121959714D01*
X76851142Y-121959714D01*
X76755904Y-122007333D01*
X77184476Y-122578761D02*
X77089238Y-122626380D01*
X76851142Y-122626380D01*
X76755904Y-122578761D01*
X76708285Y-122483523D01*
X76708285Y-122388285D01*
X76755904Y-122293047D01*
X76851142Y-122245428D01*
X77089238Y-122245428D01*
X77184476Y-122197809D01*
X77660666Y-122626380D02*
X77660666Y-121959714D01*
X77660666Y-122150190D02*
X77708285Y-122054952D01*
X77755904Y-122007333D01*
X77851142Y-121959714D01*
X77946380Y-121959714D01*
X78279714Y-122626380D02*
X78279714Y-121959714D01*
X78279714Y-122054952D02*
X78327333Y-122007333D01*
X78422571Y-121959714D01*
X78565428Y-121959714D01*
X78660666Y-122007333D01*
X78708285Y-122102571D01*
X78708285Y-122626380D01*
X78708285Y-122102571D02*
X78755904Y-122007333D01*
X78851142Y-121959714D01*
X78994000Y-121959714D01*
X79089238Y-122007333D01*
X79136857Y-122102571D01*
X79136857Y-122626380D01*
X79755904Y-122626380D02*
X79660666Y-122578761D01*
X79613047Y-122531142D01*
X79565428Y-122435904D01*
X79565428Y-122150190D01*
X79613047Y-122054952D01*
X79660666Y-122007333D01*
X79755904Y-121959714D01*
X79898761Y-121959714D01*
X79994000Y-122007333D01*
X80041619Y-122054952D01*
X80089238Y-122150190D01*
X80089238Y-122435904D01*
X80041619Y-122531142D01*
X79994000Y-122578761D01*
X79898761Y-122626380D01*
X79755904Y-122626380D01*
X80517809Y-121959714D02*
X80517809Y-122626380D01*
X80517809Y-122054952D02*
X80565428Y-122007333D01*
X80660666Y-121959714D01*
X80803523Y-121959714D01*
X80898761Y-122007333D01*
X80946380Y-122102571D01*
X80946380Y-122626380D01*
X81422571Y-122626380D02*
X81422571Y-121959714D01*
X81422571Y-121626380D02*
X81374952Y-121674000D01*
X81422571Y-121721619D01*
X81470190Y-121674000D01*
X81422571Y-121626380D01*
X81422571Y-121721619D01*
X82327333Y-122578761D02*
X82232095Y-122626380D01*
X82041619Y-122626380D01*
X81946380Y-122578761D01*
X81898761Y-122531142D01*
X81851142Y-122435904D01*
X81851142Y-122150190D01*
X81898761Y-122054952D01*
X81946380Y-122007333D01*
X82041619Y-121959714D01*
X82232095Y-121959714D01*
X82327333Y-122007333D01*
X75597142Y-119530761D02*
X75740000Y-119578380D01*
X75978095Y-119578380D01*
X76073333Y-119530761D01*
X76120952Y-119483142D01*
X76168571Y-119387904D01*
X76168571Y-119292666D01*
X76120952Y-119197428D01*
X76073333Y-119149809D01*
X75978095Y-119102190D01*
X75787619Y-119054571D01*
X75692380Y-119006952D01*
X75644761Y-118959333D01*
X75597142Y-118864095D01*
X75597142Y-118768857D01*
X75644761Y-118673619D01*
X75692380Y-118626000D01*
X75787619Y-118578380D01*
X76025714Y-118578380D01*
X76168571Y-118626000D01*
X76454285Y-118911714D02*
X76835238Y-118911714D01*
X76597142Y-118578380D02*
X76597142Y-119435523D01*
X76644761Y-119530761D01*
X76740000Y-119578380D01*
X76835238Y-119578380D01*
X77597142Y-119578380D02*
X77597142Y-119054571D01*
X77549523Y-118959333D01*
X77454285Y-118911714D01*
X77263809Y-118911714D01*
X77168571Y-118959333D01*
X77597142Y-119530761D02*
X77501904Y-119578380D01*
X77263809Y-119578380D01*
X77168571Y-119530761D01*
X77120952Y-119435523D01*
X77120952Y-119340285D01*
X77168571Y-119245047D01*
X77263809Y-119197428D01*
X77501904Y-119197428D01*
X77597142Y-119149809D01*
X78073333Y-118911714D02*
X78073333Y-119578380D01*
X78073333Y-119006952D02*
X78120952Y-118959333D01*
X78216190Y-118911714D01*
X78359047Y-118911714D01*
X78454285Y-118959333D01*
X78501904Y-119054571D01*
X78501904Y-119578380D01*
X79406666Y-119578380D02*
X79406666Y-118578380D01*
X79406666Y-119530761D02*
X79311428Y-119578380D01*
X79120952Y-119578380D01*
X79025714Y-119530761D01*
X78978095Y-119483142D01*
X78930476Y-119387904D01*
X78930476Y-119102190D01*
X78978095Y-119006952D01*
X79025714Y-118959333D01*
X79120952Y-118911714D01*
X79311428Y-118911714D01*
X79406666Y-118959333D01*
X80311428Y-119578380D02*
X80311428Y-119054571D01*
X80263809Y-118959333D01*
X80168571Y-118911714D01*
X79978095Y-118911714D01*
X79882857Y-118959333D01*
X80311428Y-119530761D02*
X80216190Y-119578380D01*
X79978095Y-119578380D01*
X79882857Y-119530761D01*
X79835238Y-119435523D01*
X79835238Y-119340285D01*
X79882857Y-119245047D01*
X79978095Y-119197428D01*
X80216190Y-119197428D01*
X80311428Y-119149809D01*
X80787619Y-119578380D02*
X80787619Y-118911714D01*
X80787619Y-119102190D02*
X80835238Y-119006952D01*
X80882857Y-118959333D01*
X80978095Y-118911714D01*
X81073333Y-118911714D01*
X81835238Y-119578380D02*
X81835238Y-118578380D01*
X81835238Y-119530761D02*
X81740000Y-119578380D01*
X81549523Y-119578380D01*
X81454285Y-119530761D01*
X81406666Y-119483142D01*
X81359047Y-119387904D01*
X81359047Y-119102190D01*
X81406666Y-119006952D01*
X81454285Y-118959333D01*
X81549523Y-118911714D01*
X81740000Y-118911714D01*
X81835238Y-118959333D01*
D15*
X27144980Y-67571620D02*
X26446480Y-67571620D01*
D16*
X29491940Y-76200000D02*
X25339040Y-76200000D01*
X30492700Y-75199240D02*
X29491940Y-76200000D01*
X30492700Y-67040760D02*
X30492700Y-75199240D01*
X29491940Y-66040000D02*
X30492700Y-67040760D01*
X25339040Y-66040000D02*
X29491940Y-66040000D01*
X25339040Y-66040000D02*
X25339040Y-76200000D01*
X40149780Y-81404460D02*
X42146220Y-81404460D01*
X40149780Y-80406240D02*
X40149780Y-81404460D01*
X42146220Y-80406240D02*
X40149780Y-80406240D01*
X42146220Y-81404460D02*
X42146220Y-80406240D01*
X45628560Y-80990440D02*
X45679360Y-80982820D01*
X45580300Y-81010760D02*
X45628560Y-80990440D01*
X45539660Y-81041240D02*
X45580300Y-81010760D01*
X45506640Y-81081880D02*
X45539660Y-81041240D01*
X45486320Y-81130140D02*
X45506640Y-81081880D01*
X45478700Y-81183480D02*
X45486320Y-81130140D01*
X45486320Y-81234280D02*
X45478700Y-81183480D01*
X45506640Y-81282540D02*
X45486320Y-81234280D01*
X45539660Y-81323180D02*
X45506640Y-81282540D01*
X45580300Y-81356200D02*
X45539660Y-81323180D01*
X45628560Y-81376520D02*
X45580300Y-81356200D01*
X45679360Y-81384140D02*
X45628560Y-81376520D01*
X45732700Y-81376520D02*
X45679360Y-81384140D01*
X45780960Y-81356200D02*
X45732700Y-81376520D01*
X45821600Y-81323180D02*
X45780960Y-81356200D01*
X45852080Y-81282540D02*
X45821600Y-81323180D01*
X45872400Y-81234280D02*
X45852080Y-81282540D01*
X45880020Y-81183480D02*
X45872400Y-81234280D01*
X45872400Y-81130140D02*
X45880020Y-81183480D01*
X45852080Y-81081880D02*
X45872400Y-81130140D01*
X45821600Y-81041240D02*
X45852080Y-81081880D01*
X45780960Y-81010760D02*
X45821600Y-81041240D01*
X45732700Y-80990440D02*
X45780960Y-81010760D01*
X45679360Y-80982820D02*
X45732700Y-80990440D01*
X39082980Y-81404460D02*
X39082980Y-76075540D01*
X43213020Y-81404460D02*
X43213020Y-76075540D01*
X45079920Y-76075540D02*
X45079920Y-81404460D01*
X43213020Y-76075540D02*
X45079920Y-76075540D01*
X39082980Y-76075540D02*
X43213020Y-76075540D01*
X37216080Y-76075540D02*
X39082980Y-76075540D01*
X37216080Y-81404460D02*
X37216080Y-76075540D01*
X39082980Y-81404460D02*
X37216080Y-81404460D01*
X43213020Y-81404460D02*
X39082980Y-81404460D01*
X45079920Y-81404460D02*
X43213020Y-81404460D01*
X113497360Y-56050180D02*
X113497360Y-58249820D01*
X114594640Y-56050180D02*
X113497360Y-56050180D01*
X114594640Y-58249820D02*
X114594640Y-56050180D01*
X113497360Y-58249820D02*
X114594640Y-58249820D01*
X113497360Y-39032180D02*
X113497360Y-41231820D01*
X114594640Y-39032180D02*
X113497360Y-39032180D01*
X114594640Y-41231820D02*
X114594640Y-39032180D01*
X113497360Y-41231820D02*
X114594640Y-41231820D01*
X111125000Y-29464000D02*
X111125000Y-30099000D01*
X111760000Y-28829000D02*
X111125000Y-29464000D01*
X112395000Y-29464000D02*
X111760000Y-28829000D01*
X111760000Y-30099000D02*
X112395000Y-29464000D01*
X111125000Y-30099000D02*
X111760000Y-30099000D01*
X111780320Y-29443680D02*
X111780320Y-26944320D01*
X116819680Y-29443680D02*
X111780320Y-29443680D01*
X116819680Y-26944320D02*
X116819680Y-29443680D01*
X111780320Y-26944320D02*
X116819680Y-26944320D01*
X56870600Y-104678480D02*
G75*
G03X56616600Y-104424480I-254000J0D01*
G01*
X54127400Y-104424480D02*
G75*
G03X53873400Y-104678480I0J-254000D01*
G01*
X54874160Y-106172000D02*
X55869840Y-106172000D01*
X55372000Y-105674160D02*
X55372000Y-106669840D01*
X55620920Y-108170980D02*
X55123080Y-108170980D01*
X56870600Y-104678480D02*
X56870600Y-107170220D01*
X56370220Y-104424480D02*
X56616600Y-104424480D01*
X54127400Y-104424480D02*
X54373780Y-104424480D01*
X53873400Y-107170220D02*
X53873400Y-104678480D01*
D17*
X43926000Y-31366000D02*
X43926000Y-34166000D01*
X43926000Y-34166000D02*
X41926000Y-34166000D01*
X41926000Y-34166000D02*
X41926000Y-31366000D01*
X41926000Y-31366000D02*
X43926000Y-31366000D01*
X41926000Y-30864000D02*
X41926000Y-28064000D01*
X41926000Y-28064000D02*
X43926000Y-28064000D01*
X43926000Y-28064000D02*
X43926000Y-30864000D01*
X43926000Y-30864000D02*
X41926000Y-30864000D01*
X58912000Y-31366000D02*
X58912000Y-34166000D01*
X58912000Y-34166000D02*
X56912000Y-34166000D01*
X56912000Y-34166000D02*
X56912000Y-31366000D01*
X56912000Y-31366000D02*
X58912000Y-31366000D01*
X56912000Y-30864000D02*
X56912000Y-28064000D01*
X56912000Y-28064000D02*
X58912000Y-28064000D01*
X58912000Y-28064000D02*
X58912000Y-30864000D01*
X58912000Y-30864000D02*
X56912000Y-30864000D01*
X74152000Y-31874000D02*
X74152000Y-34674000D01*
X74152000Y-34674000D02*
X72152000Y-34674000D01*
X72152000Y-34674000D02*
X72152000Y-31874000D01*
X72152000Y-31874000D02*
X74152000Y-31874000D01*
X72152000Y-31372000D02*
X72152000Y-28572000D01*
X72152000Y-28572000D02*
X74152000Y-28572000D01*
X74152000Y-28572000D02*
X74152000Y-31372000D01*
X74152000Y-31372000D02*
X72152000Y-31372000D01*
X90154000Y-31874000D02*
X90154000Y-34674000D01*
X90154000Y-34674000D02*
X88154000Y-34674000D01*
X88154000Y-34674000D02*
X88154000Y-31874000D01*
X88154000Y-31874000D02*
X90154000Y-31874000D01*
X88154000Y-31372000D02*
X88154000Y-28572000D01*
X88154000Y-28572000D02*
X90154000Y-28572000D01*
X90154000Y-28572000D02*
X90154000Y-31372000D01*
X90154000Y-31372000D02*
X88154000Y-31372000D01*
D16*
X96901000Y-123444000D02*
X96901000Y-122809000D01*
X96266000Y-124079000D02*
X96901000Y-123444000D01*
X95631000Y-123444000D02*
X96266000Y-124079000D01*
X96266000Y-122809000D02*
X95631000Y-123444000D01*
X96901000Y-122809000D02*
X96266000Y-122809000D01*
X96245680Y-123464320D02*
X96245680Y-125963680D01*
X91206320Y-123464320D02*
X96245680Y-123464320D01*
X91206320Y-125963680D02*
X91206320Y-123464320D01*
X96245680Y-125963680D02*
X91206320Y-125963680D01*
X108331000Y-123444000D02*
X108331000Y-122809000D01*
X107696000Y-124079000D02*
X108331000Y-123444000D01*
X107061000Y-123444000D02*
X107696000Y-124079000D01*
X107696000Y-122809000D02*
X107061000Y-123444000D01*
X108331000Y-122809000D02*
X107696000Y-122809000D01*
X107675680Y-123464320D02*
X107675680Y-125963680D01*
X102636320Y-123464320D02*
X107675680Y-123464320D01*
X102636320Y-125963680D02*
X102636320Y-123464320D01*
X107675680Y-125963680D02*
X102636320Y-125963680D01*
X44025820Y-34757360D02*
X41826180Y-34757360D01*
X44025820Y-35854640D02*
X44025820Y-34757360D01*
X41826180Y-35854640D02*
X44025820Y-35854640D01*
X41826180Y-34757360D02*
X41826180Y-35854640D01*
X59011820Y-34757360D02*
X56812180Y-34757360D01*
X59011820Y-35854640D02*
X59011820Y-34757360D01*
X56812180Y-35854640D02*
X59011820Y-35854640D01*
X56812180Y-34757360D02*
X56812180Y-35854640D01*
X74505820Y-35265360D02*
X72306180Y-35265360D01*
X74505820Y-36362640D02*
X74505820Y-35265360D01*
X72306180Y-36362640D02*
X74505820Y-36362640D01*
X72306180Y-35265360D02*
X72306180Y-36362640D01*
X90425141Y-35265360D02*
X88225501Y-35265360D01*
X90425141Y-36362640D02*
X90425141Y-35265360D01*
X88225501Y-36362640D02*
X90425141Y-36362640D01*
X88225501Y-35265360D02*
X88225501Y-36362640D01*
D17*
X39892000Y-56658000D02*
X39892000Y-58658000D01*
X25482000Y-52548000D02*
X28542000Y-52548000D01*
X25482000Y-62768000D02*
X25482000Y-52548000D01*
X28542000Y-62768000D02*
X25482000Y-62768000D01*
X38702000Y-62768000D02*
X32642000Y-62768000D01*
X38702000Y-59958000D02*
X38702000Y-62768000D01*
X38702000Y-52548000D02*
X38702000Y-55358000D01*
X32642000Y-52548000D02*
X38702000Y-52548000D01*
X103601860Y-37636320D02*
X103601860Y-39101320D01*
X103246860Y-37636320D02*
X103601860Y-37636320D01*
X103246860Y-35626320D02*
X103246860Y-37636320D01*
X103246860Y-33616320D02*
X103601860Y-33616320D01*
X103246860Y-35626320D02*
X103246860Y-33616320D01*
X107566860Y-37636320D02*
X107211860Y-37636320D01*
X107566860Y-35626320D02*
X107566860Y-37636320D01*
X107566860Y-33616320D02*
X107211860Y-33616320D01*
X107566860Y-35626320D02*
X107566860Y-33616320D01*
X97189860Y-37636320D02*
X97189860Y-39101320D01*
X96834860Y-37636320D02*
X97189860Y-37636320D01*
X96834860Y-35626320D02*
X96834860Y-37636320D01*
X96834860Y-33616320D02*
X97189860Y-33616320D01*
X96834860Y-35626320D02*
X96834860Y-33616320D01*
X101154860Y-37636320D02*
X100799860Y-37636320D01*
X101154860Y-35626320D02*
X101154860Y-37636320D01*
X101154860Y-33616320D02*
X100799860Y-33616320D01*
X101154860Y-35626320D02*
X101154860Y-33616320D01*
X102616000Y-87578000D02*
X102616000Y-77578000D01*
X98806000Y-77578000D02*
X102616000Y-77578000D01*
X98806000Y-87578000D02*
X98806000Y-77578000D01*
X102616000Y-87578000D02*
X98806000Y-87578000D01*
X125666000Y-92578000D02*
X102166000Y-92578000D01*
X102166000Y-92578000D02*
X102166000Y-72578000D01*
X125666000Y-72578000D02*
X102166000Y-72578000D01*
X125666000Y-92578000D02*
X125666000Y-72578000D01*
D16*
X102235000Y-29464000D02*
X102235000Y-30099000D01*
X102870000Y-28829000D02*
X102235000Y-29464000D01*
X103505000Y-29464000D02*
X102870000Y-28829000D01*
X102870000Y-30099000D02*
X103505000Y-29464000D01*
X102235000Y-30099000D02*
X102870000Y-30099000D01*
X102890320Y-29443680D02*
X102890320Y-26944320D01*
X107929680Y-29443680D02*
X102890320Y-29443680D01*
X107929680Y-26944320D02*
X107929680Y-29443680D01*
X102890320Y-26944320D02*
X107929680Y-26944320D01*
X95631000Y-29464000D02*
X95631000Y-30099000D01*
X96266000Y-28829000D02*
X95631000Y-29464000D01*
X96901000Y-29464000D02*
X96266000Y-28829000D01*
X96266000Y-30099000D02*
X96901000Y-29464000D01*
X95631000Y-30099000D02*
X96266000Y-30099000D01*
X96286320Y-29443680D02*
X96286320Y-26944320D01*
X101325680Y-29443680D02*
X96286320Y-29443680D01*
X101325680Y-26944320D02*
X101325680Y-29443680D01*
X96286320Y-26944320D02*
X101325680Y-26944320D01*
X73111360Y-63162180D02*
X73111360Y-65361820D01*
X74208640Y-63162180D02*
X73111360Y-63162180D01*
X74208640Y-65361820D02*
X74208640Y-63162180D01*
X73111360Y-65361820D02*
X74208640Y-65361820D01*
D17*
X78770000Y-78836000D02*
X80110000Y-78836000D01*
X78770000Y-79786000D02*
X78770000Y-78836000D01*
X77820000Y-79786000D02*
X78770000Y-79786000D01*
X68550000Y-79786000D02*
X68550000Y-78836000D01*
X69500000Y-79786000D02*
X68550000Y-79786000D01*
X78770000Y-69566000D02*
X78770000Y-70516000D01*
X77820000Y-69566000D02*
X78770000Y-69566000D01*
X68550000Y-69566000D02*
X68550000Y-70516000D01*
X69500000Y-69566000D02*
X68550000Y-69566000D01*
X36670860Y-34880320D02*
X36670860Y-34470320D01*
X39220860Y-34880320D02*
X39220860Y-34470320D01*
X39880860Y-41710320D02*
X39880860Y-41300320D01*
X41330860Y-41300320D02*
X34610860Y-41300320D01*
X41330860Y-34880320D02*
X41330860Y-41300320D01*
X34610860Y-34880320D02*
X41330860Y-34880320D01*
X34610860Y-41300320D02*
X34610860Y-34880320D01*
X36080860Y-41710320D02*
X36080860Y-41300320D01*
X40950860Y-44290320D02*
X40950860Y-41300320D01*
X51480860Y-34880320D02*
X51480860Y-34470320D01*
X54030860Y-34880320D02*
X54030860Y-34470320D01*
X54690860Y-41710320D02*
X54690860Y-41300320D01*
X56140860Y-41300320D02*
X49420860Y-41300320D01*
X56140860Y-34880320D02*
X56140860Y-41300320D01*
X49420860Y-34880320D02*
X56140860Y-34880320D01*
X49420860Y-41300320D02*
X49420860Y-34880320D01*
X50890860Y-41710320D02*
X50890860Y-41300320D01*
X55760860Y-44290320D02*
X55760860Y-41300320D01*
D16*
X35953700Y-48836580D02*
X35900360Y-48841660D01*
X36001960Y-48816260D02*
X35953700Y-48836580D01*
X36042600Y-48783240D02*
X36001960Y-48816260D01*
X36075620Y-48742600D02*
X36042600Y-48783240D01*
X36093400Y-48694340D02*
X36075620Y-48742600D01*
X36101020Y-48643540D02*
X36093400Y-48694340D01*
X36093400Y-48590200D02*
X36101020Y-48643540D01*
X36075620Y-48541940D02*
X36093400Y-48590200D01*
X36042600Y-48501300D02*
X36075620Y-48541940D01*
X36001960Y-48468280D02*
X36042600Y-48501300D01*
X35953700Y-48450500D02*
X36001960Y-48468280D01*
X35900360Y-48442880D02*
X35953700Y-48450500D01*
X35849560Y-48450500D02*
X35900360Y-48442880D01*
X35801300Y-48468280D02*
X35849560Y-48450500D01*
X35760660Y-48501300D02*
X35801300Y-48468280D01*
X35727640Y-48541940D02*
X35760660Y-48501300D01*
X35707320Y-48590200D02*
X35727640Y-48541940D01*
X35702240Y-48643540D02*
X35707320Y-48590200D01*
X35707320Y-48694340D02*
X35702240Y-48643540D01*
X35727640Y-48742600D02*
X35707320Y-48694340D01*
X35760660Y-48783240D02*
X35727640Y-48742600D01*
X35801300Y-48816260D02*
X35760660Y-48783240D01*
X35849560Y-48836580D02*
X35801300Y-48816260D01*
X35900360Y-48841660D02*
X35849560Y-48836580D01*
X36502340Y-45445680D02*
X36502340Y-49042320D01*
X39697660Y-45445680D02*
X36502340Y-45445680D01*
X39697660Y-49042320D02*
X39697660Y-45445680D01*
X36502340Y-49042320D02*
X39697660Y-49042320D01*
X50685700Y-48836580D02*
X50632360Y-48841660D01*
X50733960Y-48816260D02*
X50685700Y-48836580D01*
X50774600Y-48783240D02*
X50733960Y-48816260D01*
X50807620Y-48742600D02*
X50774600Y-48783240D01*
X50825400Y-48694340D02*
X50807620Y-48742600D01*
X50833020Y-48643540D02*
X50825400Y-48694340D01*
X50825400Y-48590200D02*
X50833020Y-48643540D01*
X50807620Y-48541940D02*
X50825400Y-48590200D01*
X50774600Y-48501300D02*
X50807620Y-48541940D01*
X50733960Y-48468280D02*
X50774600Y-48501300D01*
X50685700Y-48450500D02*
X50733960Y-48468280D01*
X50632360Y-48442880D02*
X50685700Y-48450500D01*
X50581560Y-48450500D02*
X50632360Y-48442880D01*
X50533300Y-48468280D02*
X50581560Y-48450500D01*
X50492660Y-48501300D02*
X50533300Y-48468280D01*
X50459640Y-48541940D02*
X50492660Y-48501300D01*
X50439320Y-48590200D02*
X50459640Y-48541940D01*
X50434240Y-48643540D02*
X50439320Y-48590200D01*
X50439320Y-48694340D02*
X50434240Y-48643540D01*
X50459640Y-48742600D02*
X50439320Y-48694340D01*
X50492660Y-48783240D02*
X50459640Y-48742600D01*
X50533300Y-48816260D02*
X50492660Y-48783240D01*
X50581560Y-48836580D02*
X50533300Y-48816260D01*
X50632360Y-48841660D02*
X50581560Y-48836580D01*
X51234340Y-45445680D02*
X51234340Y-49042320D01*
X54429660Y-45445680D02*
X51234340Y-45445680D01*
X54429660Y-49042320D02*
X54429660Y-45445680D01*
X51234340Y-49042320D02*
X54429660Y-49042320D01*
D17*
X66894000Y-35144000D02*
X66894000Y-34734000D01*
X69444000Y-35144000D02*
X69444000Y-34734000D01*
X70104000Y-41974000D02*
X70104000Y-41564000D01*
X71554000Y-41564000D02*
X64834000Y-41564000D01*
X71554000Y-35144000D02*
X71554000Y-41564000D01*
X64834000Y-35144000D02*
X71554000Y-35144000D01*
X64834000Y-41564000D02*
X64834000Y-35144000D01*
X66304000Y-41974000D02*
X66304000Y-41564000D01*
X71174000Y-44554000D02*
X71174000Y-41564000D01*
X82820860Y-35134320D02*
X82820860Y-34724320D01*
X85370860Y-35134320D02*
X85370860Y-34724320D01*
X86030860Y-41964320D02*
X86030860Y-41554320D01*
X87480860Y-41554320D02*
X80760860Y-41554320D01*
X87480860Y-35134320D02*
X87480860Y-41554320D01*
X80760860Y-35134320D02*
X87480860Y-35134320D01*
X80760860Y-41554320D02*
X80760860Y-35134320D01*
X82230860Y-41964320D02*
X82230860Y-41554320D01*
X87100860Y-44544320D02*
X87100860Y-41554320D01*
D16*
X66179700Y-49598580D02*
X66126360Y-49603660D01*
X66227960Y-49578260D02*
X66179700Y-49598580D01*
X66268600Y-49545240D02*
X66227960Y-49578260D01*
X66301620Y-49504600D02*
X66268600Y-49545240D01*
X66319400Y-49456340D02*
X66301620Y-49504600D01*
X66327020Y-49405540D02*
X66319400Y-49456340D01*
X66319400Y-49352200D02*
X66327020Y-49405540D01*
X66301620Y-49303940D02*
X66319400Y-49352200D01*
X66268600Y-49263300D02*
X66301620Y-49303940D01*
X66227960Y-49230280D02*
X66268600Y-49263300D01*
X66179700Y-49212500D02*
X66227960Y-49230280D01*
X66126360Y-49204880D02*
X66179700Y-49212500D01*
X66075560Y-49212500D02*
X66126360Y-49204880D01*
X66027300Y-49230280D02*
X66075560Y-49212500D01*
X65986660Y-49263300D02*
X66027300Y-49230280D01*
X65953640Y-49303940D02*
X65986660Y-49263300D01*
X65933320Y-49352200D02*
X65953640Y-49303940D01*
X65928240Y-49405540D02*
X65933320Y-49352200D01*
X65933320Y-49456340D02*
X65928240Y-49405540D01*
X65953640Y-49504600D02*
X65933320Y-49456340D01*
X65986660Y-49545240D02*
X65953640Y-49504600D01*
X66027300Y-49578260D02*
X65986660Y-49545240D01*
X66075560Y-49598580D02*
X66027300Y-49578260D01*
X66126360Y-49603660D02*
X66075560Y-49598580D01*
X66728340Y-46207680D02*
X66728340Y-49804320D01*
X69923660Y-46207680D02*
X66728340Y-46207680D01*
X69923660Y-49804320D02*
X69923660Y-46207680D01*
X66728340Y-49804320D02*
X69923660Y-49804320D01*
X82181700Y-49598580D02*
X82128360Y-49603660D01*
X82229960Y-49578260D02*
X82181700Y-49598580D01*
X82270600Y-49545240D02*
X82229960Y-49578260D01*
X82303620Y-49504600D02*
X82270600Y-49545240D01*
X82321400Y-49456340D02*
X82303620Y-49504600D01*
X82329020Y-49405540D02*
X82321400Y-49456340D01*
X82321400Y-49352200D02*
X82329020Y-49405540D01*
X82303620Y-49303940D02*
X82321400Y-49352200D01*
X82270600Y-49263300D02*
X82303620Y-49303940D01*
X82229960Y-49230280D02*
X82270600Y-49263300D01*
X82181700Y-49212500D02*
X82229960Y-49230280D01*
X82128360Y-49204880D02*
X82181700Y-49212500D01*
X82077560Y-49212500D02*
X82128360Y-49204880D01*
X82029300Y-49230280D02*
X82077560Y-49212500D01*
X81988660Y-49263300D02*
X82029300Y-49230280D01*
X81955640Y-49303940D02*
X81988660Y-49263300D01*
X81935320Y-49352200D02*
X81955640Y-49303940D01*
X81930240Y-49405540D02*
X81935320Y-49352200D01*
X81935320Y-49456340D02*
X81930240Y-49405540D01*
X81955640Y-49504600D02*
X81935320Y-49456340D01*
X81988660Y-49545240D02*
X81955640Y-49504600D01*
X82029300Y-49578260D02*
X81988660Y-49545240D01*
X82077560Y-49598580D02*
X82029300Y-49578260D01*
X82128360Y-49603660D02*
X82077560Y-49598580D01*
X82730340Y-46207680D02*
X82730340Y-49804320D01*
X85925660Y-46207680D02*
X82730340Y-46207680D01*
X85925660Y-49804320D02*
X85925660Y-46207680D01*
X82730340Y-49804320D02*
X85925660Y-49804320D01*
D11*
X115093000Y-44997000D02*
X115218000Y-44997000D01*
X115093000Y-40347000D02*
X115318000Y-40347000D01*
X120343000Y-40347000D02*
X120118000Y-40347000D01*
X120343000Y-44997000D02*
X120118000Y-44997000D01*
X115093000Y-44997000D02*
X115093000Y-40347000D01*
X120343000Y-44997000D02*
X120343000Y-40347000D01*
X115218000Y-44997000D02*
X115218000Y-46347000D01*
X114977000Y-62015000D02*
X115102000Y-62015000D01*
X114977000Y-57365000D02*
X115202000Y-57365000D01*
X120227000Y-57365000D02*
X120002000Y-57365000D01*
X120227000Y-62015000D02*
X120002000Y-62015000D01*
X114977000Y-62015000D02*
X114977000Y-57365000D01*
X120227000Y-62015000D02*
X120227000Y-57365000D01*
X115102000Y-62015000D02*
X115102000Y-63365000D01*
D16*
X51338480Y-64315340D02*
X54833520Y-64315340D01*
X51338480Y-70812660D02*
X51338480Y-64315340D01*
X54833520Y-70812660D02*
X51338480Y-70812660D01*
X54833520Y-64315340D02*
X54833520Y-70812660D01*
X90424000Y-76545440D02*
X90025220Y-75547220D01*
X90424000Y-74747120D02*
X90424000Y-75346560D01*
X90424000Y-77144880D02*
X90424000Y-76545440D01*
X90424000Y-77144880D02*
X91622880Y-77144880D01*
X89225120Y-77144880D02*
X90424000Y-77144880D01*
X90424000Y-74747120D02*
X91622880Y-74747120D01*
X89225120Y-74747120D02*
X90424000Y-74747120D01*
X87624920Y-77543660D02*
X87624920Y-74348340D01*
X93223080Y-77543660D02*
X87624920Y-77543660D01*
X93223080Y-74348340D02*
X93223080Y-77543660D01*
X87624920Y-74348340D02*
X93223080Y-74348340D01*
X105410000Y-120632220D02*
X104612440Y-118836440D01*
X105410000Y-122031760D02*
X105410000Y-120632220D01*
X105410000Y-117236240D02*
X105410000Y-118635780D01*
X105410000Y-122031760D02*
X108079540Y-122031760D01*
X102740460Y-122031760D02*
X105410000Y-122031760D01*
X105410000Y-117236240D02*
X108079540Y-117236240D01*
X102740460Y-117236240D02*
X105410000Y-117236240D01*
X110609380Y-116235480D02*
X100210620Y-116235480D01*
X110609380Y-123032520D02*
X110609380Y-116235480D01*
X100210620Y-123032520D02*
X110609380Y-123032520D01*
X100210620Y-116235480D02*
X100210620Y-123032520D01*
X93726000Y-120632220D02*
X92928440Y-118836440D01*
X93726000Y-122031760D02*
X93726000Y-120632220D01*
X93726000Y-117236240D02*
X93726000Y-118635780D01*
X93726000Y-122031760D02*
X96395540Y-122031760D01*
X91056460Y-122031760D02*
X93726000Y-122031760D01*
X93726000Y-117236240D02*
X96395540Y-117236240D01*
X91056460Y-117236240D02*
X93726000Y-117236240D01*
X98925380Y-116235480D02*
X88526620Y-116235480D01*
X98925380Y-123032520D02*
X98925380Y-116235480D01*
X88526620Y-123032520D02*
X98925380Y-123032520D01*
X88526620Y-116235480D02*
X88526620Y-123032520D01*
D17*
X70231000Y-119973333D02*
X68961000Y-119973333D01*
X69031000Y-118620000D02*
X69031000Y-119973333D01*
X69151000Y-118620000D02*
X69151000Y-119973333D01*
X69271000Y-118620000D02*
X69271000Y-119973333D01*
X69391000Y-118620000D02*
X69391000Y-119973333D01*
X69511000Y-118620000D02*
X69511000Y-119973333D01*
X69631000Y-118620000D02*
X69631000Y-119973333D01*
X69751000Y-118620000D02*
X69751000Y-119973333D01*
X69871000Y-118620000D02*
X69871000Y-119973333D01*
X69991000Y-118620000D02*
X69991000Y-119973333D01*
X70111000Y-118620000D02*
X70111000Y-119973333D01*
X70231000Y-122680000D02*
X70231000Y-118620000D01*
X68961000Y-122680000D02*
X70231000Y-122680000D01*
X68961000Y-118620000D02*
X68961000Y-122680000D01*
X70231000Y-118620000D02*
X68961000Y-118620000D01*
X72771000Y-119973333D02*
X71501000Y-119973333D01*
X71571000Y-118620000D02*
X71571000Y-119973333D01*
X71691000Y-118620000D02*
X71691000Y-119973333D01*
X71811000Y-118620000D02*
X71811000Y-119973333D01*
X71931000Y-118620000D02*
X71931000Y-119973333D01*
X72051000Y-118620000D02*
X72051000Y-119973333D01*
X72171000Y-118620000D02*
X72171000Y-119973333D01*
X72291000Y-118620000D02*
X72291000Y-119973333D01*
X72411000Y-118620000D02*
X72411000Y-119973333D01*
X72531000Y-118620000D02*
X72531000Y-119973333D01*
X72651000Y-118620000D02*
X72651000Y-119973333D01*
X72771000Y-122680000D02*
X72771000Y-118620000D01*
X71501000Y-122680000D02*
X72771000Y-122680000D01*
X71501000Y-118620000D02*
X71501000Y-122680000D01*
X72771000Y-118620000D02*
X71501000Y-118620000D01*
X74796000Y-115460000D02*
X73413000Y-115460000D01*
X74796000Y-115460000D02*
X74796000Y-116844000D01*
X74556000Y-125600000D02*
X67176000Y-125600000D01*
X74556000Y-115700000D02*
X67176000Y-115700000D01*
X67176000Y-115700000D02*
X67176000Y-125600000D01*
X74556000Y-115700000D02*
X74556000Y-125600000D01*
X48641000Y-119973333D02*
X47371000Y-119973333D01*
X47441000Y-118620000D02*
X47441000Y-119973333D01*
X47561000Y-118620000D02*
X47561000Y-119973333D01*
X47681000Y-118620000D02*
X47681000Y-119973333D01*
X47801000Y-118620000D02*
X47801000Y-119973333D01*
X47921000Y-118620000D02*
X47921000Y-119973333D01*
X48041000Y-118620000D02*
X48041000Y-119973333D01*
X48161000Y-118620000D02*
X48161000Y-119973333D01*
X48281000Y-118620000D02*
X48281000Y-119973333D01*
X48401000Y-118620000D02*
X48401000Y-119973333D01*
X48521000Y-118620000D02*
X48521000Y-119973333D01*
X48641000Y-122680000D02*
X48641000Y-118620000D01*
X47371000Y-122680000D02*
X48641000Y-122680000D01*
X47371000Y-118620000D02*
X47371000Y-122680000D01*
X48641000Y-118620000D02*
X47371000Y-118620000D01*
X51181000Y-119973333D02*
X49911000Y-119973333D01*
X49981000Y-118620000D02*
X49981000Y-119973333D01*
X50101000Y-118620000D02*
X50101000Y-119973333D01*
X50221000Y-118620000D02*
X50221000Y-119973333D01*
X50341000Y-118620000D02*
X50341000Y-119973333D01*
X50461000Y-118620000D02*
X50461000Y-119973333D01*
X50581000Y-118620000D02*
X50581000Y-119973333D01*
X50701000Y-118620000D02*
X50701000Y-119973333D01*
X50821000Y-118620000D02*
X50821000Y-119973333D01*
X50941000Y-118620000D02*
X50941000Y-119973333D01*
X51061000Y-118620000D02*
X51061000Y-119973333D01*
X51181000Y-122680000D02*
X51181000Y-118620000D01*
X49911000Y-122680000D02*
X51181000Y-122680000D01*
X49911000Y-118620000D02*
X49911000Y-122680000D01*
X51181000Y-118620000D02*
X49911000Y-118620000D01*
X53721000Y-119973333D02*
X52451000Y-119973333D01*
X52521000Y-118620000D02*
X52521000Y-119973333D01*
X52641000Y-118620000D02*
X52641000Y-119973333D01*
X52761000Y-118620000D02*
X52761000Y-119973333D01*
X52881000Y-118620000D02*
X52881000Y-119973333D01*
X53001000Y-118620000D02*
X53001000Y-119973333D01*
X53121000Y-118620000D02*
X53121000Y-119973333D01*
X53241000Y-118620000D02*
X53241000Y-119973333D01*
X53361000Y-118620000D02*
X53361000Y-119973333D01*
X53481000Y-118620000D02*
X53481000Y-119973333D01*
X53601000Y-118620000D02*
X53601000Y-119973333D01*
X53721000Y-122680000D02*
X53721000Y-118620000D01*
X52451000Y-122680000D02*
X53721000Y-122680000D01*
X52451000Y-118620000D02*
X52451000Y-122680000D01*
X53721000Y-118620000D02*
X52451000Y-118620000D01*
X56261000Y-119973333D02*
X54991000Y-119973333D01*
X55061000Y-118620000D02*
X55061000Y-119973333D01*
X55181000Y-118620000D02*
X55181000Y-119973333D01*
X55301000Y-118620000D02*
X55301000Y-119973333D01*
X55421000Y-118620000D02*
X55421000Y-119973333D01*
X55541000Y-118620000D02*
X55541000Y-119973333D01*
X55661000Y-118620000D02*
X55661000Y-119973333D01*
X55781000Y-118620000D02*
X55781000Y-119973333D01*
X55901000Y-118620000D02*
X55901000Y-119973333D01*
X56021000Y-118620000D02*
X56021000Y-119973333D01*
X56141000Y-118620000D02*
X56141000Y-119973333D01*
X56261000Y-122680000D02*
X56261000Y-118620000D01*
X54991000Y-122680000D02*
X56261000Y-122680000D01*
X54991000Y-118620000D02*
X54991000Y-122680000D01*
X56261000Y-118620000D02*
X54991000Y-118620000D01*
X58286000Y-115460000D02*
X56903000Y-115460000D01*
X58286000Y-115460000D02*
X58286000Y-116844000D01*
X58046000Y-125600000D02*
X45586000Y-125600000D01*
X58046000Y-115700000D02*
X45586000Y-115700000D01*
X45586000Y-115700000D02*
X45586000Y-125600000D01*
X58046000Y-115700000D02*
X58046000Y-125600000D01*
X110091140Y-100251680D02*
X110921140Y-100251680D01*
X112541140Y-100251680D02*
X113071140Y-100251680D01*
X115441140Y-100251680D02*
X116621140Y-100251680D01*
X106881140Y-100251680D02*
X106881140Y-104971680D01*
X116621140Y-108781680D02*
X116621140Y-111841680D01*
X116631140Y-100251680D02*
X116631140Y-104971680D01*
X106881140Y-108781680D02*
X106881140Y-111841680D01*
X106881140Y-100251680D02*
X108371140Y-100251680D01*
X106881140Y-111841680D02*
X116621140Y-111841680D01*
X95916000Y-100194000D02*
X96746000Y-100194000D01*
X98366000Y-100194000D02*
X98896000Y-100194000D01*
X101266000Y-100194000D02*
X102446000Y-100194000D01*
X92706000Y-100194000D02*
X92706000Y-104914000D01*
X102446000Y-108724000D02*
X102446000Y-111784000D01*
X102456000Y-100194000D02*
X102456000Y-104914000D01*
X92706000Y-108724000D02*
X92706000Y-111784000D01*
X92706000Y-100194000D02*
X94196000Y-100194000D01*
X92706000Y-111784000D02*
X102446000Y-111784000D01*
X81775140Y-100227680D02*
X82605140Y-100227680D01*
X84225140Y-100227680D02*
X84755140Y-100227680D01*
X87125140Y-100227680D02*
X88305140Y-100227680D01*
X78565140Y-100227680D02*
X78565140Y-104947680D01*
X88305140Y-108757680D02*
X88305140Y-111817680D01*
X88315140Y-100227680D02*
X88315140Y-104947680D01*
X78565140Y-108757680D02*
X78565140Y-111817680D01*
X78565140Y-100227680D02*
X80055140Y-100227680D01*
X78565140Y-111817680D02*
X88305140Y-111817680D01*
X67643140Y-100241680D02*
X68473140Y-100241680D01*
X70093140Y-100241680D02*
X70623140Y-100241680D01*
X72993140Y-100241680D02*
X74173140Y-100241680D01*
X64433140Y-100241680D02*
X64433140Y-104961680D01*
X74173140Y-108771680D02*
X74173140Y-111831680D01*
X74183140Y-100241680D02*
X74183140Y-104961680D01*
X64433140Y-108771680D02*
X64433140Y-111831680D01*
X64433140Y-100241680D02*
X65923140Y-100241680D01*
X64433140Y-111831680D02*
X74173140Y-111831680D01*
X53498000Y-100194000D02*
X54328000Y-100194000D01*
X55948000Y-100194000D02*
X56478000Y-100194000D01*
X58848000Y-100194000D02*
X60028000Y-100194000D01*
X50288000Y-100194000D02*
X50288000Y-104914000D01*
X60028000Y-108724000D02*
X60028000Y-111784000D01*
X60038000Y-100194000D02*
X60038000Y-104914000D01*
X50288000Y-108724000D02*
X50288000Y-111784000D01*
X50288000Y-100194000D02*
X51778000Y-100194000D01*
X50288000Y-111784000D02*
X60028000Y-111784000D01*
X39449140Y-100217680D02*
X40279140Y-100217680D01*
X41899140Y-100217680D02*
X42429140Y-100217680D01*
X44799140Y-100217680D02*
X45979140Y-100217680D01*
X36239140Y-100217680D02*
X36239140Y-104937680D01*
X45979140Y-108747680D02*
X45979140Y-111807680D01*
X45989140Y-100217680D02*
X45989140Y-104937680D01*
X36239140Y-108747680D02*
X36239140Y-111807680D01*
X36239140Y-100217680D02*
X37729140Y-100217680D01*
X36239140Y-111807680D02*
X45979140Y-111807680D01*
D16*
X58844180Y-86654640D02*
X61043820Y-86654640D01*
X58844180Y-85557360D02*
X58844180Y-86654640D01*
X61043820Y-85557360D02*
X58844180Y-85557360D01*
X61043820Y-86654640D02*
X61043820Y-85557360D01*
X58844180Y-85130640D02*
X61043820Y-85130640D01*
X58844180Y-84033360D02*
X58844180Y-85130640D01*
X61043820Y-84033360D02*
X58844180Y-84033360D01*
X61043820Y-85130640D02*
X61043820Y-84033360D01*
X58844180Y-83606640D02*
X61043820Y-83606640D01*
X58844180Y-82509360D02*
X58844180Y-83606640D01*
X61043820Y-82509360D02*
X58844180Y-82509360D01*
X61043820Y-83606640D02*
X61043820Y-82509360D01*
X86951820Y-80985360D02*
X84752180Y-80985360D01*
X86951820Y-82082640D02*
X86951820Y-80985360D01*
X84752180Y-82082640D02*
X86951820Y-82082640D01*
X84752180Y-80985360D02*
X84752180Y-82082640D01*
X86951820Y-84541360D02*
X84752180Y-84541360D01*
X86951820Y-85638640D02*
X86951820Y-84541360D01*
X84752180Y-85638640D02*
X86951820Y-85638640D01*
X84752180Y-84541360D02*
X84752180Y-85638640D01*
X113258600Y-104932480D02*
G75*
G03X113004600Y-104678480I-254000J0D01*
G01*
X110515400Y-104678480D02*
G75*
G03X110261400Y-104932480I0J-254000D01*
G01*
X111262160Y-106426000D02*
X112257840Y-106426000D01*
X111760000Y-105928160D02*
X111760000Y-106923840D01*
X112008920Y-108424980D02*
X111511080Y-108424980D01*
X113258600Y-104932480D02*
X113258600Y-107424220D01*
X112758220Y-104678480D02*
X113004600Y-104678480D01*
X110515400Y-104678480D02*
X110761780Y-104678480D01*
X110261400Y-107424220D02*
X110261400Y-104932480D01*
X99288600Y-105186480D02*
G75*
G03X99034600Y-104932480I-254000J0D01*
G01*
X96545400Y-104932480D02*
G75*
G03X96291400Y-105186480I0J-254000D01*
G01*
X97292160Y-106680000D02*
X98287840Y-106680000D01*
X97790000Y-106182160D02*
X97790000Y-107177840D01*
X98038920Y-108678980D02*
X97541080Y-108678980D01*
X99288600Y-105186480D02*
X99288600Y-107678220D01*
X98788220Y-104932480D02*
X99034600Y-104932480D01*
X96545400Y-104932480D02*
X96791780Y-104932480D01*
X96291400Y-107678220D02*
X96291400Y-105186480D01*
X85064600Y-104932480D02*
G75*
G03X84810600Y-104678480I-254000J0D01*
G01*
X82321400Y-104678480D02*
G75*
G03X82067400Y-104932480I0J-254000D01*
G01*
X83068160Y-106426000D02*
X84063840Y-106426000D01*
X83566000Y-105928160D02*
X83566000Y-106923840D01*
X83814920Y-108424980D02*
X83317080Y-108424980D01*
X85064600Y-104932480D02*
X85064600Y-107424220D01*
X84564220Y-104678480D02*
X84810600Y-104678480D01*
X82321400Y-104678480D02*
X82567780Y-104678480D01*
X82067400Y-107424220D02*
X82067400Y-104932480D01*
X70840600Y-105186480D02*
G75*
G03X70586600Y-104932480I-254000J0D01*
G01*
X68097400Y-104932480D02*
G75*
G03X67843400Y-105186480I0J-254000D01*
G01*
X68844160Y-106680000D02*
X69839840Y-106680000D01*
X69342000Y-106182160D02*
X69342000Y-107177840D01*
X69590920Y-108678980D02*
X69093080Y-108678980D01*
X70840600Y-105186480D02*
X70840600Y-107678220D01*
X70340220Y-104932480D02*
X70586600Y-104932480D01*
X68097400Y-104932480D02*
X68343780Y-104932480D01*
X67843400Y-107678220D02*
X67843400Y-105186480D01*
X42900600Y-104932480D02*
G75*
G03X42646600Y-104678480I-254000J0D01*
G01*
X40157400Y-104678480D02*
G75*
G03X39903400Y-104932480I0J-254000D01*
G01*
X40904160Y-106426000D02*
X41899840Y-106426000D01*
X41402000Y-105928160D02*
X41402000Y-106923840D01*
X41650920Y-108424980D02*
X41153080Y-108424980D01*
X42900600Y-104932480D02*
X42900600Y-107424220D01*
X42400220Y-104678480D02*
X42646600Y-104678480D01*
X40157400Y-104678480D02*
X40403780Y-104678480D01*
X39903400Y-107424220D02*
X39903400Y-104932480D01*
X81343500Y-59052460D02*
X81343500Y-61851540D01*
X82740500Y-59052460D02*
X81343500Y-59052460D01*
X82740500Y-61851540D02*
X82740500Y-59052460D01*
X81343500Y-61851540D02*
X82740500Y-61851540D01*
X73322180Y-84622640D02*
X75521820Y-84622640D01*
X73322180Y-83525360D02*
X73322180Y-84622640D01*
X75521820Y-83525360D02*
X73322180Y-83525360D01*
X75521820Y-84622640D02*
X75521820Y-83525360D01*
X44579540Y-36385500D02*
X41780460Y-36385500D01*
X44579540Y-37782500D02*
X44579540Y-36385500D01*
X41780460Y-37782500D02*
X44579540Y-37782500D01*
X41780460Y-36385500D02*
X41780460Y-37782500D01*
X59565540Y-36385500D02*
X56766460Y-36385500D01*
X59565540Y-37782500D02*
X59565540Y-36385500D01*
X56766460Y-37782500D02*
X59565540Y-37782500D01*
X56766460Y-36385500D02*
X56766460Y-37782500D01*
X41780460Y-39560500D02*
X44579540Y-39560500D01*
X41780460Y-38163500D02*
X41780460Y-39560500D01*
X44579540Y-38163500D02*
X41780460Y-38163500D01*
X44579540Y-39560500D02*
X44579540Y-38163500D01*
X56766460Y-39560500D02*
X59565540Y-39560500D01*
X56766460Y-38163500D02*
X56766460Y-39560500D01*
X59565540Y-38163500D02*
X56766460Y-38163500D01*
X59565540Y-39560500D02*
X59565540Y-38163500D01*
X41780460Y-41338500D02*
X44579540Y-41338500D01*
X41780460Y-39941500D02*
X41780460Y-41338500D01*
X44579540Y-39941500D02*
X41780460Y-39941500D01*
X44579540Y-41338500D02*
X44579540Y-39941500D01*
X56766460Y-41338500D02*
X59565540Y-41338500D01*
X56766460Y-39941500D02*
X56766460Y-41338500D01*
X59565540Y-39941500D02*
X56766460Y-39941500D01*
X59565540Y-41338500D02*
X59565540Y-39941500D01*
X75059540Y-36893500D02*
X72260460Y-36893500D01*
X75059540Y-38290500D02*
X75059540Y-36893500D01*
X72260460Y-38290500D02*
X75059540Y-38290500D01*
X72260460Y-36893500D02*
X72260460Y-38290500D01*
X91061540Y-36893500D02*
X88262460Y-36893500D01*
X91061540Y-38290500D02*
X91061540Y-36893500D01*
X88262460Y-38290500D02*
X91061540Y-38290500D01*
X88262460Y-36893500D02*
X88262460Y-38290500D01*
X72260460Y-40068500D02*
X75059540Y-40068500D01*
X72260460Y-38671500D02*
X72260460Y-40068500D01*
X75059540Y-38671500D02*
X72260460Y-38671500D01*
X75059540Y-40068500D02*
X75059540Y-38671500D01*
X88262460Y-40068500D02*
X91061540Y-40068500D01*
X88262460Y-38671500D02*
X88262460Y-40068500D01*
X91061540Y-38671500D02*
X88262460Y-38671500D01*
X91061540Y-40068500D02*
X91061540Y-38671500D01*
X72260460Y-41846500D02*
X75059540Y-41846500D01*
X72260460Y-40449500D02*
X72260460Y-41846500D01*
X75059540Y-40449500D02*
X72260460Y-40449500D01*
X75059540Y-41846500D02*
X75059540Y-40449500D01*
X88262460Y-41846500D02*
X91061540Y-41846500D01*
X88262460Y-40449500D02*
X88262460Y-41846500D01*
X91061540Y-40449500D02*
X88262460Y-40449500D01*
X91061540Y-41846500D02*
X91061540Y-40449500D01*
X56936640Y-73235820D02*
X56936640Y-71036180D01*
X55839360Y-73235820D02*
X56936640Y-73235820D01*
X55839360Y-71036180D02*
X55839360Y-73235820D01*
X56936640Y-71036180D02*
X55839360Y-71036180D01*
X31117540Y-78018640D02*
X33317180Y-78018640D01*
X31117540Y-76921360D02*
X31117540Y-78018640D01*
X33317180Y-76921360D02*
X31117540Y-76921360D01*
X33317180Y-78018640D02*
X33317180Y-76921360D01*
X36151820Y-76921360D02*
X33952180Y-76921360D01*
X36151820Y-78018640D02*
X36151820Y-76921360D01*
X33952180Y-78018640D02*
X36151820Y-78018640D01*
X33952180Y-76921360D02*
X33952180Y-78018640D01*
X41950640Y-73235820D02*
X41950640Y-71036180D01*
X40853360Y-73235820D02*
X41950640Y-73235820D01*
X40853360Y-71036180D02*
X40853360Y-73235820D01*
X41950640Y-71036180D02*
X40853360Y-71036180D01*
D17*
X109458000Y-101216000D02*
X109458000Y-104016000D01*
X109458000Y-104016000D02*
X107458000Y-104016000D01*
X107458000Y-104016000D02*
X107458000Y-101216000D01*
X107458000Y-101216000D02*
X109458000Y-101216000D01*
X95499140Y-101216000D02*
X95499140Y-104016000D01*
X95499140Y-104016000D02*
X93499140Y-104016000D01*
X93499140Y-104016000D02*
X93499140Y-101216000D01*
X93499140Y-101216000D02*
X95499140Y-101216000D01*
X81264000Y-101216000D02*
X81264000Y-104016000D01*
X81264000Y-104016000D02*
X79264000Y-104016000D01*
X79264000Y-104016000D02*
X79264000Y-101216000D01*
X79264000Y-101216000D02*
X81264000Y-101216000D01*
X67040000Y-101216000D02*
X67040000Y-104016000D01*
X67040000Y-104016000D02*
X65040000Y-104016000D01*
X65040000Y-104016000D02*
X65040000Y-101216000D01*
X65040000Y-101216000D02*
X67040000Y-101216000D01*
X52816000Y-101216000D02*
X52816000Y-104016000D01*
X52816000Y-104016000D02*
X50816000Y-104016000D01*
X50816000Y-104016000D02*
X50816000Y-101216000D01*
X50816000Y-101216000D02*
X52816000Y-101216000D01*
X38846000Y-101104000D02*
X38846000Y-103904000D01*
X38846000Y-103904000D02*
X36846000Y-103904000D01*
X36846000Y-103904000D02*
X36846000Y-101104000D01*
X36846000Y-101104000D02*
X38846000Y-101104000D01*
D16*
X51181000Y-57404000D02*
X51181000Y-56769000D01*
X50546000Y-58039000D02*
X51181000Y-57404000D01*
X49911000Y-57404000D02*
X50546000Y-58039000D01*
X50546000Y-56769000D02*
X49911000Y-57404000D01*
X51181000Y-56769000D02*
X50546000Y-56769000D01*
X50525680Y-57424320D02*
X50525680Y-59923680D01*
X45486320Y-57424320D02*
X50525680Y-57424320D01*
X45486320Y-59923680D02*
X45486320Y-57424320D01*
X50525680Y-59923680D02*
X45486320Y-59923680D01*
X60960000Y-64389000D02*
X60325000Y-64389000D01*
X61595000Y-65024000D02*
X60960000Y-64389000D01*
X60960000Y-65659000D02*
X61595000Y-65024000D01*
X60325000Y-65024000D02*
X60960000Y-65659000D01*
X60325000Y-64389000D02*
X60325000Y-65024000D01*
X60980320Y-65044320D02*
X63479680Y-65044320D01*
X60980320Y-80243680D02*
X60980320Y-65044320D01*
X63479680Y-80243680D02*
X60980320Y-80243680D01*
X63479680Y-65044320D02*
X63479680Y-80243680D01*
X87249000Y-70358000D02*
X87249000Y-70993000D01*
X87884000Y-69723000D02*
X87249000Y-70358000D01*
X88519000Y-70358000D02*
X87884000Y-69723000D01*
X87884000Y-70993000D02*
X88519000Y-70358000D01*
X87249000Y-70993000D02*
X87884000Y-70993000D01*
X87904320Y-70337680D02*
X87904320Y-67838320D01*
X92943680Y-70337680D02*
X87904320Y-70337680D01*
X92943680Y-67838320D02*
X92943680Y-70337680D01*
X87904320Y-67838320D02*
X92943680Y-67838320D01*
X66167000Y-57404000D02*
X66167000Y-56769000D01*
X65532000Y-58039000D02*
X66167000Y-57404000D01*
X64897000Y-57404000D02*
X65532000Y-58039000D01*
X65532000Y-56769000D02*
X64897000Y-57404000D01*
X66167000Y-56769000D02*
X65532000Y-56769000D01*
X65511680Y-57424320D02*
X65511680Y-59923680D01*
X55392320Y-57424320D02*
X65511680Y-57424320D01*
X55392320Y-59923680D02*
X55392320Y-57424320D01*
X65511680Y-59923680D02*
X55392320Y-59923680D01*
X85979000Y-65786000D02*
X85979000Y-66421000D01*
X86614000Y-65151000D02*
X85979000Y-65786000D01*
X87249000Y-65786000D02*
X86614000Y-65151000D01*
X86614000Y-66421000D02*
X87249000Y-65786000D01*
X85979000Y-66421000D02*
X86614000Y-66421000D01*
X86634320Y-65765680D02*
X86634320Y-63266320D01*
X94213680Y-65765680D02*
X86634320Y-65765680D01*
X94213680Y-63266320D02*
X94213680Y-65765680D01*
X86634320Y-63266320D02*
X94213680Y-63266320D01*
X29083000Y-94234000D02*
X29083000Y-94869000D01*
X29718000Y-93599000D02*
X29083000Y-94234000D01*
X30353000Y-94234000D02*
X29718000Y-93599000D01*
X29718000Y-94869000D02*
X30353000Y-94234000D01*
X29083000Y-94869000D02*
X29718000Y-94869000D01*
X29738320Y-94213680D02*
X29738320Y-91714320D01*
X44937680Y-94213680D02*
X29738320Y-94213680D01*
X44937680Y-91714320D02*
X44937680Y-94213680D01*
X29738320Y-91714320D02*
X44937680Y-91714320D01*
X29083000Y-90424000D02*
X29083000Y-91059000D01*
X29718000Y-89789000D02*
X29083000Y-90424000D01*
X30353000Y-90424000D02*
X29718000Y-89789000D01*
X29718000Y-91059000D02*
X30353000Y-90424000D01*
X29083000Y-91059000D02*
X29718000Y-91059000D01*
X29738320Y-90403680D02*
X29738320Y-87904320D01*
X44937680Y-90403680D02*
X29738320Y-90403680D01*
X44937680Y-87904320D02*
X44937680Y-90403680D01*
X29738320Y-87904320D02*
X44937680Y-87904320D01*
X34925000Y-28956000D02*
X34925000Y-29591000D01*
X35560000Y-28321000D02*
X34925000Y-28956000D01*
X36195000Y-28956000D02*
X35560000Y-28321000D01*
X35560000Y-29591000D02*
X36195000Y-28956000D01*
X34925000Y-29591000D02*
X35560000Y-29591000D01*
X35580320Y-28935680D02*
X35580320Y-26436320D01*
X40619680Y-28935680D02*
X35580320Y-28935680D01*
X40619680Y-26436320D02*
X40619680Y-28935680D01*
X35580320Y-26436320D02*
X40619680Y-26436320D01*
X49657000Y-28956000D02*
X49657000Y-29591000D01*
X50292000Y-28321000D02*
X49657000Y-28956000D01*
X50927000Y-28956000D02*
X50292000Y-28321000D01*
X50292000Y-29591000D02*
X50927000Y-28956000D01*
X49657000Y-29591000D02*
X50292000Y-29591000D01*
X50312320Y-28935680D02*
X50312320Y-26436320D01*
X55351680Y-28935680D02*
X50312320Y-28935680D01*
X55351680Y-26436320D02*
X55351680Y-28935680D01*
X50312320Y-26436320D02*
X55351680Y-26436320D01*
X80899000Y-29464000D02*
X80899000Y-30099000D01*
X81534000Y-28829000D02*
X80899000Y-29464000D01*
X82169000Y-29464000D02*
X81534000Y-28829000D01*
X81534000Y-30099000D02*
X82169000Y-29464000D01*
X80899000Y-30099000D02*
X81534000Y-30099000D01*
X81554320Y-29443680D02*
X81554320Y-26944320D01*
X86593680Y-29443680D02*
X81554320Y-29443680D01*
X86593680Y-26944320D02*
X86593680Y-29443680D01*
X81554320Y-26944320D02*
X86593680Y-26944320D01*
X65151000Y-29464000D02*
X65151000Y-30099000D01*
X65786000Y-28829000D02*
X65151000Y-29464000D01*
X66421000Y-29464000D02*
X65786000Y-28829000D01*
X65786000Y-30099000D02*
X66421000Y-29464000D01*
X65151000Y-30099000D02*
X65786000Y-30099000D01*
X65806320Y-29443680D02*
X65806320Y-26944320D01*
X70845680Y-29443680D02*
X65806320Y-29443680D01*
X70845680Y-26944320D02*
X70845680Y-29443680D01*
X65806320Y-26944320D02*
X70845680Y-26944320D01*
X124947680Y-43200320D02*
X124947680Y-50779680D01*
X124947680Y-50779680D02*
X122448320Y-50779680D01*
X122448320Y-50779680D02*
X122448320Y-43200320D01*
X122448320Y-43200320D02*
X124947680Y-43200320D01*
X121793000Y-42545000D02*
X121793000Y-43180000D01*
X121793000Y-43180000D02*
X122428000Y-43815000D01*
X122428000Y-43815000D02*
X123063000Y-43180000D01*
X123063000Y-43180000D02*
X122428000Y-42545000D01*
X122428000Y-42545000D02*
X121793000Y-42545000D01*
X122448320Y-41889680D02*
X122448320Y-34310320D01*
X122448320Y-34310320D02*
X124947680Y-34310320D01*
X124947680Y-34310320D02*
X124947680Y-41889680D01*
X124947680Y-41889680D02*
X122448320Y-41889680D01*
X125603000Y-42545000D02*
X125603000Y-41910000D01*
X125603000Y-41910000D02*
X124968000Y-41275000D01*
X124968000Y-41275000D02*
X124333000Y-41910000D01*
X124333000Y-41910000D02*
X124968000Y-42545000D01*
X124968000Y-42545000D02*
X125603000Y-42545000D01*
X124947680Y-60218320D02*
X124947680Y-67797680D01*
X124947680Y-67797680D02*
X122448320Y-67797680D01*
X122448320Y-67797680D02*
X122448320Y-60218320D01*
X122448320Y-60218320D02*
X124947680Y-60218320D01*
X121793000Y-59563000D02*
X121793000Y-60198000D01*
X121793000Y-60198000D02*
X122428000Y-60833000D01*
X122428000Y-60833000D02*
X123063000Y-60198000D01*
X123063000Y-60198000D02*
X122428000Y-59563000D01*
X122428000Y-59563000D02*
X121793000Y-59563000D01*
X122448320Y-59161680D02*
X122448320Y-51582320D01*
X122448320Y-51582320D02*
X124947680Y-51582320D01*
X124947680Y-51582320D02*
X124947680Y-59161680D01*
X124947680Y-59161680D02*
X122448320Y-59161680D01*
X125603000Y-59817000D02*
X125603000Y-59182000D01*
X125603000Y-59182000D02*
X124968000Y-58547000D01*
X124968000Y-58547000D02*
X124333000Y-59182000D01*
X124333000Y-59182000D02*
X124968000Y-59817000D01*
X124968000Y-59817000D02*
X125603000Y-59817000D01*
X44269660Y-65158620D02*
X41074340Y-65158620D01*
X44269660Y-64559180D02*
X44269660Y-65158620D01*
X41074340Y-64559180D02*
X44269660Y-64559180D01*
X41074340Y-65158620D02*
X41074340Y-64559180D01*
X43169840Y-60612020D02*
X42672000Y-61307980D01*
X42174160Y-60612020D02*
X43169840Y-60612020D01*
X42672000Y-61307980D02*
X42174160Y-60612020D01*
X44269660Y-64559180D02*
X41074340Y-64559180D01*
X44269660Y-57360820D02*
X44269660Y-64559180D01*
X41074340Y-57360820D02*
X44269660Y-57360820D01*
X41074340Y-64559180D02*
X41074340Y-57360820D01*
X89859940Y-81719440D02*
X89560220Y-81419720D01*
X89859940Y-81120000D02*
X89859940Y-81719440D01*
X89560220Y-81419720D02*
X89859940Y-81120000D01*
X87660300Y-82268080D02*
X87660300Y-80571360D01*
X87462180Y-82268080D02*
X87660300Y-82268080D01*
X87462180Y-80571360D02*
X87462180Y-82268080D01*
X87660300Y-80571360D02*
X87462180Y-80571360D01*
X91759860Y-80571360D02*
X87660300Y-80571360D01*
X91759860Y-82268080D02*
X91759860Y-80571360D01*
X87660300Y-82268080D02*
X91759860Y-82268080D01*
X87660300Y-80571360D02*
X87660300Y-82268080D01*
X89811860Y-85389720D02*
X89512140Y-85090000D01*
X89811860Y-84790280D02*
X89811860Y-85389720D01*
X89512140Y-85090000D02*
X89811860Y-84790280D01*
X87612220Y-85938360D02*
X87612220Y-84241640D01*
X87414100Y-85938360D02*
X87612220Y-85938360D01*
X87414100Y-84241640D02*
X87414100Y-85938360D01*
X87612220Y-84241640D02*
X87414100Y-84241640D01*
X91711780Y-84241640D02*
X87612220Y-84241640D01*
X91711780Y-85938360D02*
X91711780Y-84241640D01*
X87612220Y-85938360D02*
X91711780Y-85938360D01*
X87612220Y-84241640D02*
X87612220Y-85938360D01*
D18*
X56275131Y-84582000D02*
G75*
G03X56275131Y-84582000I-395131J0D01*
G01*
D16*
X52689760Y-83322160D02*
X52682140Y-83388200D01*
X52715160Y-83261200D02*
X52689760Y-83322160D01*
X52755800Y-83207860D02*
X52715160Y-83261200D01*
X52809140Y-83167220D02*
X52755800Y-83207860D01*
X52870100Y-83141820D02*
X52809140Y-83167220D01*
X52936140Y-83134200D02*
X52870100Y-83141820D01*
X52999640Y-83141820D02*
X52936140Y-83134200D01*
X53058060Y-83167220D02*
X52999640Y-83141820D01*
X53108860Y-83205320D02*
X53058060Y-83167220D01*
X53149500Y-83256120D02*
X53108860Y-83205320D01*
X53172360Y-83314540D02*
X53149500Y-83256120D01*
X53182520Y-83378040D02*
X53172360Y-83314540D01*
X53172360Y-83444080D02*
X53182520Y-83378040D01*
X53146960Y-83505040D02*
X53172360Y-83444080D01*
X53106320Y-83558380D02*
X53146960Y-83505040D01*
X53055520Y-83599020D02*
X53106320Y-83558380D01*
X52992020Y-83624420D02*
X53055520Y-83599020D01*
X52928520Y-83632040D02*
X52992020Y-83624420D01*
X52862480Y-83624420D02*
X52928520Y-83632040D01*
X52804060Y-83601560D02*
X52862480Y-83624420D01*
X52753260Y-83560920D02*
X52804060Y-83601560D01*
X52715160Y-83510120D02*
X52753260Y-83560920D01*
X52689760Y-83451700D02*
X52715160Y-83510120D01*
X52682140Y-83388200D02*
X52689760Y-83451700D01*
X54282340Y-83182460D02*
X54282340Y-83233260D01*
X54282340Y-85981540D02*
X54282340Y-85930740D01*
X57477660Y-83182460D02*
X57477660Y-83233260D01*
X57477660Y-85981540D02*
X57477660Y-85930740D01*
X57477660Y-84731860D02*
X57477660Y-84432140D01*
X54282340Y-84731860D02*
X54282340Y-84482940D01*
X57477660Y-85981540D02*
X54282340Y-85981540D01*
X54282340Y-83182460D02*
X57477660Y-83182460D01*
X42971720Y-43792140D02*
X42672000Y-44091860D01*
X42372280Y-43792140D02*
X42971720Y-43792140D01*
X42672000Y-44091860D02*
X42372280Y-43792140D01*
X43520360Y-45991780D02*
X41823640Y-45991780D01*
X43520360Y-46189900D02*
X43520360Y-45991780D01*
X41823640Y-46189900D02*
X43520360Y-46189900D01*
X41823640Y-45991780D02*
X41823640Y-46189900D01*
X41823640Y-41892220D02*
X41823640Y-45991780D01*
X43520360Y-41892220D02*
X41823640Y-41892220D01*
X43520360Y-45991780D02*
X43520360Y-41892220D01*
X41823640Y-45991780D02*
X43520360Y-45991780D01*
X57957720Y-43792140D02*
X57658000Y-44091860D01*
X57358280Y-43792140D02*
X57957720Y-43792140D01*
X57658000Y-44091860D02*
X57358280Y-43792140D01*
X58506360Y-45991780D02*
X56809640Y-45991780D01*
X58506360Y-46189900D02*
X58506360Y-45991780D01*
X56809640Y-46189900D02*
X58506360Y-46189900D01*
X56809640Y-45991780D02*
X56809640Y-46189900D01*
X56809640Y-41892220D02*
X56809640Y-45991780D01*
X58506360Y-41892220D02*
X56809640Y-41892220D01*
X58506360Y-45991780D02*
X58506360Y-41892220D01*
X56809640Y-45991780D02*
X58506360Y-45991780D01*
X73451720Y-44300140D02*
X73152000Y-44599860D01*
X72852280Y-44300140D02*
X73451720Y-44300140D01*
X73152000Y-44599860D02*
X72852280Y-44300140D01*
X74000360Y-46499780D02*
X72303640Y-46499780D01*
X74000360Y-46697900D02*
X74000360Y-46499780D01*
X72303640Y-46697900D02*
X74000360Y-46697900D01*
X72303640Y-46499780D02*
X72303640Y-46697900D01*
X72303640Y-42400220D02*
X72303640Y-46499780D01*
X74000360Y-42400220D02*
X72303640Y-42400220D01*
X74000360Y-46499780D02*
X74000360Y-42400220D01*
X72303640Y-46499780D02*
X74000360Y-46499780D01*
X89453720Y-44300140D02*
X89154000Y-44599860D01*
X88854280Y-44300140D02*
X89453720Y-44300140D01*
X89154000Y-44599860D02*
X88854280Y-44300140D01*
X90002360Y-46499780D02*
X88305640Y-46499780D01*
X90002360Y-46697900D02*
X90002360Y-46499780D01*
X88305640Y-46697900D02*
X90002360Y-46697900D01*
X88305640Y-46499780D02*
X88305640Y-46697900D01*
X88305640Y-42400220D02*
X88305640Y-46499780D01*
X90002360Y-42400220D02*
X88305640Y-42400220D01*
X90002360Y-46499780D02*
X90002360Y-42400220D01*
X88305640Y-46499780D02*
X90002360Y-46499780D01*
X53489860Y-72943720D02*
X53190140Y-72644000D01*
X53489860Y-72344280D02*
X53489860Y-72943720D01*
X53190140Y-72644000D02*
X53489860Y-72344280D01*
X51841400Y-73393300D02*
X51841400Y-71894700D01*
X51640740Y-73393300D02*
X51841400Y-73393300D01*
X51640740Y-71894700D02*
X51640740Y-73393300D01*
X51841400Y-71894700D02*
X51640740Y-71894700D01*
X54838600Y-71894700D02*
X51841400Y-71894700D01*
X54838600Y-73393300D02*
X54838600Y-71894700D01*
X51841400Y-73393300D02*
X54838600Y-73393300D01*
X51841400Y-71894700D02*
X51841400Y-73393300D01*
X32811720Y-79860140D02*
X32512000Y-80159860D01*
X32212280Y-79860140D02*
X32811720Y-79860140D01*
X32512000Y-80159860D02*
X32212280Y-79860140D01*
X33261300Y-81508600D02*
X31762700Y-81508600D01*
X33261300Y-81709260D02*
X33261300Y-81508600D01*
X31762700Y-81709260D02*
X33261300Y-81709260D01*
X31762700Y-81508600D02*
X31762700Y-81709260D01*
X31762700Y-78511400D02*
X31762700Y-81508600D01*
X33261300Y-78511400D02*
X31762700Y-78511400D01*
X33261300Y-81508600D02*
X33261300Y-78511400D01*
X31762700Y-81508600D02*
X33261300Y-81508600D01*
X34843720Y-79860140D02*
X34544000Y-80159860D01*
X34244280Y-79860140D02*
X34843720Y-79860140D01*
X34544000Y-80159860D02*
X34244280Y-79860140D01*
X35293300Y-81508600D02*
X33794700Y-81508600D01*
X35293300Y-81709260D02*
X35293300Y-81508600D01*
X33794700Y-81709260D02*
X35293300Y-81709260D01*
X33794700Y-81508600D02*
X33794700Y-81709260D01*
X33794700Y-78511400D02*
X33794700Y-81508600D01*
X35293300Y-78511400D02*
X33794700Y-78511400D01*
X35293300Y-81508600D02*
X35293300Y-78511400D01*
X33794700Y-81508600D02*
X35293300Y-81508600D01*
X44554140Y-72344280D02*
X44853860Y-72644000D01*
X44554140Y-72943720D02*
X44554140Y-72344280D01*
X44853860Y-72644000D02*
X44554140Y-72943720D01*
X46202600Y-71894700D02*
X46202600Y-73393300D01*
X46403260Y-71894700D02*
X46202600Y-71894700D01*
X46403260Y-73393300D02*
X46403260Y-71894700D01*
X46202600Y-73393300D02*
X46403260Y-73393300D01*
X43205400Y-73393300D02*
X46202600Y-73393300D01*
X43205400Y-71894700D02*
X43205400Y-73393300D01*
X46202600Y-71894700D02*
X43205400Y-71894700D01*
X46202600Y-73393300D02*
X46202600Y-71894700D01*
X40266620Y-68252340D02*
X40266620Y-71447660D01*
X39667180Y-68252340D02*
X40266620Y-68252340D01*
X39667180Y-71447660D02*
X39667180Y-68252340D01*
X40266620Y-71447660D02*
X39667180Y-71447660D01*
X35720020Y-69352160D02*
X36415980Y-69850000D01*
X35720020Y-70347840D02*
X35720020Y-69352160D01*
X36415980Y-69850000D02*
X35720020Y-70347840D01*
X39667180Y-68252340D02*
X39667180Y-71447660D01*
X32468820Y-68252340D02*
X39667180Y-68252340D01*
X32468820Y-71447660D02*
X32468820Y-68252340D01*
X39667180Y-71447660D02*
X32468820Y-71447660D01*
X112605820Y-101813360D02*
X110406180Y-101813360D01*
X112605820Y-102910640D02*
X112605820Y-101813360D01*
X110406180Y-102910640D02*
X112605820Y-102910640D01*
X110406180Y-101813360D02*
X110406180Y-102910640D01*
X98635820Y-101813360D02*
X96436180Y-101813360D01*
X98635820Y-102910640D02*
X98635820Y-101813360D01*
X96436180Y-102910640D02*
X98635820Y-102910640D01*
X96436180Y-101813360D02*
X96436180Y-102910640D01*
X84411820Y-101813360D02*
X82212180Y-101813360D01*
X84411820Y-102910640D02*
X84411820Y-101813360D01*
X82212180Y-102910640D02*
X84411820Y-102910640D01*
X82212180Y-101813360D02*
X82212180Y-102910640D01*
X70187820Y-101559360D02*
X67988180Y-101559360D01*
X70187820Y-102656640D02*
X70187820Y-101559360D01*
X67988180Y-102656640D02*
X70187820Y-102656640D01*
X67988180Y-101559360D02*
X67988180Y-102656640D01*
X57487820Y-101051360D02*
X55288180Y-101051360D01*
X57487820Y-102148640D02*
X57487820Y-101051360D01*
X55288180Y-102148640D02*
X57487820Y-102148640D01*
X55288180Y-101051360D02*
X55288180Y-102148640D01*
X41993820Y-101305360D02*
X39794180Y-101305360D01*
X41993820Y-102402640D02*
X41993820Y-101305360D01*
X39794180Y-102402640D02*
X41993820Y-102402640D01*
X39794180Y-101305360D02*
X39794180Y-102402640D01*
X74635360Y-65361820D02*
X75732640Y-65361820D01*
X75732640Y-65361820D02*
X75732640Y-63162180D01*
X75732640Y-63162180D02*
X74635360Y-63162180D01*
X74635360Y-63162180D02*
X74635360Y-65361820D01*
X76159360Y-63162180D02*
X76159360Y-65361820D01*
X77256640Y-63162180D02*
X76159360Y-63162180D01*
X77256640Y-65361820D02*
X77256640Y-63162180D01*
X76159360Y-65361820D02*
X77256640Y-65361820D01*
X83606640Y-73489820D02*
X83606640Y-71290180D01*
X82509360Y-73489820D02*
X83606640Y-73489820D01*
X82509360Y-71290180D02*
X82509360Y-73489820D01*
X83606640Y-71290180D02*
X82509360Y-71290180D01*
X82082640Y-73489820D02*
X82082640Y-71290180D01*
X80985360Y-73489820D02*
X82082640Y-73489820D01*
X80985360Y-71290180D02*
X80985360Y-73489820D01*
X82082640Y-71290180D02*
X80985360Y-71290180D01*
X71244460Y-66507360D02*
X69044820Y-66507360D01*
X71244460Y-67604640D02*
X71244460Y-66507360D01*
X69044820Y-67604640D02*
X71244460Y-67604640D01*
X69044820Y-66507360D02*
X69044820Y-67604640D01*
X75862180Y-84622640D02*
X78061820Y-84622640D01*
X75862180Y-83525360D02*
X75862180Y-84622640D01*
X78061820Y-83525360D02*
X75862180Y-83525360D01*
X78061820Y-84622640D02*
X78061820Y-83525360D01*
X83141820Y-74889360D02*
X80942180Y-74889360D01*
X83141820Y-75986640D02*
X83141820Y-74889360D01*
X80942180Y-75986640D02*
X83141820Y-75986640D01*
X80942180Y-74889360D02*
X80942180Y-75986640D01*
X73746360Y-87205820D02*
X78145640Y-87205820D01*
X73746360Y-85006180D02*
X73746360Y-87205820D01*
X78145640Y-85006180D02*
X73746360Y-85006180D01*
X78145640Y-87205820D02*
X78145640Y-85006180D01*
X50886360Y-63583820D02*
X55285640Y-63583820D01*
X50886360Y-61384180D02*
X50886360Y-63583820D01*
X55285640Y-61384180D02*
X50886360Y-61384180D01*
X55285640Y-63583820D02*
X55285640Y-61384180D01*
X45890180Y-66126360D02*
X45890180Y-70525640D01*
X48089820Y-66126360D02*
X45890180Y-66126360D01*
X48089820Y-70525640D02*
X48089820Y-66126360D01*
X45890180Y-70525640D02*
X48089820Y-70525640D01*
X45933360Y-78148180D02*
X45933360Y-80347820D01*
X47030640Y-78148180D02*
X45933360Y-78148180D01*
X47030640Y-80347820D02*
X47030640Y-78148180D01*
X45933360Y-80347820D02*
X47030640Y-80347820D01*
X42885360Y-68242180D02*
X42885360Y-70441820D01*
X43982640Y-68242180D02*
X42885360Y-68242180D01*
X43982640Y-70441820D02*
X43982640Y-68242180D01*
X42885360Y-70441820D02*
X43982640Y-70441820D01*
X40853360Y-68242180D02*
X40853360Y-70441820D01*
X41950640Y-68242180D02*
X40853360Y-68242180D01*
X41950640Y-70441820D02*
X41950640Y-68242180D01*
X40853360Y-70441820D02*
X41950640Y-70441820D01*
D19*
X27347333Y-64721619D02*
X27347333Y-65447333D01*
X27298952Y-65592476D01*
X27202190Y-65689238D01*
X27057047Y-65737619D01*
X26960285Y-65737619D01*
X28363333Y-65737619D02*
X27782761Y-65737619D01*
X28073047Y-65737619D02*
X28073047Y-64721619D01*
X27976285Y-64866761D01*
X27879523Y-64963523D01*
X27782761Y-65011904D01*
X40373904Y-76405619D02*
X40373904Y-77228095D01*
X40422285Y-77324857D01*
X40470666Y-77373238D01*
X40567428Y-77421619D01*
X40760952Y-77421619D01*
X40857714Y-77373238D01*
X40906095Y-77324857D01*
X40954476Y-77228095D01*
X40954476Y-76405619D01*
X41970476Y-77421619D02*
X41389904Y-77421619D01*
X41680190Y-77421619D02*
X41680190Y-76405619D01*
X41583428Y-76550761D01*
X41486666Y-76647523D01*
X41389904Y-76695904D01*
X113525904Y-29972000D02*
X113429142Y-29923619D01*
X113284000Y-29923619D01*
X113138857Y-29972000D01*
X113042095Y-30068761D01*
X112993714Y-30165523D01*
X112945333Y-30359047D01*
X112945333Y-30504190D01*
X112993714Y-30697714D01*
X113042095Y-30794476D01*
X113138857Y-30891238D01*
X113284000Y-30939619D01*
X113380761Y-30939619D01*
X113525904Y-30891238D01*
X113574285Y-30842857D01*
X113574285Y-30504190D01*
X113380761Y-30504190D01*
X114009714Y-30939619D02*
X114009714Y-29923619D01*
X114590285Y-30939619D01*
X114590285Y-29923619D01*
X115074095Y-30939619D02*
X115074095Y-29923619D01*
X115316000Y-29923619D01*
X115461142Y-29972000D01*
X115557904Y-30068761D01*
X115606285Y-30165523D01*
X115654666Y-30359047D01*
X115654666Y-30504190D01*
X115606285Y-30697714D01*
X115557904Y-30794476D01*
X115461142Y-30891238D01*
X115316000Y-30939619D01*
X115074095Y-30939619D01*
X53219047Y-111203619D02*
X53219047Y-110187619D01*
X53460952Y-110187619D01*
X53606095Y-110236000D01*
X53702857Y-110332761D01*
X53751238Y-110429523D01*
X53799619Y-110623047D01*
X53799619Y-110768190D01*
X53751238Y-110961714D01*
X53702857Y-111058476D01*
X53606095Y-111155238D01*
X53460952Y-111203619D01*
X53219047Y-111203619D01*
X54235047Y-110671428D02*
X54573714Y-110671428D01*
X54718857Y-111203619D02*
X54235047Y-111203619D01*
X54235047Y-110187619D01*
X54718857Y-110187619D01*
X55154285Y-111203619D02*
X55154285Y-110187619D01*
X55541333Y-110187619D01*
X55638095Y-110236000D01*
X55686476Y-110284380D01*
X55734857Y-110381142D01*
X55734857Y-110526285D01*
X55686476Y-110623047D01*
X55638095Y-110671428D01*
X55541333Y-110719809D01*
X55154285Y-110719809D01*
X56025142Y-110187619D02*
X56605714Y-110187619D01*
X56315428Y-111203619D02*
X56315428Y-110187619D01*
X56944380Y-111203619D02*
X56944380Y-110187619D01*
X56944380Y-110671428D02*
X57524952Y-110671428D01*
X57524952Y-111203619D02*
X57524952Y-110187619D01*
D11*
X44886666Y-32218380D02*
X44886666Y-32932666D01*
X44839047Y-33075523D01*
X44743809Y-33170761D01*
X44600952Y-33218380D01*
X44505714Y-33218380D01*
X45362857Y-33218380D02*
X45362857Y-32218380D01*
X45743809Y-32218380D01*
X45839047Y-32266000D01*
X45886666Y-32313619D01*
X45934285Y-32408857D01*
X45934285Y-32551714D01*
X45886666Y-32646952D01*
X45839047Y-32694571D01*
X45743809Y-32742190D01*
X45362857Y-32742190D01*
X46505714Y-32646952D02*
X46410476Y-32599333D01*
X46362857Y-32551714D01*
X46315238Y-32456476D01*
X46315238Y-32408857D01*
X46362857Y-32313619D01*
X46410476Y-32266000D01*
X46505714Y-32218380D01*
X46696190Y-32218380D01*
X46791428Y-32266000D01*
X46839047Y-32313619D01*
X46886666Y-32408857D01*
X46886666Y-32456476D01*
X46839047Y-32551714D01*
X46791428Y-32599333D01*
X46696190Y-32646952D01*
X46505714Y-32646952D01*
X46410476Y-32694571D01*
X46362857Y-32742190D01*
X46315238Y-32837428D01*
X46315238Y-33027904D01*
X46362857Y-33123142D01*
X46410476Y-33170761D01*
X46505714Y-33218380D01*
X46696190Y-33218380D01*
X46791428Y-33170761D01*
X46839047Y-33123142D01*
X46886666Y-33027904D01*
X46886666Y-32837428D01*
X46839047Y-32742190D01*
X46791428Y-32694571D01*
X46696190Y-32646952D01*
X44886666Y-28916380D02*
X44886666Y-29630666D01*
X44839047Y-29773523D01*
X44743809Y-29868761D01*
X44600952Y-29916380D01*
X44505714Y-29916380D01*
X45362857Y-29916380D02*
X45362857Y-28916380D01*
X45743809Y-28916380D01*
X45839047Y-28964000D01*
X45886666Y-29011619D01*
X45934285Y-29106857D01*
X45934285Y-29249714D01*
X45886666Y-29344952D01*
X45839047Y-29392571D01*
X45743809Y-29440190D01*
X45362857Y-29440190D01*
X46267619Y-28916380D02*
X46934285Y-28916380D01*
X46505714Y-29916380D01*
X59872666Y-32218380D02*
X59872666Y-32932666D01*
X59825047Y-33075523D01*
X59729809Y-33170761D01*
X59586952Y-33218380D01*
X59491714Y-33218380D01*
X60348857Y-33218380D02*
X60348857Y-32218380D01*
X60729809Y-32218380D01*
X60825047Y-32266000D01*
X60872666Y-32313619D01*
X60920285Y-32408857D01*
X60920285Y-32551714D01*
X60872666Y-32646952D01*
X60825047Y-32694571D01*
X60729809Y-32742190D01*
X60348857Y-32742190D01*
X61777428Y-32218380D02*
X61586952Y-32218380D01*
X61491714Y-32266000D01*
X61444095Y-32313619D01*
X61348857Y-32456476D01*
X61301238Y-32646952D01*
X61301238Y-33027904D01*
X61348857Y-33123142D01*
X61396476Y-33170761D01*
X61491714Y-33218380D01*
X61682190Y-33218380D01*
X61777428Y-33170761D01*
X61825047Y-33123142D01*
X61872666Y-33027904D01*
X61872666Y-32789809D01*
X61825047Y-32694571D01*
X61777428Y-32646952D01*
X61682190Y-32599333D01*
X61491714Y-32599333D01*
X61396476Y-32646952D01*
X61348857Y-32694571D01*
X61301238Y-32789809D01*
X59872666Y-28916380D02*
X59872666Y-29630666D01*
X59825047Y-29773523D01*
X59729809Y-29868761D01*
X59586952Y-29916380D01*
X59491714Y-29916380D01*
X60348857Y-29916380D02*
X60348857Y-28916380D01*
X60729809Y-28916380D01*
X60825047Y-28964000D01*
X60872666Y-29011619D01*
X60920285Y-29106857D01*
X60920285Y-29249714D01*
X60872666Y-29344952D01*
X60825047Y-29392571D01*
X60729809Y-29440190D01*
X60348857Y-29440190D01*
X61825047Y-28916380D02*
X61348857Y-28916380D01*
X61301238Y-29392571D01*
X61348857Y-29344952D01*
X61444095Y-29297333D01*
X61682190Y-29297333D01*
X61777428Y-29344952D01*
X61825047Y-29392571D01*
X61872666Y-29487809D01*
X61872666Y-29725904D01*
X61825047Y-29821142D01*
X61777428Y-29868761D01*
X61682190Y-29916380D01*
X61444095Y-29916380D01*
X61348857Y-29868761D01*
X61301238Y-29821142D01*
X75112666Y-32726380D02*
X75112666Y-33440666D01*
X75065047Y-33583523D01*
X74969809Y-33678761D01*
X74826952Y-33726380D01*
X74731714Y-33726380D01*
X75588857Y-33726380D02*
X75588857Y-32726380D01*
X75969809Y-32726380D01*
X76065047Y-32774000D01*
X76112666Y-32821619D01*
X76160285Y-32916857D01*
X76160285Y-33059714D01*
X76112666Y-33154952D01*
X76065047Y-33202571D01*
X75969809Y-33250190D01*
X75588857Y-33250190D01*
X77017428Y-33059714D02*
X77017428Y-33726380D01*
X76779333Y-32678761D02*
X76541238Y-33393047D01*
X77160285Y-33393047D01*
X75112666Y-29170380D02*
X75112666Y-29884666D01*
X75065047Y-30027523D01*
X74969809Y-30122761D01*
X74826952Y-30170380D01*
X74731714Y-30170380D01*
X75588857Y-30170380D02*
X75588857Y-29170380D01*
X75969809Y-29170380D01*
X76065047Y-29218000D01*
X76112666Y-29265619D01*
X76160285Y-29360857D01*
X76160285Y-29503714D01*
X76112666Y-29598952D01*
X76065047Y-29646571D01*
X75969809Y-29694190D01*
X75588857Y-29694190D01*
X76493619Y-29170380D02*
X77112666Y-29170380D01*
X76779333Y-29551333D01*
X76922190Y-29551333D01*
X77017428Y-29598952D01*
X77065047Y-29646571D01*
X77112666Y-29741809D01*
X77112666Y-29979904D01*
X77065047Y-30075142D01*
X77017428Y-30122761D01*
X76922190Y-30170380D01*
X76636476Y-30170380D01*
X76541238Y-30122761D01*
X76493619Y-30075142D01*
X91114666Y-32726380D02*
X91114666Y-33440666D01*
X91067047Y-33583523D01*
X90971809Y-33678761D01*
X90828952Y-33726380D01*
X90733714Y-33726380D01*
X91590857Y-33726380D02*
X91590857Y-32726380D01*
X91971809Y-32726380D01*
X92067047Y-32774000D01*
X92114666Y-32821619D01*
X92162285Y-32916857D01*
X92162285Y-33059714D01*
X92114666Y-33154952D01*
X92067047Y-33202571D01*
X91971809Y-33250190D01*
X91590857Y-33250190D01*
X92543238Y-32821619D02*
X92590857Y-32774000D01*
X92686095Y-32726380D01*
X92924190Y-32726380D01*
X93019428Y-32774000D01*
X93067047Y-32821619D01*
X93114666Y-32916857D01*
X93114666Y-33012095D01*
X93067047Y-33154952D01*
X92495619Y-33726380D01*
X93114666Y-33726380D01*
X91114666Y-29424380D02*
X91114666Y-30138666D01*
X91067047Y-30281523D01*
X90971809Y-30376761D01*
X90828952Y-30424380D01*
X90733714Y-30424380D01*
X91590857Y-30424380D02*
X91590857Y-29424380D01*
X91971809Y-29424380D01*
X92067047Y-29472000D01*
X92114666Y-29519619D01*
X92162285Y-29614857D01*
X92162285Y-29757714D01*
X92114666Y-29852952D01*
X92067047Y-29900571D01*
X91971809Y-29948190D01*
X91590857Y-29948190D01*
X93114666Y-30424380D02*
X92543238Y-30424380D01*
X92828952Y-30424380D02*
X92828952Y-29424380D01*
X92733714Y-29567238D01*
X92638476Y-29662476D01*
X92543238Y-29710095D01*
D19*
X45320857Y-35668857D02*
X45272476Y-35717238D01*
X45127333Y-35765619D01*
X45030571Y-35765619D01*
X44885428Y-35717238D01*
X44788666Y-35620476D01*
X44740285Y-35523714D01*
X44691904Y-35330190D01*
X44691904Y-35185047D01*
X44740285Y-34991523D01*
X44788666Y-34894761D01*
X44885428Y-34798000D01*
X45030571Y-34749619D01*
X45127333Y-34749619D01*
X45272476Y-34798000D01*
X45320857Y-34846380D01*
X45707904Y-34846380D02*
X45756285Y-34798000D01*
X45853047Y-34749619D01*
X46094952Y-34749619D01*
X46191714Y-34798000D01*
X46240095Y-34846380D01*
X46288476Y-34943142D01*
X46288476Y-35039904D01*
X46240095Y-35185047D01*
X45659523Y-35765619D01*
X46288476Y-35765619D01*
X47159333Y-35088285D02*
X47159333Y-35765619D01*
X46917428Y-34701238D02*
X46675523Y-35426952D01*
X47304476Y-35426952D01*
X60560857Y-35668857D02*
X60512476Y-35717238D01*
X60367333Y-35765619D01*
X60270571Y-35765619D01*
X60125428Y-35717238D01*
X60028666Y-35620476D01*
X59980285Y-35523714D01*
X59931904Y-35330190D01*
X59931904Y-35185047D01*
X59980285Y-34991523D01*
X60028666Y-34894761D01*
X60125428Y-34798000D01*
X60270571Y-34749619D01*
X60367333Y-34749619D01*
X60512476Y-34798000D01*
X60560857Y-34846380D01*
X60947904Y-34846380D02*
X60996285Y-34798000D01*
X61093047Y-34749619D01*
X61334952Y-34749619D01*
X61431714Y-34798000D01*
X61480095Y-34846380D01*
X61528476Y-34943142D01*
X61528476Y-35039904D01*
X61480095Y-35185047D01*
X60899523Y-35765619D01*
X61528476Y-35765619D01*
X61867142Y-34749619D02*
X62496095Y-34749619D01*
X62157428Y-35136666D01*
X62302571Y-35136666D01*
X62399333Y-35185047D01*
X62447714Y-35233428D01*
X62496095Y-35330190D01*
X62496095Y-35572095D01*
X62447714Y-35668857D01*
X62399333Y-35717238D01*
X62302571Y-35765619D01*
X62012285Y-35765619D01*
X61915523Y-35717238D01*
X61867142Y-35668857D01*
X76054857Y-36176857D02*
X76006476Y-36225238D01*
X75861333Y-36273619D01*
X75764571Y-36273619D01*
X75619428Y-36225238D01*
X75522666Y-36128476D01*
X75474285Y-36031714D01*
X75425904Y-35838190D01*
X75425904Y-35693047D01*
X75474285Y-35499523D01*
X75522666Y-35402761D01*
X75619428Y-35306000D01*
X75764571Y-35257619D01*
X75861333Y-35257619D01*
X76006476Y-35306000D01*
X76054857Y-35354380D01*
X76441904Y-35354380D02*
X76490285Y-35306000D01*
X76587047Y-35257619D01*
X76828952Y-35257619D01*
X76925714Y-35306000D01*
X76974095Y-35354380D01*
X77022476Y-35451142D01*
X77022476Y-35547904D01*
X76974095Y-35693047D01*
X76393523Y-36273619D01*
X77022476Y-36273619D01*
X77409523Y-35354380D02*
X77457904Y-35306000D01*
X77554666Y-35257619D01*
X77796571Y-35257619D01*
X77893333Y-35306000D01*
X77941714Y-35354380D01*
X77990095Y-35451142D01*
X77990095Y-35547904D01*
X77941714Y-35693047D01*
X77361142Y-36273619D01*
X77990095Y-36273619D01*
X91802857Y-36084716D02*
X91754476Y-36133097D01*
X91609333Y-36181478D01*
X91512571Y-36181478D01*
X91367428Y-36133097D01*
X91270666Y-36036335D01*
X91222285Y-35939573D01*
X91173904Y-35746049D01*
X91173904Y-35600906D01*
X91222285Y-35407382D01*
X91270666Y-35310620D01*
X91367428Y-35213859D01*
X91512571Y-35165478D01*
X91609333Y-35165478D01*
X91754476Y-35213859D01*
X91802857Y-35262239D01*
X92770476Y-36181478D02*
X92189904Y-36181478D01*
X92480190Y-36181478D02*
X92480190Y-35165478D01*
X92383428Y-35310620D01*
X92286666Y-35407382D01*
X92189904Y-35455763D01*
X93689714Y-35165478D02*
X93205904Y-35165478D01*
X93157523Y-35649287D01*
X93205904Y-35600906D01*
X93302666Y-35552525D01*
X93544571Y-35552525D01*
X93641333Y-35600906D01*
X93689714Y-35649287D01*
X93738095Y-35746049D01*
X93738095Y-35987954D01*
X93689714Y-36084716D01*
X93641333Y-36133097D01*
X93544571Y-36181478D01*
X93302666Y-36181478D01*
X93205904Y-36133097D01*
X93157523Y-36084716D01*
D11*
X36274476Y-53046380D02*
X36274476Y-53760666D01*
X36226857Y-53903523D01*
X36131619Y-53998761D01*
X35988761Y-54046380D01*
X35893523Y-54046380D01*
X36703047Y-53141619D02*
X36750666Y-53094000D01*
X36845904Y-53046380D01*
X37084000Y-53046380D01*
X37179238Y-53094000D01*
X37226857Y-53141619D01*
X37274476Y-53236857D01*
X37274476Y-53332095D01*
X37226857Y-53474952D01*
X36655428Y-54046380D01*
X37274476Y-54046380D01*
X38226857Y-54046380D02*
X37655428Y-54046380D01*
X37941142Y-54046380D02*
X37941142Y-53046380D01*
X37845904Y-53189238D01*
X37750666Y-53284476D01*
X37655428Y-53332095D01*
X104171904Y-40092380D02*
X104171904Y-40901904D01*
X104219523Y-40997142D01*
X104267142Y-41044761D01*
X104362380Y-41092380D01*
X104552857Y-41092380D01*
X104648095Y-41044761D01*
X104695714Y-40997142D01*
X104743333Y-40901904D01*
X104743333Y-40092380D01*
X105743333Y-41092380D02*
X105171904Y-41092380D01*
X105457619Y-41092380D02*
X105457619Y-40092380D01*
X105362380Y-40235238D01*
X105267142Y-40330476D01*
X105171904Y-40378095D01*
X106648095Y-40092380D02*
X106171904Y-40092380D01*
X106124285Y-40568571D01*
X106171904Y-40520952D01*
X106267142Y-40473333D01*
X106505238Y-40473333D01*
X106600476Y-40520952D01*
X106648095Y-40568571D01*
X106695714Y-40663809D01*
X106695714Y-40901904D01*
X106648095Y-40997142D01*
X106600476Y-41044761D01*
X106505238Y-41092380D01*
X106267142Y-41092380D01*
X106171904Y-41044761D01*
X106124285Y-40997142D01*
X97567904Y-40092380D02*
X97567904Y-40901904D01*
X97615523Y-40997142D01*
X97663142Y-41044761D01*
X97758380Y-41092380D01*
X97948857Y-41092380D01*
X98044095Y-41044761D01*
X98091714Y-40997142D01*
X98139333Y-40901904D01*
X98139333Y-40092380D01*
X99139333Y-41092380D02*
X98567904Y-41092380D01*
X98853619Y-41092380D02*
X98853619Y-40092380D01*
X98758380Y-40235238D01*
X98663142Y-40330476D01*
X98567904Y-40378095D01*
X99996476Y-40425714D02*
X99996476Y-41092380D01*
X99758380Y-40044761D02*
X99520285Y-40759047D01*
X100139333Y-40759047D01*
X119586476Y-79970380D02*
X119586476Y-80684666D01*
X119538857Y-80827523D01*
X119443619Y-80922761D01*
X119300761Y-80970380D01*
X119205523Y-80970380D01*
X120015047Y-80065619D02*
X120062666Y-80018000D01*
X120157904Y-79970380D01*
X120396000Y-79970380D01*
X120491238Y-80018000D01*
X120538857Y-80065619D01*
X120586476Y-80160857D01*
X120586476Y-80256095D01*
X120538857Y-80398952D01*
X119967428Y-80970380D01*
X120586476Y-80970380D01*
X121205523Y-79970380D02*
X121300761Y-79970380D01*
X121396000Y-80018000D01*
X121443619Y-80065619D01*
X121491238Y-80160857D01*
X121538857Y-80351333D01*
X121538857Y-80589428D01*
X121491238Y-80779904D01*
X121443619Y-80875142D01*
X121396000Y-80922761D01*
X121300761Y-80970380D01*
X121205523Y-80970380D01*
X121110285Y-80922761D01*
X121062666Y-80875142D01*
X121015047Y-80779904D01*
X120967428Y-80589428D01*
X120967428Y-80351333D01*
X121015047Y-80160857D01*
X121062666Y-80065619D01*
X121110285Y-80018000D01*
X121205523Y-79970380D01*
D19*
X104055333Y-30891238D02*
X104200476Y-30939619D01*
X104442380Y-30939619D01*
X104539142Y-30891238D01*
X104587523Y-30842857D01*
X104635904Y-30746095D01*
X104635904Y-30649333D01*
X104587523Y-30552571D01*
X104539142Y-30504190D01*
X104442380Y-30455809D01*
X104248857Y-30407428D01*
X104152095Y-30359047D01*
X104103714Y-30310666D01*
X104055333Y-30213904D01*
X104055333Y-30117142D01*
X104103714Y-30020380D01*
X104152095Y-29972000D01*
X104248857Y-29923619D01*
X104490761Y-29923619D01*
X104635904Y-29972000D01*
X104974571Y-29923619D02*
X105216476Y-30939619D01*
X105410000Y-30213904D01*
X105603523Y-30939619D01*
X105845428Y-29923619D01*
X106764666Y-30939619D02*
X106184095Y-30939619D01*
X106474380Y-30939619D02*
X106474380Y-29923619D01*
X106377619Y-30068761D01*
X106280857Y-30165523D01*
X106184095Y-30213904D01*
X97451333Y-30891238D02*
X97596476Y-30939619D01*
X97838380Y-30939619D01*
X97935142Y-30891238D01*
X97983523Y-30842857D01*
X98031904Y-30746095D01*
X98031904Y-30649333D01*
X97983523Y-30552571D01*
X97935142Y-30504190D01*
X97838380Y-30455809D01*
X97644857Y-30407428D01*
X97548095Y-30359047D01*
X97499714Y-30310666D01*
X97451333Y-30213904D01*
X97451333Y-30117142D01*
X97499714Y-30020380D01*
X97548095Y-29972000D01*
X97644857Y-29923619D01*
X97886761Y-29923619D01*
X98031904Y-29972000D01*
X98370571Y-29923619D02*
X98612476Y-30939619D01*
X98806000Y-30213904D01*
X98999523Y-30939619D01*
X99241428Y-29923619D01*
X99580095Y-30020380D02*
X99628476Y-29972000D01*
X99725238Y-29923619D01*
X99967142Y-29923619D01*
X100063904Y-29972000D01*
X100112285Y-30020380D01*
X100160666Y-30117142D01*
X100160666Y-30213904D01*
X100112285Y-30359047D01*
X99531714Y-30939619D01*
X100160666Y-30939619D01*
X74022857Y-62121142D02*
X74071238Y-62169523D01*
X74119619Y-62314666D01*
X74119619Y-62411428D01*
X74071238Y-62556571D01*
X73974476Y-62653333D01*
X73877714Y-62701714D01*
X73684190Y-62750095D01*
X73539047Y-62750095D01*
X73345523Y-62701714D01*
X73248761Y-62653333D01*
X73152000Y-62556571D01*
X73103619Y-62411428D01*
X73103619Y-62314666D01*
X73152000Y-62169523D01*
X73200380Y-62121142D01*
X74119619Y-61153523D02*
X74119619Y-61734095D01*
X74119619Y-61443809D02*
X73103619Y-61443809D01*
X73248761Y-61540571D01*
X73345523Y-61637333D01*
X73393904Y-61734095D01*
X73200380Y-60766476D02*
X73152000Y-60718095D01*
X73103619Y-60621333D01*
X73103619Y-60379428D01*
X73152000Y-60282666D01*
X73200380Y-60234285D01*
X73297142Y-60185904D01*
X73393904Y-60185904D01*
X73539047Y-60234285D01*
X74119619Y-60814857D01*
X74119619Y-60185904D01*
D11*
X66579904Y-79970380D02*
X66579904Y-80779904D01*
X66627523Y-80875142D01*
X66675142Y-80922761D01*
X66770380Y-80970380D01*
X66960857Y-80970380D01*
X67056095Y-80922761D01*
X67103714Y-80875142D01*
X67151333Y-80779904D01*
X67151333Y-79970380D01*
X68151333Y-80970380D02*
X67579904Y-80970380D01*
X67865619Y-80970380D02*
X67865619Y-79970380D01*
X67770380Y-80113238D01*
X67675142Y-80208476D01*
X67579904Y-80256095D01*
X68484666Y-79970380D02*
X69103714Y-79970380D01*
X68770380Y-80351333D01*
X68913238Y-80351333D01*
X69008476Y-80398952D01*
X69056095Y-80446571D01*
X69103714Y-80541809D01*
X69103714Y-80779904D01*
X69056095Y-80875142D01*
X69008476Y-80922761D01*
X68913238Y-80970380D01*
X68627523Y-80970380D01*
X68532285Y-80922761D01*
X68484666Y-80875142D01*
X33234380Y-44672095D02*
X34043904Y-44672095D01*
X34139142Y-44624476D01*
X34186761Y-44576857D01*
X34234380Y-44481619D01*
X34234380Y-44291142D01*
X34186761Y-44195904D01*
X34139142Y-44148285D01*
X34043904Y-44100666D01*
X33234380Y-44100666D01*
X34234380Y-43100666D02*
X34234380Y-43672095D01*
X34234380Y-43386380D02*
X33234380Y-43386380D01*
X33377238Y-43481619D01*
X33472476Y-43576857D01*
X33520095Y-43672095D01*
X33329619Y-42719714D02*
X33282000Y-42672095D01*
X33234380Y-42576857D01*
X33234380Y-42338761D01*
X33282000Y-42243523D01*
X33329619Y-42195904D01*
X33424857Y-42148285D01*
X33520095Y-42148285D01*
X33662952Y-42195904D01*
X34234380Y-42767333D01*
X34234380Y-42148285D01*
X48220380Y-44418095D02*
X49029904Y-44418095D01*
X49125142Y-44370476D01*
X49172761Y-44322857D01*
X49220380Y-44227619D01*
X49220380Y-44037142D01*
X49172761Y-43941904D01*
X49125142Y-43894285D01*
X49029904Y-43846666D01*
X48220380Y-43846666D01*
X49220380Y-42846666D02*
X49220380Y-43418095D01*
X49220380Y-43132380D02*
X48220380Y-43132380D01*
X48363238Y-43227619D01*
X48458476Y-43322857D01*
X48506095Y-43418095D01*
X49220380Y-41894285D02*
X49220380Y-42465714D01*
X49220380Y-42180000D02*
X48220380Y-42180000D01*
X48363238Y-42275238D01*
X48458476Y-42370476D01*
X48506095Y-42465714D01*
D19*
X40144095Y-47703619D02*
X40144095Y-48526095D01*
X40192476Y-48622857D01*
X40240857Y-48671238D01*
X40337619Y-48719619D01*
X40531142Y-48719619D01*
X40627904Y-48671238D01*
X40676285Y-48622857D01*
X40724666Y-48526095D01*
X40724666Y-47703619D01*
X41740666Y-48719619D02*
X41160095Y-48719619D01*
X41450380Y-48719619D02*
X41450380Y-47703619D01*
X41353619Y-47848761D01*
X41256857Y-47945523D01*
X41160095Y-47993904D01*
X42369619Y-47703619D02*
X42466380Y-47703619D01*
X42563142Y-47752000D01*
X42611523Y-47800380D01*
X42659904Y-47897142D01*
X42708285Y-48090666D01*
X42708285Y-48332571D01*
X42659904Y-48526095D01*
X42611523Y-48622857D01*
X42563142Y-48671238D01*
X42466380Y-48719619D01*
X42369619Y-48719619D01*
X42272857Y-48671238D01*
X42224476Y-48622857D01*
X42176095Y-48526095D01*
X42127714Y-48332571D01*
X42127714Y-48090666D01*
X42176095Y-47897142D01*
X42224476Y-47800380D01*
X42272857Y-47752000D01*
X42369619Y-47703619D01*
X54851904Y-47703619D02*
X54851904Y-48526095D01*
X54900285Y-48622857D01*
X54948666Y-48671238D01*
X55045428Y-48719619D01*
X55238952Y-48719619D01*
X55335714Y-48671238D01*
X55384095Y-48622857D01*
X55432476Y-48526095D01*
X55432476Y-47703619D01*
X55964666Y-48719619D02*
X56158190Y-48719619D01*
X56254952Y-48671238D01*
X56303333Y-48622857D01*
X56400095Y-48477714D01*
X56448476Y-48284190D01*
X56448476Y-47897142D01*
X56400095Y-47800380D01*
X56351714Y-47752000D01*
X56254952Y-47703619D01*
X56061428Y-47703619D01*
X55964666Y-47752000D01*
X55916285Y-47800380D01*
X55867904Y-47897142D01*
X55867904Y-48139047D01*
X55916285Y-48235809D01*
X55964666Y-48284190D01*
X56061428Y-48332571D01*
X56254952Y-48332571D01*
X56351714Y-48284190D01*
X56400095Y-48235809D01*
X56448476Y-48139047D01*
D11*
X63460380Y-44195904D02*
X64269904Y-44195904D01*
X64365142Y-44148285D01*
X64412761Y-44100666D01*
X64460380Y-44005428D01*
X64460380Y-43814952D01*
X64412761Y-43719714D01*
X64365142Y-43672095D01*
X64269904Y-43624476D01*
X63460380Y-43624476D01*
X63888952Y-43005428D02*
X63841333Y-43100666D01*
X63793714Y-43148285D01*
X63698476Y-43195904D01*
X63650857Y-43195904D01*
X63555619Y-43148285D01*
X63508000Y-43100666D01*
X63460380Y-43005428D01*
X63460380Y-42814952D01*
X63508000Y-42719714D01*
X63555619Y-42672095D01*
X63650857Y-42624476D01*
X63698476Y-42624476D01*
X63793714Y-42672095D01*
X63841333Y-42719714D01*
X63888952Y-42814952D01*
X63888952Y-43005428D01*
X63936571Y-43100666D01*
X63984190Y-43148285D01*
X64079428Y-43195904D01*
X64269904Y-43195904D01*
X64365142Y-43148285D01*
X64412761Y-43100666D01*
X64460380Y-43005428D01*
X64460380Y-42814952D01*
X64412761Y-42719714D01*
X64365142Y-42672095D01*
X64269904Y-42624476D01*
X64079428Y-42624476D01*
X63984190Y-42672095D01*
X63936571Y-42719714D01*
X63888952Y-42814952D01*
X79462380Y-43941904D02*
X80271904Y-43941904D01*
X80367142Y-43894285D01*
X80414761Y-43846666D01*
X80462380Y-43751428D01*
X80462380Y-43560952D01*
X80414761Y-43465714D01*
X80367142Y-43418095D01*
X80271904Y-43370476D01*
X79462380Y-43370476D01*
X79462380Y-42989523D02*
X79462380Y-42322857D01*
X80462380Y-42751428D01*
D19*
X70345904Y-48465619D02*
X70345904Y-49288095D01*
X70394285Y-49384857D01*
X70442666Y-49433238D01*
X70539428Y-49481619D01*
X70732952Y-49481619D01*
X70829714Y-49433238D01*
X70878095Y-49384857D01*
X70926476Y-49288095D01*
X70926476Y-48465619D01*
X71845714Y-48465619D02*
X71652190Y-48465619D01*
X71555428Y-48514000D01*
X71507047Y-48562380D01*
X71410285Y-48707523D01*
X71361904Y-48901047D01*
X71361904Y-49288095D01*
X71410285Y-49384857D01*
X71458666Y-49433238D01*
X71555428Y-49481619D01*
X71748952Y-49481619D01*
X71845714Y-49433238D01*
X71894095Y-49384857D01*
X71942476Y-49288095D01*
X71942476Y-49046190D01*
X71894095Y-48949428D01*
X71845714Y-48901047D01*
X71748952Y-48852666D01*
X71555428Y-48852666D01*
X71458666Y-48901047D01*
X71410285Y-48949428D01*
X71361904Y-49046190D01*
X86347904Y-48211619D02*
X86347904Y-49034095D01*
X86396285Y-49130857D01*
X86444666Y-49179238D01*
X86541428Y-49227619D01*
X86734952Y-49227619D01*
X86831714Y-49179238D01*
X86880095Y-49130857D01*
X86928476Y-49034095D01*
X86928476Y-48211619D01*
X87896095Y-48211619D02*
X87412285Y-48211619D01*
X87363904Y-48695428D01*
X87412285Y-48647047D01*
X87509047Y-48598666D01*
X87750952Y-48598666D01*
X87847714Y-48647047D01*
X87896095Y-48695428D01*
X87944476Y-48792190D01*
X87944476Y-49034095D01*
X87896095Y-49130857D01*
X87847714Y-49179238D01*
X87750952Y-49227619D01*
X87509047Y-49227619D01*
X87412285Y-49179238D01*
X87363904Y-49130857D01*
D11*
X113620380Y-43433904D02*
X114429904Y-43433904D01*
X114525142Y-43386285D01*
X114572761Y-43338666D01*
X114620380Y-43243428D01*
X114620380Y-43052952D01*
X114572761Y-42957714D01*
X114525142Y-42910095D01*
X114429904Y-42862476D01*
X113620380Y-42862476D01*
X113953714Y-41957714D02*
X114620380Y-41957714D01*
X113572761Y-42195809D02*
X114287047Y-42433904D01*
X114287047Y-41814857D01*
X113504380Y-60451904D02*
X114313904Y-60451904D01*
X114409142Y-60404285D01*
X114456761Y-60356666D01*
X114504380Y-60261428D01*
X114504380Y-60070952D01*
X114456761Y-59975714D01*
X114409142Y-59928095D01*
X114313904Y-59880476D01*
X113504380Y-59880476D01*
X113504380Y-59499523D02*
X113504380Y-58880476D01*
X113885333Y-59213809D01*
X113885333Y-59070952D01*
X113932952Y-58975714D01*
X113980571Y-58928095D01*
X114075809Y-58880476D01*
X114313904Y-58880476D01*
X114409142Y-58928095D01*
X114456761Y-58975714D01*
X114504380Y-59070952D01*
X114504380Y-59356666D01*
X114456761Y-59451904D01*
X114409142Y-59499523D01*
D19*
X52311904Y-64721619D02*
X52311904Y-65544095D01*
X52360285Y-65640857D01*
X52408666Y-65689238D01*
X52505428Y-65737619D01*
X52698952Y-65737619D01*
X52795714Y-65689238D01*
X52844095Y-65640857D01*
X52892476Y-65544095D01*
X52892476Y-64721619D01*
X53327904Y-64818380D02*
X53376285Y-64770000D01*
X53473047Y-64721619D01*
X53714952Y-64721619D01*
X53811714Y-64770000D01*
X53860095Y-64818380D01*
X53908476Y-64915142D01*
X53908476Y-65011904D01*
X53860095Y-65157047D01*
X53279523Y-65737619D01*
X53908476Y-65737619D01*
X88948380Y-73865619D02*
X88609714Y-73381809D01*
X88367809Y-73865619D02*
X88367809Y-72849619D01*
X88754857Y-72849619D01*
X88851619Y-72898000D01*
X88900000Y-72946380D01*
X88948380Y-73043142D01*
X88948380Y-73188285D01*
X88900000Y-73285047D01*
X88851619Y-73333428D01*
X88754857Y-73381809D01*
X88367809Y-73381809D01*
X89383809Y-73333428D02*
X89722476Y-73333428D01*
X89867619Y-73865619D02*
X89383809Y-73865619D01*
X89383809Y-72849619D01*
X89867619Y-72849619D01*
X90254666Y-73817238D02*
X90399809Y-73865619D01*
X90641714Y-73865619D01*
X90738476Y-73817238D01*
X90786857Y-73768857D01*
X90835238Y-73672095D01*
X90835238Y-73575333D01*
X90786857Y-73478571D01*
X90738476Y-73430190D01*
X90641714Y-73381809D01*
X90448190Y-73333428D01*
X90351428Y-73285047D01*
X90303047Y-73236666D01*
X90254666Y-73139904D01*
X90254666Y-73043142D01*
X90303047Y-72946380D01*
X90351428Y-72898000D01*
X90448190Y-72849619D01*
X90690095Y-72849619D01*
X90835238Y-72898000D01*
X91270666Y-73333428D02*
X91609333Y-73333428D01*
X91754476Y-73865619D02*
X91270666Y-73865619D01*
X91270666Y-72849619D01*
X91754476Y-72849619D01*
X92044761Y-72849619D02*
X92625333Y-72849619D01*
X92335047Y-73865619D02*
X92335047Y-72849619D01*
X103136095Y-115243428D02*
X103281238Y-115291809D01*
X103329619Y-115340190D01*
X103378000Y-115436952D01*
X103378000Y-115582095D01*
X103329619Y-115678857D01*
X103281238Y-115727238D01*
X103184476Y-115775619D01*
X102797428Y-115775619D01*
X102797428Y-114759619D01*
X103136095Y-114759619D01*
X103232857Y-114808000D01*
X103281238Y-114856380D01*
X103329619Y-114953142D01*
X103329619Y-115049904D01*
X103281238Y-115146666D01*
X103232857Y-115195047D01*
X103136095Y-115243428D01*
X102797428Y-115243428D01*
X104006952Y-115291809D02*
X104006952Y-115775619D01*
X103668285Y-114759619D02*
X104006952Y-115291809D01*
X104345619Y-114759619D01*
X104684285Y-115775619D02*
X104684285Y-114759619D01*
X105071333Y-114759619D01*
X105168095Y-114808000D01*
X105216476Y-114856380D01*
X105264857Y-114953142D01*
X105264857Y-115098285D01*
X105216476Y-115195047D01*
X105168095Y-115243428D01*
X105071333Y-115291809D01*
X104684285Y-115291809D01*
X105651904Y-115485333D02*
X106135714Y-115485333D01*
X105555142Y-115775619D02*
X105893809Y-114759619D01*
X106232476Y-115775619D01*
X106522761Y-115727238D02*
X106667904Y-115775619D01*
X106909809Y-115775619D01*
X107006571Y-115727238D01*
X107054952Y-115678857D01*
X107103333Y-115582095D01*
X107103333Y-115485333D01*
X107054952Y-115388571D01*
X107006571Y-115340190D01*
X106909809Y-115291809D01*
X106716285Y-115243428D01*
X106619523Y-115195047D01*
X106571142Y-115146666D01*
X106522761Y-115049904D01*
X106522761Y-114953142D01*
X106571142Y-114856380D01*
X106619523Y-114808000D01*
X106716285Y-114759619D01*
X106958190Y-114759619D01*
X107103333Y-114808000D01*
X107490380Y-115727238D02*
X107635523Y-115775619D01*
X107877428Y-115775619D01*
X107974190Y-115727238D01*
X108022571Y-115678857D01*
X108070952Y-115582095D01*
X108070952Y-115485333D01*
X108022571Y-115388571D01*
X107974190Y-115340190D01*
X107877428Y-115291809D01*
X107683904Y-115243428D01*
X107587142Y-115195047D01*
X107538761Y-115146666D01*
X107490380Y-115049904D01*
X107490380Y-114953142D01*
X107538761Y-114856380D01*
X107587142Y-114808000D01*
X107683904Y-114759619D01*
X107925809Y-114759619D01*
X108070952Y-114808000D01*
X92492285Y-114505619D02*
X93072857Y-114505619D01*
X92782571Y-115521619D02*
X92782571Y-114505619D01*
X93363142Y-115231333D02*
X93846952Y-115231333D01*
X93266380Y-115521619D02*
X93605047Y-114505619D01*
X93943714Y-115521619D01*
X94282380Y-115521619D02*
X94282380Y-114505619D01*
X94669428Y-114505619D01*
X94766190Y-114554000D01*
X94814571Y-114602380D01*
X94862952Y-114699142D01*
X94862952Y-114844285D01*
X94814571Y-114941047D01*
X94766190Y-114989428D01*
X94669428Y-115037809D01*
X94282380Y-115037809D01*
X110139238Y-110187619D02*
X110719809Y-110187619D01*
X110429523Y-111203619D02*
X110429523Y-110187619D01*
X111639047Y-111203619D02*
X111300380Y-110719809D01*
X111058476Y-111203619D02*
X111058476Y-110187619D01*
X111445523Y-110187619D01*
X111542285Y-110236000D01*
X111590666Y-110284380D01*
X111639047Y-110381142D01*
X111639047Y-110526285D01*
X111590666Y-110623047D01*
X111542285Y-110671428D01*
X111445523Y-110719809D01*
X111058476Y-110719809D01*
X112074476Y-111203619D02*
X112074476Y-110187619D01*
X112558285Y-111203619D02*
X112558285Y-110187619D01*
X112896952Y-110913333D01*
X113235619Y-110187619D01*
X113235619Y-111203619D01*
X95274190Y-111155238D02*
X95419333Y-111203619D01*
X95661238Y-111203619D01*
X95758000Y-111155238D01*
X95806380Y-111106857D01*
X95854761Y-111010095D01*
X95854761Y-110913333D01*
X95806380Y-110816571D01*
X95758000Y-110768190D01*
X95661238Y-110719809D01*
X95467714Y-110671428D01*
X95370952Y-110623047D01*
X95322571Y-110574666D01*
X95274190Y-110477904D01*
X95274190Y-110381142D01*
X95322571Y-110284380D01*
X95370952Y-110236000D01*
X95467714Y-110187619D01*
X95709619Y-110187619D01*
X95854761Y-110236000D01*
X96290190Y-110187619D02*
X96290190Y-111010095D01*
X96338571Y-111106857D01*
X96386952Y-111155238D01*
X96483714Y-111203619D01*
X96677238Y-111203619D01*
X96774000Y-111155238D01*
X96822380Y-111106857D01*
X96870761Y-111010095D01*
X96870761Y-110187619D01*
X97693238Y-110671428D02*
X97838380Y-110719809D01*
X97886761Y-110768190D01*
X97935142Y-110864952D01*
X97935142Y-111010095D01*
X97886761Y-111106857D01*
X97838380Y-111155238D01*
X97741619Y-111203619D01*
X97354571Y-111203619D01*
X97354571Y-110187619D01*
X97693238Y-110187619D01*
X97790000Y-110236000D01*
X97838380Y-110284380D01*
X97886761Y-110381142D01*
X97886761Y-110477904D01*
X97838380Y-110574666D01*
X97790000Y-110623047D01*
X97693238Y-110671428D01*
X97354571Y-110671428D01*
X98370571Y-111203619D02*
X98370571Y-110187619D01*
X98612476Y-110187619D01*
X98757619Y-110236000D01*
X98854380Y-110332761D01*
X98902761Y-110429523D01*
X98951142Y-110623047D01*
X98951142Y-110768190D01*
X98902761Y-110961714D01*
X98854380Y-111058476D01*
X98757619Y-111155238D01*
X98612476Y-111203619D01*
X98370571Y-111203619D01*
X99386571Y-111203619D02*
X99386571Y-110187619D01*
X99725238Y-110187619D02*
X100063904Y-111203619D01*
X100402571Y-110187619D01*
X81267904Y-109933619D02*
X81461428Y-109933619D01*
X81558190Y-109982000D01*
X81654952Y-110078761D01*
X81703333Y-110272285D01*
X81703333Y-110610952D01*
X81654952Y-110804476D01*
X81558190Y-110901238D01*
X81461428Y-110949619D01*
X81267904Y-110949619D01*
X81171142Y-110901238D01*
X81074380Y-110804476D01*
X81026000Y-110610952D01*
X81026000Y-110272285D01*
X81074380Y-110078761D01*
X81171142Y-109982000D01*
X81267904Y-109933619D01*
X82477428Y-110417428D02*
X82138761Y-110417428D01*
X82138761Y-110949619D02*
X82138761Y-109933619D01*
X82622571Y-109933619D01*
X83348285Y-110417428D02*
X83009619Y-110417428D01*
X83009619Y-110949619D02*
X83009619Y-109933619D01*
X83493428Y-109933619D01*
X83832095Y-110901238D02*
X83977238Y-110949619D01*
X84219142Y-110949619D01*
X84315904Y-110901238D01*
X84364285Y-110852857D01*
X84412666Y-110756095D01*
X84412666Y-110659333D01*
X84364285Y-110562571D01*
X84315904Y-110514190D01*
X84219142Y-110465809D01*
X84025619Y-110417428D01*
X83928857Y-110369047D01*
X83880476Y-110320666D01*
X83832095Y-110223904D01*
X83832095Y-110127142D01*
X83880476Y-110030380D01*
X83928857Y-109982000D01*
X84025619Y-109933619D01*
X84267523Y-109933619D01*
X84412666Y-109982000D01*
X84848095Y-110417428D02*
X85186761Y-110417428D01*
X85331904Y-110949619D02*
X84848095Y-110949619D01*
X84848095Y-109933619D01*
X85331904Y-109933619D01*
X85622190Y-109933619D02*
X86202761Y-109933619D01*
X85912476Y-110949619D02*
X85912476Y-109933619D01*
X67116476Y-111155238D02*
X67261619Y-111203619D01*
X67503523Y-111203619D01*
X67600285Y-111155238D01*
X67648666Y-111106857D01*
X67697047Y-111010095D01*
X67697047Y-110913333D01*
X67648666Y-110816571D01*
X67600285Y-110768190D01*
X67503523Y-110719809D01*
X67310000Y-110671428D01*
X67213238Y-110623047D01*
X67164857Y-110574666D01*
X67116476Y-110477904D01*
X67116476Y-110381142D01*
X67164857Y-110284380D01*
X67213238Y-110236000D01*
X67310000Y-110187619D01*
X67551904Y-110187619D01*
X67697047Y-110236000D01*
X68132476Y-111203619D02*
X68132476Y-110187619D01*
X68132476Y-110671428D02*
X68713047Y-110671428D01*
X68713047Y-111203619D02*
X68713047Y-110187619D01*
X69148476Y-110913333D02*
X69632285Y-110913333D01*
X69051714Y-111203619D02*
X69390380Y-110187619D01*
X69729047Y-111203619D01*
X70067714Y-111203619D02*
X70067714Y-110187619D01*
X70454761Y-110187619D01*
X70551523Y-110236000D01*
X70599904Y-110284380D01*
X70648285Y-110381142D01*
X70648285Y-110526285D01*
X70599904Y-110623047D01*
X70551523Y-110671428D01*
X70454761Y-110719809D01*
X70067714Y-110719809D01*
X71083714Y-110671428D02*
X71422380Y-110671428D01*
X71567523Y-111203619D02*
X71083714Y-111203619D01*
X71083714Y-110187619D01*
X71567523Y-110187619D01*
X40434380Y-111203619D02*
X40095714Y-110719809D01*
X39853809Y-111203619D02*
X39853809Y-110187619D01*
X40240857Y-110187619D01*
X40337619Y-110236000D01*
X40386000Y-110284380D01*
X40434380Y-110381142D01*
X40434380Y-110526285D01*
X40386000Y-110623047D01*
X40337619Y-110671428D01*
X40240857Y-110719809D01*
X39853809Y-110719809D01*
X40821428Y-110913333D02*
X41305238Y-110913333D01*
X40724666Y-111203619D02*
X41063333Y-110187619D01*
X41402000Y-111203619D01*
X41595523Y-110187619D02*
X42176095Y-110187619D01*
X41885809Y-111203619D02*
X41885809Y-110187619D01*
X42514761Y-110671428D02*
X42853428Y-110671428D01*
X42998571Y-111203619D02*
X42514761Y-111203619D01*
X42514761Y-110187619D01*
X42998571Y-110187619D01*
X83928857Y-61673619D02*
X83590190Y-61189809D01*
X83348285Y-61673619D02*
X83348285Y-60657619D01*
X83735333Y-60657619D01*
X83832095Y-60706000D01*
X83880476Y-60754380D01*
X83928857Y-60851142D01*
X83928857Y-60996285D01*
X83880476Y-61093047D01*
X83832095Y-61141428D01*
X83735333Y-61189809D01*
X83348285Y-61189809D01*
X84896476Y-61673619D02*
X84315904Y-61673619D01*
X84606190Y-61673619D02*
X84606190Y-60657619D01*
X84509428Y-60802761D01*
X84412666Y-60899523D01*
X84315904Y-60947904D01*
X85477047Y-61093047D02*
X85380285Y-61044666D01*
X85331904Y-60996285D01*
X85283523Y-60899523D01*
X85283523Y-60851142D01*
X85331904Y-60754380D01*
X85380285Y-60706000D01*
X85477047Y-60657619D01*
X85670571Y-60657619D01*
X85767333Y-60706000D01*
X85815714Y-60754380D01*
X85864095Y-60851142D01*
X85864095Y-60899523D01*
X85815714Y-60996285D01*
X85767333Y-61044666D01*
X85670571Y-61093047D01*
X85477047Y-61093047D01*
X85380285Y-61141428D01*
X85331904Y-61189809D01*
X85283523Y-61286571D01*
X85283523Y-61480095D01*
X85331904Y-61576857D01*
X85380285Y-61625238D01*
X85477047Y-61673619D01*
X85670571Y-61673619D01*
X85767333Y-61625238D01*
X85815714Y-61576857D01*
X85864095Y-61480095D01*
X85864095Y-61286571D01*
X85815714Y-61189809D01*
X85767333Y-61141428D01*
X85670571Y-61093047D01*
X70974857Y-84533619D02*
X70636190Y-84049809D01*
X70394285Y-84533619D02*
X70394285Y-83517619D01*
X70781333Y-83517619D01*
X70878095Y-83566000D01*
X70926476Y-83614380D01*
X70974857Y-83711142D01*
X70974857Y-83856285D01*
X70926476Y-83953047D01*
X70878095Y-84001428D01*
X70781333Y-84049809D01*
X70394285Y-84049809D01*
X71942476Y-84533619D02*
X71361904Y-84533619D01*
X71652190Y-84533619D02*
X71652190Y-83517619D01*
X71555428Y-83662761D01*
X71458666Y-83759523D01*
X71361904Y-83807904D01*
X72281142Y-83517619D02*
X72958476Y-83517619D01*
X72523047Y-84533619D01*
X45574857Y-37543619D02*
X45236190Y-37059809D01*
X44994285Y-37543619D02*
X44994285Y-36527619D01*
X45381333Y-36527619D01*
X45478095Y-36576000D01*
X45526476Y-36624380D01*
X45574857Y-36721142D01*
X45574857Y-36866285D01*
X45526476Y-36963047D01*
X45478095Y-37011428D01*
X45381333Y-37059809D01*
X44994285Y-37059809D01*
X46542476Y-37543619D02*
X45961904Y-37543619D01*
X46252190Y-37543619D02*
X46252190Y-36527619D01*
X46155428Y-36672761D01*
X46058666Y-36769523D01*
X45961904Y-36817904D01*
X47413333Y-36527619D02*
X47219809Y-36527619D01*
X47123047Y-36576000D01*
X47074666Y-36624380D01*
X46977904Y-36769523D01*
X46929523Y-36963047D01*
X46929523Y-37350095D01*
X46977904Y-37446857D01*
X47026285Y-37495238D01*
X47123047Y-37543619D01*
X47316571Y-37543619D01*
X47413333Y-37495238D01*
X47461714Y-37446857D01*
X47510095Y-37350095D01*
X47510095Y-37108190D01*
X47461714Y-37011428D01*
X47413333Y-36963047D01*
X47316571Y-36914666D01*
X47123047Y-36914666D01*
X47026285Y-36963047D01*
X46977904Y-37011428D01*
X46929523Y-37108190D01*
X60560857Y-37543619D02*
X60222190Y-37059809D01*
X59980285Y-37543619D02*
X59980285Y-36527619D01*
X60367333Y-36527619D01*
X60464095Y-36576000D01*
X60512476Y-36624380D01*
X60560857Y-36721142D01*
X60560857Y-36866285D01*
X60512476Y-36963047D01*
X60464095Y-37011428D01*
X60367333Y-37059809D01*
X59980285Y-37059809D01*
X61528476Y-37543619D02*
X60947904Y-37543619D01*
X61238190Y-37543619D02*
X61238190Y-36527619D01*
X61141428Y-36672761D01*
X61044666Y-36769523D01*
X60947904Y-36817904D01*
X62447714Y-36527619D02*
X61963904Y-36527619D01*
X61915523Y-37011428D01*
X61963904Y-36963047D01*
X62060666Y-36914666D01*
X62302571Y-36914666D01*
X62399333Y-36963047D01*
X62447714Y-37011428D01*
X62496095Y-37108190D01*
X62496095Y-37350095D01*
X62447714Y-37446857D01*
X62399333Y-37495238D01*
X62302571Y-37543619D01*
X62060666Y-37543619D01*
X61963904Y-37495238D01*
X61915523Y-37446857D01*
X45574857Y-39321619D02*
X45236190Y-38837809D01*
X44994285Y-39321619D02*
X44994285Y-38305619D01*
X45381333Y-38305619D01*
X45478095Y-38354000D01*
X45526476Y-38402380D01*
X45574857Y-38499142D01*
X45574857Y-38644285D01*
X45526476Y-38741047D01*
X45478095Y-38789428D01*
X45381333Y-38837809D01*
X44994285Y-38837809D01*
X46542476Y-39321619D02*
X45961904Y-39321619D01*
X46252190Y-39321619D02*
X46252190Y-38305619D01*
X46155428Y-38450761D01*
X46058666Y-38547523D01*
X45961904Y-38595904D01*
X47413333Y-38644285D02*
X47413333Y-39321619D01*
X47171428Y-38257238D02*
X46929523Y-38982952D01*
X47558476Y-38982952D01*
X60560857Y-39321619D02*
X60222190Y-38837809D01*
X59980285Y-39321619D02*
X59980285Y-38305619D01*
X60367333Y-38305619D01*
X60464095Y-38354000D01*
X60512476Y-38402380D01*
X60560857Y-38499142D01*
X60560857Y-38644285D01*
X60512476Y-38741047D01*
X60464095Y-38789428D01*
X60367333Y-38837809D01*
X59980285Y-38837809D01*
X61528476Y-39321619D02*
X60947904Y-39321619D01*
X61238190Y-39321619D02*
X61238190Y-38305619D01*
X61141428Y-38450761D01*
X61044666Y-38547523D01*
X60947904Y-38595904D01*
X61867142Y-38305619D02*
X62496095Y-38305619D01*
X62157428Y-38692666D01*
X62302571Y-38692666D01*
X62399333Y-38741047D01*
X62447714Y-38789428D01*
X62496095Y-38886190D01*
X62496095Y-39128095D01*
X62447714Y-39224857D01*
X62399333Y-39273238D01*
X62302571Y-39321619D01*
X62012285Y-39321619D01*
X61915523Y-39273238D01*
X61867142Y-39224857D01*
X45574857Y-41099619D02*
X45236190Y-40615809D01*
X44994285Y-41099619D02*
X44994285Y-40083619D01*
X45381333Y-40083619D01*
X45478095Y-40132000D01*
X45526476Y-40180380D01*
X45574857Y-40277142D01*
X45574857Y-40422285D01*
X45526476Y-40519047D01*
X45478095Y-40567428D01*
X45381333Y-40615809D01*
X44994285Y-40615809D01*
X46542476Y-41099619D02*
X45961904Y-41099619D01*
X46252190Y-41099619D02*
X46252190Y-40083619D01*
X46155428Y-40228761D01*
X46058666Y-40325523D01*
X45961904Y-40373904D01*
X46929523Y-40180380D02*
X46977904Y-40132000D01*
X47074666Y-40083619D01*
X47316571Y-40083619D01*
X47413333Y-40132000D01*
X47461714Y-40180380D01*
X47510095Y-40277142D01*
X47510095Y-40373904D01*
X47461714Y-40519047D01*
X46881142Y-41099619D01*
X47510095Y-41099619D01*
X60560857Y-41099619D02*
X60222190Y-40615809D01*
X59980285Y-41099619D02*
X59980285Y-40083619D01*
X60367333Y-40083619D01*
X60464095Y-40132000D01*
X60512476Y-40180380D01*
X60560857Y-40277142D01*
X60560857Y-40422285D01*
X60512476Y-40519047D01*
X60464095Y-40567428D01*
X60367333Y-40615809D01*
X59980285Y-40615809D01*
X61528476Y-41099619D02*
X60947904Y-41099619D01*
X61238190Y-41099619D02*
X61238190Y-40083619D01*
X61141428Y-40228761D01*
X61044666Y-40325523D01*
X60947904Y-40373904D01*
X62496095Y-41099619D02*
X61915523Y-41099619D01*
X62205809Y-41099619D02*
X62205809Y-40083619D01*
X62109047Y-40228761D01*
X62012285Y-40325523D01*
X61915523Y-40373904D01*
X76054857Y-38051619D02*
X75716190Y-37567809D01*
X75474285Y-38051619D02*
X75474285Y-37035619D01*
X75861333Y-37035619D01*
X75958095Y-37084000D01*
X76006476Y-37132380D01*
X76054857Y-37229142D01*
X76054857Y-37374285D01*
X76006476Y-37471047D01*
X75958095Y-37519428D01*
X75861333Y-37567809D01*
X75474285Y-37567809D01*
X77022476Y-38051619D02*
X76441904Y-38051619D01*
X76732190Y-38051619D02*
X76732190Y-37035619D01*
X76635428Y-37180761D01*
X76538666Y-37277523D01*
X76441904Y-37325904D01*
X77651428Y-37035619D02*
X77748190Y-37035619D01*
X77844952Y-37084000D01*
X77893333Y-37132380D01*
X77941714Y-37229142D01*
X77990095Y-37422666D01*
X77990095Y-37664571D01*
X77941714Y-37858095D01*
X77893333Y-37954857D01*
X77844952Y-38003238D01*
X77748190Y-38051619D01*
X77651428Y-38051619D01*
X77554666Y-38003238D01*
X77506285Y-37954857D01*
X77457904Y-37858095D01*
X77409523Y-37664571D01*
X77409523Y-37422666D01*
X77457904Y-37229142D01*
X77506285Y-37132380D01*
X77554666Y-37084000D01*
X77651428Y-37035619D01*
X92032666Y-38051619D02*
X91694000Y-37567809D01*
X91452095Y-38051619D02*
X91452095Y-37035619D01*
X91839142Y-37035619D01*
X91935904Y-37084000D01*
X91984285Y-37132380D01*
X92032666Y-37229142D01*
X92032666Y-37374285D01*
X91984285Y-37471047D01*
X91935904Y-37519428D01*
X91839142Y-37567809D01*
X91452095Y-37567809D01*
X92516476Y-38051619D02*
X92710000Y-38051619D01*
X92806761Y-38003238D01*
X92855142Y-37954857D01*
X92951904Y-37809714D01*
X93000285Y-37616190D01*
X93000285Y-37229142D01*
X92951904Y-37132380D01*
X92903523Y-37084000D01*
X92806761Y-37035619D01*
X92613238Y-37035619D01*
X92516476Y-37084000D01*
X92468095Y-37132380D01*
X92419714Y-37229142D01*
X92419714Y-37471047D01*
X92468095Y-37567809D01*
X92516476Y-37616190D01*
X92613238Y-37664571D01*
X92806761Y-37664571D01*
X92903523Y-37616190D01*
X92951904Y-37567809D01*
X93000285Y-37471047D01*
X76030666Y-39829619D02*
X75692000Y-39345809D01*
X75450095Y-39829619D02*
X75450095Y-38813619D01*
X75837142Y-38813619D01*
X75933904Y-38862000D01*
X75982285Y-38910380D01*
X76030666Y-39007142D01*
X76030666Y-39152285D01*
X75982285Y-39249047D01*
X75933904Y-39297428D01*
X75837142Y-39345809D01*
X75450095Y-39345809D01*
X76611238Y-39249047D02*
X76514476Y-39200666D01*
X76466095Y-39152285D01*
X76417714Y-39055523D01*
X76417714Y-39007142D01*
X76466095Y-38910380D01*
X76514476Y-38862000D01*
X76611238Y-38813619D01*
X76804761Y-38813619D01*
X76901523Y-38862000D01*
X76949904Y-38910380D01*
X76998285Y-39007142D01*
X76998285Y-39055523D01*
X76949904Y-39152285D01*
X76901523Y-39200666D01*
X76804761Y-39249047D01*
X76611238Y-39249047D01*
X76514476Y-39297428D01*
X76466095Y-39345809D01*
X76417714Y-39442571D01*
X76417714Y-39636095D01*
X76466095Y-39732857D01*
X76514476Y-39781238D01*
X76611238Y-39829619D01*
X76804761Y-39829619D01*
X76901523Y-39781238D01*
X76949904Y-39732857D01*
X76998285Y-39636095D01*
X76998285Y-39442571D01*
X76949904Y-39345809D01*
X76901523Y-39297428D01*
X76804761Y-39249047D01*
X92032666Y-39829619D02*
X91694000Y-39345809D01*
X91452095Y-39829619D02*
X91452095Y-38813619D01*
X91839142Y-38813619D01*
X91935904Y-38862000D01*
X91984285Y-38910380D01*
X92032666Y-39007142D01*
X92032666Y-39152285D01*
X91984285Y-39249047D01*
X91935904Y-39297428D01*
X91839142Y-39345809D01*
X91452095Y-39345809D01*
X92371333Y-38813619D02*
X93048666Y-38813619D01*
X92613238Y-39829619D01*
X76030666Y-41607619D02*
X75692000Y-41123809D01*
X75450095Y-41607619D02*
X75450095Y-40591619D01*
X75837142Y-40591619D01*
X75933904Y-40640000D01*
X75982285Y-40688380D01*
X76030666Y-40785142D01*
X76030666Y-40930285D01*
X75982285Y-41027047D01*
X75933904Y-41075428D01*
X75837142Y-41123809D01*
X75450095Y-41123809D01*
X76901523Y-40591619D02*
X76708000Y-40591619D01*
X76611238Y-40640000D01*
X76562857Y-40688380D01*
X76466095Y-40833523D01*
X76417714Y-41027047D01*
X76417714Y-41414095D01*
X76466095Y-41510857D01*
X76514476Y-41559238D01*
X76611238Y-41607619D01*
X76804761Y-41607619D01*
X76901523Y-41559238D01*
X76949904Y-41510857D01*
X76998285Y-41414095D01*
X76998285Y-41172190D01*
X76949904Y-41075428D01*
X76901523Y-41027047D01*
X76804761Y-40978666D01*
X76611238Y-40978666D01*
X76514476Y-41027047D01*
X76466095Y-41075428D01*
X76417714Y-41172190D01*
X92032666Y-41607619D02*
X91694000Y-41123809D01*
X91452095Y-41607619D02*
X91452095Y-40591619D01*
X91839142Y-40591619D01*
X91935904Y-40640000D01*
X91984285Y-40688380D01*
X92032666Y-40785142D01*
X92032666Y-40930285D01*
X91984285Y-41027047D01*
X91935904Y-41075428D01*
X91839142Y-41123809D01*
X91452095Y-41123809D01*
X92951904Y-40591619D02*
X92468095Y-40591619D01*
X92419714Y-41075428D01*
X92468095Y-41027047D01*
X92564857Y-40978666D01*
X92806761Y-40978666D01*
X92903523Y-41027047D01*
X92951904Y-41075428D01*
X93000285Y-41172190D01*
X93000285Y-41414095D01*
X92951904Y-41510857D01*
X92903523Y-41559238D01*
X92806761Y-41607619D01*
X92564857Y-41607619D01*
X92468095Y-41559238D01*
X92419714Y-41510857D01*
X56847619Y-74845333D02*
X56363809Y-75184000D01*
X56847619Y-75425904D02*
X55831619Y-75425904D01*
X55831619Y-75038857D01*
X55880000Y-74942095D01*
X55928380Y-74893714D01*
X56025142Y-74845333D01*
X56170285Y-74845333D01*
X56267047Y-74893714D01*
X56315428Y-74942095D01*
X56363809Y-75038857D01*
X56363809Y-75425904D01*
X56170285Y-73974476D02*
X56847619Y-73974476D01*
X55783238Y-74216380D02*
X56508952Y-74458285D01*
X56508952Y-73829333D01*
X32048026Y-76405619D02*
X31709360Y-75921809D01*
X31467455Y-76405619D02*
X31467455Y-75389619D01*
X31854502Y-75389619D01*
X31951264Y-75438000D01*
X31999645Y-75486380D01*
X32048026Y-75583142D01*
X32048026Y-75728285D01*
X31999645Y-75825047D01*
X31951264Y-75873428D01*
X31854502Y-75921809D01*
X31467455Y-75921809D01*
X32386693Y-75389619D02*
X33015645Y-75389619D01*
X32676979Y-75776666D01*
X32822121Y-75776666D01*
X32918883Y-75825047D01*
X32967264Y-75873428D01*
X33015645Y-75970190D01*
X33015645Y-76212095D01*
X32967264Y-76308857D01*
X32918883Y-76357238D01*
X32822121Y-76405619D01*
X32531836Y-76405619D01*
X32435074Y-76357238D01*
X32386693Y-76308857D01*
X34882666Y-76405619D02*
X34544000Y-75921809D01*
X34302095Y-76405619D02*
X34302095Y-75389619D01*
X34689142Y-75389619D01*
X34785904Y-75438000D01*
X34834285Y-75486380D01*
X34882666Y-75583142D01*
X34882666Y-75728285D01*
X34834285Y-75825047D01*
X34785904Y-75873428D01*
X34689142Y-75921809D01*
X34302095Y-75921809D01*
X35269714Y-75486380D02*
X35318095Y-75438000D01*
X35414857Y-75389619D01*
X35656761Y-75389619D01*
X35753523Y-75438000D01*
X35801904Y-75486380D01*
X35850285Y-75583142D01*
X35850285Y-75679904D01*
X35801904Y-75825047D01*
X35221333Y-76405619D01*
X35850285Y-76405619D01*
X41861619Y-74845333D02*
X41377809Y-75184000D01*
X41861619Y-75425904D02*
X40845619Y-75425904D01*
X40845619Y-75038857D01*
X40894000Y-74942095D01*
X40942380Y-74893714D01*
X41039142Y-74845333D01*
X41184285Y-74845333D01*
X41281047Y-74893714D01*
X41329428Y-74942095D01*
X41377809Y-75038857D01*
X41377809Y-75425904D01*
X41861619Y-73877714D02*
X41861619Y-74458285D01*
X41861619Y-74168000D02*
X40845619Y-74168000D01*
X40990761Y-74264761D01*
X41087523Y-74361523D01*
X41135904Y-74458285D01*
X47165743Y-60124219D02*
X47165743Y-60849933D01*
X47117362Y-60995076D01*
X47020600Y-61091838D01*
X46875458Y-61140219D01*
X46778696Y-61140219D01*
X48181743Y-61140219D02*
X47601172Y-61140219D01*
X47891458Y-61140219D02*
X47891458Y-60124219D01*
X47794696Y-60269361D01*
X47697934Y-60366123D01*
X47601172Y-60414504D01*
X48520410Y-60124219D02*
X49197743Y-60124219D01*
X48762315Y-61140219D01*
X62230000Y-63500000D02*
X62133238Y-63451619D01*
X61988095Y-63451619D01*
X61842952Y-63500000D01*
X61746190Y-63596761D01*
X61697809Y-63693523D01*
X61649428Y-63887047D01*
X61649428Y-64032190D01*
X61697809Y-64225714D01*
X61746190Y-64322476D01*
X61842952Y-64419238D01*
X61988095Y-64467619D01*
X62084857Y-64467619D01*
X62230000Y-64419238D01*
X62278380Y-64370857D01*
X62278380Y-64032190D01*
X62084857Y-64032190D01*
X62713809Y-64467619D02*
X62713809Y-63451619D01*
X63100857Y-63451619D01*
X63197619Y-63500000D01*
X63246000Y-63548380D01*
X63294380Y-63645142D01*
X63294380Y-63790285D01*
X63246000Y-63887047D01*
X63197619Y-63935428D01*
X63100857Y-63983809D01*
X62713809Y-63983809D01*
X63729809Y-64467619D02*
X63729809Y-63451619D01*
X64407142Y-63451619D02*
X64600666Y-63451619D01*
X64697428Y-63500000D01*
X64794190Y-63596761D01*
X64842571Y-63790285D01*
X64842571Y-64128952D01*
X64794190Y-64322476D01*
X64697428Y-64419238D01*
X64600666Y-64467619D01*
X64407142Y-64467619D01*
X64310380Y-64419238D01*
X64213619Y-64322476D01*
X64165238Y-64128952D01*
X64165238Y-63790285D01*
X64213619Y-63596761D01*
X64310380Y-63500000D01*
X64407142Y-63451619D01*
X89014541Y-67541019D02*
X89014541Y-66525019D01*
X89401589Y-66525019D01*
X89498351Y-66573400D01*
X89546732Y-66621780D01*
X89595113Y-66718542D01*
X89595113Y-66863685D01*
X89546732Y-66960447D01*
X89498351Y-67008828D01*
X89401589Y-67057209D01*
X89014541Y-67057209D01*
X89933780Y-66525019D02*
X90175684Y-67541019D01*
X90369208Y-66815304D01*
X90562732Y-67541019D01*
X90804637Y-66525019D01*
X91191684Y-67541019D02*
X91191684Y-66525019D01*
X91530351Y-67250733D01*
X91869018Y-66525019D01*
X91869018Y-67541019D01*
X62149203Y-60124219D02*
X62149203Y-60849933D01*
X62100822Y-60995076D01*
X62004060Y-61091838D01*
X61858918Y-61140219D01*
X61762156Y-61140219D01*
X63165203Y-61140219D02*
X62584632Y-61140219D01*
X62874918Y-61140219D02*
X62874918Y-60124219D01*
X62778156Y-60269361D01*
X62681394Y-60366123D01*
X62584632Y-60414504D01*
X64036060Y-60462885D02*
X64036060Y-61140219D01*
X63794156Y-60075838D02*
X63552251Y-60801552D01*
X64181203Y-60801552D01*
X89408000Y-62653333D02*
X89891809Y-62653333D01*
X89311238Y-62943619D02*
X89649904Y-61927619D01*
X89988571Y-62943619D01*
X90327238Y-62943619D02*
X90327238Y-61927619D01*
X90811047Y-62943619D02*
X90811047Y-61927619D01*
X91391619Y-62943619D01*
X91391619Y-61927619D01*
X45611142Y-93375238D02*
X45756285Y-93423619D01*
X45998190Y-93423619D01*
X46094952Y-93375238D01*
X46143333Y-93326857D01*
X46191714Y-93230095D01*
X46191714Y-93133333D01*
X46143333Y-93036571D01*
X46094952Y-92988190D01*
X45998190Y-92939809D01*
X45804666Y-92891428D01*
X45707904Y-92843047D01*
X45659523Y-92794666D01*
X45611142Y-92697904D01*
X45611142Y-92601142D01*
X45659523Y-92504380D01*
X45707904Y-92456000D01*
X45804666Y-92407619D01*
X46046571Y-92407619D01*
X46191714Y-92456000D01*
X46530380Y-92407619D02*
X46772285Y-93423619D01*
X46965809Y-92697904D01*
X47159333Y-93423619D01*
X47401238Y-92407619D01*
X47788285Y-93423619D02*
X47788285Y-92407619D01*
X48030190Y-92407619D01*
X48175333Y-92456000D01*
X48272095Y-92552761D01*
X48320476Y-92649523D01*
X48368857Y-92843047D01*
X48368857Y-92988190D01*
X48320476Y-93181714D01*
X48272095Y-93278476D01*
X48175333Y-93375238D01*
X48030190Y-93423619D01*
X47788285Y-93423619D01*
X45623238Y-88597619D02*
X45623238Y-89420095D01*
X45671619Y-89516857D01*
X45720000Y-89565238D01*
X45816761Y-89613619D01*
X46010285Y-89613619D01*
X46107047Y-89565238D01*
X46155428Y-89516857D01*
X46203809Y-89420095D01*
X46203809Y-88597619D01*
X46639238Y-89323333D02*
X47123047Y-89323333D01*
X46542476Y-89613619D02*
X46881142Y-88597619D01*
X47219809Y-89613619D01*
X48139047Y-89613619D02*
X47800380Y-89129809D01*
X47558476Y-89613619D02*
X47558476Y-88597619D01*
X47945523Y-88597619D01*
X48042285Y-88646000D01*
X48090666Y-88694380D01*
X48139047Y-88791142D01*
X48139047Y-88936285D01*
X48090666Y-89033047D01*
X48042285Y-89081428D01*
X47945523Y-89129809D01*
X47558476Y-89129809D01*
X48429333Y-88597619D02*
X49009904Y-88597619D01*
X48719619Y-89613619D02*
X48719619Y-88597619D01*
X37779113Y-29441019D02*
X37779113Y-30166733D01*
X37730732Y-30311876D01*
X37633970Y-30408638D01*
X37488827Y-30457019D01*
X37392065Y-30457019D01*
X38311303Y-30457019D02*
X38504827Y-30457019D01*
X38601589Y-30408638D01*
X38649970Y-30360257D01*
X38746732Y-30215114D01*
X38795113Y-30021590D01*
X38795113Y-29634542D01*
X38746732Y-29537780D01*
X38698351Y-29489400D01*
X38601589Y-29441019D01*
X38408065Y-29441019D01*
X38311303Y-29489400D01*
X38262922Y-29537780D01*
X38214541Y-29634542D01*
X38214541Y-29876447D01*
X38262922Y-29973209D01*
X38311303Y-30021590D01*
X38408065Y-30069971D01*
X38601589Y-30069971D01*
X38698351Y-30021590D01*
X38746732Y-29973209D01*
X38795113Y-29876447D01*
X52511113Y-29441019D02*
X52511113Y-30166733D01*
X52462732Y-30311876D01*
X52365970Y-30408638D01*
X52220827Y-30457019D01*
X52124065Y-30457019D01*
X53140065Y-29876447D02*
X53043303Y-29828066D01*
X52994922Y-29779685D01*
X52946541Y-29682923D01*
X52946541Y-29634542D01*
X52994922Y-29537780D01*
X53043303Y-29489400D01*
X53140065Y-29441019D01*
X53333589Y-29441019D01*
X53430351Y-29489400D01*
X53478732Y-29537780D01*
X53527113Y-29634542D01*
X53527113Y-29682923D01*
X53478732Y-29779685D01*
X53430351Y-29828066D01*
X53333589Y-29876447D01*
X53140065Y-29876447D01*
X53043303Y-29924828D01*
X52994922Y-29973209D01*
X52946541Y-30069971D01*
X52946541Y-30263495D01*
X52994922Y-30360257D01*
X53043303Y-30408638D01*
X53140065Y-30457019D01*
X53333589Y-30457019D01*
X53430351Y-30408638D01*
X53478732Y-30360257D01*
X53527113Y-30263495D01*
X53527113Y-30069971D01*
X53478732Y-29973209D01*
X53430351Y-29924828D01*
X53333589Y-29876447D01*
X83753113Y-29949019D02*
X83753113Y-30674733D01*
X83704732Y-30819876D01*
X83607970Y-30916638D01*
X83462827Y-30965019D01*
X83366065Y-30965019D01*
X84140160Y-29949019D02*
X84817494Y-29949019D01*
X84382065Y-30965019D01*
X68005113Y-29949019D02*
X68005113Y-30674733D01*
X67956732Y-30819876D01*
X67859970Y-30916638D01*
X67714827Y-30965019D01*
X67618065Y-30965019D01*
X68924351Y-29949019D02*
X68730827Y-29949019D01*
X68634065Y-29997400D01*
X68585684Y-30045780D01*
X68488922Y-30190923D01*
X68440541Y-30384447D01*
X68440541Y-30771495D01*
X68488922Y-30868257D01*
X68537303Y-30916638D01*
X68634065Y-30965019D01*
X68827589Y-30965019D01*
X68924351Y-30916638D01*
X68972732Y-30868257D01*
X69021113Y-30771495D01*
X69021113Y-30529590D01*
X68972732Y-30432828D01*
X68924351Y-30384447D01*
X68827589Y-30336066D01*
X68634065Y-30336066D01*
X68537303Y-30384447D01*
X68488922Y-30432828D01*
X68440541Y-30529590D01*
X121756714Y-50364571D02*
X120994714Y-50364571D01*
X120994714Y-50183142D01*
X121031000Y-50074285D01*
X121103571Y-50001714D01*
X121176142Y-49965428D01*
X121321285Y-49929142D01*
X121430142Y-49929142D01*
X121575285Y-49965428D01*
X121647857Y-50001714D01*
X121720428Y-50074285D01*
X121756714Y-50183142D01*
X121756714Y-50364571D01*
X121756714Y-49602571D02*
X121248714Y-49602571D01*
X120994714Y-49602571D02*
X121031000Y-49638857D01*
X121067285Y-49602571D01*
X121031000Y-49566285D01*
X120994714Y-49602571D01*
X121067285Y-49602571D01*
X121248714Y-48913142D02*
X121865571Y-48913142D01*
X121938142Y-48949428D01*
X121974428Y-48985714D01*
X122010714Y-49058285D01*
X122010714Y-49167142D01*
X121974428Y-49239714D01*
X121720428Y-48913142D02*
X121756714Y-48985714D01*
X121756714Y-49130857D01*
X121720428Y-49203428D01*
X121684142Y-49239714D01*
X121611571Y-49276000D01*
X121393857Y-49276000D01*
X121321285Y-49239714D01*
X121285000Y-49203428D01*
X121248714Y-49130857D01*
X121248714Y-48985714D01*
X121285000Y-48913142D01*
X121756714Y-48550285D02*
X121248714Y-48550285D01*
X120994714Y-48550285D02*
X121031000Y-48586571D01*
X121067285Y-48550285D01*
X121031000Y-48514000D01*
X120994714Y-48550285D01*
X121067285Y-48550285D01*
X121248714Y-48187428D02*
X122010714Y-48187428D01*
X121285000Y-48187428D02*
X121248714Y-48114857D01*
X121248714Y-47969714D01*
X121285000Y-47897142D01*
X121321285Y-47860857D01*
X121393857Y-47824571D01*
X121611571Y-47824571D01*
X121684142Y-47860857D01*
X121720428Y-47897142D01*
X121756714Y-47969714D01*
X121756714Y-48114857D01*
X121720428Y-48187428D01*
X121756714Y-47389142D02*
X121720428Y-47461714D01*
X121684142Y-47498000D01*
X121611571Y-47534285D01*
X121393857Y-47534285D01*
X121321285Y-47498000D01*
X121285000Y-47461714D01*
X121248714Y-47389142D01*
X121248714Y-47280285D01*
X121285000Y-47207714D01*
X121321285Y-47171428D01*
X121393857Y-47135142D01*
X121611571Y-47135142D01*
X121684142Y-47171428D01*
X121720428Y-47207714D01*
X121756714Y-47280285D01*
X121756714Y-47389142D01*
X121248714Y-46917428D02*
X121248714Y-46627142D01*
X120994714Y-46808571D02*
X121647857Y-46808571D01*
X121720428Y-46772285D01*
X121756714Y-46699714D01*
X121756714Y-46627142D01*
X121829285Y-46554571D02*
X121829285Y-45974000D01*
X121067285Y-45828857D02*
X121031000Y-45792571D01*
X120994714Y-45720000D01*
X120994714Y-45538571D01*
X121031000Y-45466000D01*
X121067285Y-45429714D01*
X121139857Y-45393428D01*
X121212428Y-45393428D01*
X121321285Y-45429714D01*
X121756714Y-45865142D01*
X121756714Y-45393428D01*
X121829285Y-45248285D02*
X121829285Y-44667714D01*
X121756714Y-44087142D02*
X121756714Y-44522571D01*
X121756714Y-44304857D02*
X120994714Y-44304857D01*
X121103571Y-44377428D01*
X121176142Y-44450000D01*
X121212428Y-44522571D01*
X121756714Y-41220571D02*
X120994714Y-41220571D01*
X120994714Y-41039142D01*
X121031000Y-40930285D01*
X121103571Y-40857714D01*
X121176142Y-40821428D01*
X121321285Y-40785142D01*
X121430142Y-40785142D01*
X121575285Y-40821428D01*
X121647857Y-40857714D01*
X121720428Y-40930285D01*
X121756714Y-41039142D01*
X121756714Y-41220571D01*
X121756714Y-40458571D02*
X121248714Y-40458571D01*
X120994714Y-40458571D02*
X121031000Y-40494857D01*
X121067285Y-40458571D01*
X121031000Y-40422285D01*
X120994714Y-40458571D01*
X121067285Y-40458571D01*
X121248714Y-39769142D02*
X121865571Y-39769142D01*
X121938142Y-39805428D01*
X121974428Y-39841714D01*
X122010714Y-39914285D01*
X122010714Y-40023142D01*
X121974428Y-40095714D01*
X121720428Y-39769142D02*
X121756714Y-39841714D01*
X121756714Y-39986857D01*
X121720428Y-40059428D01*
X121684142Y-40095714D01*
X121611571Y-40132000D01*
X121393857Y-40132000D01*
X121321285Y-40095714D01*
X121285000Y-40059428D01*
X121248714Y-39986857D01*
X121248714Y-39841714D01*
X121285000Y-39769142D01*
X121756714Y-39406285D02*
X121248714Y-39406285D01*
X120994714Y-39406285D02*
X121031000Y-39442571D01*
X121067285Y-39406285D01*
X121031000Y-39370000D01*
X120994714Y-39406285D01*
X121067285Y-39406285D01*
X121248714Y-39043428D02*
X122010714Y-39043428D01*
X121285000Y-39043428D02*
X121248714Y-38970857D01*
X121248714Y-38825714D01*
X121285000Y-38753142D01*
X121321285Y-38716857D01*
X121393857Y-38680571D01*
X121611571Y-38680571D01*
X121684142Y-38716857D01*
X121720428Y-38753142D01*
X121756714Y-38825714D01*
X121756714Y-38970857D01*
X121720428Y-39043428D01*
X121756714Y-38245142D02*
X121720428Y-38317714D01*
X121684142Y-38354000D01*
X121611571Y-38390285D01*
X121393857Y-38390285D01*
X121321285Y-38354000D01*
X121285000Y-38317714D01*
X121248714Y-38245142D01*
X121248714Y-38136285D01*
X121285000Y-38063714D01*
X121321285Y-38027428D01*
X121393857Y-37991142D01*
X121611571Y-37991142D01*
X121684142Y-38027428D01*
X121720428Y-38063714D01*
X121756714Y-38136285D01*
X121756714Y-38245142D01*
X121248714Y-37773428D02*
X121248714Y-37483142D01*
X120994714Y-37664571D02*
X121647857Y-37664571D01*
X121720428Y-37628285D01*
X121756714Y-37555714D01*
X121756714Y-37483142D01*
X121829285Y-37410571D02*
X121829285Y-36830000D01*
X121067285Y-36684857D02*
X121031000Y-36648571D01*
X120994714Y-36576000D01*
X120994714Y-36394571D01*
X121031000Y-36322000D01*
X121067285Y-36285714D01*
X121139857Y-36249428D01*
X121212428Y-36249428D01*
X121321285Y-36285714D01*
X121756714Y-36721142D01*
X121756714Y-36249428D01*
X121829285Y-36104285D02*
X121829285Y-35523714D01*
X120994714Y-35197142D02*
X120994714Y-35124571D01*
X121031000Y-35052000D01*
X121067285Y-35015714D01*
X121139857Y-34979428D01*
X121285000Y-34943142D01*
X121466428Y-34943142D01*
X121611571Y-34979428D01*
X121684142Y-35015714D01*
X121720428Y-35052000D01*
X121756714Y-35124571D01*
X121756714Y-35197142D01*
X121720428Y-35269714D01*
X121684142Y-35306000D01*
X121611571Y-35342285D01*
X121466428Y-35378571D01*
X121285000Y-35378571D01*
X121139857Y-35342285D01*
X121067285Y-35306000D01*
X121031000Y-35269714D01*
X120994714Y-35197142D01*
X121756714Y-67636571D02*
X120994714Y-67636571D01*
X120994714Y-67455142D01*
X121031000Y-67346285D01*
X121103571Y-67273714D01*
X121176142Y-67237428D01*
X121321285Y-67201142D01*
X121430142Y-67201142D01*
X121575285Y-67237428D01*
X121647857Y-67273714D01*
X121720428Y-67346285D01*
X121756714Y-67455142D01*
X121756714Y-67636571D01*
X121756714Y-66874571D02*
X121248714Y-66874571D01*
X120994714Y-66874571D02*
X121031000Y-66910857D01*
X121067285Y-66874571D01*
X121031000Y-66838285D01*
X120994714Y-66874571D01*
X121067285Y-66874571D01*
X121248714Y-66185142D02*
X121865571Y-66185142D01*
X121938142Y-66221428D01*
X121974428Y-66257714D01*
X122010714Y-66330285D01*
X122010714Y-66439142D01*
X121974428Y-66511714D01*
X121720428Y-66185142D02*
X121756714Y-66257714D01*
X121756714Y-66402857D01*
X121720428Y-66475428D01*
X121684142Y-66511714D01*
X121611571Y-66548000D01*
X121393857Y-66548000D01*
X121321285Y-66511714D01*
X121285000Y-66475428D01*
X121248714Y-66402857D01*
X121248714Y-66257714D01*
X121285000Y-66185142D01*
X121756714Y-65822285D02*
X121248714Y-65822285D01*
X120994714Y-65822285D02*
X121031000Y-65858571D01*
X121067285Y-65822285D01*
X121031000Y-65786000D01*
X120994714Y-65822285D01*
X121067285Y-65822285D01*
X121248714Y-65459428D02*
X122010714Y-65459428D01*
X121285000Y-65459428D02*
X121248714Y-65386857D01*
X121248714Y-65241714D01*
X121285000Y-65169142D01*
X121321285Y-65132857D01*
X121393857Y-65096571D01*
X121611571Y-65096571D01*
X121684142Y-65132857D01*
X121720428Y-65169142D01*
X121756714Y-65241714D01*
X121756714Y-65386857D01*
X121720428Y-65459428D01*
X121756714Y-64661142D02*
X121720428Y-64733714D01*
X121684142Y-64770000D01*
X121611571Y-64806285D01*
X121393857Y-64806285D01*
X121321285Y-64770000D01*
X121285000Y-64733714D01*
X121248714Y-64661142D01*
X121248714Y-64552285D01*
X121285000Y-64479714D01*
X121321285Y-64443428D01*
X121393857Y-64407142D01*
X121611571Y-64407142D01*
X121684142Y-64443428D01*
X121720428Y-64479714D01*
X121756714Y-64552285D01*
X121756714Y-64661142D01*
X121248714Y-64189428D02*
X121248714Y-63899142D01*
X120994714Y-64080571D02*
X121647857Y-64080571D01*
X121720428Y-64044285D01*
X121756714Y-63971714D01*
X121756714Y-63899142D01*
X121829285Y-63826571D02*
X121829285Y-63246000D01*
X121756714Y-62665428D02*
X121756714Y-63100857D01*
X121756714Y-62883142D02*
X120994714Y-62883142D01*
X121103571Y-62955714D01*
X121176142Y-63028285D01*
X121212428Y-63100857D01*
X121829285Y-62520285D02*
X121829285Y-61939714D01*
X121756714Y-61359142D02*
X121756714Y-61794571D01*
X121756714Y-61576857D02*
X120994714Y-61576857D01*
X121103571Y-61649428D01*
X121176142Y-61722000D01*
X121212428Y-61794571D01*
X121756714Y-58746571D02*
X120994714Y-58746571D01*
X120994714Y-58565142D01*
X121031000Y-58456285D01*
X121103571Y-58383714D01*
X121176142Y-58347428D01*
X121321285Y-58311142D01*
X121430142Y-58311142D01*
X121575285Y-58347428D01*
X121647857Y-58383714D01*
X121720428Y-58456285D01*
X121756714Y-58565142D01*
X121756714Y-58746571D01*
X121756714Y-57984571D02*
X121248714Y-57984571D01*
X120994714Y-57984571D02*
X121031000Y-58020857D01*
X121067285Y-57984571D01*
X121031000Y-57948285D01*
X120994714Y-57984571D01*
X121067285Y-57984571D01*
X121248714Y-57295142D02*
X121865571Y-57295142D01*
X121938142Y-57331428D01*
X121974428Y-57367714D01*
X122010714Y-57440285D01*
X122010714Y-57549142D01*
X121974428Y-57621714D01*
X121720428Y-57295142D02*
X121756714Y-57367714D01*
X121756714Y-57512857D01*
X121720428Y-57585428D01*
X121684142Y-57621714D01*
X121611571Y-57658000D01*
X121393857Y-57658000D01*
X121321285Y-57621714D01*
X121285000Y-57585428D01*
X121248714Y-57512857D01*
X121248714Y-57367714D01*
X121285000Y-57295142D01*
X121756714Y-56932285D02*
X121248714Y-56932285D01*
X120994714Y-56932285D02*
X121031000Y-56968571D01*
X121067285Y-56932285D01*
X121031000Y-56896000D01*
X120994714Y-56932285D01*
X121067285Y-56932285D01*
X121248714Y-56569428D02*
X122010714Y-56569428D01*
X121285000Y-56569428D02*
X121248714Y-56496857D01*
X121248714Y-56351714D01*
X121285000Y-56279142D01*
X121321285Y-56242857D01*
X121393857Y-56206571D01*
X121611571Y-56206571D01*
X121684142Y-56242857D01*
X121720428Y-56279142D01*
X121756714Y-56351714D01*
X121756714Y-56496857D01*
X121720428Y-56569428D01*
X121756714Y-55771142D02*
X121720428Y-55843714D01*
X121684142Y-55880000D01*
X121611571Y-55916285D01*
X121393857Y-55916285D01*
X121321285Y-55880000D01*
X121285000Y-55843714D01*
X121248714Y-55771142D01*
X121248714Y-55662285D01*
X121285000Y-55589714D01*
X121321285Y-55553428D01*
X121393857Y-55517142D01*
X121611571Y-55517142D01*
X121684142Y-55553428D01*
X121720428Y-55589714D01*
X121756714Y-55662285D01*
X121756714Y-55771142D01*
X121248714Y-55299428D02*
X121248714Y-55009142D01*
X120994714Y-55190571D02*
X121647857Y-55190571D01*
X121720428Y-55154285D01*
X121756714Y-55081714D01*
X121756714Y-55009142D01*
X121829285Y-54936571D02*
X121829285Y-54356000D01*
X121756714Y-53775428D02*
X121756714Y-54210857D01*
X121756714Y-53993142D02*
X120994714Y-53993142D01*
X121103571Y-54065714D01*
X121176142Y-54138285D01*
X121212428Y-54210857D01*
X121829285Y-53630285D02*
X121829285Y-53049714D01*
X120994714Y-52723142D02*
X120994714Y-52650571D01*
X121031000Y-52578000D01*
X121067285Y-52541714D01*
X121139857Y-52505428D01*
X121285000Y-52469142D01*
X121466428Y-52469142D01*
X121611571Y-52505428D01*
X121684142Y-52541714D01*
X121720428Y-52578000D01*
X121756714Y-52650571D01*
X121756714Y-52723142D01*
X121720428Y-52795714D01*
X121684142Y-52832000D01*
X121611571Y-52868285D01*
X121466428Y-52904571D01*
X121285000Y-52904571D01*
X121139857Y-52868285D01*
X121067285Y-52832000D01*
X121031000Y-52795714D01*
X120994714Y-52723142D01*
X41438285Y-56847619D02*
X41438285Y-55831619D01*
X41680190Y-55831619D01*
X41825333Y-55880000D01*
X41922095Y-55976761D01*
X41970476Y-56073523D01*
X42018857Y-56267047D01*
X42018857Y-56412190D01*
X41970476Y-56605714D01*
X41922095Y-56702476D01*
X41825333Y-56799238D01*
X41680190Y-56847619D01*
X41438285Y-56847619D01*
X42986476Y-56847619D02*
X42405904Y-56847619D01*
X42696190Y-56847619D02*
X42696190Y-55831619D01*
X42599428Y-55976761D01*
X42502666Y-56073523D01*
X42405904Y-56121904D01*
X43325142Y-55831619D02*
X43954095Y-55831619D01*
X43615428Y-56218666D01*
X43760571Y-56218666D01*
X43857333Y-56267047D01*
X43905714Y-56315428D01*
X43954095Y-56412190D01*
X43954095Y-56654095D01*
X43905714Y-56750857D01*
X43857333Y-56799238D01*
X43760571Y-56847619D01*
X43470285Y-56847619D01*
X43373523Y-56799238D01*
X43325142Y-56750857D01*
X88525047Y-80215619D02*
X88041238Y-80215619D01*
X88041238Y-79199619D01*
X88863714Y-79683428D02*
X89202380Y-79683428D01*
X89347523Y-80215619D02*
X88863714Y-80215619D01*
X88863714Y-79199619D01*
X89347523Y-79199619D01*
X89782952Y-80215619D02*
X89782952Y-79199619D01*
X90024857Y-79199619D01*
X90170000Y-79248000D01*
X90266761Y-79344761D01*
X90315142Y-79441523D01*
X90363523Y-79635047D01*
X90363523Y-79780190D01*
X90315142Y-79973714D01*
X90266761Y-80070476D01*
X90170000Y-80167238D01*
X90024857Y-80215619D01*
X89782952Y-80215619D01*
X90750571Y-79296380D02*
X90798952Y-79248000D01*
X90895714Y-79199619D01*
X91137619Y-79199619D01*
X91234380Y-79248000D01*
X91282761Y-79296380D01*
X91331142Y-79393142D01*
X91331142Y-79489904D01*
X91282761Y-79635047D01*
X90702190Y-80215619D01*
X91331142Y-80215619D01*
X88525047Y-83941799D02*
X88041238Y-83941799D01*
X88041238Y-82925799D01*
X88863714Y-83409608D02*
X89202380Y-83409608D01*
X89347523Y-83941799D02*
X88863714Y-83941799D01*
X88863714Y-82925799D01*
X89347523Y-82925799D01*
X89782952Y-83941799D02*
X89782952Y-82925799D01*
X90024857Y-82925799D01*
X90170000Y-82974180D01*
X90266761Y-83070941D01*
X90315142Y-83167703D01*
X90363523Y-83361227D01*
X90363523Y-83506370D01*
X90315142Y-83699894D01*
X90266761Y-83796656D01*
X90170000Y-83893418D01*
X90024857Y-83941799D01*
X89782952Y-83941799D01*
X91331142Y-83941799D02*
X90750571Y-83941799D01*
X91040857Y-83941799D02*
X91040857Y-82925799D01*
X90944095Y-83070941D01*
X90847333Y-83167703D01*
X90750571Y-83216084D01*
X54646285Y-82755619D02*
X54646285Y-81739619D01*
X54888190Y-81739619D01*
X55033333Y-81788000D01*
X55130095Y-81884761D01*
X55178476Y-81981523D01*
X55226857Y-82175047D01*
X55226857Y-82320190D01*
X55178476Y-82513714D01*
X55130095Y-82610476D01*
X55033333Y-82707238D01*
X54888190Y-82755619D01*
X54646285Y-82755619D01*
X56194476Y-82755619D02*
X55613904Y-82755619D01*
X55904190Y-82755619D02*
X55904190Y-81739619D01*
X55807428Y-81884761D01*
X55710666Y-81981523D01*
X55613904Y-82029904D01*
X56823428Y-81739619D02*
X56920190Y-81739619D01*
X57016952Y-81788000D01*
X57065333Y-81836380D01*
X57113714Y-81933142D01*
X57162095Y-82126666D01*
X57162095Y-82368571D01*
X57113714Y-82562095D01*
X57065333Y-82658857D01*
X57016952Y-82707238D01*
X56920190Y-82755619D01*
X56823428Y-82755619D01*
X56726666Y-82707238D01*
X56678285Y-82658857D01*
X56629904Y-82562095D01*
X56581523Y-82368571D01*
X56581523Y-82126666D01*
X56629904Y-81933142D01*
X56678285Y-81836380D01*
X56726666Y-81788000D01*
X56823428Y-81739619D01*
X43954095Y-44401619D02*
X43954095Y-43385619D01*
X44196000Y-43385619D01*
X44341142Y-43434000D01*
X44437904Y-43530761D01*
X44486285Y-43627523D01*
X44534666Y-43821047D01*
X44534666Y-43966190D01*
X44486285Y-44159714D01*
X44437904Y-44256476D01*
X44341142Y-44353238D01*
X44196000Y-44401619D01*
X43954095Y-44401619D01*
X45018476Y-44401619D02*
X45212000Y-44401619D01*
X45308761Y-44353238D01*
X45357142Y-44304857D01*
X45453904Y-44159714D01*
X45502285Y-43966190D01*
X45502285Y-43579142D01*
X45453904Y-43482380D01*
X45405523Y-43434000D01*
X45308761Y-43385619D01*
X45115238Y-43385619D01*
X45018476Y-43434000D01*
X44970095Y-43482380D01*
X44921714Y-43579142D01*
X44921714Y-43821047D01*
X44970095Y-43917809D01*
X45018476Y-43966190D01*
X45115238Y-44014571D01*
X45308761Y-44014571D01*
X45405523Y-43966190D01*
X45453904Y-43917809D01*
X45502285Y-43821047D01*
X58940095Y-44401619D02*
X58940095Y-43385619D01*
X59182000Y-43385619D01*
X59327142Y-43434000D01*
X59423904Y-43530761D01*
X59472285Y-43627523D01*
X59520666Y-43821047D01*
X59520666Y-43966190D01*
X59472285Y-44159714D01*
X59423904Y-44256476D01*
X59327142Y-44353238D01*
X59182000Y-44401619D01*
X58940095Y-44401619D01*
X60101238Y-43821047D02*
X60004476Y-43772666D01*
X59956095Y-43724285D01*
X59907714Y-43627523D01*
X59907714Y-43579142D01*
X59956095Y-43482380D01*
X60004476Y-43434000D01*
X60101238Y-43385619D01*
X60294761Y-43385619D01*
X60391523Y-43434000D01*
X60439904Y-43482380D01*
X60488285Y-43579142D01*
X60488285Y-43627523D01*
X60439904Y-43724285D01*
X60391523Y-43772666D01*
X60294761Y-43821047D01*
X60101238Y-43821047D01*
X60004476Y-43869428D01*
X59956095Y-43917809D01*
X59907714Y-44014571D01*
X59907714Y-44208095D01*
X59956095Y-44304857D01*
X60004476Y-44353238D01*
X60101238Y-44401619D01*
X60294761Y-44401619D01*
X60391523Y-44353238D01*
X60439904Y-44304857D01*
X60488285Y-44208095D01*
X60488285Y-44014571D01*
X60439904Y-43917809D01*
X60391523Y-43869428D01*
X60294761Y-43821047D01*
X74434095Y-44909619D02*
X74434095Y-43893619D01*
X74676000Y-43893619D01*
X74821142Y-43942000D01*
X74917904Y-44038761D01*
X74966285Y-44135523D01*
X75014666Y-44329047D01*
X75014666Y-44474190D01*
X74966285Y-44667714D01*
X74917904Y-44764476D01*
X74821142Y-44861238D01*
X74676000Y-44909619D01*
X74434095Y-44909619D01*
X75353333Y-43893619D02*
X76030666Y-43893619D01*
X75595238Y-44909619D01*
X90436095Y-44909619D02*
X90436095Y-43893619D01*
X90678000Y-43893619D01*
X90823142Y-43942000D01*
X90919904Y-44038761D01*
X90968285Y-44135523D01*
X91016666Y-44329047D01*
X91016666Y-44474190D01*
X90968285Y-44667714D01*
X90919904Y-44764476D01*
X90823142Y-44861238D01*
X90678000Y-44909619D01*
X90436095Y-44909619D01*
X91887523Y-43893619D02*
X91694000Y-43893619D01*
X91597238Y-43942000D01*
X91548857Y-43990380D01*
X91452095Y-44135523D01*
X91403714Y-44329047D01*
X91403714Y-44716095D01*
X91452095Y-44812857D01*
X91500476Y-44861238D01*
X91597238Y-44909619D01*
X91790761Y-44909619D01*
X91887523Y-44861238D01*
X91935904Y-44812857D01*
X91984285Y-44716095D01*
X91984285Y-44474190D01*
X91935904Y-44377428D01*
X91887523Y-44329047D01*
X91790761Y-44280666D01*
X91597238Y-44280666D01*
X91500476Y-44329047D01*
X91452095Y-44377428D01*
X91403714Y-44474190D01*
X52082095Y-73865619D02*
X52711047Y-73865619D01*
X52372380Y-74252666D01*
X52517523Y-74252666D01*
X52614285Y-74301047D01*
X52662666Y-74349428D01*
X52711047Y-74446190D01*
X52711047Y-74688095D01*
X52662666Y-74784857D01*
X52614285Y-74833238D01*
X52517523Y-74881619D01*
X52227238Y-74881619D01*
X52130476Y-74833238D01*
X52082095Y-74784857D01*
X53001333Y-73865619D02*
X53340000Y-74881619D01*
X53678666Y-73865619D01*
X53920571Y-73865619D02*
X54549523Y-73865619D01*
X54210857Y-74252666D01*
X54356000Y-74252666D01*
X54452761Y-74301047D01*
X54501142Y-74349428D01*
X54549523Y-74446190D01*
X54549523Y-74688095D01*
X54501142Y-74784857D01*
X54452761Y-74833238D01*
X54356000Y-74881619D01*
X54065714Y-74881619D01*
X53968952Y-74833238D01*
X53920571Y-74784857D01*
X32971619Y-83553904D02*
X31955619Y-83553904D01*
X31955619Y-83312000D01*
X32004000Y-83166857D01*
X32100761Y-83070095D01*
X32197523Y-83021714D01*
X32391047Y-82973333D01*
X32536190Y-82973333D01*
X32729714Y-83021714D01*
X32826476Y-83070095D01*
X32923238Y-83166857D01*
X32971619Y-83312000D01*
X32971619Y-83553904D01*
X32294285Y-82102476D02*
X32971619Y-82102476D01*
X31907238Y-82344380D02*
X32632952Y-82586285D01*
X32632952Y-81957333D01*
X35257619Y-83553904D02*
X34241619Y-83553904D01*
X34241619Y-83312000D01*
X34290000Y-83166857D01*
X34386761Y-83070095D01*
X34483523Y-83021714D01*
X34677047Y-82973333D01*
X34822190Y-82973333D01*
X35015714Y-83021714D01*
X35112476Y-83070095D01*
X35209238Y-83166857D01*
X35257619Y-83312000D01*
X35257619Y-83553904D01*
X34241619Y-82634666D02*
X34241619Y-82005714D01*
X34628666Y-82344380D01*
X34628666Y-82199238D01*
X34677047Y-82102476D01*
X34725428Y-82054095D01*
X34822190Y-82005714D01*
X35064095Y-82005714D01*
X35160857Y-82054095D01*
X35209238Y-82102476D01*
X35257619Y-82199238D01*
X35257619Y-82489523D01*
X35209238Y-82586285D01*
X35160857Y-82634666D01*
X43591238Y-73865619D02*
X43929904Y-74881619D01*
X44268571Y-73865619D01*
X44607238Y-74881619D02*
X44607238Y-73865619D01*
X45091047Y-74881619D02*
X45091047Y-73865619D01*
X45671619Y-74881619D01*
X45671619Y-73865619D01*
X32524095Y-67769619D02*
X32524095Y-66753619D01*
X32766000Y-66753619D01*
X32911142Y-66802000D01*
X33007904Y-66898761D01*
X33056285Y-66995523D01*
X33104666Y-67189047D01*
X33104666Y-67334190D01*
X33056285Y-67527714D01*
X33007904Y-67624476D01*
X32911142Y-67721238D01*
X32766000Y-67769619D01*
X32524095Y-67769619D01*
X34072285Y-67769619D02*
X33491714Y-67769619D01*
X33782000Y-67769619D02*
X33782000Y-66753619D01*
X33685238Y-66898761D01*
X33588476Y-66995523D01*
X33491714Y-67043904D01*
X113900857Y-102724857D02*
X113852476Y-102773238D01*
X113707333Y-102821619D01*
X113610571Y-102821619D01*
X113465428Y-102773238D01*
X113368666Y-102676476D01*
X113320285Y-102579714D01*
X113271904Y-102386190D01*
X113271904Y-102241047D01*
X113320285Y-102047523D01*
X113368666Y-101950761D01*
X113465428Y-101854000D01*
X113610571Y-101805619D01*
X113707333Y-101805619D01*
X113852476Y-101854000D01*
X113900857Y-101902380D01*
X114287904Y-101902380D02*
X114336285Y-101854000D01*
X114433047Y-101805619D01*
X114674952Y-101805619D01*
X114771714Y-101854000D01*
X114820095Y-101902380D01*
X114868476Y-101999142D01*
X114868476Y-102095904D01*
X114820095Y-102241047D01*
X114239523Y-102821619D01*
X114868476Y-102821619D01*
X115836095Y-102821619D02*
X115255523Y-102821619D01*
X115545809Y-102821619D02*
X115545809Y-101805619D01*
X115449047Y-101950761D01*
X115352285Y-102047523D01*
X115255523Y-102095904D01*
X99930857Y-102724857D02*
X99882476Y-102773238D01*
X99737333Y-102821619D01*
X99640571Y-102821619D01*
X99495428Y-102773238D01*
X99398666Y-102676476D01*
X99350285Y-102579714D01*
X99301904Y-102386190D01*
X99301904Y-102241047D01*
X99350285Y-102047523D01*
X99398666Y-101950761D01*
X99495428Y-101854000D01*
X99640571Y-101805619D01*
X99737333Y-101805619D01*
X99882476Y-101854000D01*
X99930857Y-101902380D01*
X100317904Y-101902380D02*
X100366285Y-101854000D01*
X100463047Y-101805619D01*
X100704952Y-101805619D01*
X100801714Y-101854000D01*
X100850095Y-101902380D01*
X100898476Y-101999142D01*
X100898476Y-102095904D01*
X100850095Y-102241047D01*
X100269523Y-102821619D01*
X100898476Y-102821619D01*
X101527428Y-101805619D02*
X101624190Y-101805619D01*
X101720952Y-101854000D01*
X101769333Y-101902380D01*
X101817714Y-101999142D01*
X101866095Y-102192666D01*
X101866095Y-102434571D01*
X101817714Y-102628095D01*
X101769333Y-102724857D01*
X101720952Y-102773238D01*
X101624190Y-102821619D01*
X101527428Y-102821619D01*
X101430666Y-102773238D01*
X101382285Y-102724857D01*
X101333904Y-102628095D01*
X101285523Y-102434571D01*
X101285523Y-102192666D01*
X101333904Y-101999142D01*
X101382285Y-101902380D01*
X101430666Y-101854000D01*
X101527428Y-101805619D01*
X85706857Y-102724857D02*
X85658476Y-102773238D01*
X85513333Y-102821619D01*
X85416571Y-102821619D01*
X85271428Y-102773238D01*
X85174666Y-102676476D01*
X85126285Y-102579714D01*
X85077904Y-102386190D01*
X85077904Y-102241047D01*
X85126285Y-102047523D01*
X85174666Y-101950761D01*
X85271428Y-101854000D01*
X85416571Y-101805619D01*
X85513333Y-101805619D01*
X85658476Y-101854000D01*
X85706857Y-101902380D01*
X86674476Y-102821619D02*
X86093904Y-102821619D01*
X86384190Y-102821619D02*
X86384190Y-101805619D01*
X86287428Y-101950761D01*
X86190666Y-102047523D01*
X86093904Y-102095904D01*
X87158285Y-102821619D02*
X87351809Y-102821619D01*
X87448571Y-102773238D01*
X87496952Y-102724857D01*
X87593714Y-102579714D01*
X87642095Y-102386190D01*
X87642095Y-101999142D01*
X87593714Y-101902380D01*
X87545333Y-101854000D01*
X87448571Y-101805619D01*
X87255047Y-101805619D01*
X87158285Y-101854000D01*
X87109904Y-101902380D01*
X87061523Y-101999142D01*
X87061523Y-102241047D01*
X87109904Y-102337809D01*
X87158285Y-102386190D01*
X87255047Y-102434571D01*
X87448571Y-102434571D01*
X87545333Y-102386190D01*
X87593714Y-102337809D01*
X87642095Y-102241047D01*
X71482857Y-102470857D02*
X71434476Y-102519238D01*
X71289333Y-102567619D01*
X71192571Y-102567619D01*
X71047428Y-102519238D01*
X70950666Y-102422476D01*
X70902285Y-102325714D01*
X70853904Y-102132190D01*
X70853904Y-101987047D01*
X70902285Y-101793523D01*
X70950666Y-101696761D01*
X71047428Y-101600000D01*
X71192571Y-101551619D01*
X71289333Y-101551619D01*
X71434476Y-101600000D01*
X71482857Y-101648380D01*
X72450476Y-102567619D02*
X71869904Y-102567619D01*
X72160190Y-102567619D02*
X72160190Y-101551619D01*
X72063428Y-101696761D01*
X71966666Y-101793523D01*
X71869904Y-101841904D01*
X73031047Y-101987047D02*
X72934285Y-101938666D01*
X72885904Y-101890285D01*
X72837523Y-101793523D01*
X72837523Y-101745142D01*
X72885904Y-101648380D01*
X72934285Y-101600000D01*
X73031047Y-101551619D01*
X73224571Y-101551619D01*
X73321333Y-101600000D01*
X73369714Y-101648380D01*
X73418095Y-101745142D01*
X73418095Y-101793523D01*
X73369714Y-101890285D01*
X73321333Y-101938666D01*
X73224571Y-101987047D01*
X73031047Y-101987047D01*
X72934285Y-102035428D01*
X72885904Y-102083809D01*
X72837523Y-102180571D01*
X72837523Y-102374095D01*
X72885904Y-102470857D01*
X72934285Y-102519238D01*
X73031047Y-102567619D01*
X73224571Y-102567619D01*
X73321333Y-102519238D01*
X73369714Y-102470857D01*
X73418095Y-102374095D01*
X73418095Y-102180571D01*
X73369714Y-102083809D01*
X73321333Y-102035428D01*
X73224571Y-101987047D01*
X55898142Y-103142142D02*
X55861857Y-103178428D01*
X55753000Y-103214714D01*
X55680428Y-103214714D01*
X55571571Y-103178428D01*
X55499000Y-103105857D01*
X55462714Y-103033285D01*
X55426428Y-102888142D01*
X55426428Y-102779285D01*
X55462714Y-102634142D01*
X55499000Y-102561571D01*
X55571571Y-102489000D01*
X55680428Y-102452714D01*
X55753000Y-102452714D01*
X55861857Y-102489000D01*
X55898142Y-102525285D01*
X56623857Y-103214714D02*
X56188428Y-103214714D01*
X56406142Y-103214714D02*
X56406142Y-102452714D01*
X56333571Y-102561571D01*
X56261000Y-102634142D01*
X56188428Y-102670428D01*
X56877857Y-102452714D02*
X57385857Y-102452714D01*
X57059285Y-103214714D01*
X43288857Y-102216857D02*
X43240476Y-102265238D01*
X43095333Y-102313619D01*
X42998571Y-102313619D01*
X42853428Y-102265238D01*
X42756666Y-102168476D01*
X42708285Y-102071714D01*
X42659904Y-101878190D01*
X42659904Y-101733047D01*
X42708285Y-101539523D01*
X42756666Y-101442761D01*
X42853428Y-101346000D01*
X42998571Y-101297619D01*
X43095333Y-101297619D01*
X43240476Y-101346000D01*
X43288857Y-101394380D01*
X44256476Y-102313619D02*
X43675904Y-102313619D01*
X43966190Y-102313619D02*
X43966190Y-101297619D01*
X43869428Y-101442761D01*
X43772666Y-101539523D01*
X43675904Y-101587904D01*
X45127333Y-101297619D02*
X44933809Y-101297619D01*
X44837047Y-101346000D01*
X44788666Y-101394380D01*
X44691904Y-101539523D01*
X44643523Y-101733047D01*
X44643523Y-102120095D01*
X44691904Y-102216857D01*
X44740285Y-102265238D01*
X44837047Y-102313619D01*
X45030571Y-102313619D01*
X45127333Y-102265238D01*
X45175714Y-102216857D01*
X45224095Y-102120095D01*
X45224095Y-101878190D01*
X45175714Y-101781428D01*
X45127333Y-101733047D01*
X45030571Y-101684666D01*
X44837047Y-101684666D01*
X44740285Y-101733047D01*
X44691904Y-101781428D01*
X44643523Y-101878190D01*
X77070857Y-62121142D02*
X77119238Y-62169523D01*
X77167619Y-62314666D01*
X77167619Y-62411428D01*
X77119238Y-62556571D01*
X77022476Y-62653333D01*
X76925714Y-62701714D01*
X76732190Y-62750095D01*
X76587047Y-62750095D01*
X76393523Y-62701714D01*
X76296761Y-62653333D01*
X76200000Y-62556571D01*
X76151619Y-62411428D01*
X76151619Y-62314666D01*
X76200000Y-62169523D01*
X76248380Y-62121142D01*
X77167619Y-61153523D02*
X77167619Y-61734095D01*
X77167619Y-61443809D02*
X76151619Y-61443809D01*
X76296761Y-61540571D01*
X76393523Y-61637333D01*
X76441904Y-61734095D01*
X76151619Y-60814857D02*
X76151619Y-60185904D01*
X76538666Y-60524571D01*
X76538666Y-60379428D01*
X76587047Y-60282666D01*
X76635428Y-60234285D01*
X76732190Y-60185904D01*
X76974095Y-60185904D01*
X77070857Y-60234285D01*
X77119238Y-60282666D01*
X77167619Y-60379428D01*
X77167619Y-60669714D01*
X77119238Y-60766476D01*
X77070857Y-60814857D01*
X83420857Y-70249142D02*
X83469238Y-70297523D01*
X83517619Y-70442666D01*
X83517619Y-70539428D01*
X83469238Y-70684571D01*
X83372476Y-70781333D01*
X83275714Y-70829714D01*
X83082190Y-70878095D01*
X82937047Y-70878095D01*
X82743523Y-70829714D01*
X82646761Y-70781333D01*
X82550000Y-70684571D01*
X82501619Y-70539428D01*
X82501619Y-70442666D01*
X82550000Y-70297523D01*
X82598380Y-70249142D01*
X83517619Y-69281523D02*
X83517619Y-69862095D01*
X83517619Y-69571809D02*
X82501619Y-69571809D01*
X82646761Y-69668571D01*
X82743523Y-69765333D01*
X82791904Y-69862095D01*
X83517619Y-68313904D02*
X83517619Y-68894476D01*
X83517619Y-68604190D02*
X82501619Y-68604190D01*
X82646761Y-68700952D01*
X82743523Y-68797714D01*
X82791904Y-68894476D01*
X81896857Y-70249142D02*
X81945238Y-70297523D01*
X81993619Y-70442666D01*
X81993619Y-70539428D01*
X81945238Y-70684571D01*
X81848476Y-70781333D01*
X81751714Y-70829714D01*
X81558190Y-70878095D01*
X81413047Y-70878095D01*
X81219523Y-70829714D01*
X81122761Y-70781333D01*
X81026000Y-70684571D01*
X80977619Y-70539428D01*
X80977619Y-70442666D01*
X81026000Y-70297523D01*
X81074380Y-70249142D01*
X81993619Y-69281523D02*
X81993619Y-69862095D01*
X81993619Y-69571809D02*
X80977619Y-69571809D01*
X81122761Y-69668571D01*
X81219523Y-69765333D01*
X81267904Y-69862095D01*
X80977619Y-68652571D02*
X80977619Y-68555809D01*
X81026000Y-68459047D01*
X81074380Y-68410666D01*
X81171142Y-68362285D01*
X81364666Y-68313904D01*
X81606571Y-68313904D01*
X81800095Y-68362285D01*
X81896857Y-68410666D01*
X81945238Y-68459047D01*
X81993619Y-68555809D01*
X81993619Y-68652571D01*
X81945238Y-68749333D01*
X81896857Y-68797714D01*
X81800095Y-68846095D01*
X81606571Y-68894476D01*
X81364666Y-68894476D01*
X81171142Y-68846095D01*
X81074380Y-68797714D01*
X81026000Y-68749333D01*
X80977619Y-68652571D01*
X69934666Y-66148857D02*
X69886285Y-66197238D01*
X69741142Y-66245619D01*
X69644380Y-66245619D01*
X69499238Y-66197238D01*
X69402476Y-66100476D01*
X69354095Y-66003714D01*
X69305714Y-65810190D01*
X69305714Y-65665047D01*
X69354095Y-65471523D01*
X69402476Y-65374761D01*
X69499238Y-65278000D01*
X69644380Y-65229619D01*
X69741142Y-65229619D01*
X69886285Y-65278000D01*
X69934666Y-65326380D01*
X70418476Y-66245619D02*
X70612000Y-66245619D01*
X70708761Y-66197238D01*
X70757142Y-66148857D01*
X70853904Y-66003714D01*
X70902285Y-65810190D01*
X70902285Y-65423142D01*
X70853904Y-65326380D01*
X70805523Y-65278000D01*
X70708761Y-65229619D01*
X70515238Y-65229619D01*
X70418476Y-65278000D01*
X70370095Y-65326380D01*
X70321714Y-65423142D01*
X70321714Y-65665047D01*
X70370095Y-65761809D01*
X70418476Y-65810190D01*
X70515238Y-65858571D01*
X70708761Y-65858571D01*
X70805523Y-65810190D01*
X70853904Y-65761809D01*
X70902285Y-65665047D01*
X79078666Y-84436857D02*
X79030285Y-84485238D01*
X78885142Y-84533619D01*
X78788380Y-84533619D01*
X78643238Y-84485238D01*
X78546476Y-84388476D01*
X78498095Y-84291714D01*
X78449714Y-84098190D01*
X78449714Y-83953047D01*
X78498095Y-83759523D01*
X78546476Y-83662761D01*
X78643238Y-83566000D01*
X78788380Y-83517619D01*
X78885142Y-83517619D01*
X79030285Y-83566000D01*
X79078666Y-83614380D01*
X79659238Y-83953047D02*
X79562476Y-83904666D01*
X79514095Y-83856285D01*
X79465714Y-83759523D01*
X79465714Y-83711142D01*
X79514095Y-83614380D01*
X79562476Y-83566000D01*
X79659238Y-83517619D01*
X79852761Y-83517619D01*
X79949523Y-83566000D01*
X79997904Y-83614380D01*
X80046285Y-83711142D01*
X80046285Y-83759523D01*
X79997904Y-83856285D01*
X79949523Y-83904666D01*
X79852761Y-83953047D01*
X79659238Y-83953047D01*
X79562476Y-84001428D01*
X79514095Y-84049809D01*
X79465714Y-84146571D01*
X79465714Y-84340095D01*
X79514095Y-84436857D01*
X79562476Y-84485238D01*
X79659238Y-84533619D01*
X79852761Y-84533619D01*
X79949523Y-84485238D01*
X79997904Y-84436857D01*
X80046285Y-84340095D01*
X80046285Y-84146571D01*
X79997904Y-84049809D01*
X79949523Y-84001428D01*
X79852761Y-83953047D01*
X84158666Y-75800857D02*
X84110285Y-75849238D01*
X83965142Y-75897619D01*
X83868380Y-75897619D01*
X83723238Y-75849238D01*
X83626476Y-75752476D01*
X83578095Y-75655714D01*
X83529714Y-75462190D01*
X83529714Y-75317047D01*
X83578095Y-75123523D01*
X83626476Y-75026761D01*
X83723238Y-74930000D01*
X83868380Y-74881619D01*
X83965142Y-74881619D01*
X84110285Y-74930000D01*
X84158666Y-74978380D01*
X84497333Y-74881619D02*
X85174666Y-74881619D01*
X84739238Y-75897619D01*
X79078666Y-86468857D02*
X79030285Y-86517238D01*
X78885142Y-86565619D01*
X78788380Y-86565619D01*
X78643238Y-86517238D01*
X78546476Y-86420476D01*
X78498095Y-86323714D01*
X78449714Y-86130190D01*
X78449714Y-85985047D01*
X78498095Y-85791523D01*
X78546476Y-85694761D01*
X78643238Y-85598000D01*
X78788380Y-85549619D01*
X78885142Y-85549619D01*
X79030285Y-85598000D01*
X79078666Y-85646380D01*
X79949523Y-85549619D02*
X79756000Y-85549619D01*
X79659238Y-85598000D01*
X79610857Y-85646380D01*
X79514095Y-85791523D01*
X79465714Y-85985047D01*
X79465714Y-86372095D01*
X79514095Y-86468857D01*
X79562476Y-86517238D01*
X79659238Y-86565619D01*
X79852761Y-86565619D01*
X79949523Y-86517238D01*
X79997904Y-86468857D01*
X80046285Y-86372095D01*
X80046285Y-86130190D01*
X79997904Y-86033428D01*
X79949523Y-85985047D01*
X79852761Y-85936666D01*
X79659238Y-85936666D01*
X79562476Y-85985047D01*
X79514095Y-86033428D01*
X79465714Y-86130190D01*
X52916666Y-60814857D02*
X52868285Y-60863238D01*
X52723142Y-60911619D01*
X52626380Y-60911619D01*
X52481238Y-60863238D01*
X52384476Y-60766476D01*
X52336095Y-60669714D01*
X52287714Y-60476190D01*
X52287714Y-60331047D01*
X52336095Y-60137523D01*
X52384476Y-60040761D01*
X52481238Y-59944000D01*
X52626380Y-59895619D01*
X52723142Y-59895619D01*
X52868285Y-59944000D01*
X52916666Y-59992380D01*
X53835904Y-59895619D02*
X53352095Y-59895619D01*
X53303714Y-60379428D01*
X53352095Y-60331047D01*
X53448857Y-60282666D01*
X53690761Y-60282666D01*
X53787523Y-60331047D01*
X53835904Y-60379428D01*
X53884285Y-60476190D01*
X53884285Y-60718095D01*
X53835904Y-60814857D01*
X53787523Y-60863238D01*
X53690761Y-60911619D01*
X53448857Y-60911619D01*
X53352095Y-60863238D01*
X53303714Y-60814857D01*
X46820666Y-68688857D02*
X46772285Y-68737238D01*
X46627142Y-68785619D01*
X46530380Y-68785619D01*
X46385238Y-68737238D01*
X46288476Y-68640476D01*
X46240095Y-68543714D01*
X46191714Y-68350190D01*
X46191714Y-68205047D01*
X46240095Y-68011523D01*
X46288476Y-67914761D01*
X46385238Y-67818000D01*
X46530380Y-67769619D01*
X46627142Y-67769619D01*
X46772285Y-67818000D01*
X46820666Y-67866380D01*
X47691523Y-68108285D02*
X47691523Y-68785619D01*
X47449619Y-67721238D02*
X47207714Y-68446952D01*
X47836666Y-68446952D01*
X48368857Y-79671333D02*
X48417238Y-79719714D01*
X48465619Y-79864857D01*
X48465619Y-79961619D01*
X48417238Y-80106761D01*
X48320476Y-80203523D01*
X48223714Y-80251904D01*
X48030190Y-80300285D01*
X47885047Y-80300285D01*
X47691523Y-80251904D01*
X47594761Y-80203523D01*
X47498000Y-80106761D01*
X47449619Y-79961619D01*
X47449619Y-79864857D01*
X47498000Y-79719714D01*
X47546380Y-79671333D01*
X47449619Y-79332666D02*
X47449619Y-78703714D01*
X47836666Y-79042380D01*
X47836666Y-78897238D01*
X47885047Y-78800476D01*
X47933428Y-78752095D01*
X48030190Y-78703714D01*
X48272095Y-78703714D01*
X48368857Y-78752095D01*
X48417238Y-78800476D01*
X48465619Y-78897238D01*
X48465619Y-79187523D01*
X48417238Y-79284285D01*
X48368857Y-79332666D01*
X43796857Y-67225333D02*
X43845238Y-67273714D01*
X43893619Y-67418857D01*
X43893619Y-67515619D01*
X43845238Y-67660761D01*
X43748476Y-67757523D01*
X43651714Y-67805904D01*
X43458190Y-67854285D01*
X43313047Y-67854285D01*
X43119523Y-67805904D01*
X43022761Y-67757523D01*
X42926000Y-67660761D01*
X42877619Y-67515619D01*
X42877619Y-67418857D01*
X42926000Y-67273714D01*
X42974380Y-67225333D01*
X42974380Y-66838285D02*
X42926000Y-66789904D01*
X42877619Y-66693142D01*
X42877619Y-66451238D01*
X42926000Y-66354476D01*
X42974380Y-66306095D01*
X43071142Y-66257714D01*
X43167904Y-66257714D01*
X43313047Y-66306095D01*
X43893619Y-66886666D01*
X43893619Y-66257714D01*
X41764857Y-67225333D02*
X41813238Y-67273714D01*
X41861619Y-67418857D01*
X41861619Y-67515619D01*
X41813238Y-67660761D01*
X41716476Y-67757523D01*
X41619714Y-67805904D01*
X41426190Y-67854285D01*
X41281047Y-67854285D01*
X41087523Y-67805904D01*
X40990761Y-67757523D01*
X40894000Y-67660761D01*
X40845619Y-67515619D01*
X40845619Y-67418857D01*
X40894000Y-67273714D01*
X40942380Y-67225333D01*
X41861619Y-66257714D02*
X41861619Y-66838285D01*
X41861619Y-66548000D02*
X40845619Y-66548000D01*
X40990761Y-66644761D01*
X41087523Y-66741523D01*
X41135904Y-66838285D01*
M02*
