M48
; DRILL file {KiCad (5.1.5)-3} date 7/30/2020 11:32:06 PM
; FORMAT={-:-/ absolute / inch / decimal}
; #@! TF.CreationDate,2020-07-30T23:32:06-07:00
; #@! TF.GenerationSoftware,Kicad,Pcbnew,(5.1.5)-3
; #@! TF.FileFunction,Plated,1,4,PTH
FMAT,2
INCH
T1C0.0157
T2C0.0295
T3C0.0315
T4C0.0319
T5C0.0394
T6C0.0669
T7C0.0906
T8C0.0984
T9C0.1181
%
G90
G05
T1
X2.13Y-5.53
X2.14Y-5.24
X2.15Y-3.27
X2.27Y-4.22
X2.39Y-2.06
X2.42Y-3.37
X2.42Y-4.07
X2.42Y-5.5
X2.5Y-5.66
X2.72Y-2.08
X2.86Y-3.37
X2.89Y-4.25
X2.92Y-3.95
X2.94Y-4.98
X2.95Y-3.73
X2.96Y-5.67
X2.99Y-2.06
X3.1403Y-4.5097
X3.17Y-5.59
X3.23Y-4.11
X3.29Y-4.29
X3.31Y-3.77
X3.36Y-3.46
X3.47Y-3.24
X3.475Y-5.105
X3.57Y-2.22
X3.58Y-3.76
X3.66Y-5.06
X3.71Y-4.83
X3.71Y-5.16
X3.82Y-3.2
X3.84Y-3.74
X3.87Y-4.57
X3.87Y-5.0
X3.88Y-5.06
X3.9056Y-4.18
X3.9056Y-4.5056
X3.92Y-2.96
X3.93Y-2.54
X3.94Y-2.78
X3.94Y-4.02
X3.94Y-5.67
X3.96Y-2.24
X3.97Y-5.81
X3.98Y-5.58
X3.99Y-3.36
X4.02Y-2.43
X4.02Y-3.0
X4.02Y-3.58
X4.02Y-4.14
X4.02Y-4.71
X4.1Y-4.28
X4.12Y-3.15
X4.17Y-4.37
X4.24Y-3.76
X4.27Y-4.03
X4.28Y-2.03
X4.34Y-5.71
X4.35Y-5.41
X4.44Y-5.09
X4.6Y-5.37
X4.66Y-4.3
X4.69Y-5.1
X4.69Y-5.61
X4.71Y-4.05
X4.78Y-5.02
X4.79Y-4.47
X4.83Y-5.01
X4.9Y-4.98
X4.91Y-5.61
X4.915Y-5.445
X5.02Y-5.32
X5.04Y-4.87
X5.04Y-5.04
X5.05Y-5.7
X5.06Y-4.07
X5.18Y-4.97
X5.24Y-4.27
X5.24Y-5.35
X5.25Y-5.62
X5.29Y-4.78
X5.35Y-4.91
X5.38Y-5.63
X5.4Y-3.48
X5.41Y-4.07
X5.49Y-4.98
X5.51Y-3.18
X5.53Y-4.83
X5.56Y-4.23
X5.63Y-3.51
X5.78Y-3.3
X5.86Y-5.21
T2
X3.18Y-2.17
X3.18Y-2.47
X5.13Y-5.23
X5.18Y-5.23
X5.23Y-5.23
T3
X4.58Y-5.22
X4.6587Y-5.22
X3.48Y-2.17
X3.48Y-2.47
X4.65Y-2.17
X4.65Y-2.47
X3.39Y-4.45
X3.39Y-4.75
X4.52Y-3.31
X4.52Y-3.61
X4.37Y-2.17
X4.37Y-2.47
X4.7013Y-2.66
X4.78Y-2.66
X3.37Y-3.3
X3.37Y-3.6
X3.32Y-2.17
X3.32Y-2.47
X3.37Y-3.88
X3.37Y-4.18
X3.79Y-2.7303
X3.79Y-2.8303
X3.79Y-2.9303
X3.79Y-3.0303
X4.09Y-2.7303
X4.09Y-2.8303
X4.09Y-2.9303
X4.09Y-3.0303
X3.79Y-3.3055
X3.79Y-3.4055
X3.79Y-3.5055
X3.79Y-3.6055
X4.09Y-3.3055
X4.09Y-3.4055
X4.09Y-3.5055
X4.09Y-3.6055
X2.75Y-2.27
X2.75Y-2.47
X2.95Y-2.37
X4.5713Y-5.51
X4.65Y-5.51
X3.1013Y-2.69
X3.18Y-2.69
X3.79Y-4.44
X3.79Y-4.54
X3.79Y-4.64
X3.79Y-4.74
X4.09Y-4.44
X4.09Y-4.54
X4.09Y-4.64
X4.09Y-4.74
X3.64Y-2.17
X3.64Y-2.47
X4.52Y-3.87
X4.52Y-4.17
X4.3Y-3.3531
X4.3Y-3.55
X3.79Y-3.8737
X3.79Y-3.9737
X3.79Y-4.0737
X3.79Y-4.1737
X4.09Y-3.8737
X4.09Y-3.9737
X4.09Y-4.0737
X4.09Y-4.1737
X3.79Y-2.17
X3.79Y-2.27
X3.79Y-2.37
X3.79Y-2.47
X4.09Y-2.17
X4.09Y-2.27
X4.09Y-2.37
X4.09Y-2.47
X3.38Y-2.74
X3.38Y-3.04
X4.3Y-3.9231
X4.3Y-4.12
X3.59Y-3.3531
X3.59Y-3.55
X3.6Y-4.41
X3.6Y-4.6069
X5.82Y-4.74
X5.82Y-5.04
X3.79Y-5.48
X3.79Y-5.58
X3.79Y-5.68
X3.79Y-5.78
X4.09Y-5.48
X4.09Y-5.58
X4.09Y-5.68
X4.09Y-5.78
X3.59Y-3.93
X3.59Y-4.1269
X2.34Y-2.27
X2.34Y-2.47
X2.54Y-2.37
X3.58Y-2.69
X3.58Y-2.8869
X3.79Y-5.28
X4.09Y-5.28
X4.23Y-2.17
X4.23Y-2.47
X4.3Y-4.4031
X4.3Y-4.6
X4.41Y-5.28
X4.41Y-5.58
X4.26Y-5.28
X4.26Y-5.58
X5.36Y-2.26
X5.36Y-2.46
X5.56Y-2.36
X4.3Y-2.6931
X4.3Y-2.89
X4.51Y-2.17
X4.51Y-2.47
X4.5Y-2.74
X4.5Y-3.04
X4.51Y-4.46
X4.51Y-4.76
X5.15Y-5.51
X5.2287Y-5.51
X3.61Y-5.28
X3.61Y-5.58
X4.91Y-2.26
X4.91Y-2.46
X5.11Y-2.36
T4
X2.154Y-4.94
X2.1737Y-4.8022
X2.2603Y-4.8022
X2.28Y-4.94
X5.4222Y-2.7197
X5.4222Y-2.8063
X5.56Y-2.7
X5.56Y-2.826
X2.33Y-2.714
X2.33Y-2.84
X2.4678Y-2.7337
X2.4678Y-2.8203
X3.034Y-4.94
X3.0537Y-4.8022
X3.1403Y-4.8022
X3.16Y-4.94
X2.45Y-4.94
X2.4697Y-4.8022
X2.5563Y-4.8022
X2.576Y-4.94
X2.744Y-4.94
X2.7637Y-4.8022
X2.8503Y-4.8022
X2.87Y-4.94
T5
X3.42Y-5.24
X3.42Y-5.34
X4.66Y-4.56
X4.66Y-4.66
X4.23Y-5.81
X4.33Y-5.81
X2.78Y-5.81
X2.88Y-5.81
X3.09Y-5.24
X3.09Y-5.34
X2.28Y-5.81
X2.38Y-5.81
X4.69Y-5.81
X4.79Y-5.81
X3.2Y-5.24
X3.2Y-5.34
X2.53Y-5.81
X2.63Y-5.81
X4.64Y-2.83
X4.64Y-2.93
X3.03Y-5.81
X3.13Y-5.81
X4.46Y-5.81
X4.56Y-5.81
X3.31Y-5.24
X3.31Y-5.34
X4.8Y-5.21
X4.9Y-5.21
X5.0Y-5.21
X2.1Y-2.73
X2.1Y-2.83
X3.31Y-5.81
X3.41Y-5.81
X3.51Y-5.81
X3.53Y-3.028
X3.63Y-3.028
X3.24Y-2.84
X3.24Y-2.94
X4.25Y-4.73
X4.35Y-4.73
X3.25Y-4.56
X3.25Y-4.66
X3.55Y-4.74
X3.65Y-4.74
X5.8Y-2.71
X5.8Y-2.81
X4.25Y-3.03
X4.35Y-3.03
X5.43Y-5.81
X5.53Y-5.81
X5.16Y-5.81
X5.26Y-5.81
X4.92Y-5.81
X5.02Y-5.81
T6
X2.17Y-3.01
X2.17Y-3.6478
X2.42Y-3.01
X2.42Y-3.6478
X2.67Y-3.01
X2.67Y-3.6478
X5.21Y-3.86
X5.21Y-4.4978
X5.46Y-3.86
X5.46Y-4.4978
X5.71Y-3.86
X5.71Y-4.4978
X2.17Y-3.86
X2.17Y-4.4978
X2.42Y-3.86
X2.42Y-4.4978
X2.67Y-3.86
X2.67Y-4.4978
X5.21Y-3.0122
X5.21Y-3.65
X5.46Y-3.0122
X5.46Y-3.65
X5.71Y-3.0122
X5.71Y-3.65
T7
X5.6862Y-5.38
T8
X5.7256Y-5.2028
X5.7256Y-5.5572
T9
X5.45Y-5.38
T0
M30
