G04 #@! TF.GenerationSoftware,KiCad,Pcbnew,(5.1.5)-3*
G04 #@! TF.CreationDate,2020-07-30T23:32:09-07:00*
G04 #@! TF.ProjectId,AnalogBoard_Rev0,416e616c-6f67-4426-9f61-72645f526576,rev?*
G04 #@! TF.SameCoordinates,Original*
G04 #@! TF.FileFunction,Legend,Top*
G04 #@! TF.FilePolarity,Positive*
%FSLAX46Y46*%
G04 Gerber Fmt 4.6, Leading zero omitted, Abs format (unit mm)*
G04 Created by KiCad (PCBNEW (5.1.5)-3) date 2020-07-30 23:32:09*
%MOMM*%
%LPD*%
G04 APERTURE LIST*
%ADD10C,0.508000*%
%ADD11C,0.254000*%
%ADD12C,0.190500*%
%ADD13C,0.120000*%
%ADD14C,0.203200*%
%ADD15C,0.228600*%
%ADD16C,0.355600*%
%ADD17C,0.150000*%
G04 APERTURE END LIST*
D10*
X106172000Y-123952000D02*
X115570000Y-123952000D01*
X95758000Y-122682000D02*
X104902000Y-122682000D01*
X104902000Y-122682000D02*
X106172000Y-123952000D01*
X94488000Y-123952000D02*
X95758000Y-122682000D01*
X127762000Y-74676000D02*
X148844000Y-74676000D01*
X51308000Y-74422000D02*
X73406000Y-74422000D01*
X73406000Y-74422000D02*
X76708000Y-71120000D01*
X123698000Y-70612000D02*
X127762000Y-74676000D01*
X51308000Y-116332000D02*
X76454000Y-116078000D01*
X76454000Y-116078000D02*
X84328000Y-123952000D01*
X123190000Y-116332000D02*
X149034000Y-116244000D01*
D11*
X105664000Y-79248000D02*
X105664000Y-65278000D01*
X94488000Y-79248000D02*
X94488000Y-65278000D01*
X106172000Y-108204000D02*
X106172000Y-123952000D01*
X114300000Y-108204000D02*
X106172000Y-108204000D01*
X120142000Y-114046000D02*
X114300000Y-108204000D01*
X120142000Y-119380000D02*
X120142000Y-114046000D01*
D10*
X115570000Y-123952000D02*
X123190000Y-116332000D01*
D11*
X109921523Y-122863428D02*
X110066666Y-122911809D01*
X110115047Y-122960190D01*
X110163428Y-123056952D01*
X110163428Y-123202095D01*
X110115047Y-123298857D01*
X110066666Y-123347238D01*
X109969904Y-123395619D01*
X109582857Y-123395619D01*
X109582857Y-122379619D01*
X109921523Y-122379619D01*
X110018285Y-122428000D01*
X110066666Y-122476380D01*
X110115047Y-122573142D01*
X110115047Y-122669904D01*
X110066666Y-122766666D01*
X110018285Y-122815047D01*
X109921523Y-122863428D01*
X109582857Y-122863428D01*
X110550476Y-123105333D02*
X111034285Y-123105333D01*
X110453714Y-123395619D02*
X110792380Y-122379619D01*
X111131047Y-123395619D01*
X111421333Y-123347238D02*
X111566476Y-123395619D01*
X111808380Y-123395619D01*
X111905142Y-123347238D01*
X111953523Y-123298857D01*
X112001904Y-123202095D01*
X112001904Y-123105333D01*
X111953523Y-123008571D01*
X111905142Y-122960190D01*
X111808380Y-122911809D01*
X111614857Y-122863428D01*
X111518095Y-122815047D01*
X111469714Y-122766666D01*
X111421333Y-122669904D01*
X111421333Y-122573142D01*
X111469714Y-122476380D01*
X111518095Y-122428000D01*
X111614857Y-122379619D01*
X111856761Y-122379619D01*
X112001904Y-122428000D01*
X112388952Y-123347238D02*
X112534095Y-123395619D01*
X112776000Y-123395619D01*
X112872761Y-123347238D01*
X112921142Y-123298857D01*
X112969523Y-123202095D01*
X112969523Y-123105333D01*
X112921142Y-123008571D01*
X112872761Y-122960190D01*
X112776000Y-122911809D01*
X112582476Y-122863428D01*
X112485714Y-122815047D01*
X112437333Y-122766666D01*
X112388952Y-122669904D01*
X112388952Y-122573142D01*
X112437333Y-122476380D01*
X112485714Y-122428000D01*
X112582476Y-122379619D01*
X112824380Y-122379619D01*
X112969523Y-122428000D01*
D10*
X84328000Y-123952000D02*
X94488000Y-123952000D01*
D11*
X80518000Y-113538000D02*
X80518000Y-120142000D01*
X85344000Y-108712000D02*
X80518000Y-113538000D01*
X94488000Y-108712000D02*
X85344000Y-108712000D01*
X94488000Y-123952000D02*
X94488000Y-108712000D01*
X87134095Y-122125619D02*
X87714666Y-122125619D01*
X87424380Y-123141619D02*
X87424380Y-122125619D01*
X88633904Y-123141619D02*
X88295238Y-122657809D01*
X88053333Y-123141619D02*
X88053333Y-122125619D01*
X88440380Y-122125619D01*
X88537142Y-122174000D01*
X88585523Y-122222380D01*
X88633904Y-122319142D01*
X88633904Y-122464285D01*
X88585523Y-122561047D01*
X88537142Y-122609428D01*
X88440380Y-122657809D01*
X88053333Y-122657809D01*
X89069333Y-122609428D02*
X89408000Y-122609428D01*
X89553142Y-123141619D02*
X89069333Y-123141619D01*
X89069333Y-122125619D01*
X89553142Y-122125619D01*
X90327238Y-122609428D02*
X90472380Y-122657809D01*
X90520761Y-122706190D01*
X90569142Y-122802952D01*
X90569142Y-122948095D01*
X90520761Y-123044857D01*
X90472380Y-123093238D01*
X90375619Y-123141619D01*
X89988571Y-123141619D01*
X89988571Y-122125619D01*
X90327238Y-122125619D01*
X90424000Y-122174000D01*
X90472380Y-122222380D01*
X90520761Y-122319142D01*
X90520761Y-122415904D01*
X90472380Y-122512666D01*
X90424000Y-122561047D01*
X90327238Y-122609428D01*
X89988571Y-122609428D01*
D12*
X97409000Y-50745571D02*
X97663000Y-50745571D01*
X97771857Y-51144714D02*
X97409000Y-51144714D01*
X97409000Y-50382714D01*
X97771857Y-50382714D01*
X98098428Y-51144714D02*
X98098428Y-50382714D01*
X98533857Y-51144714D01*
X98533857Y-50382714D01*
X98787857Y-50382714D02*
X99041857Y-51144714D01*
X99295857Y-50382714D01*
X99549857Y-50745571D02*
X99803857Y-50745571D01*
X99912714Y-51144714D02*
X99549857Y-51144714D01*
X99549857Y-50382714D01*
X99912714Y-50382714D01*
X100602142Y-51144714D02*
X100239285Y-51144714D01*
X100239285Y-50382714D01*
X101001285Y-50382714D02*
X101146428Y-50382714D01*
X101219000Y-50419000D01*
X101291571Y-50491571D01*
X101327857Y-50636714D01*
X101327857Y-50890714D01*
X101291571Y-51035857D01*
X101219000Y-51108428D01*
X101146428Y-51144714D01*
X101001285Y-51144714D01*
X100928714Y-51108428D01*
X100856142Y-51035857D01*
X100819857Y-50890714D01*
X100819857Y-50636714D01*
X100856142Y-50491571D01*
X100928714Y-50419000D01*
X101001285Y-50382714D01*
X101654428Y-51144714D02*
X101654428Y-50382714D01*
X101944714Y-50382714D01*
X102017285Y-50419000D01*
X102053571Y-50455285D01*
X102089857Y-50527857D01*
X102089857Y-50636714D01*
X102053571Y-50709285D01*
X102017285Y-50745571D01*
X101944714Y-50781857D01*
X101654428Y-50781857D01*
X102416428Y-50745571D02*
X102670428Y-50745571D01*
X102779285Y-51144714D02*
X102416428Y-51144714D01*
X102416428Y-50382714D01*
X102779285Y-50382714D01*
D13*
X122174000Y-51816000D02*
X77978000Y-51816000D01*
X122174000Y-52070000D02*
X122174000Y-51816000D01*
X121920000Y-64770000D02*
X121920000Y-51816000D01*
X123698000Y-66548000D02*
X121920000Y-64770000D01*
X123698000Y-70612000D02*
X123698000Y-66548000D01*
X122936000Y-70612000D02*
X123698000Y-70612000D01*
X119888000Y-70612000D02*
X122936000Y-70612000D01*
X118364000Y-69850000D02*
X119888000Y-70612000D01*
X116078000Y-69850000D02*
X118364000Y-69850000D01*
X116078000Y-65278000D02*
X116078000Y-69850000D01*
X84074000Y-65278000D02*
X116078000Y-65278000D01*
X84074000Y-67310000D02*
X84074000Y-65278000D01*
X84074000Y-69850000D02*
X84074000Y-67310000D01*
X83566000Y-70358000D02*
X84074000Y-69850000D01*
X81534000Y-70358000D02*
X83566000Y-70358000D01*
X80772000Y-71120000D02*
X81788000Y-70358000D01*
X76708000Y-71120000D02*
X80772000Y-71120000D01*
X76708000Y-66802000D02*
X76708000Y-71120000D01*
X77978000Y-65532000D02*
X76708000Y-66802000D01*
X77978000Y-51816000D02*
X77978000Y-65532000D01*
D11*
X79756000Y-79248000D02*
X79756000Y-71374000D01*
X80530095Y-77421619D02*
X81110666Y-77421619D01*
X80820380Y-78437619D02*
X80820380Y-77421619D01*
X82029904Y-78437619D02*
X81691238Y-77953809D01*
X81449333Y-78437619D02*
X81449333Y-77421619D01*
X81836380Y-77421619D01*
X81933142Y-77470000D01*
X81981523Y-77518380D01*
X82029904Y-77615142D01*
X82029904Y-77760285D01*
X81981523Y-77857047D01*
X81933142Y-77905428D01*
X81836380Y-77953809D01*
X81449333Y-77953809D01*
X82465333Y-77905428D02*
X82804000Y-77905428D01*
X82949142Y-78437619D02*
X82465333Y-78437619D01*
X82465333Y-77421619D01*
X82949142Y-77421619D01*
X83723238Y-77905428D02*
X83868380Y-77953809D01*
X83916761Y-78002190D01*
X83965142Y-78098952D01*
X83965142Y-78244095D01*
X83916761Y-78340857D01*
X83868380Y-78389238D01*
X83771619Y-78437619D01*
X83384571Y-78437619D01*
X83384571Y-77421619D01*
X83723238Y-77421619D01*
X83820000Y-77470000D01*
X83868380Y-77518380D01*
X83916761Y-77615142D01*
X83916761Y-77711904D01*
X83868380Y-77808666D01*
X83820000Y-77857047D01*
X83723238Y-77905428D01*
X83384571Y-77905428D01*
X79756000Y-79248000D02*
X94488000Y-79248000D01*
X120396000Y-79248000D02*
X120396000Y-70612000D01*
X105664000Y-79248000D02*
X120396000Y-79248000D01*
X116779523Y-78159428D02*
X116924666Y-78207809D01*
X116973047Y-78256190D01*
X117021428Y-78352952D01*
X117021428Y-78498095D01*
X116973047Y-78594857D01*
X116924666Y-78643238D01*
X116827904Y-78691619D01*
X116440857Y-78691619D01*
X116440857Y-77675619D01*
X116779523Y-77675619D01*
X116876285Y-77724000D01*
X116924666Y-77772380D01*
X116973047Y-77869142D01*
X116973047Y-77965904D01*
X116924666Y-78062666D01*
X116876285Y-78111047D01*
X116779523Y-78159428D01*
X116440857Y-78159428D01*
X117408476Y-78401333D02*
X117892285Y-78401333D01*
X117311714Y-78691619D02*
X117650380Y-77675619D01*
X117989047Y-78691619D01*
X118279333Y-78643238D02*
X118424476Y-78691619D01*
X118666380Y-78691619D01*
X118763142Y-78643238D01*
X118811523Y-78594857D01*
X118859904Y-78498095D01*
X118859904Y-78401333D01*
X118811523Y-78304571D01*
X118763142Y-78256190D01*
X118666380Y-78207809D01*
X118472857Y-78159428D01*
X118376095Y-78111047D01*
X118327714Y-78062666D01*
X118279333Y-77965904D01*
X118279333Y-77869142D01*
X118327714Y-77772380D01*
X118376095Y-77724000D01*
X118472857Y-77675619D01*
X118714761Y-77675619D01*
X118859904Y-77724000D01*
X119246952Y-78643238D02*
X119392095Y-78691619D01*
X119634000Y-78691619D01*
X119730761Y-78643238D01*
X119779142Y-78594857D01*
X119827523Y-78498095D01*
X119827523Y-78401333D01*
X119779142Y-78304571D01*
X119730761Y-78256190D01*
X119634000Y-78207809D01*
X119440476Y-78159428D01*
X119343714Y-78111047D01*
X119295333Y-78062666D01*
X119246952Y-77965904D01*
X119246952Y-77869142D01*
X119295333Y-77772380D01*
X119343714Y-77724000D01*
X119440476Y-77675619D01*
X119682380Y-77675619D01*
X119827523Y-77724000D01*
D10*
X121992571Y-106897714D02*
X122137714Y-107042857D01*
X122282857Y-107478285D01*
X122282857Y-107768571D01*
X122137714Y-108204000D01*
X121847428Y-108494285D01*
X121557142Y-108639428D01*
X120976571Y-108784571D01*
X120541142Y-108784571D01*
X119960571Y-108639428D01*
X119670285Y-108494285D01*
X119380000Y-108204000D01*
X119234857Y-107768571D01*
X119234857Y-107478285D01*
X119380000Y-107042857D01*
X119525142Y-106897714D01*
X122282857Y-105591428D02*
X119234857Y-105591428D01*
X120686285Y-105591428D02*
X120686285Y-103849714D01*
X122282857Y-103849714D02*
X119234857Y-103849714D01*
X119525142Y-100221142D02*
X119380000Y-100076000D01*
X119234857Y-99785714D01*
X119234857Y-99060000D01*
X119380000Y-98769714D01*
X119525142Y-98624571D01*
X119815428Y-98479428D01*
X120105714Y-98479428D01*
X120541142Y-98624571D01*
X122282857Y-100366285D01*
X122282857Y-98479428D01*
X80590571Y-106643714D02*
X80735714Y-106788857D01*
X80880857Y-107224285D01*
X80880857Y-107514571D01*
X80735714Y-107950000D01*
X80445428Y-108240285D01*
X80155142Y-108385428D01*
X79574571Y-108530571D01*
X79139142Y-108530571D01*
X78558571Y-108385428D01*
X78268285Y-108240285D01*
X77978000Y-107950000D01*
X77832857Y-107514571D01*
X77832857Y-107224285D01*
X77978000Y-106788857D01*
X78123142Y-106643714D01*
X80880857Y-105337428D02*
X77832857Y-105337428D01*
X79284285Y-105337428D02*
X79284285Y-103595714D01*
X80880857Y-103595714D02*
X77832857Y-103595714D01*
X78123142Y-99967142D02*
X77978000Y-99822000D01*
X77832857Y-99531714D01*
X77832857Y-98806000D01*
X77978000Y-98515714D01*
X78123142Y-98370571D01*
X78413428Y-98225428D01*
X78703714Y-98225428D01*
X79139142Y-98370571D01*
X80880857Y-100112285D01*
X80880857Y-98225428D01*
X121992571Y-90133714D02*
X122137714Y-90278857D01*
X122282857Y-90714285D01*
X122282857Y-91004571D01*
X122137714Y-91440000D01*
X121847428Y-91730285D01*
X121557142Y-91875428D01*
X120976571Y-92020571D01*
X120541142Y-92020571D01*
X119960571Y-91875428D01*
X119670285Y-91730285D01*
X119380000Y-91440000D01*
X119234857Y-91004571D01*
X119234857Y-90714285D01*
X119380000Y-90278857D01*
X119525142Y-90133714D01*
X122282857Y-88827428D02*
X119234857Y-88827428D01*
X120686285Y-88827428D02*
X120686285Y-87085714D01*
X122282857Y-87085714D02*
X119234857Y-87085714D01*
X122282857Y-81715428D02*
X122282857Y-83457142D01*
X122282857Y-82586285D02*
X119234857Y-82586285D01*
X119670285Y-82876571D01*
X119960571Y-83166857D01*
X120105714Y-83457142D01*
X80590571Y-89879714D02*
X80735714Y-90024857D01*
X80880857Y-90460285D01*
X80880857Y-90750571D01*
X80735714Y-91186000D01*
X80445428Y-91476285D01*
X80155142Y-91621428D01*
X79574571Y-91766571D01*
X79139142Y-91766571D01*
X78558571Y-91621428D01*
X78268285Y-91476285D01*
X77978000Y-91186000D01*
X77832857Y-90750571D01*
X77832857Y-90460285D01*
X77978000Y-90024857D01*
X78123142Y-89879714D01*
X80880857Y-88573428D02*
X77832857Y-88573428D01*
X79284285Y-88573428D02*
X79284285Y-86831714D01*
X80880857Y-86831714D02*
X77832857Y-86831714D01*
X80880857Y-81461428D02*
X80880857Y-83203142D01*
X80880857Y-82332285D02*
X77832857Y-82332285D01*
X78268285Y-82622571D01*
X78558571Y-82912857D01*
X78703714Y-83203142D01*
X51118000Y-94488000D02*
X149098000Y-94742000D01*
D14*
X53098095Y-134063619D02*
X53775428Y-134063619D01*
X53340000Y-135079619D01*
X54888190Y-134015238D02*
X54017333Y-135321523D01*
X55178476Y-134160380D02*
X55226857Y-134112000D01*
X55323619Y-134063619D01*
X55565523Y-134063619D01*
X55662285Y-134112000D01*
X55710666Y-134160380D01*
X55759047Y-134257142D01*
X55759047Y-134353904D01*
X55710666Y-134499047D01*
X55130095Y-135079619D01*
X55759047Y-135079619D01*
X56097714Y-134063619D02*
X56775047Y-134063619D01*
X56339619Y-135079619D01*
X57887809Y-134015238D02*
X57016952Y-135321523D01*
X58178095Y-134160380D02*
X58226476Y-134112000D01*
X58323238Y-134063619D01*
X58565142Y-134063619D01*
X58661904Y-134112000D01*
X58710285Y-134160380D01*
X58758666Y-134257142D01*
X58758666Y-134353904D01*
X58710285Y-134499047D01*
X58129714Y-135079619D01*
X58758666Y-135079619D01*
X59387619Y-134063619D02*
X59484380Y-134063619D01*
X59581142Y-134112000D01*
X59629523Y-134160380D01*
X59677904Y-134257142D01*
X59726285Y-134450666D01*
X59726285Y-134692571D01*
X59677904Y-134886095D01*
X59629523Y-134982857D01*
X59581142Y-135031238D01*
X59484380Y-135079619D01*
X59387619Y-135079619D01*
X59290857Y-135031238D01*
X59242476Y-134982857D01*
X59194095Y-134886095D01*
X59145714Y-134692571D01*
X59145714Y-134450666D01*
X59194095Y-134257142D01*
X59242476Y-134160380D01*
X59290857Y-134112000D01*
X59387619Y-134063619D01*
X60113333Y-134160380D02*
X60161714Y-134112000D01*
X60258476Y-134063619D01*
X60500380Y-134063619D01*
X60597142Y-134112000D01*
X60645523Y-134160380D01*
X60693904Y-134257142D01*
X60693904Y-134353904D01*
X60645523Y-134499047D01*
X60064952Y-135079619D01*
X60693904Y-135079619D01*
X61322857Y-134063619D02*
X61419619Y-134063619D01*
X61516380Y-134112000D01*
X61564761Y-134160380D01*
X61613142Y-134257142D01*
X61661523Y-134450666D01*
X61661523Y-134692571D01*
X61613142Y-134886095D01*
X61564761Y-134982857D01*
X61516380Y-135031238D01*
X61419619Y-135079619D01*
X61322857Y-135079619D01*
X61226095Y-135031238D01*
X61177714Y-134982857D01*
X61129333Y-134886095D01*
X61080952Y-134692571D01*
X61080952Y-134450666D01*
X61129333Y-134257142D01*
X61177714Y-134160380D01*
X61226095Y-134112000D01*
X61322857Y-134063619D01*
D15*
X53086000Y-139095238D02*
X53956857Y-139095238D01*
X53521428Y-141127238D02*
X53521428Y-139095238D01*
X54464857Y-141127238D02*
X54464857Y-139772571D01*
X54464857Y-140159619D02*
X54537428Y-139966095D01*
X54610000Y-139869333D01*
X54755142Y-139772571D01*
X54900285Y-139772571D01*
X55988857Y-141030476D02*
X55843714Y-141127238D01*
X55553428Y-141127238D01*
X55408285Y-141030476D01*
X55335714Y-140836952D01*
X55335714Y-140062857D01*
X55408285Y-139869333D01*
X55553428Y-139772571D01*
X55843714Y-139772571D01*
X55988857Y-139869333D01*
X56061428Y-140062857D01*
X56061428Y-140256380D01*
X55335714Y-140449904D01*
X56714571Y-141127238D02*
X56714571Y-139772571D01*
X56714571Y-139966095D02*
X56787142Y-139869333D01*
X56932285Y-139772571D01*
X57150000Y-139772571D01*
X57295142Y-139869333D01*
X57367714Y-140062857D01*
X57367714Y-141127238D01*
X57367714Y-140062857D02*
X57440285Y-139869333D01*
X57585428Y-139772571D01*
X57803142Y-139772571D01*
X57948285Y-139869333D01*
X58020857Y-140062857D01*
X58020857Y-141127238D01*
X58964285Y-141127238D02*
X58819142Y-141030476D01*
X58746571Y-140933714D01*
X58674000Y-140740190D01*
X58674000Y-140159619D01*
X58746571Y-139966095D01*
X58819142Y-139869333D01*
X58964285Y-139772571D01*
X59182000Y-139772571D01*
X59327142Y-139869333D01*
X59399714Y-139966095D01*
X59472285Y-140159619D01*
X59472285Y-140740190D01*
X59399714Y-140933714D01*
X59327142Y-141030476D01*
X59182000Y-141127238D01*
X58964285Y-141127238D01*
X60343142Y-141127238D02*
X60198000Y-141030476D01*
X60125428Y-140836952D01*
X60125428Y-139095238D01*
X61141428Y-141127238D02*
X60996285Y-141030476D01*
X60923714Y-140933714D01*
X60851142Y-140740190D01*
X60851142Y-140159619D01*
X60923714Y-139966095D01*
X60996285Y-139869333D01*
X61141428Y-139772571D01*
X61359142Y-139772571D01*
X61504285Y-139869333D01*
X61576857Y-139966095D01*
X61649428Y-140159619D01*
X61649428Y-140740190D01*
X61576857Y-140933714D01*
X61504285Y-141030476D01*
X61359142Y-141127238D01*
X61141428Y-141127238D01*
X63391142Y-140546666D02*
X64116857Y-140546666D01*
X63246000Y-141127238D02*
X63754000Y-139095238D01*
X64262000Y-141127238D01*
X64770000Y-139772571D02*
X64770000Y-141127238D01*
X64770000Y-139966095D02*
X64842571Y-139869333D01*
X64987714Y-139772571D01*
X65205428Y-139772571D01*
X65350571Y-139869333D01*
X65423142Y-140062857D01*
X65423142Y-141127238D01*
X66802000Y-141127238D02*
X66802000Y-140062857D01*
X66729428Y-139869333D01*
X66584285Y-139772571D01*
X66294000Y-139772571D01*
X66148857Y-139869333D01*
X66802000Y-141030476D02*
X66656857Y-141127238D01*
X66294000Y-141127238D01*
X66148857Y-141030476D01*
X66076285Y-140836952D01*
X66076285Y-140643428D01*
X66148857Y-140449904D01*
X66294000Y-140353142D01*
X66656857Y-140353142D01*
X66802000Y-140256380D01*
X67745428Y-141127238D02*
X67600285Y-141030476D01*
X67527714Y-140836952D01*
X67527714Y-139095238D01*
X68543714Y-141127238D02*
X68398571Y-141030476D01*
X68326000Y-140933714D01*
X68253428Y-140740190D01*
X68253428Y-140159619D01*
X68326000Y-139966095D01*
X68398571Y-139869333D01*
X68543714Y-139772571D01*
X68761428Y-139772571D01*
X68906571Y-139869333D01*
X68979142Y-139966095D01*
X69051714Y-140159619D01*
X69051714Y-140740190D01*
X68979142Y-140933714D01*
X68906571Y-141030476D01*
X68761428Y-141127238D01*
X68543714Y-141127238D01*
X70358000Y-139772571D02*
X70358000Y-141417523D01*
X70285428Y-141611047D01*
X70212857Y-141707809D01*
X70067714Y-141804571D01*
X69850000Y-141804571D01*
X69704857Y-141707809D01*
X70358000Y-141030476D02*
X70212857Y-141127238D01*
X69922571Y-141127238D01*
X69777428Y-141030476D01*
X69704857Y-140933714D01*
X69632285Y-140740190D01*
X69632285Y-140159619D01*
X69704857Y-139966095D01*
X69777428Y-139869333D01*
X69922571Y-139772571D01*
X70212857Y-139772571D01*
X70358000Y-139869333D01*
X72752857Y-140062857D02*
X72970571Y-140159619D01*
X73043142Y-140256380D01*
X73115714Y-140449904D01*
X73115714Y-140740190D01*
X73043142Y-140933714D01*
X72970571Y-141030476D01*
X72825428Y-141127238D01*
X72244857Y-141127238D01*
X72244857Y-139095238D01*
X72752857Y-139095238D01*
X72898000Y-139192000D01*
X72970571Y-139288761D01*
X73043142Y-139482285D01*
X73043142Y-139675809D01*
X72970571Y-139869333D01*
X72898000Y-139966095D01*
X72752857Y-140062857D01*
X72244857Y-140062857D01*
X73986571Y-141127238D02*
X73841428Y-141030476D01*
X73768857Y-140933714D01*
X73696285Y-140740190D01*
X73696285Y-140159619D01*
X73768857Y-139966095D01*
X73841428Y-139869333D01*
X73986571Y-139772571D01*
X74204285Y-139772571D01*
X74349428Y-139869333D01*
X74422000Y-139966095D01*
X74494571Y-140159619D01*
X74494571Y-140740190D01*
X74422000Y-140933714D01*
X74349428Y-141030476D01*
X74204285Y-141127238D01*
X73986571Y-141127238D01*
X75800857Y-141127238D02*
X75800857Y-140062857D01*
X75728285Y-139869333D01*
X75583142Y-139772571D01*
X75292857Y-139772571D01*
X75147714Y-139869333D01*
X75800857Y-141030476D02*
X75655714Y-141127238D01*
X75292857Y-141127238D01*
X75147714Y-141030476D01*
X75075142Y-140836952D01*
X75075142Y-140643428D01*
X75147714Y-140449904D01*
X75292857Y-140353142D01*
X75655714Y-140353142D01*
X75800857Y-140256380D01*
X76526571Y-141127238D02*
X76526571Y-139772571D01*
X76526571Y-140159619D02*
X76599142Y-139966095D01*
X76671714Y-139869333D01*
X76816857Y-139772571D01*
X76962000Y-139772571D01*
X78123142Y-141127238D02*
X78123142Y-139095238D01*
X78123142Y-141030476D02*
X77978000Y-141127238D01*
X77687714Y-141127238D01*
X77542571Y-141030476D01*
X77470000Y-140933714D01*
X77397428Y-140740190D01*
X77397428Y-140159619D01*
X77470000Y-139966095D01*
X77542571Y-139869333D01*
X77687714Y-139772571D01*
X77978000Y-139772571D01*
X78123142Y-139869333D01*
X80880857Y-141127238D02*
X80372857Y-140159619D01*
X80010000Y-141127238D02*
X80010000Y-139095238D01*
X80590571Y-139095238D01*
X80735714Y-139192000D01*
X80808285Y-139288761D01*
X80880857Y-139482285D01*
X80880857Y-139772571D01*
X80808285Y-139966095D01*
X80735714Y-140062857D01*
X80590571Y-140159619D01*
X80010000Y-140159619D01*
X82114571Y-141030476D02*
X81969428Y-141127238D01*
X81679142Y-141127238D01*
X81534000Y-141030476D01*
X81461428Y-140836952D01*
X81461428Y-140062857D01*
X81534000Y-139869333D01*
X81679142Y-139772571D01*
X81969428Y-139772571D01*
X82114571Y-139869333D01*
X82187142Y-140062857D01*
X82187142Y-140256380D01*
X81461428Y-140449904D01*
X82695142Y-139772571D02*
X83058000Y-141127238D01*
X83420857Y-139772571D01*
X85452857Y-139095238D02*
X85598000Y-139095238D01*
X85743142Y-139192000D01*
X85815714Y-139288761D01*
X85888285Y-139482285D01*
X85960857Y-139869333D01*
X85960857Y-140353142D01*
X85888285Y-140740190D01*
X85815714Y-140933714D01*
X85743142Y-141030476D01*
X85598000Y-141127238D01*
X85452857Y-141127238D01*
X85307714Y-141030476D01*
X85235142Y-140933714D01*
X85162571Y-140740190D01*
X85090000Y-140353142D01*
X85090000Y-139869333D01*
X85162571Y-139482285D01*
X85235142Y-139288761D01*
X85307714Y-139192000D01*
X85452857Y-139095238D01*
D11*
X141478000Y-120650000D02*
X137414000Y-119126000D01*
X137414000Y-128270000D02*
X125730000Y-126746000D01*
X137414000Y-128270000D02*
X141478000Y-126746000D01*
X125730000Y-120650000D02*
X137414000Y-119126000D01*
D14*
X53606095Y-132031619D02*
X53606095Y-132757333D01*
X53557714Y-132902476D01*
X53460952Y-132999238D01*
X53315809Y-133047619D01*
X53219047Y-133047619D01*
X54476952Y-132999238D02*
X54380190Y-133047619D01*
X54186666Y-133047619D01*
X54089904Y-132999238D01*
X54041523Y-132902476D01*
X54041523Y-132515428D01*
X54089904Y-132418666D01*
X54186666Y-132370285D01*
X54380190Y-132370285D01*
X54476952Y-132418666D01*
X54525333Y-132515428D01*
X54525333Y-132612190D01*
X54041523Y-132708952D01*
X54960761Y-133047619D02*
X54960761Y-132370285D01*
X54960761Y-132563809D02*
X55009142Y-132467047D01*
X55057523Y-132418666D01*
X55154285Y-132370285D01*
X55251047Y-132370285D01*
X55976761Y-132999238D02*
X55880000Y-133047619D01*
X55686476Y-133047619D01*
X55589714Y-132999238D01*
X55541333Y-132902476D01*
X55541333Y-132515428D01*
X55589714Y-132418666D01*
X55686476Y-132370285D01*
X55880000Y-132370285D01*
X55976761Y-132418666D01*
X56025142Y-132515428D01*
X56025142Y-132612190D01*
X55541333Y-132708952D01*
X56460571Y-133047619D02*
X56460571Y-132370285D01*
X56460571Y-132467047D02*
X56508952Y-132418666D01*
X56605714Y-132370285D01*
X56750857Y-132370285D01*
X56847619Y-132418666D01*
X56896000Y-132515428D01*
X56896000Y-133047619D01*
X56896000Y-132515428D02*
X56944380Y-132418666D01*
X57041142Y-132370285D01*
X57186285Y-132370285D01*
X57283047Y-132418666D01*
X57331428Y-132515428D01*
X57331428Y-133047619D01*
X57815238Y-133047619D02*
X57815238Y-132370285D01*
X57815238Y-132031619D02*
X57766857Y-132080000D01*
X57815238Y-132128380D01*
X57863619Y-132080000D01*
X57815238Y-132031619D01*
X57815238Y-132128380D01*
X58734476Y-133047619D02*
X58734476Y-132515428D01*
X58686095Y-132418666D01*
X58589333Y-132370285D01*
X58395809Y-132370285D01*
X58299047Y-132418666D01*
X58734476Y-132999238D02*
X58637714Y-133047619D01*
X58395809Y-133047619D01*
X58299047Y-132999238D01*
X58250666Y-132902476D01*
X58250666Y-132805714D01*
X58299047Y-132708952D01*
X58395809Y-132660571D01*
X58637714Y-132660571D01*
X58734476Y-132612190D01*
X59218285Y-133047619D02*
X59218285Y-132031619D01*
X59653714Y-133047619D02*
X59653714Y-132515428D01*
X59605333Y-132418666D01*
X59508571Y-132370285D01*
X59363428Y-132370285D01*
X59266666Y-132418666D01*
X59218285Y-132467047D01*
X61395428Y-133047619D02*
X60911619Y-133047619D01*
X60911619Y-132031619D01*
X61734095Y-133047619D02*
X61734095Y-132370285D01*
X61734095Y-132031619D02*
X61685714Y-132080000D01*
X61734095Y-132128380D01*
X61782476Y-132080000D01*
X61734095Y-132031619D01*
X61734095Y-132128380D01*
X62363047Y-133047619D02*
X62266285Y-132999238D01*
X62217904Y-132902476D01*
X62217904Y-132031619D01*
X62895238Y-133047619D02*
X62798476Y-132999238D01*
X62750095Y-132902476D01*
X62750095Y-132031619D01*
X63717714Y-133047619D02*
X63717714Y-132515428D01*
X63669333Y-132418666D01*
X63572571Y-132370285D01*
X63379047Y-132370285D01*
X63282285Y-132418666D01*
X63717714Y-132999238D02*
X63620952Y-133047619D01*
X63379047Y-133047619D01*
X63282285Y-132999238D01*
X63233904Y-132902476D01*
X63233904Y-132805714D01*
X63282285Y-132708952D01*
X63379047Y-132660571D01*
X63620952Y-132660571D01*
X63717714Y-132612190D01*
X64201523Y-132370285D02*
X64201523Y-133047619D01*
X64201523Y-132467047D02*
X64249904Y-132418666D01*
X64346666Y-132370285D01*
X64491809Y-132370285D01*
X64588571Y-132418666D01*
X64636952Y-132515428D01*
X64636952Y-133047619D01*
X65556190Y-133047619D02*
X65556190Y-132031619D01*
X65556190Y-132999238D02*
X65459428Y-133047619D01*
X65265904Y-133047619D01*
X65169142Y-132999238D01*
X65120761Y-132950857D01*
X65072380Y-132854095D01*
X65072380Y-132563809D01*
X65120761Y-132467047D01*
X65169142Y-132418666D01*
X65265904Y-132370285D01*
X65459428Y-132370285D01*
X65556190Y-132418666D01*
D16*
X125790476Y-126020285D02*
X125790476Y-121448285D01*
X126758095Y-121448285D01*
X127000000Y-121666000D01*
X127120952Y-121883714D01*
X127241904Y-122319142D01*
X127241904Y-122972285D01*
X127120952Y-123407714D01*
X127000000Y-123625428D01*
X126758095Y-123843142D01*
X125790476Y-123843142D01*
X128330476Y-126020285D02*
X128330476Y-121448285D01*
X129540000Y-126020285D02*
X129540000Y-121448285D01*
X130991428Y-126020285D01*
X130991428Y-121448285D01*
X132200952Y-123625428D02*
X133047619Y-123625428D01*
X133410476Y-126020285D02*
X132200952Y-126020285D01*
X132200952Y-121448285D01*
X133410476Y-121448285D01*
X135345714Y-123625428D02*
X135708571Y-123843142D01*
X135829523Y-124060857D01*
X135950476Y-124496285D01*
X135950476Y-125149428D01*
X135829523Y-125584857D01*
X135708571Y-125802571D01*
X135466666Y-126020285D01*
X134499047Y-126020285D01*
X134499047Y-121448285D01*
X135345714Y-121448285D01*
X135587619Y-121666000D01*
X135708571Y-121883714D01*
X135829523Y-122319142D01*
X135829523Y-122754571D01*
X135708571Y-123190000D01*
X135587619Y-123407714D01*
X135345714Y-123625428D01*
X134499047Y-123625428D01*
X137522857Y-121448285D02*
X138006666Y-121448285D01*
X138248571Y-121666000D01*
X138490476Y-122101428D01*
X138611428Y-122972285D01*
X138611428Y-124496285D01*
X138490476Y-125367142D01*
X138248571Y-125802571D01*
X138006666Y-126020285D01*
X137522857Y-126020285D01*
X137280952Y-125802571D01*
X137039047Y-125367142D01*
X136918095Y-124496285D01*
X136918095Y-122972285D01*
X137039047Y-122101428D01*
X137280952Y-121666000D01*
X137522857Y-121448285D01*
X139458095Y-121448285D02*
X141151428Y-126020285D01*
X141151428Y-121448285D02*
X139458095Y-126020285D01*
D13*
X128330000Y-131004000D02*
X128330000Y-132334000D01*
X127000000Y-131004000D02*
X128330000Y-131004000D01*
X125730000Y-131004000D02*
X125730000Y-133664000D01*
X125730000Y-133664000D02*
X120590000Y-133664000D01*
X125730000Y-131004000D02*
X120590000Y-131004000D01*
X120590000Y-131004000D02*
X120590000Y-133664000D01*
X82744000Y-148904000D02*
X82744000Y-147574000D01*
X84074000Y-148904000D02*
X82744000Y-148904000D01*
X85344000Y-148904000D02*
X85344000Y-146244000D01*
X85344000Y-146244000D02*
X90484000Y-146244000D01*
X85344000Y-148904000D02*
X90484000Y-148904000D01*
X90484000Y-148904000D02*
X90484000Y-146244000D01*
X141792000Y-148904000D02*
X141792000Y-146244000D01*
X139192000Y-148904000D02*
X141792000Y-148904000D01*
X139192000Y-146244000D02*
X141792000Y-146244000D01*
X139192000Y-148904000D02*
X139192000Y-146244000D01*
X137922000Y-148904000D02*
X136592000Y-148904000D01*
X136592000Y-148904000D02*
X136592000Y-147574000D01*
X119664775Y-141679000D02*
X119664775Y-141179000D01*
X119914775Y-141429000D02*
X119414775Y-141429000D01*
X114509000Y-140238000D02*
X114509000Y-139670000D01*
X114549000Y-140472000D02*
X114549000Y-139436000D01*
X114589000Y-140631000D02*
X114589000Y-139277000D01*
X114629000Y-140759000D02*
X114629000Y-139149000D01*
X114669000Y-140869000D02*
X114669000Y-139039000D01*
X114709000Y-140965000D02*
X114709000Y-138943000D01*
X114749000Y-141052000D02*
X114749000Y-138856000D01*
X114789000Y-141132000D02*
X114789000Y-138776000D01*
X114829000Y-141205000D02*
X114829000Y-138703000D01*
X114869000Y-141273000D02*
X114869000Y-138635000D01*
X114909000Y-141337000D02*
X114909000Y-138571000D01*
X114949000Y-141397000D02*
X114949000Y-138511000D01*
X114989000Y-141454000D02*
X114989000Y-138454000D01*
X115029000Y-141508000D02*
X115029000Y-138400000D01*
X115069000Y-141559000D02*
X115069000Y-138349000D01*
X115109000Y-138914000D02*
X115109000Y-138301000D01*
X115109000Y-141607000D02*
X115109000Y-140994000D01*
X115149000Y-138914000D02*
X115149000Y-138255000D01*
X115149000Y-141653000D02*
X115149000Y-140994000D01*
X115189000Y-138914000D02*
X115189000Y-138211000D01*
X115189000Y-141697000D02*
X115189000Y-140994000D01*
X115229000Y-138914000D02*
X115229000Y-138169000D01*
X115229000Y-141739000D02*
X115229000Y-140994000D01*
X115269000Y-138914000D02*
X115269000Y-138128000D01*
X115269000Y-141780000D02*
X115269000Y-140994000D01*
X115309000Y-138914000D02*
X115309000Y-138090000D01*
X115309000Y-141818000D02*
X115309000Y-140994000D01*
X115349000Y-138914000D02*
X115349000Y-138053000D01*
X115349000Y-141855000D02*
X115349000Y-140994000D01*
X115389000Y-138914000D02*
X115389000Y-138017000D01*
X115389000Y-141891000D02*
X115389000Y-140994000D01*
X115429000Y-138914000D02*
X115429000Y-137983000D01*
X115429000Y-141925000D02*
X115429000Y-140994000D01*
X115469000Y-138914000D02*
X115469000Y-137950000D01*
X115469000Y-141958000D02*
X115469000Y-140994000D01*
X115509000Y-138914000D02*
X115509000Y-137919000D01*
X115509000Y-141989000D02*
X115509000Y-140994000D01*
X115549000Y-138914000D02*
X115549000Y-137889000D01*
X115549000Y-142019000D02*
X115549000Y-140994000D01*
X115589000Y-138914000D02*
X115589000Y-137859000D01*
X115589000Y-142049000D02*
X115589000Y-140994000D01*
X115629000Y-138914000D02*
X115629000Y-137832000D01*
X115629000Y-142076000D02*
X115629000Y-140994000D01*
X115669000Y-138914000D02*
X115669000Y-137805000D01*
X115669000Y-142103000D02*
X115669000Y-140994000D01*
X115709000Y-138914000D02*
X115709000Y-137779000D01*
X115709000Y-142129000D02*
X115709000Y-140994000D01*
X115749000Y-138914000D02*
X115749000Y-137754000D01*
X115749000Y-142154000D02*
X115749000Y-140994000D01*
X115789000Y-138914000D02*
X115789000Y-137730000D01*
X115789000Y-142178000D02*
X115789000Y-140994000D01*
X115829000Y-138914000D02*
X115829000Y-137707000D01*
X115829000Y-142201000D02*
X115829000Y-140994000D01*
X115869000Y-138914000D02*
X115869000Y-137686000D01*
X115869000Y-142222000D02*
X115869000Y-140994000D01*
X115909000Y-138914000D02*
X115909000Y-137664000D01*
X115909000Y-142244000D02*
X115909000Y-140994000D01*
X115949000Y-138914000D02*
X115949000Y-137644000D01*
X115949000Y-142264000D02*
X115949000Y-140994000D01*
X115989000Y-138914000D02*
X115989000Y-137625000D01*
X115989000Y-142283000D02*
X115989000Y-140994000D01*
X116029000Y-138914000D02*
X116029000Y-137606000D01*
X116029000Y-142302000D02*
X116029000Y-140994000D01*
X116069000Y-138914000D02*
X116069000Y-137589000D01*
X116069000Y-142319000D02*
X116069000Y-140994000D01*
X116109000Y-138914000D02*
X116109000Y-137572000D01*
X116109000Y-142336000D02*
X116109000Y-140994000D01*
X116149000Y-138914000D02*
X116149000Y-137556000D01*
X116149000Y-142352000D02*
X116149000Y-140994000D01*
X116189000Y-138914000D02*
X116189000Y-137540000D01*
X116189000Y-142368000D02*
X116189000Y-140994000D01*
X116229000Y-138914000D02*
X116229000Y-137526000D01*
X116229000Y-142382000D02*
X116229000Y-140994000D01*
X116269000Y-138914000D02*
X116269000Y-137512000D01*
X116269000Y-142396000D02*
X116269000Y-140994000D01*
X116309000Y-138914000D02*
X116309000Y-137499000D01*
X116309000Y-142409000D02*
X116309000Y-140994000D01*
X116349000Y-138914000D02*
X116349000Y-137486000D01*
X116349000Y-142422000D02*
X116349000Y-140994000D01*
X116389000Y-138914000D02*
X116389000Y-137474000D01*
X116389000Y-142434000D02*
X116389000Y-140994000D01*
X116430000Y-138914000D02*
X116430000Y-137463000D01*
X116430000Y-142445000D02*
X116430000Y-140994000D01*
X116470000Y-138914000D02*
X116470000Y-137453000D01*
X116470000Y-142455000D02*
X116470000Y-140994000D01*
X116510000Y-138914000D02*
X116510000Y-137443000D01*
X116510000Y-142465000D02*
X116510000Y-140994000D01*
X116550000Y-138914000D02*
X116550000Y-137434000D01*
X116550000Y-142474000D02*
X116550000Y-140994000D01*
X116590000Y-138914000D02*
X116590000Y-137426000D01*
X116590000Y-142482000D02*
X116590000Y-140994000D01*
X116630000Y-138914000D02*
X116630000Y-137418000D01*
X116630000Y-142490000D02*
X116630000Y-140994000D01*
X116670000Y-138914000D02*
X116670000Y-137411000D01*
X116670000Y-142497000D02*
X116670000Y-140994000D01*
X116710000Y-138914000D02*
X116710000Y-137404000D01*
X116710000Y-142504000D02*
X116710000Y-140994000D01*
X116750000Y-138914000D02*
X116750000Y-137398000D01*
X116750000Y-142510000D02*
X116750000Y-140994000D01*
X116790000Y-138914000D02*
X116790000Y-137393000D01*
X116790000Y-142515000D02*
X116790000Y-140994000D01*
X116830000Y-138914000D02*
X116830000Y-137389000D01*
X116830000Y-142519000D02*
X116830000Y-140994000D01*
X116870000Y-138914000D02*
X116870000Y-137385000D01*
X116870000Y-142523000D02*
X116870000Y-140994000D01*
X116910000Y-138914000D02*
X116910000Y-137381000D01*
X116910000Y-142527000D02*
X116910000Y-140994000D01*
X116950000Y-138914000D02*
X116950000Y-137378000D01*
X116950000Y-142530000D02*
X116950000Y-140994000D01*
X116990000Y-138914000D02*
X116990000Y-137376000D01*
X116990000Y-142532000D02*
X116990000Y-140994000D01*
X117030000Y-138914000D02*
X117030000Y-137375000D01*
X117030000Y-142533000D02*
X117030000Y-140994000D01*
X117070000Y-142534000D02*
X117070000Y-140994000D01*
X117070000Y-138914000D02*
X117070000Y-137374000D01*
X117110000Y-142534000D02*
X117110000Y-140994000D01*
X117110000Y-138914000D02*
X117110000Y-137374000D01*
X119730000Y-139954000D02*
G75*
G03X119730000Y-139954000I-2620000J0D01*
G01*
X149034000Y-94710000D02*
X149034000Y-74710000D01*
X149034000Y-74610000D02*
X128034000Y-74610000D01*
X128034000Y-94610000D02*
X128034000Y-74610000D01*
X149034000Y-94710000D02*
X128034000Y-94710000D01*
X124534000Y-89610000D02*
X124034000Y-89610000D01*
X124034000Y-89610000D02*
X124034000Y-79610000D01*
X124034000Y-79610000D02*
X124534000Y-79610000D01*
X152534000Y-90210000D02*
X149034000Y-90210000D01*
X152534000Y-79210000D02*
X149034000Y-79210000D01*
X152534000Y-79210000D02*
X152534000Y-90210000D01*
X51118000Y-74454000D02*
X51118000Y-94454000D01*
X51118000Y-94554000D02*
X72118000Y-94554000D01*
X72118000Y-74554000D02*
X72118000Y-94554000D01*
X51118000Y-74454000D02*
X72118000Y-74454000D01*
X75618000Y-79554000D02*
X76118000Y-79554000D01*
X76118000Y-79554000D02*
X76118000Y-89554000D01*
X76118000Y-89554000D02*
X75618000Y-89554000D01*
X47618000Y-78954000D02*
X51118000Y-78954000D01*
X47618000Y-89954000D02*
X51118000Y-89954000D01*
X47618000Y-89954000D02*
X47618000Y-78954000D01*
X51118000Y-96044000D02*
X51118000Y-116044000D01*
X51118000Y-116144000D02*
X72118000Y-116144000D01*
X72118000Y-96144000D02*
X72118000Y-116144000D01*
X51118000Y-96044000D02*
X72118000Y-96044000D01*
X75618000Y-101144000D02*
X76118000Y-101144000D01*
X76118000Y-101144000D02*
X76118000Y-111144000D01*
X76118000Y-111144000D02*
X75618000Y-111144000D01*
X47618000Y-100544000D02*
X51118000Y-100544000D01*
X47618000Y-111544000D02*
X51118000Y-111544000D01*
X47618000Y-111544000D02*
X47618000Y-100544000D01*
X149034000Y-116244000D02*
X149034000Y-96244000D01*
X149034000Y-96144000D02*
X128034000Y-96144000D01*
X128034000Y-116144000D02*
X128034000Y-96144000D01*
X149034000Y-116244000D02*
X128034000Y-116244000D01*
X124534000Y-111144000D02*
X124034000Y-111144000D01*
X124034000Y-111144000D02*
X124034000Y-101144000D01*
X124034000Y-101144000D02*
X124534000Y-101144000D01*
X152534000Y-111744000D02*
X149034000Y-111744000D01*
X152534000Y-100744000D02*
X149034000Y-100744000D01*
X152534000Y-100744000D02*
X152534000Y-111744000D01*
X122996000Y-148904000D02*
X122996000Y-146244000D01*
X120396000Y-148904000D02*
X122996000Y-148904000D01*
X120396000Y-146244000D02*
X122996000Y-146244000D01*
X120396000Y-148904000D02*
X120396000Y-146244000D01*
X119126000Y-148904000D02*
X117796000Y-148904000D01*
X117796000Y-148904000D02*
X117796000Y-147574000D01*
X111312000Y-148904000D02*
X111312000Y-146244000D01*
X108712000Y-148904000D02*
X111312000Y-148904000D01*
X108712000Y-146244000D02*
X111312000Y-146244000D01*
X108712000Y-148904000D02*
X108712000Y-146244000D01*
X107442000Y-148904000D02*
X106112000Y-148904000D01*
X106112000Y-148904000D02*
X106112000Y-147574000D01*
X128838000Y-148904000D02*
X128838000Y-146244000D01*
X126238000Y-148904000D02*
X128838000Y-148904000D01*
X126238000Y-146244000D02*
X128838000Y-146244000D01*
X126238000Y-148904000D02*
X126238000Y-146244000D01*
X124968000Y-148904000D02*
X123638000Y-148904000D01*
X123638000Y-148904000D02*
X123638000Y-147574000D01*
X143380000Y-141762000D02*
X137320000Y-141762000D01*
X137320000Y-141762000D02*
X137320000Y-138952000D01*
X137320000Y-134352000D02*
X137320000Y-131542000D01*
X137320000Y-131542000D02*
X143380000Y-131542000D01*
X147480000Y-131542000D02*
X150540000Y-131542000D01*
X150540000Y-131542000D02*
X150540000Y-141762000D01*
X150540000Y-141762000D02*
X147480000Y-141762000D01*
X136130000Y-137652000D02*
X136130000Y-135652000D01*
X80832000Y-148904000D02*
X80832000Y-146244000D01*
X78232000Y-148904000D02*
X80832000Y-148904000D01*
X78232000Y-146244000D02*
X80832000Y-146244000D01*
X78232000Y-148904000D02*
X78232000Y-146244000D01*
X76962000Y-148904000D02*
X75632000Y-148904000D01*
X75632000Y-148904000D02*
X75632000Y-147574000D01*
X74482000Y-148904000D02*
X74482000Y-146244000D01*
X71882000Y-148904000D02*
X74482000Y-148904000D01*
X71882000Y-146244000D02*
X74482000Y-146244000D01*
X71882000Y-148904000D02*
X71882000Y-146244000D01*
X70612000Y-148904000D02*
X69282000Y-148904000D01*
X69282000Y-148904000D02*
X69282000Y-147574000D01*
X122484000Y-55059000D02*
X132254000Y-55059000D01*
X122484000Y-64829000D02*
X132254000Y-64829000D01*
X122484000Y-55059000D02*
X122484000Y-64829000D01*
X132254000Y-55059000D02*
X132254000Y-64829000D01*
X67620000Y-55313000D02*
X77390000Y-55313000D01*
X67620000Y-65083000D02*
X77390000Y-65083000D01*
X67620000Y-55313000D02*
X67620000Y-65083000D01*
X77390000Y-55313000D02*
X77390000Y-65083000D01*
X133914000Y-55059000D02*
X143684000Y-55059000D01*
X133914000Y-64829000D02*
X143684000Y-64829000D01*
X133914000Y-55059000D02*
X133914000Y-64829000D01*
X143684000Y-55059000D02*
X143684000Y-64829000D01*
X57206000Y-55313000D02*
X66976000Y-55313000D01*
X57206000Y-65083000D02*
X66976000Y-65083000D01*
X57206000Y-55313000D02*
X57206000Y-65083000D01*
X66976000Y-55313000D02*
X66976000Y-65083000D01*
X138570417Y-67950990D02*
G75*
G02X138724001Y-72579999I2653583J-2229010D01*
G01*
X61835583Y-72765010D02*
G75*
G02X61681999Y-68136001I-2653583J2229010D01*
G01*
X80893010Y-122822417D02*
G75*
G02X76264001Y-122976001I-2229010J-2653583D01*
G01*
X73527010Y-122822417D02*
G75*
G02X68898001Y-122976001I-2229010J-2653583D01*
G01*
X66059010Y-122822417D02*
G75*
G02X61430001Y-122976001I-2229010J-2653583D01*
G01*
X58541010Y-122822417D02*
G75*
G02X53912001Y-122976001I-2229010J-2653583D01*
G01*
X109220000Y-75632000D02*
X109220000Y-78292000D01*
X109220000Y-75632000D02*
X106620000Y-75632000D01*
X106620000Y-75632000D02*
X106620000Y-78292000D01*
X109220000Y-78292000D02*
X106620000Y-78292000D01*
X111820000Y-78292000D02*
X110490000Y-78292000D01*
X111820000Y-76962000D02*
X111820000Y-78292000D01*
X109220000Y-118812000D02*
X109220000Y-121472000D01*
X109220000Y-118812000D02*
X106620000Y-118812000D01*
X106620000Y-118812000D02*
X106620000Y-121472000D01*
X109220000Y-121472000D02*
X106620000Y-121472000D01*
X111820000Y-121472000D02*
X110490000Y-121472000D01*
X111820000Y-120142000D02*
X111820000Y-121472000D01*
X80966000Y-73406000D02*
X83626000Y-73406000D01*
X80966000Y-73406000D02*
X80966000Y-76006000D01*
X80966000Y-76006000D02*
X83626000Y-76006000D01*
X83626000Y-73406000D02*
X83626000Y-76006000D01*
X83626000Y-70806000D02*
X83626000Y-72136000D01*
X82296000Y-70806000D02*
X83626000Y-70806000D01*
X81220000Y-117094000D02*
X83880000Y-117094000D01*
X81220000Y-117094000D02*
X81220000Y-119694000D01*
X81220000Y-119694000D02*
X83880000Y-119694000D01*
X83880000Y-117094000D02*
X83880000Y-119694000D01*
X83880000Y-114494000D02*
X83880000Y-115824000D01*
X82550000Y-114494000D02*
X83880000Y-114494000D01*
X90932000Y-78242000D02*
X90932000Y-75582000D01*
X90932000Y-78242000D02*
X93532000Y-78242000D01*
X93532000Y-78242000D02*
X93532000Y-75582000D01*
X90932000Y-75582000D02*
X93532000Y-75582000D01*
X88332000Y-75582000D02*
X89662000Y-75582000D01*
X88332000Y-76912000D02*
X88332000Y-75582000D01*
X116526000Y-73152000D02*
X119186000Y-73152000D01*
X116526000Y-73152000D02*
X116526000Y-75752000D01*
X116526000Y-75752000D02*
X119186000Y-75752000D01*
X119186000Y-73152000D02*
X119186000Y-75752000D01*
X119186000Y-70552000D02*
X119186000Y-71882000D01*
X117856000Y-70552000D02*
X119186000Y-70552000D01*
X91440000Y-121726000D02*
X91440000Y-119066000D01*
X91440000Y-121726000D02*
X94040000Y-121726000D01*
X94040000Y-121726000D02*
X94040000Y-119066000D01*
X91440000Y-119066000D02*
X94040000Y-119066000D01*
X88840000Y-119066000D02*
X90170000Y-119066000D01*
X88840000Y-120396000D02*
X88840000Y-119066000D01*
X119694000Y-117094000D02*
X117034000Y-117094000D01*
X119694000Y-117094000D02*
X119694000Y-114494000D01*
X119694000Y-114494000D02*
X117034000Y-114494000D01*
X117034000Y-117094000D02*
X117034000Y-114494000D01*
X117034000Y-119694000D02*
X117034000Y-118364000D01*
X118364000Y-119694000D02*
X117034000Y-119694000D01*
X124460000Y-136378000D02*
X122510000Y-136378000D01*
X124460000Y-136378000D02*
X126410000Y-136378000D01*
X124460000Y-141498000D02*
X122510000Y-141498000D01*
X124460000Y-141498000D02*
X127910000Y-141498000D01*
X92734000Y-134652000D02*
X93064000Y-134652000D01*
X93064000Y-134652000D02*
X93064000Y-141192000D01*
X93064000Y-141192000D02*
X92734000Y-141192000D01*
X90654000Y-134652000D02*
X90324000Y-134652000D01*
X90324000Y-134652000D02*
X90324000Y-141192000D01*
X90324000Y-141192000D02*
X90654000Y-141192000D01*
X109244000Y-134652000D02*
X109574000Y-134652000D01*
X109574000Y-134652000D02*
X109574000Y-141192000D01*
X109574000Y-141192000D02*
X109244000Y-141192000D01*
X107164000Y-134652000D02*
X106834000Y-134652000D01*
X106834000Y-134652000D02*
X106834000Y-141192000D01*
X106834000Y-141192000D02*
X107164000Y-141192000D01*
X110974000Y-141192000D02*
X110644000Y-141192000D01*
X110644000Y-141192000D02*
X110644000Y-134652000D01*
X110644000Y-134652000D02*
X110974000Y-134652000D01*
X113054000Y-141192000D02*
X113384000Y-141192000D01*
X113384000Y-141192000D02*
X113384000Y-134652000D01*
X113384000Y-134652000D02*
X113054000Y-134652000D01*
X95880000Y-130508000D02*
X95080000Y-129708000D01*
X95080000Y-129708000D02*
X95080000Y-124508000D01*
X95080000Y-124508000D02*
X105580000Y-124508000D01*
X105580000Y-124508000D02*
X105580000Y-130508000D01*
X105580000Y-130508000D02*
X95880000Y-130508000D01*
X113668000Y-126508000D02*
X113668000Y-128508000D01*
X110868000Y-126508000D02*
X113668000Y-126508000D01*
X110868000Y-128508000D02*
X110868000Y-126508000D01*
X113668000Y-128508000D02*
X110868000Y-128508000D01*
X90412000Y-126762000D02*
X90412000Y-128762000D01*
X87612000Y-126762000D02*
X90412000Y-126762000D01*
X87612000Y-128762000D02*
X87612000Y-126762000D01*
X90412000Y-128762000D02*
X87612000Y-128762000D01*
X134934000Y-148904000D02*
X134934000Y-146244000D01*
X132334000Y-148904000D02*
X134934000Y-148904000D01*
X132334000Y-146244000D02*
X134934000Y-146244000D01*
X132334000Y-148904000D02*
X132334000Y-146244000D01*
X131064000Y-148904000D02*
X129734000Y-148904000D01*
X129734000Y-148904000D02*
X129734000Y-147574000D01*
X145990000Y-72704000D02*
X148650000Y-72704000D01*
X145990000Y-70104000D02*
X145990000Y-72704000D01*
X148650000Y-70104000D02*
X148650000Y-72704000D01*
X145990000Y-70104000D02*
X148650000Y-70104000D01*
X145990000Y-68834000D02*
X145990000Y-67504000D01*
X145990000Y-67504000D02*
X147320000Y-67504000D01*
X54670000Y-68012000D02*
X52010000Y-68012000D01*
X54670000Y-70612000D02*
X54670000Y-68012000D01*
X52010000Y-70612000D02*
X52010000Y-68012000D01*
X54670000Y-70612000D02*
X52010000Y-70612000D01*
X54670000Y-71882000D02*
X54670000Y-73212000D01*
X54670000Y-73212000D02*
X53340000Y-73212000D01*
X68132000Y-148904000D02*
X68132000Y-146244000D01*
X65532000Y-148904000D02*
X68132000Y-148904000D01*
X65532000Y-146244000D02*
X68132000Y-146244000D01*
X65532000Y-148904000D02*
X65532000Y-146244000D01*
X64262000Y-148904000D02*
X62932000Y-148904000D01*
X62932000Y-148904000D02*
X62932000Y-147574000D01*
X61782000Y-148904000D02*
X61782000Y-146244000D01*
X59182000Y-148904000D02*
X61782000Y-148904000D01*
X59182000Y-146244000D02*
X61782000Y-146244000D01*
X59182000Y-148904000D02*
X59182000Y-146244000D01*
X57912000Y-148904000D02*
X56582000Y-148904000D01*
X56582000Y-148904000D02*
X56582000Y-147574000D01*
X85538000Y-136966000D02*
X88198000Y-136966000D01*
X85538000Y-134366000D02*
X85538000Y-136966000D01*
X88198000Y-134366000D02*
X88198000Y-136966000D01*
X85538000Y-134366000D02*
X88198000Y-134366000D01*
X85538000Y-133096000D02*
X85538000Y-131766000D01*
X85538000Y-131766000D02*
X86868000Y-131766000D01*
X82744000Y-136966000D02*
X85404000Y-136966000D01*
X82744000Y-134366000D02*
X82744000Y-136966000D01*
X85404000Y-134366000D02*
X85404000Y-136966000D01*
X82744000Y-134366000D02*
X85404000Y-134366000D01*
X82744000Y-133096000D02*
X82744000Y-131766000D01*
X82744000Y-131766000D02*
X84074000Y-131766000D01*
X79950000Y-136966000D02*
X82610000Y-136966000D01*
X79950000Y-134366000D02*
X79950000Y-136966000D01*
X82610000Y-134366000D02*
X82610000Y-136966000D01*
X79950000Y-134366000D02*
X82610000Y-134366000D01*
X79950000Y-133096000D02*
X79950000Y-131766000D01*
X79950000Y-131766000D02*
X81280000Y-131766000D01*
X77156000Y-136966000D02*
X79816000Y-136966000D01*
X77156000Y-134366000D02*
X77156000Y-136966000D01*
X79816000Y-134366000D02*
X79816000Y-136966000D01*
X77156000Y-134366000D02*
X79816000Y-134366000D01*
X77156000Y-133096000D02*
X77156000Y-131766000D01*
X77156000Y-131766000D02*
X78486000Y-131766000D01*
X117154000Y-148904000D02*
X117154000Y-146244000D01*
X114554000Y-148904000D02*
X117154000Y-148904000D01*
X114554000Y-146244000D02*
X117154000Y-146244000D01*
X114554000Y-148904000D02*
X114554000Y-146244000D01*
X113284000Y-148904000D02*
X111954000Y-148904000D01*
X111954000Y-148904000D02*
X111954000Y-147574000D01*
X99076000Y-148142000D02*
G75*
G02X101076000Y-148142000I1000000J0D01*
G01*
X101076000Y-148142000D02*
X102726000Y-148142000D01*
X102726000Y-148142000D02*
X102726000Y-137862000D01*
X102726000Y-137862000D02*
X97426000Y-137862000D01*
X97426000Y-137862000D02*
X97426000Y-148142000D01*
X97426000Y-148142000D02*
X99076000Y-148142000D01*
X99076000Y-64068000D02*
G75*
G02X101076000Y-64068000I1000000J0D01*
G01*
X101076000Y-64068000D02*
X102726000Y-64068000D01*
X102726000Y-64068000D02*
X102726000Y-53788000D01*
X102726000Y-53788000D02*
X97426000Y-53788000D01*
X97426000Y-53788000D02*
X97426000Y-64068000D01*
X97426000Y-64068000D02*
X99076000Y-64068000D01*
X99076000Y-78300000D02*
G75*
G02X101076000Y-78300000I1000000J0D01*
G01*
X101076000Y-78300000D02*
X102726000Y-78300000D01*
X102726000Y-78300000D02*
X102726000Y-68020000D01*
X102726000Y-68020000D02*
X97426000Y-68020000D01*
X97426000Y-68020000D02*
X97426000Y-78300000D01*
X97426000Y-78300000D02*
X99076000Y-78300000D01*
X99076000Y-121726000D02*
G75*
G02X101076000Y-121726000I1000000J0D01*
G01*
X101076000Y-121726000D02*
X102726000Y-121726000D01*
X102726000Y-121726000D02*
X102726000Y-111446000D01*
X102726000Y-111446000D02*
X97426000Y-111446000D01*
X97426000Y-111446000D02*
X97426000Y-121726000D01*
X97426000Y-121726000D02*
X99076000Y-121726000D01*
X99076000Y-92910400D02*
G75*
G02X101076000Y-92910400I1000000J0D01*
G01*
X101076000Y-92910400D02*
X102726000Y-92910400D01*
X102726000Y-92910400D02*
X102726000Y-82630400D01*
X102726000Y-82630400D02*
X97426000Y-82630400D01*
X97426000Y-82630400D02*
X97426000Y-92910400D01*
X97426000Y-92910400D02*
X99076000Y-92910400D01*
X99076000Y-107341600D02*
G75*
G02X101076000Y-107341600I1000000J0D01*
G01*
X101076000Y-107341600D02*
X102726000Y-107341600D01*
X102726000Y-107341600D02*
X102726000Y-97061600D01*
X102726000Y-97061600D02*
X97426000Y-97061600D01*
X97426000Y-97061600D02*
X97426000Y-107341600D01*
X97426000Y-107341600D02*
X99076000Y-107341600D01*
X86638000Y-84360000D02*
X86968000Y-84360000D01*
X86968000Y-84360000D02*
X86968000Y-90900000D01*
X86968000Y-90900000D02*
X86638000Y-90900000D01*
X84558000Y-84360000D02*
X84228000Y-84360000D01*
X84228000Y-84360000D02*
X84228000Y-90900000D01*
X84228000Y-90900000D02*
X84558000Y-90900000D01*
X86638000Y-99092000D02*
X86968000Y-99092000D01*
X86968000Y-99092000D02*
X86968000Y-105632000D01*
X86968000Y-105632000D02*
X86638000Y-105632000D01*
X84558000Y-99092000D02*
X84228000Y-99092000D01*
X84228000Y-99092000D02*
X84228000Y-105632000D01*
X84228000Y-105632000D02*
X84558000Y-105632000D01*
X85368000Y-55658000D02*
X85698000Y-55658000D01*
X85698000Y-55658000D02*
X85698000Y-62198000D01*
X85698000Y-62198000D02*
X85368000Y-62198000D01*
X83288000Y-55658000D02*
X82958000Y-55658000D01*
X82958000Y-55658000D02*
X82958000Y-62198000D01*
X82958000Y-62198000D02*
X83288000Y-62198000D01*
X89432000Y-55658000D02*
X89762000Y-55658000D01*
X89762000Y-55658000D02*
X89762000Y-62198000D01*
X89762000Y-62198000D02*
X89432000Y-62198000D01*
X87352000Y-55658000D02*
X87022000Y-55658000D01*
X87022000Y-55658000D02*
X87022000Y-62198000D01*
X87022000Y-62198000D02*
X87352000Y-62198000D01*
X91416000Y-62198000D02*
X91086000Y-62198000D01*
X91086000Y-62198000D02*
X91086000Y-55658000D01*
X91086000Y-55658000D02*
X91416000Y-55658000D01*
X93496000Y-62198000D02*
X93826000Y-62198000D01*
X93826000Y-62198000D02*
X93826000Y-55658000D01*
X93826000Y-55658000D02*
X93496000Y-55658000D01*
X113514000Y-62198000D02*
X113184000Y-62198000D01*
X113184000Y-62198000D02*
X113184000Y-55658000D01*
X113184000Y-55658000D02*
X113514000Y-55658000D01*
X115594000Y-62198000D02*
X115924000Y-62198000D01*
X115924000Y-62198000D02*
X115924000Y-55658000D01*
X115924000Y-55658000D02*
X115594000Y-55658000D01*
X84812000Y-76676000D02*
X84482000Y-76676000D01*
X84482000Y-76676000D02*
X84482000Y-70136000D01*
X84482000Y-70136000D02*
X84812000Y-70136000D01*
X86892000Y-76676000D02*
X87222000Y-76676000D01*
X87222000Y-76676000D02*
X87222000Y-70136000D01*
X87222000Y-70136000D02*
X86892000Y-70136000D01*
X85066000Y-120110000D02*
X84736000Y-120110000D01*
X84736000Y-120110000D02*
X84736000Y-113570000D01*
X84736000Y-113570000D02*
X85066000Y-113570000D01*
X87146000Y-120110000D02*
X87476000Y-120110000D01*
X87476000Y-120110000D02*
X87476000Y-113570000D01*
X87476000Y-113570000D02*
X87146000Y-113570000D01*
X117070000Y-62198000D02*
X116740000Y-62198000D01*
X116740000Y-62198000D02*
X116740000Y-55658000D01*
X116740000Y-55658000D02*
X117070000Y-55658000D01*
X119150000Y-62198000D02*
X119480000Y-62198000D01*
X119480000Y-62198000D02*
X119480000Y-55658000D01*
X119480000Y-55658000D02*
X119150000Y-55658000D01*
X113260000Y-76676000D02*
X112930000Y-76676000D01*
X112930000Y-76676000D02*
X112930000Y-70136000D01*
X112930000Y-70136000D02*
X113260000Y-70136000D01*
X115340000Y-76676000D02*
X115670000Y-76676000D01*
X115670000Y-76676000D02*
X115670000Y-70136000D01*
X115670000Y-70136000D02*
X115340000Y-70136000D01*
X115594000Y-113824000D02*
X115924000Y-113824000D01*
X115924000Y-113824000D02*
X115924000Y-120364000D01*
X115924000Y-120364000D02*
X115594000Y-120364000D01*
X113514000Y-113824000D02*
X113184000Y-113824000D01*
X113184000Y-113824000D02*
X113184000Y-120364000D01*
X113184000Y-120364000D02*
X113514000Y-120364000D01*
X113768000Y-91154000D02*
X113438000Y-91154000D01*
X113438000Y-91154000D02*
X113438000Y-84614000D01*
X113438000Y-84614000D02*
X113768000Y-84614000D01*
X115848000Y-91154000D02*
X116178000Y-91154000D01*
X116178000Y-91154000D02*
X116178000Y-84614000D01*
X116178000Y-84614000D02*
X115848000Y-84614000D01*
X113768000Y-105378000D02*
X113438000Y-105378000D01*
X113438000Y-105378000D02*
X113438000Y-98838000D01*
X113438000Y-98838000D02*
X113768000Y-98838000D01*
X115848000Y-105378000D02*
X116178000Y-105378000D01*
X116178000Y-105378000D02*
X116178000Y-98838000D01*
X116178000Y-98838000D02*
X115848000Y-98838000D01*
X107698000Y-125928000D02*
X107698000Y-126858000D01*
X107698000Y-129088000D02*
X107698000Y-128158000D01*
X107698000Y-129088000D02*
X109858000Y-129088000D01*
X107698000Y-125928000D02*
X109158000Y-125928000D01*
X133592000Y-131142000D02*
X129742000Y-131142000D01*
X129703389Y-131151878D02*
G75*
G03X133592000Y-131142000I1948611J-1690122D01*
G01*
X97956000Y-132992000D02*
X97956000Y-135232000D01*
X97956000Y-135232000D02*
X102196000Y-135232000D01*
X102196000Y-135232000D02*
X102196000Y-132992000D01*
X102196000Y-132992000D02*
X97956000Y-132992000D01*
X97306000Y-134112000D02*
X97956000Y-134112000D01*
X102846000Y-134112000D02*
X102196000Y-134112000D01*
X98676000Y-132992000D02*
X98676000Y-135232000D01*
X98796000Y-132992000D02*
X98796000Y-135232000D01*
X98556000Y-132992000D02*
X98556000Y-135232000D01*
X79852000Y-60568000D02*
X81692000Y-60568000D01*
X81692000Y-60568000D02*
X81692000Y-57288000D01*
X81692000Y-57288000D02*
X79852000Y-57288000D01*
X79852000Y-57288000D02*
X79852000Y-60568000D01*
X80772000Y-61748000D02*
X80772000Y-60568000D01*
X80772000Y-56108000D02*
X80772000Y-57288000D01*
X79852000Y-59992000D02*
X81692000Y-59992000D01*
X79852000Y-59872000D02*
X81692000Y-59872000D01*
X79852000Y-60112000D02*
X81692000Y-60112000D01*
X108562000Y-56808000D02*
X106322000Y-56808000D01*
X106322000Y-56808000D02*
X106322000Y-61048000D01*
X106322000Y-61048000D02*
X108562000Y-61048000D01*
X108562000Y-61048000D02*
X108562000Y-56808000D01*
X107442000Y-56158000D02*
X107442000Y-56808000D01*
X107442000Y-61698000D02*
X107442000Y-61048000D01*
X108562000Y-57528000D02*
X106322000Y-57528000D01*
X108562000Y-57648000D02*
X106322000Y-57648000D01*
X108562000Y-57408000D02*
X106322000Y-57408000D01*
X112118000Y-56808000D02*
X109878000Y-56808000D01*
X109878000Y-56808000D02*
X109878000Y-61048000D01*
X109878000Y-61048000D02*
X112118000Y-61048000D01*
X112118000Y-61048000D02*
X112118000Y-56808000D01*
X110998000Y-56158000D02*
X110998000Y-56808000D01*
X110998000Y-61698000D02*
X110998000Y-61048000D01*
X112118000Y-57528000D02*
X109878000Y-57528000D01*
X112118000Y-57648000D02*
X109878000Y-57648000D01*
X112118000Y-57408000D02*
X109878000Y-57408000D01*
X146708000Y-126326000D02*
X148948000Y-126326000D01*
X148948000Y-126326000D02*
X148948000Y-122086000D01*
X148948000Y-122086000D02*
X146708000Y-122086000D01*
X146708000Y-122086000D02*
X146708000Y-126326000D01*
X147828000Y-126976000D02*
X147828000Y-126326000D01*
X147828000Y-121436000D02*
X147828000Y-122086000D01*
X146708000Y-125606000D02*
X148948000Y-125606000D01*
X146708000Y-125486000D02*
X148948000Y-125486000D01*
X146708000Y-125726000D02*
X148948000Y-125726000D01*
X88816000Y-91390000D02*
X88816000Y-83950000D01*
X93556000Y-91390000D02*
X93556000Y-83950000D01*
X88816000Y-91390000D02*
X93556000Y-91390000D01*
X88816000Y-83950000D02*
X93556000Y-83950000D01*
X93556000Y-98602000D02*
X93556000Y-106042000D01*
X88816000Y-98602000D02*
X88816000Y-106042000D01*
X93556000Y-98602000D02*
X88816000Y-98602000D01*
X93556000Y-106042000D02*
X88816000Y-106042000D01*
X82392000Y-68326000D02*
G75*
G03X82392000Y-68326000I-2620000J0D01*
G01*
X79772000Y-67286000D02*
X79772000Y-65746000D01*
X79772000Y-70906000D02*
X79772000Y-69366000D01*
X79732000Y-67286000D02*
X79732000Y-65746000D01*
X79732000Y-70906000D02*
X79732000Y-69366000D01*
X79692000Y-70905000D02*
X79692000Y-69366000D01*
X79692000Y-67286000D02*
X79692000Y-65747000D01*
X79652000Y-70904000D02*
X79652000Y-69366000D01*
X79652000Y-67286000D02*
X79652000Y-65748000D01*
X79612000Y-70902000D02*
X79612000Y-69366000D01*
X79612000Y-67286000D02*
X79612000Y-65750000D01*
X79572000Y-70899000D02*
X79572000Y-69366000D01*
X79572000Y-67286000D02*
X79572000Y-65753000D01*
X79532000Y-70895000D02*
X79532000Y-69366000D01*
X79532000Y-67286000D02*
X79532000Y-65757000D01*
X79492000Y-70891000D02*
X79492000Y-69366000D01*
X79492000Y-67286000D02*
X79492000Y-65761000D01*
X79452000Y-70887000D02*
X79452000Y-69366000D01*
X79452000Y-67286000D02*
X79452000Y-65765000D01*
X79412000Y-70882000D02*
X79412000Y-69366000D01*
X79412000Y-67286000D02*
X79412000Y-65770000D01*
X79372000Y-70876000D02*
X79372000Y-69366000D01*
X79372000Y-67286000D02*
X79372000Y-65776000D01*
X79332000Y-70869000D02*
X79332000Y-69366000D01*
X79332000Y-67286000D02*
X79332000Y-65783000D01*
X79292000Y-70862000D02*
X79292000Y-69366000D01*
X79292000Y-67286000D02*
X79292000Y-65790000D01*
X79252000Y-70854000D02*
X79252000Y-69366000D01*
X79252000Y-67286000D02*
X79252000Y-65798000D01*
X79212000Y-70846000D02*
X79212000Y-69366000D01*
X79212000Y-67286000D02*
X79212000Y-65806000D01*
X79172000Y-70837000D02*
X79172000Y-69366000D01*
X79172000Y-67286000D02*
X79172000Y-65815000D01*
X79132000Y-70827000D02*
X79132000Y-69366000D01*
X79132000Y-67286000D02*
X79132000Y-65825000D01*
X79092000Y-70817000D02*
X79092000Y-69366000D01*
X79092000Y-67286000D02*
X79092000Y-65835000D01*
X79051000Y-70806000D02*
X79051000Y-69366000D01*
X79051000Y-67286000D02*
X79051000Y-65846000D01*
X79011000Y-70794000D02*
X79011000Y-69366000D01*
X79011000Y-67286000D02*
X79011000Y-65858000D01*
X78971000Y-70781000D02*
X78971000Y-69366000D01*
X78971000Y-67286000D02*
X78971000Y-65871000D01*
X78931000Y-70768000D02*
X78931000Y-69366000D01*
X78931000Y-67286000D02*
X78931000Y-65884000D01*
X78891000Y-70754000D02*
X78891000Y-69366000D01*
X78891000Y-67286000D02*
X78891000Y-65898000D01*
X78851000Y-70740000D02*
X78851000Y-69366000D01*
X78851000Y-67286000D02*
X78851000Y-65912000D01*
X78811000Y-70724000D02*
X78811000Y-69366000D01*
X78811000Y-67286000D02*
X78811000Y-65928000D01*
X78771000Y-70708000D02*
X78771000Y-69366000D01*
X78771000Y-67286000D02*
X78771000Y-65944000D01*
X78731000Y-70691000D02*
X78731000Y-69366000D01*
X78731000Y-67286000D02*
X78731000Y-65961000D01*
X78691000Y-70674000D02*
X78691000Y-69366000D01*
X78691000Y-67286000D02*
X78691000Y-65978000D01*
X78651000Y-70655000D02*
X78651000Y-69366000D01*
X78651000Y-67286000D02*
X78651000Y-65997000D01*
X78611000Y-70636000D02*
X78611000Y-69366000D01*
X78611000Y-67286000D02*
X78611000Y-66016000D01*
X78571000Y-70616000D02*
X78571000Y-69366000D01*
X78571000Y-67286000D02*
X78571000Y-66036000D01*
X78531000Y-70594000D02*
X78531000Y-69366000D01*
X78531000Y-67286000D02*
X78531000Y-66058000D01*
X78491000Y-70573000D02*
X78491000Y-69366000D01*
X78491000Y-67286000D02*
X78491000Y-66079000D01*
X78451000Y-70550000D02*
X78451000Y-69366000D01*
X78451000Y-67286000D02*
X78451000Y-66102000D01*
X78411000Y-70526000D02*
X78411000Y-69366000D01*
X78411000Y-67286000D02*
X78411000Y-66126000D01*
X78371000Y-70501000D02*
X78371000Y-69366000D01*
X78371000Y-67286000D02*
X78371000Y-66151000D01*
X78331000Y-70475000D02*
X78331000Y-69366000D01*
X78331000Y-67286000D02*
X78331000Y-66177000D01*
X78291000Y-70448000D02*
X78291000Y-69366000D01*
X78291000Y-67286000D02*
X78291000Y-66204000D01*
X78251000Y-70421000D02*
X78251000Y-69366000D01*
X78251000Y-67286000D02*
X78251000Y-66231000D01*
X78211000Y-70391000D02*
X78211000Y-69366000D01*
X78211000Y-67286000D02*
X78211000Y-66261000D01*
X78171000Y-70361000D02*
X78171000Y-69366000D01*
X78171000Y-67286000D02*
X78171000Y-66291000D01*
X78131000Y-70330000D02*
X78131000Y-69366000D01*
X78131000Y-67286000D02*
X78131000Y-66322000D01*
X78091000Y-70297000D02*
X78091000Y-69366000D01*
X78091000Y-67286000D02*
X78091000Y-66355000D01*
X78051000Y-70263000D02*
X78051000Y-69366000D01*
X78051000Y-67286000D02*
X78051000Y-66389000D01*
X78011000Y-70227000D02*
X78011000Y-69366000D01*
X78011000Y-67286000D02*
X78011000Y-66425000D01*
X77971000Y-70190000D02*
X77971000Y-69366000D01*
X77971000Y-67286000D02*
X77971000Y-66462000D01*
X77931000Y-70152000D02*
X77931000Y-69366000D01*
X77931000Y-67286000D02*
X77931000Y-66500000D01*
X77891000Y-70111000D02*
X77891000Y-69366000D01*
X77891000Y-67286000D02*
X77891000Y-66541000D01*
X77851000Y-70069000D02*
X77851000Y-69366000D01*
X77851000Y-67286000D02*
X77851000Y-66583000D01*
X77811000Y-70025000D02*
X77811000Y-69366000D01*
X77811000Y-67286000D02*
X77811000Y-66627000D01*
X77771000Y-69979000D02*
X77771000Y-69366000D01*
X77771000Y-67286000D02*
X77771000Y-66673000D01*
X77731000Y-69931000D02*
X77731000Y-66721000D01*
X77691000Y-69880000D02*
X77691000Y-66772000D01*
X77651000Y-69826000D02*
X77651000Y-66826000D01*
X77611000Y-69769000D02*
X77611000Y-66883000D01*
X77571000Y-69709000D02*
X77571000Y-66943000D01*
X77531000Y-69645000D02*
X77531000Y-67007000D01*
X77491000Y-69577000D02*
X77491000Y-67075000D01*
X77451000Y-69504000D02*
X77451000Y-67148000D01*
X77411000Y-69424000D02*
X77411000Y-67228000D01*
X77371000Y-69337000D02*
X77371000Y-67315000D01*
X77331000Y-69241000D02*
X77331000Y-67411000D01*
X77291000Y-69131000D02*
X77291000Y-67521000D01*
X77251000Y-69003000D02*
X77251000Y-67649000D01*
X77211000Y-68844000D02*
X77211000Y-67808000D01*
X77171000Y-68610000D02*
X77171000Y-68042000D01*
X82576775Y-69801000D02*
X82076775Y-69801000D01*
X82326775Y-70051000D02*
X82326775Y-69551000D01*
X123032000Y-67564000D02*
G75*
G03X123032000Y-67564000I-2620000J0D01*
G01*
X120412000Y-66524000D02*
X120412000Y-64984000D01*
X120412000Y-70144000D02*
X120412000Y-68604000D01*
X120372000Y-66524000D02*
X120372000Y-64984000D01*
X120372000Y-70144000D02*
X120372000Y-68604000D01*
X120332000Y-70143000D02*
X120332000Y-68604000D01*
X120332000Y-66524000D02*
X120332000Y-64985000D01*
X120292000Y-70142000D02*
X120292000Y-68604000D01*
X120292000Y-66524000D02*
X120292000Y-64986000D01*
X120252000Y-70140000D02*
X120252000Y-68604000D01*
X120252000Y-66524000D02*
X120252000Y-64988000D01*
X120212000Y-70137000D02*
X120212000Y-68604000D01*
X120212000Y-66524000D02*
X120212000Y-64991000D01*
X120172000Y-70133000D02*
X120172000Y-68604000D01*
X120172000Y-66524000D02*
X120172000Y-64995000D01*
X120132000Y-70129000D02*
X120132000Y-68604000D01*
X120132000Y-66524000D02*
X120132000Y-64999000D01*
X120092000Y-70125000D02*
X120092000Y-68604000D01*
X120092000Y-66524000D02*
X120092000Y-65003000D01*
X120052000Y-70120000D02*
X120052000Y-68604000D01*
X120052000Y-66524000D02*
X120052000Y-65008000D01*
X120012000Y-70114000D02*
X120012000Y-68604000D01*
X120012000Y-66524000D02*
X120012000Y-65014000D01*
X119972000Y-70107000D02*
X119972000Y-68604000D01*
X119972000Y-66524000D02*
X119972000Y-65021000D01*
X119932000Y-70100000D02*
X119932000Y-68604000D01*
X119932000Y-66524000D02*
X119932000Y-65028000D01*
X119892000Y-70092000D02*
X119892000Y-68604000D01*
X119892000Y-66524000D02*
X119892000Y-65036000D01*
X119852000Y-70084000D02*
X119852000Y-68604000D01*
X119852000Y-66524000D02*
X119852000Y-65044000D01*
X119812000Y-70075000D02*
X119812000Y-68604000D01*
X119812000Y-66524000D02*
X119812000Y-65053000D01*
X119772000Y-70065000D02*
X119772000Y-68604000D01*
X119772000Y-66524000D02*
X119772000Y-65063000D01*
X119732000Y-70055000D02*
X119732000Y-68604000D01*
X119732000Y-66524000D02*
X119732000Y-65073000D01*
X119691000Y-70044000D02*
X119691000Y-68604000D01*
X119691000Y-66524000D02*
X119691000Y-65084000D01*
X119651000Y-70032000D02*
X119651000Y-68604000D01*
X119651000Y-66524000D02*
X119651000Y-65096000D01*
X119611000Y-70019000D02*
X119611000Y-68604000D01*
X119611000Y-66524000D02*
X119611000Y-65109000D01*
X119571000Y-70006000D02*
X119571000Y-68604000D01*
X119571000Y-66524000D02*
X119571000Y-65122000D01*
X119531000Y-69992000D02*
X119531000Y-68604000D01*
X119531000Y-66524000D02*
X119531000Y-65136000D01*
X119491000Y-69978000D02*
X119491000Y-68604000D01*
X119491000Y-66524000D02*
X119491000Y-65150000D01*
X119451000Y-69962000D02*
X119451000Y-68604000D01*
X119451000Y-66524000D02*
X119451000Y-65166000D01*
X119411000Y-69946000D02*
X119411000Y-68604000D01*
X119411000Y-66524000D02*
X119411000Y-65182000D01*
X119371000Y-69929000D02*
X119371000Y-68604000D01*
X119371000Y-66524000D02*
X119371000Y-65199000D01*
X119331000Y-69912000D02*
X119331000Y-68604000D01*
X119331000Y-66524000D02*
X119331000Y-65216000D01*
X119291000Y-69893000D02*
X119291000Y-68604000D01*
X119291000Y-66524000D02*
X119291000Y-65235000D01*
X119251000Y-69874000D02*
X119251000Y-68604000D01*
X119251000Y-66524000D02*
X119251000Y-65254000D01*
X119211000Y-69854000D02*
X119211000Y-68604000D01*
X119211000Y-66524000D02*
X119211000Y-65274000D01*
X119171000Y-69832000D02*
X119171000Y-68604000D01*
X119171000Y-66524000D02*
X119171000Y-65296000D01*
X119131000Y-69811000D02*
X119131000Y-68604000D01*
X119131000Y-66524000D02*
X119131000Y-65317000D01*
X119091000Y-69788000D02*
X119091000Y-68604000D01*
X119091000Y-66524000D02*
X119091000Y-65340000D01*
X119051000Y-69764000D02*
X119051000Y-68604000D01*
X119051000Y-66524000D02*
X119051000Y-65364000D01*
X119011000Y-69739000D02*
X119011000Y-68604000D01*
X119011000Y-66524000D02*
X119011000Y-65389000D01*
X118971000Y-69713000D02*
X118971000Y-68604000D01*
X118971000Y-66524000D02*
X118971000Y-65415000D01*
X118931000Y-69686000D02*
X118931000Y-68604000D01*
X118931000Y-66524000D02*
X118931000Y-65442000D01*
X118891000Y-69659000D02*
X118891000Y-68604000D01*
X118891000Y-66524000D02*
X118891000Y-65469000D01*
X118851000Y-69629000D02*
X118851000Y-68604000D01*
X118851000Y-66524000D02*
X118851000Y-65499000D01*
X118811000Y-69599000D02*
X118811000Y-68604000D01*
X118811000Y-66524000D02*
X118811000Y-65529000D01*
X118771000Y-69568000D02*
X118771000Y-68604000D01*
X118771000Y-66524000D02*
X118771000Y-65560000D01*
X118731000Y-69535000D02*
X118731000Y-68604000D01*
X118731000Y-66524000D02*
X118731000Y-65593000D01*
X118691000Y-69501000D02*
X118691000Y-68604000D01*
X118691000Y-66524000D02*
X118691000Y-65627000D01*
X118651000Y-69465000D02*
X118651000Y-68604000D01*
X118651000Y-66524000D02*
X118651000Y-65663000D01*
X118611000Y-69428000D02*
X118611000Y-68604000D01*
X118611000Y-66524000D02*
X118611000Y-65700000D01*
X118571000Y-69390000D02*
X118571000Y-68604000D01*
X118571000Y-66524000D02*
X118571000Y-65738000D01*
X118531000Y-69349000D02*
X118531000Y-68604000D01*
X118531000Y-66524000D02*
X118531000Y-65779000D01*
X118491000Y-69307000D02*
X118491000Y-68604000D01*
X118491000Y-66524000D02*
X118491000Y-65821000D01*
X118451000Y-69263000D02*
X118451000Y-68604000D01*
X118451000Y-66524000D02*
X118451000Y-65865000D01*
X118411000Y-69217000D02*
X118411000Y-68604000D01*
X118411000Y-66524000D02*
X118411000Y-65911000D01*
X118371000Y-69169000D02*
X118371000Y-65959000D01*
X118331000Y-69118000D02*
X118331000Y-66010000D01*
X118291000Y-69064000D02*
X118291000Y-66064000D01*
X118251000Y-69007000D02*
X118251000Y-66121000D01*
X118211000Y-68947000D02*
X118211000Y-66181000D01*
X118171000Y-68883000D02*
X118171000Y-66245000D01*
X118131000Y-68815000D02*
X118131000Y-66313000D01*
X118091000Y-68742000D02*
X118091000Y-66386000D01*
X118051000Y-68662000D02*
X118051000Y-66466000D01*
X118011000Y-68575000D02*
X118011000Y-66553000D01*
X117971000Y-68479000D02*
X117971000Y-66649000D01*
X117931000Y-68369000D02*
X117931000Y-66759000D01*
X117891000Y-68241000D02*
X117891000Y-66887000D01*
X117851000Y-68082000D02*
X117851000Y-67046000D01*
X117811000Y-67848000D02*
X117811000Y-67280000D01*
X123216775Y-69039000D02*
X122716775Y-69039000D01*
X122966775Y-69289000D02*
X122966775Y-68789000D01*
X119952000Y-132588000D02*
G75*
G03X119952000Y-132588000I-2620000J0D01*
G01*
X117332000Y-133628000D02*
X117332000Y-135168000D01*
X117332000Y-130008000D02*
X117332000Y-131548000D01*
X117372000Y-133628000D02*
X117372000Y-135168000D01*
X117372000Y-130008000D02*
X117372000Y-131548000D01*
X117412000Y-130009000D02*
X117412000Y-131548000D01*
X117412000Y-133628000D02*
X117412000Y-135167000D01*
X117452000Y-130010000D02*
X117452000Y-131548000D01*
X117452000Y-133628000D02*
X117452000Y-135166000D01*
X117492000Y-130012000D02*
X117492000Y-131548000D01*
X117492000Y-133628000D02*
X117492000Y-135164000D01*
X117532000Y-130015000D02*
X117532000Y-131548000D01*
X117532000Y-133628000D02*
X117532000Y-135161000D01*
X117572000Y-130019000D02*
X117572000Y-131548000D01*
X117572000Y-133628000D02*
X117572000Y-135157000D01*
X117612000Y-130023000D02*
X117612000Y-131548000D01*
X117612000Y-133628000D02*
X117612000Y-135153000D01*
X117652000Y-130027000D02*
X117652000Y-131548000D01*
X117652000Y-133628000D02*
X117652000Y-135149000D01*
X117692000Y-130032000D02*
X117692000Y-131548000D01*
X117692000Y-133628000D02*
X117692000Y-135144000D01*
X117732000Y-130038000D02*
X117732000Y-131548000D01*
X117732000Y-133628000D02*
X117732000Y-135138000D01*
X117772000Y-130045000D02*
X117772000Y-131548000D01*
X117772000Y-133628000D02*
X117772000Y-135131000D01*
X117812000Y-130052000D02*
X117812000Y-131548000D01*
X117812000Y-133628000D02*
X117812000Y-135124000D01*
X117852000Y-130060000D02*
X117852000Y-131548000D01*
X117852000Y-133628000D02*
X117852000Y-135116000D01*
X117892000Y-130068000D02*
X117892000Y-131548000D01*
X117892000Y-133628000D02*
X117892000Y-135108000D01*
X117932000Y-130077000D02*
X117932000Y-131548000D01*
X117932000Y-133628000D02*
X117932000Y-135099000D01*
X117972000Y-130087000D02*
X117972000Y-131548000D01*
X117972000Y-133628000D02*
X117972000Y-135089000D01*
X118012000Y-130097000D02*
X118012000Y-131548000D01*
X118012000Y-133628000D02*
X118012000Y-135079000D01*
X118053000Y-130108000D02*
X118053000Y-131548000D01*
X118053000Y-133628000D02*
X118053000Y-135068000D01*
X118093000Y-130120000D02*
X118093000Y-131548000D01*
X118093000Y-133628000D02*
X118093000Y-135056000D01*
X118133000Y-130133000D02*
X118133000Y-131548000D01*
X118133000Y-133628000D02*
X118133000Y-135043000D01*
X118173000Y-130146000D02*
X118173000Y-131548000D01*
X118173000Y-133628000D02*
X118173000Y-135030000D01*
X118213000Y-130160000D02*
X118213000Y-131548000D01*
X118213000Y-133628000D02*
X118213000Y-135016000D01*
X118253000Y-130174000D02*
X118253000Y-131548000D01*
X118253000Y-133628000D02*
X118253000Y-135002000D01*
X118293000Y-130190000D02*
X118293000Y-131548000D01*
X118293000Y-133628000D02*
X118293000Y-134986000D01*
X118333000Y-130206000D02*
X118333000Y-131548000D01*
X118333000Y-133628000D02*
X118333000Y-134970000D01*
X118373000Y-130223000D02*
X118373000Y-131548000D01*
X118373000Y-133628000D02*
X118373000Y-134953000D01*
X118413000Y-130240000D02*
X118413000Y-131548000D01*
X118413000Y-133628000D02*
X118413000Y-134936000D01*
X118453000Y-130259000D02*
X118453000Y-131548000D01*
X118453000Y-133628000D02*
X118453000Y-134917000D01*
X118493000Y-130278000D02*
X118493000Y-131548000D01*
X118493000Y-133628000D02*
X118493000Y-134898000D01*
X118533000Y-130298000D02*
X118533000Y-131548000D01*
X118533000Y-133628000D02*
X118533000Y-134878000D01*
X118573000Y-130320000D02*
X118573000Y-131548000D01*
X118573000Y-133628000D02*
X118573000Y-134856000D01*
X118613000Y-130341000D02*
X118613000Y-131548000D01*
X118613000Y-133628000D02*
X118613000Y-134835000D01*
X118653000Y-130364000D02*
X118653000Y-131548000D01*
X118653000Y-133628000D02*
X118653000Y-134812000D01*
X118693000Y-130388000D02*
X118693000Y-131548000D01*
X118693000Y-133628000D02*
X118693000Y-134788000D01*
X118733000Y-130413000D02*
X118733000Y-131548000D01*
X118733000Y-133628000D02*
X118733000Y-134763000D01*
X118773000Y-130439000D02*
X118773000Y-131548000D01*
X118773000Y-133628000D02*
X118773000Y-134737000D01*
X118813000Y-130466000D02*
X118813000Y-131548000D01*
X118813000Y-133628000D02*
X118813000Y-134710000D01*
X118853000Y-130493000D02*
X118853000Y-131548000D01*
X118853000Y-133628000D02*
X118853000Y-134683000D01*
X118893000Y-130523000D02*
X118893000Y-131548000D01*
X118893000Y-133628000D02*
X118893000Y-134653000D01*
X118933000Y-130553000D02*
X118933000Y-131548000D01*
X118933000Y-133628000D02*
X118933000Y-134623000D01*
X118973000Y-130584000D02*
X118973000Y-131548000D01*
X118973000Y-133628000D02*
X118973000Y-134592000D01*
X119013000Y-130617000D02*
X119013000Y-131548000D01*
X119013000Y-133628000D02*
X119013000Y-134559000D01*
X119053000Y-130651000D02*
X119053000Y-131548000D01*
X119053000Y-133628000D02*
X119053000Y-134525000D01*
X119093000Y-130687000D02*
X119093000Y-131548000D01*
X119093000Y-133628000D02*
X119093000Y-134489000D01*
X119133000Y-130724000D02*
X119133000Y-131548000D01*
X119133000Y-133628000D02*
X119133000Y-134452000D01*
X119173000Y-130762000D02*
X119173000Y-131548000D01*
X119173000Y-133628000D02*
X119173000Y-134414000D01*
X119213000Y-130803000D02*
X119213000Y-131548000D01*
X119213000Y-133628000D02*
X119213000Y-134373000D01*
X119253000Y-130845000D02*
X119253000Y-131548000D01*
X119253000Y-133628000D02*
X119253000Y-134331000D01*
X119293000Y-130889000D02*
X119293000Y-131548000D01*
X119293000Y-133628000D02*
X119293000Y-134287000D01*
X119333000Y-130935000D02*
X119333000Y-131548000D01*
X119333000Y-133628000D02*
X119333000Y-134241000D01*
X119373000Y-130983000D02*
X119373000Y-134193000D01*
X119413000Y-131034000D02*
X119413000Y-134142000D01*
X119453000Y-131088000D02*
X119453000Y-134088000D01*
X119493000Y-131145000D02*
X119493000Y-134031000D01*
X119533000Y-131205000D02*
X119533000Y-133971000D01*
X119573000Y-131269000D02*
X119573000Y-133907000D01*
X119613000Y-131337000D02*
X119613000Y-133839000D01*
X119653000Y-131410000D02*
X119653000Y-133766000D01*
X119693000Y-131490000D02*
X119693000Y-133686000D01*
X119733000Y-131577000D02*
X119733000Y-133599000D01*
X119773000Y-131673000D02*
X119773000Y-133503000D01*
X119813000Y-131783000D02*
X119813000Y-133393000D01*
X119853000Y-131911000D02*
X119853000Y-133265000D01*
X119893000Y-132070000D02*
X119893000Y-133106000D01*
X119933000Y-132304000D02*
X119933000Y-132872000D01*
X114527225Y-131113000D02*
X115027225Y-131113000D01*
X114777225Y-130863000D02*
X114777225Y-131363000D01*
X106850000Y-74626000D02*
X106850000Y-67186000D01*
X111590000Y-74626000D02*
X111590000Y-67186000D01*
X106850000Y-74626000D02*
X111590000Y-74626000D01*
X106850000Y-67186000D02*
X111590000Y-67186000D01*
X106850000Y-118060000D02*
X106850000Y-110620000D01*
X111590000Y-118060000D02*
X111590000Y-110620000D01*
X106850000Y-118060000D02*
X111590000Y-118060000D01*
X106850000Y-110620000D02*
X111590000Y-110620000D01*
X134430000Y-139954000D02*
G75*
G03X134430000Y-139954000I-2620000J0D01*
G01*
X131810000Y-140994000D02*
X131810000Y-142534000D01*
X131810000Y-137374000D02*
X131810000Y-138914000D01*
X131850000Y-140994000D02*
X131850000Y-142534000D01*
X131850000Y-137374000D02*
X131850000Y-138914000D01*
X131890000Y-137375000D02*
X131890000Y-138914000D01*
X131890000Y-140994000D02*
X131890000Y-142533000D01*
X131930000Y-137376000D02*
X131930000Y-138914000D01*
X131930000Y-140994000D02*
X131930000Y-142532000D01*
X131970000Y-137378000D02*
X131970000Y-138914000D01*
X131970000Y-140994000D02*
X131970000Y-142530000D01*
X132010000Y-137381000D02*
X132010000Y-138914000D01*
X132010000Y-140994000D02*
X132010000Y-142527000D01*
X132050000Y-137385000D02*
X132050000Y-138914000D01*
X132050000Y-140994000D02*
X132050000Y-142523000D01*
X132090000Y-137389000D02*
X132090000Y-138914000D01*
X132090000Y-140994000D02*
X132090000Y-142519000D01*
X132130000Y-137393000D02*
X132130000Y-138914000D01*
X132130000Y-140994000D02*
X132130000Y-142515000D01*
X132170000Y-137398000D02*
X132170000Y-138914000D01*
X132170000Y-140994000D02*
X132170000Y-142510000D01*
X132210000Y-137404000D02*
X132210000Y-138914000D01*
X132210000Y-140994000D02*
X132210000Y-142504000D01*
X132250000Y-137411000D02*
X132250000Y-138914000D01*
X132250000Y-140994000D02*
X132250000Y-142497000D01*
X132290000Y-137418000D02*
X132290000Y-138914000D01*
X132290000Y-140994000D02*
X132290000Y-142490000D01*
X132330000Y-137426000D02*
X132330000Y-138914000D01*
X132330000Y-140994000D02*
X132330000Y-142482000D01*
X132370000Y-137434000D02*
X132370000Y-138914000D01*
X132370000Y-140994000D02*
X132370000Y-142474000D01*
X132410000Y-137443000D02*
X132410000Y-138914000D01*
X132410000Y-140994000D02*
X132410000Y-142465000D01*
X132450000Y-137453000D02*
X132450000Y-138914000D01*
X132450000Y-140994000D02*
X132450000Y-142455000D01*
X132490000Y-137463000D02*
X132490000Y-138914000D01*
X132490000Y-140994000D02*
X132490000Y-142445000D01*
X132531000Y-137474000D02*
X132531000Y-138914000D01*
X132531000Y-140994000D02*
X132531000Y-142434000D01*
X132571000Y-137486000D02*
X132571000Y-138914000D01*
X132571000Y-140994000D02*
X132571000Y-142422000D01*
X132611000Y-137499000D02*
X132611000Y-138914000D01*
X132611000Y-140994000D02*
X132611000Y-142409000D01*
X132651000Y-137512000D02*
X132651000Y-138914000D01*
X132651000Y-140994000D02*
X132651000Y-142396000D01*
X132691000Y-137526000D02*
X132691000Y-138914000D01*
X132691000Y-140994000D02*
X132691000Y-142382000D01*
X132731000Y-137540000D02*
X132731000Y-138914000D01*
X132731000Y-140994000D02*
X132731000Y-142368000D01*
X132771000Y-137556000D02*
X132771000Y-138914000D01*
X132771000Y-140994000D02*
X132771000Y-142352000D01*
X132811000Y-137572000D02*
X132811000Y-138914000D01*
X132811000Y-140994000D02*
X132811000Y-142336000D01*
X132851000Y-137589000D02*
X132851000Y-138914000D01*
X132851000Y-140994000D02*
X132851000Y-142319000D01*
X132891000Y-137606000D02*
X132891000Y-138914000D01*
X132891000Y-140994000D02*
X132891000Y-142302000D01*
X132931000Y-137625000D02*
X132931000Y-138914000D01*
X132931000Y-140994000D02*
X132931000Y-142283000D01*
X132971000Y-137644000D02*
X132971000Y-138914000D01*
X132971000Y-140994000D02*
X132971000Y-142264000D01*
X133011000Y-137664000D02*
X133011000Y-138914000D01*
X133011000Y-140994000D02*
X133011000Y-142244000D01*
X133051000Y-137686000D02*
X133051000Y-138914000D01*
X133051000Y-140994000D02*
X133051000Y-142222000D01*
X133091000Y-137707000D02*
X133091000Y-138914000D01*
X133091000Y-140994000D02*
X133091000Y-142201000D01*
X133131000Y-137730000D02*
X133131000Y-138914000D01*
X133131000Y-140994000D02*
X133131000Y-142178000D01*
X133171000Y-137754000D02*
X133171000Y-138914000D01*
X133171000Y-140994000D02*
X133171000Y-142154000D01*
X133211000Y-137779000D02*
X133211000Y-138914000D01*
X133211000Y-140994000D02*
X133211000Y-142129000D01*
X133251000Y-137805000D02*
X133251000Y-138914000D01*
X133251000Y-140994000D02*
X133251000Y-142103000D01*
X133291000Y-137832000D02*
X133291000Y-138914000D01*
X133291000Y-140994000D02*
X133291000Y-142076000D01*
X133331000Y-137859000D02*
X133331000Y-138914000D01*
X133331000Y-140994000D02*
X133331000Y-142049000D01*
X133371000Y-137889000D02*
X133371000Y-138914000D01*
X133371000Y-140994000D02*
X133371000Y-142019000D01*
X133411000Y-137919000D02*
X133411000Y-138914000D01*
X133411000Y-140994000D02*
X133411000Y-141989000D01*
X133451000Y-137950000D02*
X133451000Y-138914000D01*
X133451000Y-140994000D02*
X133451000Y-141958000D01*
X133491000Y-137983000D02*
X133491000Y-138914000D01*
X133491000Y-140994000D02*
X133491000Y-141925000D01*
X133531000Y-138017000D02*
X133531000Y-138914000D01*
X133531000Y-140994000D02*
X133531000Y-141891000D01*
X133571000Y-138053000D02*
X133571000Y-138914000D01*
X133571000Y-140994000D02*
X133571000Y-141855000D01*
X133611000Y-138090000D02*
X133611000Y-138914000D01*
X133611000Y-140994000D02*
X133611000Y-141818000D01*
X133651000Y-138128000D02*
X133651000Y-138914000D01*
X133651000Y-140994000D02*
X133651000Y-141780000D01*
X133691000Y-138169000D02*
X133691000Y-138914000D01*
X133691000Y-140994000D02*
X133691000Y-141739000D01*
X133731000Y-138211000D02*
X133731000Y-138914000D01*
X133731000Y-140994000D02*
X133731000Y-141697000D01*
X133771000Y-138255000D02*
X133771000Y-138914000D01*
X133771000Y-140994000D02*
X133771000Y-141653000D01*
X133811000Y-138301000D02*
X133811000Y-138914000D01*
X133811000Y-140994000D02*
X133811000Y-141607000D01*
X133851000Y-138349000D02*
X133851000Y-141559000D01*
X133891000Y-138400000D02*
X133891000Y-141508000D01*
X133931000Y-138454000D02*
X133931000Y-141454000D01*
X133971000Y-138511000D02*
X133971000Y-141397000D01*
X134011000Y-138571000D02*
X134011000Y-141337000D01*
X134051000Y-138635000D02*
X134051000Y-141273000D01*
X134091000Y-138703000D02*
X134091000Y-141205000D01*
X134131000Y-138776000D02*
X134131000Y-141132000D01*
X134171000Y-138856000D02*
X134171000Y-141052000D01*
X134211000Y-138943000D02*
X134211000Y-140965000D01*
X134251000Y-139039000D02*
X134251000Y-140869000D01*
X134291000Y-139149000D02*
X134291000Y-140759000D01*
X134331000Y-139277000D02*
X134331000Y-140631000D01*
X134371000Y-139436000D02*
X134371000Y-140472000D01*
X134411000Y-139670000D02*
X134411000Y-140238000D01*
X129005225Y-138479000D02*
X129505225Y-138479000D01*
X129255225Y-138229000D02*
X129255225Y-138729000D01*
X93302000Y-67106000D02*
X93302000Y-74546000D01*
X88562000Y-67106000D02*
X88562000Y-74546000D01*
X93302000Y-67106000D02*
X88562000Y-67106000D01*
X93302000Y-74546000D02*
X88562000Y-74546000D01*
X93810000Y-110794000D02*
X93810000Y-118234000D01*
X89070000Y-110794000D02*
X89070000Y-118234000D01*
X93810000Y-110794000D02*
X89070000Y-110794000D01*
X93810000Y-118234000D02*
X89070000Y-118234000D01*
X106850000Y-91390000D02*
X106850000Y-83950000D01*
X111590000Y-91390000D02*
X111590000Y-83950000D01*
X106850000Y-91390000D02*
X111590000Y-91390000D01*
X106850000Y-83950000D02*
X111590000Y-83950000D01*
X106850000Y-105868000D02*
X106850000Y-98428000D01*
X111590000Y-105868000D02*
X111590000Y-98428000D01*
X106850000Y-105868000D02*
X111590000Y-105868000D01*
X106850000Y-98428000D02*
X111590000Y-98428000D01*
D17*
X123650476Y-129500380D02*
X123650476Y-130214666D01*
X123602857Y-130357523D01*
X123507619Y-130452761D01*
X123364761Y-130500380D01*
X123269523Y-130500380D01*
X124079047Y-129595619D02*
X124126666Y-129548000D01*
X124221904Y-129500380D01*
X124460000Y-129500380D01*
X124555238Y-129548000D01*
X124602857Y-129595619D01*
X124650476Y-129690857D01*
X124650476Y-129786095D01*
X124602857Y-129928952D01*
X124031428Y-130500380D01*
X124650476Y-130500380D01*
X125555238Y-129500380D02*
X125079047Y-129500380D01*
X125031428Y-129976571D01*
X125079047Y-129928952D01*
X125174285Y-129881333D01*
X125412380Y-129881333D01*
X125507619Y-129928952D01*
X125555238Y-129976571D01*
X125602857Y-130071809D01*
X125602857Y-130309904D01*
X125555238Y-130405142D01*
X125507619Y-130452761D01*
X125412380Y-130500380D01*
X125174285Y-130500380D01*
X125079047Y-130452761D01*
X125031428Y-130405142D01*
X86058476Y-144740380D02*
X86058476Y-145454666D01*
X86010857Y-145597523D01*
X85915619Y-145692761D01*
X85772761Y-145740380D01*
X85677523Y-145740380D01*
X86487047Y-144835619D02*
X86534666Y-144788000D01*
X86629904Y-144740380D01*
X86868000Y-144740380D01*
X86963238Y-144788000D01*
X87010857Y-144835619D01*
X87058476Y-144930857D01*
X87058476Y-145026095D01*
X87010857Y-145168952D01*
X86439428Y-145740380D01*
X87058476Y-145740380D01*
X87391809Y-144740380D02*
X88010857Y-144740380D01*
X87677523Y-145121333D01*
X87820380Y-145121333D01*
X87915619Y-145168952D01*
X87963238Y-145216571D01*
X88010857Y-145311809D01*
X88010857Y-145549904D01*
X87963238Y-145645142D01*
X87915619Y-145692761D01*
X87820380Y-145740380D01*
X87534666Y-145740380D01*
X87439428Y-145692761D01*
X87391809Y-145645142D01*
X138382476Y-144740380D02*
X138382476Y-145454666D01*
X138334857Y-145597523D01*
X138239619Y-145692761D01*
X138096761Y-145740380D01*
X138001523Y-145740380D01*
X138811047Y-144835619D02*
X138858666Y-144788000D01*
X138953904Y-144740380D01*
X139192000Y-144740380D01*
X139287238Y-144788000D01*
X139334857Y-144835619D01*
X139382476Y-144930857D01*
X139382476Y-145026095D01*
X139334857Y-145168952D01*
X138763428Y-145740380D01*
X139382476Y-145740380D01*
X139858666Y-145740380D02*
X140049142Y-145740380D01*
X140144380Y-145692761D01*
X140192000Y-145645142D01*
X140287238Y-145502285D01*
X140334857Y-145311809D01*
X140334857Y-144930857D01*
X140287238Y-144835619D01*
X140239619Y-144788000D01*
X140144380Y-144740380D01*
X139953904Y-144740380D01*
X139858666Y-144788000D01*
X139811047Y-144835619D01*
X139763428Y-144930857D01*
X139763428Y-145168952D01*
X139811047Y-145264190D01*
X139858666Y-145311809D01*
X139953904Y-145359428D01*
X140144380Y-145359428D01*
X140239619Y-145311809D01*
X140287238Y-145264190D01*
X140334857Y-145168952D01*
X116927333Y-136755142D02*
X116879714Y-136802761D01*
X116736857Y-136850380D01*
X116641619Y-136850380D01*
X116498761Y-136802761D01*
X116403523Y-136707523D01*
X116355904Y-136612285D01*
X116308285Y-136421809D01*
X116308285Y-136278952D01*
X116355904Y-136088476D01*
X116403523Y-135993238D01*
X116498761Y-135898000D01*
X116641619Y-135850380D01*
X116736857Y-135850380D01*
X116879714Y-135898000D01*
X116927333Y-135945619D01*
X117260666Y-135850380D02*
X117879714Y-135850380D01*
X117546380Y-136231333D01*
X117689238Y-136231333D01*
X117784476Y-136278952D01*
X117832095Y-136326571D01*
X117879714Y-136421809D01*
X117879714Y-136659904D01*
X117832095Y-136755142D01*
X117784476Y-136802761D01*
X117689238Y-136850380D01*
X117403523Y-136850380D01*
X117308285Y-136802761D01*
X117260666Y-136755142D01*
X143430666Y-82002380D02*
X143430666Y-82716666D01*
X143383047Y-82859523D01*
X143287809Y-82954761D01*
X143144952Y-83002380D01*
X143049714Y-83002380D01*
X143859238Y-82097619D02*
X143906857Y-82050000D01*
X144002095Y-82002380D01*
X144240190Y-82002380D01*
X144335428Y-82050000D01*
X144383047Y-82097619D01*
X144430666Y-82192857D01*
X144430666Y-82288095D01*
X144383047Y-82430952D01*
X143811619Y-83002380D01*
X144430666Y-83002380D01*
X56054666Y-86066380D02*
X56054666Y-86780666D01*
X56007047Y-86923523D01*
X55911809Y-87018761D01*
X55768952Y-87066380D01*
X55673714Y-87066380D01*
X56959428Y-86066380D02*
X56768952Y-86066380D01*
X56673714Y-86114000D01*
X56626095Y-86161619D01*
X56530857Y-86304476D01*
X56483238Y-86494952D01*
X56483238Y-86875904D01*
X56530857Y-86971142D01*
X56578476Y-87018761D01*
X56673714Y-87066380D01*
X56864190Y-87066380D01*
X56959428Y-87018761D01*
X57007047Y-86971142D01*
X57054666Y-86875904D01*
X57054666Y-86637809D01*
X57007047Y-86542571D01*
X56959428Y-86494952D01*
X56864190Y-86447333D01*
X56673714Y-86447333D01*
X56578476Y-86494952D01*
X56530857Y-86542571D01*
X56483238Y-86637809D01*
X56054666Y-107656380D02*
X56054666Y-108370666D01*
X56007047Y-108513523D01*
X55911809Y-108608761D01*
X55768952Y-108656380D01*
X55673714Y-108656380D01*
X57007047Y-107656380D02*
X56530857Y-107656380D01*
X56483238Y-108132571D01*
X56530857Y-108084952D01*
X56626095Y-108037333D01*
X56864190Y-108037333D01*
X56959428Y-108084952D01*
X57007047Y-108132571D01*
X57054666Y-108227809D01*
X57054666Y-108465904D01*
X57007047Y-108561142D01*
X56959428Y-108608761D01*
X56864190Y-108656380D01*
X56626095Y-108656380D01*
X56530857Y-108608761D01*
X56483238Y-108561142D01*
X143430666Y-103536380D02*
X143430666Y-104250666D01*
X143383047Y-104393523D01*
X143287809Y-104488761D01*
X143144952Y-104536380D01*
X143049714Y-104536380D01*
X144430666Y-104536380D02*
X143859238Y-104536380D01*
X144144952Y-104536380D02*
X144144952Y-103536380D01*
X144049714Y-103679238D01*
X143954476Y-103774476D01*
X143859238Y-103822095D01*
X119586476Y-144486380D02*
X119586476Y-145200666D01*
X119538857Y-145343523D01*
X119443619Y-145438761D01*
X119300761Y-145486380D01*
X119205523Y-145486380D01*
X119967428Y-144486380D02*
X120586476Y-144486380D01*
X120253142Y-144867333D01*
X120396000Y-144867333D01*
X120491238Y-144914952D01*
X120538857Y-144962571D01*
X120586476Y-145057809D01*
X120586476Y-145295904D01*
X120538857Y-145391142D01*
X120491238Y-145438761D01*
X120396000Y-145486380D01*
X120110285Y-145486380D01*
X120015047Y-145438761D01*
X119967428Y-145391142D01*
X121538857Y-145486380D02*
X120967428Y-145486380D01*
X121253142Y-145486380D02*
X121253142Y-144486380D01*
X121157904Y-144629238D01*
X121062666Y-144724476D01*
X120967428Y-144772095D01*
X108124666Y-144486380D02*
X108124666Y-145200666D01*
X108077047Y-145343523D01*
X107981809Y-145438761D01*
X107838952Y-145486380D01*
X107743714Y-145486380D01*
X108505619Y-144486380D02*
X109124666Y-144486380D01*
X108791333Y-144867333D01*
X108934190Y-144867333D01*
X109029428Y-144914952D01*
X109077047Y-144962571D01*
X109124666Y-145057809D01*
X109124666Y-145295904D01*
X109077047Y-145391142D01*
X109029428Y-145438761D01*
X108934190Y-145486380D01*
X108648476Y-145486380D01*
X108553238Y-145438761D01*
X108505619Y-145391142D01*
X125174476Y-144486380D02*
X125174476Y-145200666D01*
X125126857Y-145343523D01*
X125031619Y-145438761D01*
X124888761Y-145486380D01*
X124793523Y-145486380D01*
X125555428Y-144486380D02*
X126174476Y-144486380D01*
X125841142Y-144867333D01*
X125984000Y-144867333D01*
X126079238Y-144914952D01*
X126126857Y-144962571D01*
X126174476Y-145057809D01*
X126174476Y-145295904D01*
X126126857Y-145391142D01*
X126079238Y-145438761D01*
X125984000Y-145486380D01*
X125698285Y-145486380D01*
X125603047Y-145438761D01*
X125555428Y-145391142D01*
X126793523Y-144486380D02*
X126888761Y-144486380D01*
X126984000Y-144534000D01*
X127031619Y-144581619D01*
X127079238Y-144676857D01*
X127126857Y-144867333D01*
X127126857Y-145105428D01*
X127079238Y-145295904D01*
X127031619Y-145391142D01*
X126984000Y-145438761D01*
X126888761Y-145486380D01*
X126793523Y-145486380D01*
X126698285Y-145438761D01*
X126650666Y-145391142D01*
X126603047Y-145295904D01*
X126555428Y-145105428D01*
X126555428Y-144867333D01*
X126603047Y-144676857D01*
X126650666Y-144581619D01*
X126698285Y-144534000D01*
X126793523Y-144486380D01*
X137874476Y-142200380D02*
X137874476Y-142914666D01*
X137826857Y-143057523D01*
X137731619Y-143152761D01*
X137588761Y-143200380D01*
X137493523Y-143200380D01*
X138303047Y-142295619D02*
X138350666Y-142248000D01*
X138445904Y-142200380D01*
X138684000Y-142200380D01*
X138779238Y-142248000D01*
X138826857Y-142295619D01*
X138874476Y-142390857D01*
X138874476Y-142486095D01*
X138826857Y-142628952D01*
X138255428Y-143200380D01*
X138874476Y-143200380D01*
X139445904Y-142628952D02*
X139350666Y-142581333D01*
X139303047Y-142533714D01*
X139255428Y-142438476D01*
X139255428Y-142390857D01*
X139303047Y-142295619D01*
X139350666Y-142248000D01*
X139445904Y-142200380D01*
X139636380Y-142200380D01*
X139731619Y-142248000D01*
X139779238Y-142295619D01*
X139826857Y-142390857D01*
X139826857Y-142438476D01*
X139779238Y-142533714D01*
X139731619Y-142581333D01*
X139636380Y-142628952D01*
X139445904Y-142628952D01*
X139350666Y-142676571D01*
X139303047Y-142724190D01*
X139255428Y-142819428D01*
X139255428Y-143009904D01*
X139303047Y-143105142D01*
X139350666Y-143152761D01*
X139445904Y-143200380D01*
X139636380Y-143200380D01*
X139731619Y-143152761D01*
X139779238Y-143105142D01*
X139826857Y-143009904D01*
X139826857Y-142819428D01*
X139779238Y-142724190D01*
X139731619Y-142676571D01*
X139636380Y-142628952D01*
X77422476Y-144486380D02*
X77422476Y-145200666D01*
X77374857Y-145343523D01*
X77279619Y-145438761D01*
X77136761Y-145486380D01*
X77041523Y-145486380D01*
X77851047Y-144581619D02*
X77898666Y-144534000D01*
X77993904Y-144486380D01*
X78232000Y-144486380D01*
X78327238Y-144534000D01*
X78374857Y-144581619D01*
X78422476Y-144676857D01*
X78422476Y-144772095D01*
X78374857Y-144914952D01*
X77803428Y-145486380D01*
X78422476Y-145486380D01*
X78755809Y-144486380D02*
X79422476Y-144486380D01*
X78993904Y-145486380D01*
X70818476Y-144486380D02*
X70818476Y-145200666D01*
X70770857Y-145343523D01*
X70675619Y-145438761D01*
X70532761Y-145486380D01*
X70437523Y-145486380D01*
X71247047Y-144581619D02*
X71294666Y-144534000D01*
X71389904Y-144486380D01*
X71628000Y-144486380D01*
X71723238Y-144534000D01*
X71770857Y-144581619D01*
X71818476Y-144676857D01*
X71818476Y-144772095D01*
X71770857Y-144914952D01*
X71199428Y-145486380D01*
X71818476Y-145486380D01*
X72675619Y-144486380D02*
X72485142Y-144486380D01*
X72389904Y-144534000D01*
X72342285Y-144581619D01*
X72247047Y-144724476D01*
X72199428Y-144914952D01*
X72199428Y-145295904D01*
X72247047Y-145391142D01*
X72294666Y-145438761D01*
X72389904Y-145486380D01*
X72580380Y-145486380D01*
X72675619Y-145438761D01*
X72723238Y-145391142D01*
X72770857Y-145295904D01*
X72770857Y-145057809D01*
X72723238Y-144962571D01*
X72675619Y-144914952D01*
X72580380Y-144867333D01*
X72389904Y-144867333D01*
X72294666Y-144914952D01*
X72247047Y-144962571D01*
X72199428Y-145057809D01*
X125154714Y-54286142D02*
X125107095Y-54333761D01*
X124964238Y-54381380D01*
X124869000Y-54381380D01*
X124726142Y-54333761D01*
X124630904Y-54238523D01*
X124583285Y-54143285D01*
X124535666Y-53952809D01*
X124535666Y-53809952D01*
X124583285Y-53619476D01*
X124630904Y-53524238D01*
X124726142Y-53429000D01*
X124869000Y-53381380D01*
X124964238Y-53381380D01*
X125107095Y-53429000D01*
X125154714Y-53476619D01*
X125583285Y-54381380D02*
X125583285Y-53381380D01*
X125583285Y-53857571D02*
X126154714Y-53857571D01*
X126154714Y-54381380D02*
X126154714Y-53381380D01*
X126583285Y-53476619D02*
X126630904Y-53429000D01*
X126726142Y-53381380D01*
X126964238Y-53381380D01*
X127059476Y-53429000D01*
X127107095Y-53476619D01*
X127154714Y-53571857D01*
X127154714Y-53667095D01*
X127107095Y-53809952D01*
X126535666Y-54381380D01*
X127154714Y-54381380D01*
X128202333Y-53381380D02*
X128535666Y-54381380D01*
X128869000Y-53381380D01*
X129345190Y-54381380D02*
X129249952Y-54333761D01*
X129202333Y-54286142D01*
X129154714Y-54190904D01*
X129154714Y-53905190D01*
X129202333Y-53809952D01*
X129249952Y-53762333D01*
X129345190Y-53714714D01*
X129488047Y-53714714D01*
X129583285Y-53762333D01*
X129630904Y-53809952D01*
X129678523Y-53905190D01*
X129678523Y-54190904D01*
X129630904Y-54286142D01*
X129583285Y-54333761D01*
X129488047Y-54381380D01*
X129345190Y-54381380D01*
X130249952Y-54381380D02*
X130154714Y-54333761D01*
X130107095Y-54238523D01*
X130107095Y-53381380D01*
X70290714Y-54540142D02*
X70243095Y-54587761D01*
X70100238Y-54635380D01*
X70005000Y-54635380D01*
X69862142Y-54587761D01*
X69766904Y-54492523D01*
X69719285Y-54397285D01*
X69671666Y-54206809D01*
X69671666Y-54063952D01*
X69719285Y-53873476D01*
X69766904Y-53778238D01*
X69862142Y-53683000D01*
X70005000Y-53635380D01*
X70100238Y-53635380D01*
X70243095Y-53683000D01*
X70290714Y-53730619D01*
X70719285Y-54635380D02*
X70719285Y-53635380D01*
X70719285Y-54111571D02*
X71290714Y-54111571D01*
X71290714Y-54635380D02*
X71290714Y-53635380D01*
X72290714Y-54635380D02*
X71719285Y-54635380D01*
X72005000Y-54635380D02*
X72005000Y-53635380D01*
X71909761Y-53778238D01*
X71814523Y-53873476D01*
X71719285Y-53921095D01*
X73338333Y-53635380D02*
X73671666Y-54635380D01*
X74005000Y-53635380D01*
X74481190Y-54635380D02*
X74385952Y-54587761D01*
X74338333Y-54540142D01*
X74290714Y-54444904D01*
X74290714Y-54159190D01*
X74338333Y-54063952D01*
X74385952Y-54016333D01*
X74481190Y-53968714D01*
X74624047Y-53968714D01*
X74719285Y-54016333D01*
X74766904Y-54063952D01*
X74814523Y-54159190D01*
X74814523Y-54444904D01*
X74766904Y-54540142D01*
X74719285Y-54587761D01*
X74624047Y-54635380D01*
X74481190Y-54635380D01*
X75385952Y-54635380D02*
X75290714Y-54587761D01*
X75243095Y-54492523D01*
X75243095Y-53635380D01*
X136084714Y-54286142D02*
X136037095Y-54333761D01*
X135894238Y-54381380D01*
X135799000Y-54381380D01*
X135656142Y-54333761D01*
X135560904Y-54238523D01*
X135513285Y-54143285D01*
X135465666Y-53952809D01*
X135465666Y-53809952D01*
X135513285Y-53619476D01*
X135560904Y-53524238D01*
X135656142Y-53429000D01*
X135799000Y-53381380D01*
X135894238Y-53381380D01*
X136037095Y-53429000D01*
X136084714Y-53476619D01*
X136513285Y-54381380D02*
X136513285Y-53381380D01*
X136513285Y-53857571D02*
X137084714Y-53857571D01*
X137084714Y-54381380D02*
X137084714Y-53381380D01*
X137513285Y-53476619D02*
X137560904Y-53429000D01*
X137656142Y-53381380D01*
X137894238Y-53381380D01*
X137989476Y-53429000D01*
X138037095Y-53476619D01*
X138084714Y-53571857D01*
X138084714Y-53667095D01*
X138037095Y-53809952D01*
X137465666Y-54381380D01*
X138084714Y-54381380D01*
X139799000Y-53429000D02*
X139703761Y-53381380D01*
X139560904Y-53381380D01*
X139418047Y-53429000D01*
X139322809Y-53524238D01*
X139275190Y-53619476D01*
X139227571Y-53809952D01*
X139227571Y-53952809D01*
X139275190Y-54143285D01*
X139322809Y-54238523D01*
X139418047Y-54333761D01*
X139560904Y-54381380D01*
X139656142Y-54381380D01*
X139799000Y-54333761D01*
X139846619Y-54286142D01*
X139846619Y-53952809D01*
X139656142Y-53952809D01*
X140703761Y-54381380D02*
X140703761Y-53857571D01*
X140656142Y-53762333D01*
X140560904Y-53714714D01*
X140370428Y-53714714D01*
X140275190Y-53762333D01*
X140703761Y-54333761D02*
X140608523Y-54381380D01*
X140370428Y-54381380D01*
X140275190Y-54333761D01*
X140227571Y-54238523D01*
X140227571Y-54143285D01*
X140275190Y-54048047D01*
X140370428Y-54000428D01*
X140608523Y-54000428D01*
X140703761Y-53952809D01*
X141179952Y-54381380D02*
X141179952Y-53714714D01*
X141179952Y-53381380D02*
X141132333Y-53429000D01*
X141179952Y-53476619D01*
X141227571Y-53429000D01*
X141179952Y-53381380D01*
X141179952Y-53476619D01*
X141656142Y-53714714D02*
X141656142Y-54381380D01*
X141656142Y-53809952D02*
X141703761Y-53762333D01*
X141799000Y-53714714D01*
X141941857Y-53714714D01*
X142037095Y-53762333D01*
X142084714Y-53857571D01*
X142084714Y-54381380D01*
X59376714Y-54540142D02*
X59329095Y-54587761D01*
X59186238Y-54635380D01*
X59091000Y-54635380D01*
X58948142Y-54587761D01*
X58852904Y-54492523D01*
X58805285Y-54397285D01*
X58757666Y-54206809D01*
X58757666Y-54063952D01*
X58805285Y-53873476D01*
X58852904Y-53778238D01*
X58948142Y-53683000D01*
X59091000Y-53635380D01*
X59186238Y-53635380D01*
X59329095Y-53683000D01*
X59376714Y-53730619D01*
X59805285Y-54635380D02*
X59805285Y-53635380D01*
X59805285Y-54111571D02*
X60376714Y-54111571D01*
X60376714Y-54635380D02*
X60376714Y-53635380D01*
X61376714Y-54635380D02*
X60805285Y-54635380D01*
X61091000Y-54635380D02*
X61091000Y-53635380D01*
X60995761Y-53778238D01*
X60900523Y-53873476D01*
X60805285Y-53921095D01*
X63091000Y-53683000D02*
X62995761Y-53635380D01*
X62852904Y-53635380D01*
X62710047Y-53683000D01*
X62614809Y-53778238D01*
X62567190Y-53873476D01*
X62519571Y-54063952D01*
X62519571Y-54206809D01*
X62567190Y-54397285D01*
X62614809Y-54492523D01*
X62710047Y-54587761D01*
X62852904Y-54635380D01*
X62948142Y-54635380D01*
X63091000Y-54587761D01*
X63138619Y-54540142D01*
X63138619Y-54206809D01*
X62948142Y-54206809D01*
X63995761Y-54635380D02*
X63995761Y-54111571D01*
X63948142Y-54016333D01*
X63852904Y-53968714D01*
X63662428Y-53968714D01*
X63567190Y-54016333D01*
X63995761Y-54587761D02*
X63900523Y-54635380D01*
X63662428Y-54635380D01*
X63567190Y-54587761D01*
X63519571Y-54492523D01*
X63519571Y-54397285D01*
X63567190Y-54302047D01*
X63662428Y-54254428D01*
X63900523Y-54254428D01*
X63995761Y-54206809D01*
X64471952Y-54635380D02*
X64471952Y-53968714D01*
X64471952Y-53635380D02*
X64424333Y-53683000D01*
X64471952Y-53730619D01*
X64519571Y-53683000D01*
X64471952Y-53635380D01*
X64471952Y-53730619D01*
X64948142Y-53968714D02*
X64948142Y-54635380D01*
X64948142Y-54063952D02*
X64995761Y-54016333D01*
X65091000Y-53968714D01*
X65233857Y-53968714D01*
X65329095Y-54016333D01*
X65376714Y-54111571D01*
X65376714Y-54635380D01*
X135159904Y-66254380D02*
X135159904Y-67063904D01*
X135207523Y-67159142D01*
X135255142Y-67206761D01*
X135350380Y-67254380D01*
X135540857Y-67254380D01*
X135636095Y-67206761D01*
X135683714Y-67159142D01*
X135731333Y-67063904D01*
X135731333Y-66254380D01*
X136731333Y-67254380D02*
X136159904Y-67254380D01*
X136445619Y-67254380D02*
X136445619Y-66254380D01*
X136350380Y-66397238D01*
X136255142Y-66492476D01*
X136159904Y-66540095D01*
X137064666Y-66254380D02*
X137683714Y-66254380D01*
X137350380Y-66635333D01*
X137493238Y-66635333D01*
X137588476Y-66682952D01*
X137636095Y-66730571D01*
X137683714Y-66825809D01*
X137683714Y-67063904D01*
X137636095Y-67159142D01*
X137588476Y-67206761D01*
X137493238Y-67254380D01*
X137207523Y-67254380D01*
X137112285Y-67206761D01*
X137064666Y-67159142D01*
X62007904Y-66508380D02*
X62007904Y-67317904D01*
X62055523Y-67413142D01*
X62103142Y-67460761D01*
X62198380Y-67508380D01*
X62388857Y-67508380D01*
X62484095Y-67460761D01*
X62531714Y-67413142D01*
X62579333Y-67317904D01*
X62579333Y-66508380D01*
X63579333Y-67508380D02*
X63007904Y-67508380D01*
X63293619Y-67508380D02*
X63293619Y-66508380D01*
X63198380Y-66651238D01*
X63103142Y-66746476D01*
X63007904Y-66794095D01*
X63960285Y-66603619D02*
X64007904Y-66556000D01*
X64103142Y-66508380D01*
X64341238Y-66508380D01*
X64436476Y-66556000D01*
X64484095Y-66603619D01*
X64531714Y-66698857D01*
X64531714Y-66794095D01*
X64484095Y-66936952D01*
X63912666Y-67508380D01*
X64531714Y-67508380D01*
X82835904Y-125182380D02*
X82835904Y-125991904D01*
X82883523Y-126087142D01*
X82931142Y-126134761D01*
X83026380Y-126182380D01*
X83216857Y-126182380D01*
X83312095Y-126134761D01*
X83359714Y-126087142D01*
X83407333Y-125991904D01*
X83407333Y-125182380D01*
X84407333Y-126182380D02*
X83835904Y-126182380D01*
X84121619Y-126182380D02*
X84121619Y-125182380D01*
X84026380Y-125325238D01*
X83931142Y-125420476D01*
X83835904Y-125468095D01*
X85359714Y-126182380D02*
X84788285Y-126182380D01*
X85074000Y-126182380D02*
X85074000Y-125182380D01*
X84978761Y-125325238D01*
X84883523Y-125420476D01*
X84788285Y-125468095D01*
X70612095Y-119086380D02*
X70612095Y-119895904D01*
X70659714Y-119991142D01*
X70707333Y-120038761D01*
X70802571Y-120086380D01*
X70993047Y-120086380D01*
X71088285Y-120038761D01*
X71135904Y-119991142D01*
X71183523Y-119895904D01*
X71183523Y-119086380D01*
X71707333Y-120086380D02*
X71897809Y-120086380D01*
X71993047Y-120038761D01*
X72040666Y-119991142D01*
X72135904Y-119848285D01*
X72183523Y-119657809D01*
X72183523Y-119276857D01*
X72135904Y-119181619D01*
X72088285Y-119134000D01*
X71993047Y-119086380D01*
X71802571Y-119086380D01*
X71707333Y-119134000D01*
X71659714Y-119181619D01*
X71612095Y-119276857D01*
X71612095Y-119514952D01*
X71659714Y-119610190D01*
X71707333Y-119657809D01*
X71802571Y-119705428D01*
X71993047Y-119705428D01*
X72088285Y-119657809D01*
X72135904Y-119610190D01*
X72183523Y-119514952D01*
X63144095Y-119086380D02*
X63144095Y-119895904D01*
X63191714Y-119991142D01*
X63239333Y-120038761D01*
X63334571Y-120086380D01*
X63525047Y-120086380D01*
X63620285Y-120038761D01*
X63667904Y-119991142D01*
X63715523Y-119895904D01*
X63715523Y-119086380D01*
X64334571Y-119514952D02*
X64239333Y-119467333D01*
X64191714Y-119419714D01*
X64144095Y-119324476D01*
X64144095Y-119276857D01*
X64191714Y-119181619D01*
X64239333Y-119134000D01*
X64334571Y-119086380D01*
X64525047Y-119086380D01*
X64620285Y-119134000D01*
X64667904Y-119181619D01*
X64715523Y-119276857D01*
X64715523Y-119324476D01*
X64667904Y-119419714D01*
X64620285Y-119467333D01*
X64525047Y-119514952D01*
X64334571Y-119514952D01*
X64239333Y-119562571D01*
X64191714Y-119610190D01*
X64144095Y-119705428D01*
X64144095Y-119895904D01*
X64191714Y-119991142D01*
X64239333Y-120038761D01*
X64334571Y-120086380D01*
X64525047Y-120086380D01*
X64620285Y-120038761D01*
X64667904Y-119991142D01*
X64715523Y-119895904D01*
X64715523Y-119705428D01*
X64667904Y-119610190D01*
X64620285Y-119562571D01*
X64525047Y-119514952D01*
X55626095Y-119086380D02*
X55626095Y-119895904D01*
X55673714Y-119991142D01*
X55721333Y-120038761D01*
X55816571Y-120086380D01*
X56007047Y-120086380D01*
X56102285Y-120038761D01*
X56149904Y-119991142D01*
X56197523Y-119895904D01*
X56197523Y-119086380D01*
X56578476Y-119086380D02*
X57245142Y-119086380D01*
X56816571Y-120086380D01*
X123698095Y-134834380D02*
X123698095Y-135643904D01*
X123745714Y-135739142D01*
X123793333Y-135786761D01*
X123888571Y-135834380D01*
X124079047Y-135834380D01*
X124174285Y-135786761D01*
X124221904Y-135739142D01*
X124269523Y-135643904D01*
X124269523Y-134834380D01*
X125174285Y-134834380D02*
X124983809Y-134834380D01*
X124888571Y-134882000D01*
X124840952Y-134929619D01*
X124745714Y-135072476D01*
X124698095Y-135262952D01*
X124698095Y-135643904D01*
X124745714Y-135739142D01*
X124793333Y-135786761D01*
X124888571Y-135834380D01*
X125079047Y-135834380D01*
X125174285Y-135786761D01*
X125221904Y-135739142D01*
X125269523Y-135643904D01*
X125269523Y-135405809D01*
X125221904Y-135310571D01*
X125174285Y-135262952D01*
X125079047Y-135215333D01*
X124888571Y-135215333D01*
X124793333Y-135262952D01*
X124745714Y-135310571D01*
X124698095Y-135405809D01*
X91051142Y-132532380D02*
X90717809Y-132056190D01*
X90479714Y-132532380D02*
X90479714Y-131532380D01*
X90860666Y-131532380D01*
X90955904Y-131580000D01*
X91003523Y-131627619D01*
X91051142Y-131722857D01*
X91051142Y-131865714D01*
X91003523Y-131960952D01*
X90955904Y-132008571D01*
X90860666Y-132056190D01*
X90479714Y-132056190D01*
X92003523Y-132532380D02*
X91432095Y-132532380D01*
X91717809Y-132532380D02*
X91717809Y-131532380D01*
X91622571Y-131675238D01*
X91527333Y-131770476D01*
X91432095Y-131818095D01*
X92860666Y-131532380D02*
X92670190Y-131532380D01*
X92574952Y-131580000D01*
X92527333Y-131627619D01*
X92432095Y-131770476D01*
X92384476Y-131960952D01*
X92384476Y-132341904D01*
X92432095Y-132437142D01*
X92479714Y-132484761D01*
X92574952Y-132532380D01*
X92765428Y-132532380D01*
X92860666Y-132484761D01*
X92908285Y-132437142D01*
X92955904Y-132341904D01*
X92955904Y-132103809D01*
X92908285Y-132008571D01*
X92860666Y-131960952D01*
X92765428Y-131913333D01*
X92574952Y-131913333D01*
X92479714Y-131960952D01*
X92432095Y-132008571D01*
X92384476Y-132103809D01*
X107561142Y-132532380D02*
X107227809Y-132056190D01*
X106989714Y-132532380D02*
X106989714Y-131532380D01*
X107370666Y-131532380D01*
X107465904Y-131580000D01*
X107513523Y-131627619D01*
X107561142Y-131722857D01*
X107561142Y-131865714D01*
X107513523Y-131960952D01*
X107465904Y-132008571D01*
X107370666Y-132056190D01*
X106989714Y-132056190D01*
X108513523Y-132532380D02*
X107942095Y-132532380D01*
X108227809Y-132532380D02*
X108227809Y-131532380D01*
X108132571Y-131675238D01*
X108037333Y-131770476D01*
X107942095Y-131818095D01*
X109418285Y-131532380D02*
X108942095Y-131532380D01*
X108894476Y-132008571D01*
X108942095Y-131960952D01*
X109037333Y-131913333D01*
X109275428Y-131913333D01*
X109370666Y-131960952D01*
X109418285Y-132008571D01*
X109465904Y-132103809D01*
X109465904Y-132341904D01*
X109418285Y-132437142D01*
X109370666Y-132484761D01*
X109275428Y-132532380D01*
X109037333Y-132532380D01*
X108942095Y-132484761D01*
X108894476Y-132437142D01*
X111371142Y-132532380D02*
X111037809Y-132056190D01*
X110799714Y-132532380D02*
X110799714Y-131532380D01*
X111180666Y-131532380D01*
X111275904Y-131580000D01*
X111323523Y-131627619D01*
X111371142Y-131722857D01*
X111371142Y-131865714D01*
X111323523Y-131960952D01*
X111275904Y-132008571D01*
X111180666Y-132056190D01*
X110799714Y-132056190D01*
X112323523Y-132532380D02*
X111752095Y-132532380D01*
X112037809Y-132532380D02*
X112037809Y-131532380D01*
X111942571Y-131675238D01*
X111847333Y-131770476D01*
X111752095Y-131818095D01*
X113180666Y-131865714D02*
X113180666Y-132532380D01*
X112942571Y-131484761D02*
X112704476Y-132199047D01*
X113323523Y-132199047D01*
X94532380Y-128246095D02*
X93532380Y-128246095D01*
X94532380Y-127674666D02*
X93960952Y-128103238D01*
X93532380Y-127674666D02*
X94103809Y-128246095D01*
X94532380Y-126722285D02*
X94532380Y-127293714D01*
X94532380Y-127008000D02*
X93532380Y-127008000D01*
X93675238Y-127103238D01*
X93770476Y-127198476D01*
X93818095Y-127293714D01*
X111434666Y-124928380D02*
X111434666Y-125642666D01*
X111387047Y-125785523D01*
X111291809Y-125880761D01*
X111148952Y-125928380D01*
X111053714Y-125928380D01*
X111910857Y-125928380D02*
X111910857Y-124928380D01*
X112291809Y-124928380D01*
X112387047Y-124976000D01*
X112434666Y-125023619D01*
X112482285Y-125118857D01*
X112482285Y-125261714D01*
X112434666Y-125356952D01*
X112387047Y-125404571D01*
X112291809Y-125452190D01*
X111910857Y-125452190D01*
X112863238Y-125023619D02*
X112910857Y-124976000D01*
X113006095Y-124928380D01*
X113244190Y-124928380D01*
X113339428Y-124976000D01*
X113387047Y-125023619D01*
X113434666Y-125118857D01*
X113434666Y-125214095D01*
X113387047Y-125356952D01*
X112815619Y-125928380D01*
X113434666Y-125928380D01*
X88178666Y-125182380D02*
X88178666Y-125896666D01*
X88131047Y-126039523D01*
X88035809Y-126134761D01*
X87892952Y-126182380D01*
X87797714Y-126182380D01*
X88654857Y-126182380D02*
X88654857Y-125182380D01*
X89035809Y-125182380D01*
X89131047Y-125230000D01*
X89178666Y-125277619D01*
X89226285Y-125372857D01*
X89226285Y-125515714D01*
X89178666Y-125610952D01*
X89131047Y-125658571D01*
X89035809Y-125706190D01*
X88654857Y-125706190D01*
X90178666Y-126182380D02*
X89607238Y-126182380D01*
X89892952Y-126182380D02*
X89892952Y-125182380D01*
X89797714Y-125325238D01*
X89702476Y-125420476D01*
X89607238Y-125468095D01*
X131524476Y-144486380D02*
X131524476Y-145200666D01*
X131476857Y-145343523D01*
X131381619Y-145438761D01*
X131238761Y-145486380D01*
X131143523Y-145486380D01*
X131953047Y-144581619D02*
X132000666Y-144534000D01*
X132095904Y-144486380D01*
X132334000Y-144486380D01*
X132429238Y-144534000D01*
X132476857Y-144581619D01*
X132524476Y-144676857D01*
X132524476Y-144772095D01*
X132476857Y-144914952D01*
X131905428Y-145486380D01*
X132524476Y-145486380D01*
X133381619Y-144819714D02*
X133381619Y-145486380D01*
X133143523Y-144438761D02*
X132905428Y-145153047D01*
X133524476Y-145153047D01*
X146510476Y-65956380D02*
X146510476Y-66670666D01*
X146462857Y-66813523D01*
X146367619Y-66908761D01*
X146224761Y-66956380D01*
X146129523Y-66956380D01*
X146939047Y-66051619D02*
X146986666Y-66004000D01*
X147081904Y-65956380D01*
X147320000Y-65956380D01*
X147415238Y-66004000D01*
X147462857Y-66051619D01*
X147510476Y-66146857D01*
X147510476Y-66242095D01*
X147462857Y-66384952D01*
X146891428Y-66956380D01*
X147510476Y-66956380D01*
X147891428Y-66051619D02*
X147939047Y-66004000D01*
X148034285Y-65956380D01*
X148272380Y-65956380D01*
X148367619Y-66004000D01*
X148415238Y-66051619D01*
X148462857Y-66146857D01*
X148462857Y-66242095D01*
X148415238Y-66384952D01*
X147843809Y-66956380D01*
X148462857Y-66956380D01*
X52530476Y-66254380D02*
X52530476Y-66968666D01*
X52482857Y-67111523D01*
X52387619Y-67206761D01*
X52244761Y-67254380D01*
X52149523Y-67254380D01*
X52959047Y-66349619D02*
X53006666Y-66302000D01*
X53101904Y-66254380D01*
X53340000Y-66254380D01*
X53435238Y-66302000D01*
X53482857Y-66349619D01*
X53530476Y-66444857D01*
X53530476Y-66540095D01*
X53482857Y-66682952D01*
X52911428Y-67254380D01*
X53530476Y-67254380D01*
X54482857Y-67254380D02*
X53911428Y-67254380D01*
X54197142Y-67254380D02*
X54197142Y-66254380D01*
X54101904Y-66397238D01*
X54006666Y-66492476D01*
X53911428Y-66540095D01*
X64468476Y-144486380D02*
X64468476Y-145200666D01*
X64420857Y-145343523D01*
X64325619Y-145438761D01*
X64182761Y-145486380D01*
X64087523Y-145486380D01*
X64897047Y-144581619D02*
X64944666Y-144534000D01*
X65039904Y-144486380D01*
X65278000Y-144486380D01*
X65373238Y-144534000D01*
X65420857Y-144581619D01*
X65468476Y-144676857D01*
X65468476Y-144772095D01*
X65420857Y-144914952D01*
X64849428Y-145486380D01*
X65468476Y-145486380D01*
X66087523Y-144486380D02*
X66182761Y-144486380D01*
X66278000Y-144534000D01*
X66325619Y-144581619D01*
X66373238Y-144676857D01*
X66420857Y-144867333D01*
X66420857Y-145105428D01*
X66373238Y-145295904D01*
X66325619Y-145391142D01*
X66278000Y-145438761D01*
X66182761Y-145486380D01*
X66087523Y-145486380D01*
X65992285Y-145438761D01*
X65944666Y-145391142D01*
X65897047Y-145295904D01*
X65849428Y-145105428D01*
X65849428Y-144867333D01*
X65897047Y-144676857D01*
X65944666Y-144581619D01*
X65992285Y-144534000D01*
X66087523Y-144486380D01*
X58118476Y-144486380D02*
X58118476Y-145200666D01*
X58070857Y-145343523D01*
X57975619Y-145438761D01*
X57832761Y-145486380D01*
X57737523Y-145486380D01*
X59118476Y-145486380D02*
X58547047Y-145486380D01*
X58832761Y-145486380D02*
X58832761Y-144486380D01*
X58737523Y-144629238D01*
X58642285Y-144724476D01*
X58547047Y-144772095D01*
X59594666Y-145486380D02*
X59785142Y-145486380D01*
X59880380Y-145438761D01*
X59928000Y-145391142D01*
X60023238Y-145248285D01*
X60070857Y-145057809D01*
X60070857Y-144676857D01*
X60023238Y-144581619D01*
X59975619Y-144534000D01*
X59880380Y-144486380D01*
X59689904Y-144486380D01*
X59594666Y-144534000D01*
X59547047Y-144581619D01*
X59499428Y-144676857D01*
X59499428Y-144914952D01*
X59547047Y-145010190D01*
X59594666Y-145057809D01*
X59689904Y-145105428D01*
X59880380Y-145105428D01*
X59975619Y-145057809D01*
X60023238Y-145010190D01*
X60070857Y-144914952D01*
X86058476Y-130262380D02*
X86058476Y-130976666D01*
X86010857Y-131119523D01*
X85915619Y-131214761D01*
X85772761Y-131262380D01*
X85677523Y-131262380D01*
X87058476Y-131262380D02*
X86487047Y-131262380D01*
X86772761Y-131262380D02*
X86772761Y-130262380D01*
X86677523Y-130405238D01*
X86582285Y-130500476D01*
X86487047Y-130548095D01*
X87629904Y-130690952D02*
X87534666Y-130643333D01*
X87487047Y-130595714D01*
X87439428Y-130500476D01*
X87439428Y-130452857D01*
X87487047Y-130357619D01*
X87534666Y-130310000D01*
X87629904Y-130262380D01*
X87820380Y-130262380D01*
X87915619Y-130310000D01*
X87963238Y-130357619D01*
X88010857Y-130452857D01*
X88010857Y-130500476D01*
X87963238Y-130595714D01*
X87915619Y-130643333D01*
X87820380Y-130690952D01*
X87629904Y-130690952D01*
X87534666Y-130738571D01*
X87487047Y-130786190D01*
X87439428Y-130881428D01*
X87439428Y-131071904D01*
X87487047Y-131167142D01*
X87534666Y-131214761D01*
X87629904Y-131262380D01*
X87820380Y-131262380D01*
X87915619Y-131214761D01*
X87963238Y-131167142D01*
X88010857Y-131071904D01*
X88010857Y-130881428D01*
X87963238Y-130786190D01*
X87915619Y-130738571D01*
X87820380Y-130690952D01*
X83264476Y-130218380D02*
X83264476Y-130932666D01*
X83216857Y-131075523D01*
X83121619Y-131170761D01*
X82978761Y-131218380D01*
X82883523Y-131218380D01*
X84264476Y-131218380D02*
X83693047Y-131218380D01*
X83978761Y-131218380D02*
X83978761Y-130218380D01*
X83883523Y-130361238D01*
X83788285Y-130456476D01*
X83693047Y-130504095D01*
X84597809Y-130218380D02*
X85264476Y-130218380D01*
X84835904Y-131218380D01*
X80470476Y-130218380D02*
X80470476Y-130932666D01*
X80422857Y-131075523D01*
X80327619Y-131170761D01*
X80184761Y-131218380D01*
X80089523Y-131218380D01*
X81470476Y-131218380D02*
X80899047Y-131218380D01*
X81184761Y-131218380D02*
X81184761Y-130218380D01*
X81089523Y-130361238D01*
X80994285Y-130456476D01*
X80899047Y-130504095D01*
X82327619Y-130218380D02*
X82137142Y-130218380D01*
X82041904Y-130266000D01*
X81994285Y-130313619D01*
X81899047Y-130456476D01*
X81851428Y-130646952D01*
X81851428Y-131027904D01*
X81899047Y-131123142D01*
X81946666Y-131170761D01*
X82041904Y-131218380D01*
X82232380Y-131218380D01*
X82327619Y-131170761D01*
X82375238Y-131123142D01*
X82422857Y-131027904D01*
X82422857Y-130789809D01*
X82375238Y-130694571D01*
X82327619Y-130646952D01*
X82232380Y-130599333D01*
X82041904Y-130599333D01*
X81946666Y-130646952D01*
X81899047Y-130694571D01*
X81851428Y-130789809D01*
X77676476Y-130218380D02*
X77676476Y-130932666D01*
X77628857Y-131075523D01*
X77533619Y-131170761D01*
X77390761Y-131218380D01*
X77295523Y-131218380D01*
X78676476Y-131218380D02*
X78105047Y-131218380D01*
X78390761Y-131218380D02*
X78390761Y-130218380D01*
X78295523Y-130361238D01*
X78200285Y-130456476D01*
X78105047Y-130504095D01*
X79581238Y-130218380D02*
X79105047Y-130218380D01*
X79057428Y-130694571D01*
X79105047Y-130646952D01*
X79200285Y-130599333D01*
X79438380Y-130599333D01*
X79533619Y-130646952D01*
X79581238Y-130694571D01*
X79628857Y-130789809D01*
X79628857Y-131027904D01*
X79581238Y-131123142D01*
X79533619Y-131170761D01*
X79438380Y-131218380D01*
X79200285Y-131218380D01*
X79105047Y-131170761D01*
X79057428Y-131123142D01*
X114220666Y-144486380D02*
X114220666Y-145200666D01*
X114173047Y-145343523D01*
X114077809Y-145438761D01*
X113934952Y-145486380D01*
X113839714Y-145486380D01*
X115125428Y-144819714D02*
X115125428Y-145486380D01*
X114887333Y-144438761D02*
X114649238Y-145153047D01*
X115268285Y-145153047D01*
X98837904Y-136402380D02*
X98837904Y-137211904D01*
X98885523Y-137307142D01*
X98933142Y-137354761D01*
X99028380Y-137402380D01*
X99218857Y-137402380D01*
X99314095Y-137354761D01*
X99361714Y-137307142D01*
X99409333Y-137211904D01*
X99409333Y-136402380D01*
X100409333Y-137402380D02*
X99837904Y-137402380D01*
X100123619Y-137402380D02*
X100123619Y-136402380D01*
X100028380Y-136545238D01*
X99933142Y-136640476D01*
X99837904Y-136688095D01*
X101028380Y-136402380D02*
X101123619Y-136402380D01*
X101218857Y-136450000D01*
X101266476Y-136497619D01*
X101314095Y-136592857D01*
X101361714Y-136783333D01*
X101361714Y-137021428D01*
X101314095Y-137211904D01*
X101266476Y-137307142D01*
X101218857Y-137354761D01*
X101123619Y-137402380D01*
X101028380Y-137402380D01*
X100933142Y-137354761D01*
X100885523Y-137307142D01*
X100837904Y-137211904D01*
X100790285Y-137021428D01*
X100790285Y-136783333D01*
X100837904Y-136592857D01*
X100885523Y-136497619D01*
X100933142Y-136450000D01*
X101028380Y-136402380D01*
X99314095Y-52284380D02*
X99314095Y-53093904D01*
X99361714Y-53189142D01*
X99409333Y-53236761D01*
X99504571Y-53284380D01*
X99695047Y-53284380D01*
X99790285Y-53236761D01*
X99837904Y-53189142D01*
X99885523Y-53093904D01*
X99885523Y-52284380D01*
X100837904Y-52284380D02*
X100361714Y-52284380D01*
X100314095Y-52760571D01*
X100361714Y-52712952D01*
X100456952Y-52665333D01*
X100695047Y-52665333D01*
X100790285Y-52712952D01*
X100837904Y-52760571D01*
X100885523Y-52855809D01*
X100885523Y-53093904D01*
X100837904Y-53189142D01*
X100790285Y-53236761D01*
X100695047Y-53284380D01*
X100456952Y-53284380D01*
X100361714Y-53236761D01*
X100314095Y-53189142D01*
X99314095Y-66560380D02*
X99314095Y-67369904D01*
X99361714Y-67465142D01*
X99409333Y-67512761D01*
X99504571Y-67560380D01*
X99695047Y-67560380D01*
X99790285Y-67512761D01*
X99837904Y-67465142D01*
X99885523Y-67369904D01*
X99885523Y-66560380D01*
X100790285Y-66893714D02*
X100790285Y-67560380D01*
X100552190Y-66512761D02*
X100314095Y-67227047D01*
X100933142Y-67227047D01*
X99314095Y-109986380D02*
X99314095Y-110795904D01*
X99361714Y-110891142D01*
X99409333Y-110938761D01*
X99504571Y-110986380D01*
X99695047Y-110986380D01*
X99790285Y-110938761D01*
X99837904Y-110891142D01*
X99885523Y-110795904D01*
X99885523Y-109986380D01*
X100266476Y-109986380D02*
X100885523Y-109986380D01*
X100552190Y-110367333D01*
X100695047Y-110367333D01*
X100790285Y-110414952D01*
X100837904Y-110462571D01*
X100885523Y-110557809D01*
X100885523Y-110795904D01*
X100837904Y-110891142D01*
X100790285Y-110938761D01*
X100695047Y-110986380D01*
X100409333Y-110986380D01*
X100314095Y-110938761D01*
X100266476Y-110891142D01*
X99314095Y-81170780D02*
X99314095Y-81980304D01*
X99361714Y-82075542D01*
X99409333Y-82123161D01*
X99504571Y-82170780D01*
X99695047Y-82170780D01*
X99790285Y-82123161D01*
X99837904Y-82075542D01*
X99885523Y-81980304D01*
X99885523Y-81170780D01*
X100314095Y-81266019D02*
X100361714Y-81218400D01*
X100456952Y-81170780D01*
X100695047Y-81170780D01*
X100790285Y-81218400D01*
X100837904Y-81266019D01*
X100885523Y-81361257D01*
X100885523Y-81456495D01*
X100837904Y-81599352D01*
X100266476Y-82170780D01*
X100885523Y-82170780D01*
X99314095Y-95601980D02*
X99314095Y-96411504D01*
X99361714Y-96506742D01*
X99409333Y-96554361D01*
X99504571Y-96601980D01*
X99695047Y-96601980D01*
X99790285Y-96554361D01*
X99837904Y-96506742D01*
X99885523Y-96411504D01*
X99885523Y-95601980D01*
X100885523Y-96601980D02*
X100314095Y-96601980D01*
X100599809Y-96601980D02*
X100599809Y-95601980D01*
X100504571Y-95744838D01*
X100409333Y-95840076D01*
X100314095Y-95887695D01*
X84955142Y-82240380D02*
X84621809Y-81764190D01*
X84383714Y-82240380D02*
X84383714Y-81240380D01*
X84764666Y-81240380D01*
X84859904Y-81288000D01*
X84907523Y-81335619D01*
X84955142Y-81430857D01*
X84955142Y-81573714D01*
X84907523Y-81668952D01*
X84859904Y-81716571D01*
X84764666Y-81764190D01*
X84383714Y-81764190D01*
X85907523Y-82240380D02*
X85336095Y-82240380D01*
X85621809Y-82240380D02*
X85621809Y-81240380D01*
X85526571Y-81383238D01*
X85431333Y-81478476D01*
X85336095Y-81526095D01*
X86240857Y-81240380D02*
X86859904Y-81240380D01*
X86526571Y-81621333D01*
X86669428Y-81621333D01*
X86764666Y-81668952D01*
X86812285Y-81716571D01*
X86859904Y-81811809D01*
X86859904Y-82049904D01*
X86812285Y-82145142D01*
X86764666Y-82192761D01*
X86669428Y-82240380D01*
X86383714Y-82240380D01*
X86288476Y-82192761D01*
X86240857Y-82145142D01*
X84955142Y-96972380D02*
X84621809Y-96496190D01*
X84383714Y-96972380D02*
X84383714Y-95972380D01*
X84764666Y-95972380D01*
X84859904Y-96020000D01*
X84907523Y-96067619D01*
X84955142Y-96162857D01*
X84955142Y-96305714D01*
X84907523Y-96400952D01*
X84859904Y-96448571D01*
X84764666Y-96496190D01*
X84383714Y-96496190D01*
X85907523Y-96972380D02*
X85336095Y-96972380D01*
X85621809Y-96972380D02*
X85621809Y-95972380D01*
X85526571Y-96115238D01*
X85431333Y-96210476D01*
X85336095Y-96258095D01*
X86288476Y-96067619D02*
X86336095Y-96020000D01*
X86431333Y-95972380D01*
X86669428Y-95972380D01*
X86764666Y-96020000D01*
X86812285Y-96067619D01*
X86859904Y-96162857D01*
X86859904Y-96258095D01*
X86812285Y-96400952D01*
X86240857Y-96972380D01*
X86859904Y-96972380D01*
X83685142Y-53284380D02*
X83351809Y-52808190D01*
X83113714Y-53284380D02*
X83113714Y-52284380D01*
X83494666Y-52284380D01*
X83589904Y-52332000D01*
X83637523Y-52379619D01*
X83685142Y-52474857D01*
X83685142Y-52617714D01*
X83637523Y-52712952D01*
X83589904Y-52760571D01*
X83494666Y-52808190D01*
X83113714Y-52808190D01*
X84637523Y-53284380D02*
X84066095Y-53284380D01*
X84351809Y-53284380D02*
X84351809Y-52284380D01*
X84256571Y-52427238D01*
X84161333Y-52522476D01*
X84066095Y-52570095D01*
X85589904Y-53284380D02*
X85018476Y-53284380D01*
X85304190Y-53284380D02*
X85304190Y-52284380D01*
X85208952Y-52427238D01*
X85113714Y-52522476D01*
X85018476Y-52570095D01*
X87749142Y-53284380D02*
X87415809Y-52808190D01*
X87177714Y-53284380D02*
X87177714Y-52284380D01*
X87558666Y-52284380D01*
X87653904Y-52332000D01*
X87701523Y-52379619D01*
X87749142Y-52474857D01*
X87749142Y-52617714D01*
X87701523Y-52712952D01*
X87653904Y-52760571D01*
X87558666Y-52808190D01*
X87177714Y-52808190D01*
X88701523Y-53284380D02*
X88130095Y-53284380D01*
X88415809Y-53284380D02*
X88415809Y-52284380D01*
X88320571Y-52427238D01*
X88225333Y-52522476D01*
X88130095Y-52570095D01*
X89320571Y-52284380D02*
X89415809Y-52284380D01*
X89511047Y-52332000D01*
X89558666Y-52379619D01*
X89606285Y-52474857D01*
X89653904Y-52665333D01*
X89653904Y-52903428D01*
X89606285Y-53093904D01*
X89558666Y-53189142D01*
X89511047Y-53236761D01*
X89415809Y-53284380D01*
X89320571Y-53284380D01*
X89225333Y-53236761D01*
X89177714Y-53189142D01*
X89130095Y-53093904D01*
X89082476Y-52903428D01*
X89082476Y-52665333D01*
X89130095Y-52474857D01*
X89177714Y-52379619D01*
X89225333Y-52332000D01*
X89320571Y-52284380D01*
X92289333Y-53284380D02*
X91956000Y-52808190D01*
X91717904Y-53284380D02*
X91717904Y-52284380D01*
X92098857Y-52284380D01*
X92194095Y-52332000D01*
X92241714Y-52379619D01*
X92289333Y-52474857D01*
X92289333Y-52617714D01*
X92241714Y-52712952D01*
X92194095Y-52760571D01*
X92098857Y-52808190D01*
X91717904Y-52808190D01*
X92765523Y-53284380D02*
X92956000Y-53284380D01*
X93051238Y-53236761D01*
X93098857Y-53189142D01*
X93194095Y-53046285D01*
X93241714Y-52855809D01*
X93241714Y-52474857D01*
X93194095Y-52379619D01*
X93146476Y-52332000D01*
X93051238Y-52284380D01*
X92860761Y-52284380D01*
X92765523Y-52332000D01*
X92717904Y-52379619D01*
X92670285Y-52474857D01*
X92670285Y-52712952D01*
X92717904Y-52808190D01*
X92765523Y-52855809D01*
X92860761Y-52903428D01*
X93051238Y-52903428D01*
X93146476Y-52855809D01*
X93194095Y-52808190D01*
X93241714Y-52712952D01*
X114387333Y-53538380D02*
X114054000Y-53062190D01*
X113815904Y-53538380D02*
X113815904Y-52538380D01*
X114196857Y-52538380D01*
X114292095Y-52586000D01*
X114339714Y-52633619D01*
X114387333Y-52728857D01*
X114387333Y-52871714D01*
X114339714Y-52966952D01*
X114292095Y-53014571D01*
X114196857Y-53062190D01*
X113815904Y-53062190D01*
X114958761Y-52966952D02*
X114863523Y-52919333D01*
X114815904Y-52871714D01*
X114768285Y-52776476D01*
X114768285Y-52728857D01*
X114815904Y-52633619D01*
X114863523Y-52586000D01*
X114958761Y-52538380D01*
X115149238Y-52538380D01*
X115244476Y-52586000D01*
X115292095Y-52633619D01*
X115339714Y-52728857D01*
X115339714Y-52776476D01*
X115292095Y-52871714D01*
X115244476Y-52919333D01*
X115149238Y-52966952D01*
X114958761Y-52966952D01*
X114863523Y-53014571D01*
X114815904Y-53062190D01*
X114768285Y-53157428D01*
X114768285Y-53347904D01*
X114815904Y-53443142D01*
X114863523Y-53490761D01*
X114958761Y-53538380D01*
X115149238Y-53538380D01*
X115244476Y-53490761D01*
X115292095Y-53443142D01*
X115339714Y-53347904D01*
X115339714Y-53157428D01*
X115292095Y-53062190D01*
X115244476Y-53014571D01*
X115149238Y-52966952D01*
X85685333Y-68016380D02*
X85352000Y-67540190D01*
X85113904Y-68016380D02*
X85113904Y-67016380D01*
X85494857Y-67016380D01*
X85590095Y-67064000D01*
X85637714Y-67111619D01*
X85685333Y-67206857D01*
X85685333Y-67349714D01*
X85637714Y-67444952D01*
X85590095Y-67492571D01*
X85494857Y-67540190D01*
X85113904Y-67540190D01*
X86018666Y-67016380D02*
X86685333Y-67016380D01*
X86256761Y-68016380D01*
X85939333Y-111196380D02*
X85606000Y-110720190D01*
X85367904Y-111196380D02*
X85367904Y-110196380D01*
X85748857Y-110196380D01*
X85844095Y-110244000D01*
X85891714Y-110291619D01*
X85939333Y-110386857D01*
X85939333Y-110529714D01*
X85891714Y-110624952D01*
X85844095Y-110672571D01*
X85748857Y-110720190D01*
X85367904Y-110720190D01*
X86796476Y-110196380D02*
X86606000Y-110196380D01*
X86510761Y-110244000D01*
X86463142Y-110291619D01*
X86367904Y-110434476D01*
X86320285Y-110624952D01*
X86320285Y-111005904D01*
X86367904Y-111101142D01*
X86415523Y-111148761D01*
X86510761Y-111196380D01*
X86701238Y-111196380D01*
X86796476Y-111148761D01*
X86844095Y-111101142D01*
X86891714Y-111005904D01*
X86891714Y-110767809D01*
X86844095Y-110672571D01*
X86796476Y-110624952D01*
X86701238Y-110577333D01*
X86510761Y-110577333D01*
X86415523Y-110624952D01*
X86367904Y-110672571D01*
X86320285Y-110767809D01*
X117943333Y-53538380D02*
X117610000Y-53062190D01*
X117371904Y-53538380D02*
X117371904Y-52538380D01*
X117752857Y-52538380D01*
X117848095Y-52586000D01*
X117895714Y-52633619D01*
X117943333Y-52728857D01*
X117943333Y-52871714D01*
X117895714Y-52966952D01*
X117848095Y-53014571D01*
X117752857Y-53062190D01*
X117371904Y-53062190D01*
X118848095Y-52538380D02*
X118371904Y-52538380D01*
X118324285Y-53014571D01*
X118371904Y-52966952D01*
X118467142Y-52919333D01*
X118705238Y-52919333D01*
X118800476Y-52966952D01*
X118848095Y-53014571D01*
X118895714Y-53109809D01*
X118895714Y-53347904D01*
X118848095Y-53443142D01*
X118800476Y-53490761D01*
X118705238Y-53538380D01*
X118467142Y-53538380D01*
X118371904Y-53490761D01*
X118324285Y-53443142D01*
X114133333Y-68016380D02*
X113800000Y-67540190D01*
X113561904Y-68016380D02*
X113561904Y-67016380D01*
X113942857Y-67016380D01*
X114038095Y-67064000D01*
X114085714Y-67111619D01*
X114133333Y-67206857D01*
X114133333Y-67349714D01*
X114085714Y-67444952D01*
X114038095Y-67492571D01*
X113942857Y-67540190D01*
X113561904Y-67540190D01*
X114990476Y-67349714D02*
X114990476Y-68016380D01*
X114752380Y-66968761D02*
X114514285Y-67683047D01*
X115133333Y-67683047D01*
X114387333Y-111704380D02*
X114054000Y-111228190D01*
X113815904Y-111704380D02*
X113815904Y-110704380D01*
X114196857Y-110704380D01*
X114292095Y-110752000D01*
X114339714Y-110799619D01*
X114387333Y-110894857D01*
X114387333Y-111037714D01*
X114339714Y-111132952D01*
X114292095Y-111180571D01*
X114196857Y-111228190D01*
X113815904Y-111228190D01*
X114720666Y-110704380D02*
X115339714Y-110704380D01*
X115006380Y-111085333D01*
X115149238Y-111085333D01*
X115244476Y-111132952D01*
X115292095Y-111180571D01*
X115339714Y-111275809D01*
X115339714Y-111513904D01*
X115292095Y-111609142D01*
X115244476Y-111656761D01*
X115149238Y-111704380D01*
X114863523Y-111704380D01*
X114768285Y-111656761D01*
X114720666Y-111609142D01*
X114641333Y-82494380D02*
X114308000Y-82018190D01*
X114069904Y-82494380D02*
X114069904Y-81494380D01*
X114450857Y-81494380D01*
X114546095Y-81542000D01*
X114593714Y-81589619D01*
X114641333Y-81684857D01*
X114641333Y-81827714D01*
X114593714Y-81922952D01*
X114546095Y-81970571D01*
X114450857Y-82018190D01*
X114069904Y-82018190D01*
X115022285Y-81589619D02*
X115069904Y-81542000D01*
X115165142Y-81494380D01*
X115403238Y-81494380D01*
X115498476Y-81542000D01*
X115546095Y-81589619D01*
X115593714Y-81684857D01*
X115593714Y-81780095D01*
X115546095Y-81922952D01*
X114974666Y-82494380D01*
X115593714Y-82494380D01*
X114641333Y-96718380D02*
X114308000Y-96242190D01*
X114069904Y-96718380D02*
X114069904Y-95718380D01*
X114450857Y-95718380D01*
X114546095Y-95766000D01*
X114593714Y-95813619D01*
X114641333Y-95908857D01*
X114641333Y-96051714D01*
X114593714Y-96146952D01*
X114546095Y-96194571D01*
X114450857Y-96242190D01*
X114069904Y-96242190D01*
X115593714Y-96718380D02*
X115022285Y-96718380D01*
X115308000Y-96718380D02*
X115308000Y-95718380D01*
X115212761Y-95861238D01*
X115117523Y-95956476D01*
X115022285Y-96004095D01*
X108616761Y-125769619D02*
X108521523Y-125722000D01*
X108426285Y-125626761D01*
X108283428Y-125483904D01*
X108188190Y-125436285D01*
X108092952Y-125436285D01*
X108140571Y-125674380D02*
X108045333Y-125626761D01*
X107950095Y-125531523D01*
X107902476Y-125341047D01*
X107902476Y-125007714D01*
X107950095Y-124817238D01*
X108045333Y-124722000D01*
X108140571Y-124674380D01*
X108331047Y-124674380D01*
X108426285Y-124722000D01*
X108521523Y-124817238D01*
X108569142Y-125007714D01*
X108569142Y-125341047D01*
X108521523Y-125531523D01*
X108426285Y-125626761D01*
X108331047Y-125674380D01*
X108140571Y-125674380D01*
X108950095Y-124769619D02*
X108997714Y-124722000D01*
X109092952Y-124674380D01*
X109331047Y-124674380D01*
X109426285Y-124722000D01*
X109473904Y-124769619D01*
X109521523Y-124864857D01*
X109521523Y-124960095D01*
X109473904Y-125102952D01*
X108902476Y-125674380D01*
X109521523Y-125674380D01*
X131476761Y-130595619D02*
X131381523Y-130548000D01*
X131286285Y-130452761D01*
X131143428Y-130309904D01*
X131048190Y-130262285D01*
X130952952Y-130262285D01*
X131000571Y-130500380D02*
X130905333Y-130452761D01*
X130810095Y-130357523D01*
X130762476Y-130167047D01*
X130762476Y-129833714D01*
X130810095Y-129643238D01*
X130905333Y-129548000D01*
X131000571Y-129500380D01*
X131191047Y-129500380D01*
X131286285Y-129548000D01*
X131381523Y-129643238D01*
X131429142Y-129833714D01*
X131429142Y-130167047D01*
X131381523Y-130357523D01*
X131286285Y-130452761D01*
X131191047Y-130500380D01*
X131000571Y-130500380D01*
X132381523Y-130500380D02*
X131810095Y-130500380D01*
X132095809Y-130500380D02*
X132095809Y-129500380D01*
X132000571Y-129643238D01*
X131905333Y-129738476D01*
X131810095Y-129786095D01*
X99337904Y-132444380D02*
X99337904Y-131444380D01*
X99576000Y-131444380D01*
X99718857Y-131492000D01*
X99814095Y-131587238D01*
X99861714Y-131682476D01*
X99909333Y-131872952D01*
X99909333Y-132015809D01*
X99861714Y-132206285D01*
X99814095Y-132301523D01*
X99718857Y-132396761D01*
X99576000Y-132444380D01*
X99337904Y-132444380D01*
X100814095Y-131444380D02*
X100337904Y-131444380D01*
X100290285Y-131920571D01*
X100337904Y-131872952D01*
X100433142Y-131825333D01*
X100671238Y-131825333D01*
X100766476Y-131872952D01*
X100814095Y-131920571D01*
X100861714Y-132015809D01*
X100861714Y-132253904D01*
X100814095Y-132349142D01*
X100766476Y-132396761D01*
X100671238Y-132444380D01*
X100433142Y-132444380D01*
X100337904Y-132396761D01*
X100290285Y-132349142D01*
X80033904Y-53284380D02*
X80033904Y-52284380D01*
X80272000Y-52284380D01*
X80414857Y-52332000D01*
X80510095Y-52427238D01*
X80557714Y-52522476D01*
X80605333Y-52712952D01*
X80605333Y-52855809D01*
X80557714Y-53046285D01*
X80510095Y-53141523D01*
X80414857Y-53236761D01*
X80272000Y-53284380D01*
X80033904Y-53284380D01*
X81462476Y-52617714D02*
X81462476Y-53284380D01*
X81224380Y-52236761D02*
X80986285Y-52951047D01*
X81605333Y-52951047D01*
X106703904Y-53538380D02*
X106703904Y-52538380D01*
X106942000Y-52538380D01*
X107084857Y-52586000D01*
X107180095Y-52681238D01*
X107227714Y-52776476D01*
X107275333Y-52966952D01*
X107275333Y-53109809D01*
X107227714Y-53300285D01*
X107180095Y-53395523D01*
X107084857Y-53490761D01*
X106942000Y-53538380D01*
X106703904Y-53538380D01*
X107608666Y-52538380D02*
X108227714Y-52538380D01*
X107894380Y-52919333D01*
X108037238Y-52919333D01*
X108132476Y-52966952D01*
X108180095Y-53014571D01*
X108227714Y-53109809D01*
X108227714Y-53347904D01*
X108180095Y-53443142D01*
X108132476Y-53490761D01*
X108037238Y-53538380D01*
X107751523Y-53538380D01*
X107656285Y-53490761D01*
X107608666Y-53443142D01*
X110259904Y-53538380D02*
X110259904Y-52538380D01*
X110498000Y-52538380D01*
X110640857Y-52586000D01*
X110736095Y-52681238D01*
X110783714Y-52776476D01*
X110831333Y-52966952D01*
X110831333Y-53109809D01*
X110783714Y-53300285D01*
X110736095Y-53395523D01*
X110640857Y-53490761D01*
X110498000Y-53538380D01*
X110259904Y-53538380D01*
X111212285Y-52633619D02*
X111259904Y-52586000D01*
X111355142Y-52538380D01*
X111593238Y-52538380D01*
X111688476Y-52586000D01*
X111736095Y-52633619D01*
X111783714Y-52728857D01*
X111783714Y-52824095D01*
X111736095Y-52966952D01*
X111164666Y-53538380D01*
X111783714Y-53538380D01*
X148026380Y-118594095D02*
X147026380Y-118594095D01*
X147026380Y-118356000D01*
X147074000Y-118213142D01*
X147169238Y-118117904D01*
X147264476Y-118070285D01*
X147454952Y-118022666D01*
X147597809Y-118022666D01*
X147788285Y-118070285D01*
X147883523Y-118117904D01*
X147978761Y-118213142D01*
X148026380Y-118356000D01*
X148026380Y-118594095D01*
X148026380Y-117070285D02*
X148026380Y-117641714D01*
X148026380Y-117356000D02*
X147026380Y-117356000D01*
X147169238Y-117451238D01*
X147264476Y-117546476D01*
X147312095Y-117641714D01*
X90543142Y-83161142D02*
X90495523Y-83208761D01*
X90352666Y-83256380D01*
X90257428Y-83256380D01*
X90114571Y-83208761D01*
X90019333Y-83113523D01*
X89971714Y-83018285D01*
X89924095Y-82827809D01*
X89924095Y-82684952D01*
X89971714Y-82494476D01*
X90019333Y-82399238D01*
X90114571Y-82304000D01*
X90257428Y-82256380D01*
X90352666Y-82256380D01*
X90495523Y-82304000D01*
X90543142Y-82351619D01*
X91495523Y-83256380D02*
X90924095Y-83256380D01*
X91209809Y-83256380D02*
X91209809Y-82256380D01*
X91114571Y-82399238D01*
X91019333Y-82494476D01*
X90924095Y-82542095D01*
X91828857Y-82256380D02*
X92447904Y-82256380D01*
X92114571Y-82637333D01*
X92257428Y-82637333D01*
X92352666Y-82684952D01*
X92400285Y-82732571D01*
X92447904Y-82827809D01*
X92447904Y-83065904D01*
X92400285Y-83161142D01*
X92352666Y-83208761D01*
X92257428Y-83256380D01*
X91971714Y-83256380D01*
X91876476Y-83208761D01*
X91828857Y-83161142D01*
X90543142Y-97893142D02*
X90495523Y-97940761D01*
X90352666Y-97988380D01*
X90257428Y-97988380D01*
X90114571Y-97940761D01*
X90019333Y-97845523D01*
X89971714Y-97750285D01*
X89924095Y-97559809D01*
X89924095Y-97416952D01*
X89971714Y-97226476D01*
X90019333Y-97131238D01*
X90114571Y-97036000D01*
X90257428Y-96988380D01*
X90352666Y-96988380D01*
X90495523Y-97036000D01*
X90543142Y-97083619D01*
X91495523Y-97988380D02*
X90924095Y-97988380D01*
X91209809Y-97988380D02*
X91209809Y-96988380D01*
X91114571Y-97131238D01*
X91019333Y-97226476D01*
X90924095Y-97274095D01*
X91876476Y-97083619D02*
X91924095Y-97036000D01*
X92019333Y-96988380D01*
X92257428Y-96988380D01*
X92352666Y-97036000D01*
X92400285Y-97083619D01*
X92447904Y-97178857D01*
X92447904Y-97274095D01*
X92400285Y-97416952D01*
X91828857Y-97988380D01*
X92447904Y-97988380D01*
X79113142Y-65127142D02*
X79065523Y-65174761D01*
X78922666Y-65222380D01*
X78827428Y-65222380D01*
X78684571Y-65174761D01*
X78589333Y-65079523D01*
X78541714Y-64984285D01*
X78494095Y-64793809D01*
X78494095Y-64650952D01*
X78541714Y-64460476D01*
X78589333Y-64365238D01*
X78684571Y-64270000D01*
X78827428Y-64222380D01*
X78922666Y-64222380D01*
X79065523Y-64270000D01*
X79113142Y-64317619D01*
X80065523Y-65222380D02*
X79494095Y-65222380D01*
X79779809Y-65222380D02*
X79779809Y-64222380D01*
X79684571Y-64365238D01*
X79589333Y-64460476D01*
X79494095Y-64508095D01*
X81017904Y-65222380D02*
X80446476Y-65222380D01*
X80732190Y-65222380D02*
X80732190Y-64222380D01*
X80636952Y-64365238D01*
X80541714Y-64460476D01*
X80446476Y-64508095D01*
X119499142Y-64619142D02*
X119451523Y-64666761D01*
X119308666Y-64714380D01*
X119213428Y-64714380D01*
X119070571Y-64666761D01*
X118975333Y-64571523D01*
X118927714Y-64476285D01*
X118880095Y-64285809D01*
X118880095Y-64142952D01*
X118927714Y-63952476D01*
X118975333Y-63857238D01*
X119070571Y-63762000D01*
X119213428Y-63714380D01*
X119308666Y-63714380D01*
X119451523Y-63762000D01*
X119499142Y-63809619D01*
X120451523Y-64714380D02*
X119880095Y-64714380D01*
X120165809Y-64714380D02*
X120165809Y-63714380D01*
X120070571Y-63857238D01*
X119975333Y-63952476D01*
X119880095Y-64000095D01*
X121070571Y-63714380D02*
X121165809Y-63714380D01*
X121261047Y-63762000D01*
X121308666Y-63809619D01*
X121356285Y-63904857D01*
X121403904Y-64095333D01*
X121403904Y-64333428D01*
X121356285Y-64523904D01*
X121308666Y-64619142D01*
X121261047Y-64666761D01*
X121165809Y-64714380D01*
X121070571Y-64714380D01*
X120975333Y-64666761D01*
X120927714Y-64619142D01*
X120880095Y-64523904D01*
X120832476Y-64333428D01*
X120832476Y-64095333D01*
X120880095Y-63904857D01*
X120927714Y-63809619D01*
X120975333Y-63762000D01*
X121070571Y-63714380D01*
X116927333Y-129389142D02*
X116879714Y-129436761D01*
X116736857Y-129484380D01*
X116641619Y-129484380D01*
X116498761Y-129436761D01*
X116403523Y-129341523D01*
X116355904Y-129246285D01*
X116308285Y-129055809D01*
X116308285Y-128912952D01*
X116355904Y-128722476D01*
X116403523Y-128627238D01*
X116498761Y-128532000D01*
X116641619Y-128484380D01*
X116736857Y-128484380D01*
X116879714Y-128532000D01*
X116927333Y-128579619D01*
X117403523Y-129484380D02*
X117594000Y-129484380D01*
X117689238Y-129436761D01*
X117736857Y-129389142D01*
X117832095Y-129246285D01*
X117879714Y-129055809D01*
X117879714Y-128674857D01*
X117832095Y-128579619D01*
X117784476Y-128532000D01*
X117689238Y-128484380D01*
X117498761Y-128484380D01*
X117403523Y-128532000D01*
X117355904Y-128579619D01*
X117308285Y-128674857D01*
X117308285Y-128912952D01*
X117355904Y-129008190D01*
X117403523Y-129055809D01*
X117498761Y-129103428D01*
X117689238Y-129103428D01*
X117784476Y-129055809D01*
X117832095Y-129008190D01*
X117879714Y-128912952D01*
X109053333Y-66397142D02*
X109005714Y-66444761D01*
X108862857Y-66492380D01*
X108767619Y-66492380D01*
X108624761Y-66444761D01*
X108529523Y-66349523D01*
X108481904Y-66254285D01*
X108434285Y-66063809D01*
X108434285Y-65920952D01*
X108481904Y-65730476D01*
X108529523Y-65635238D01*
X108624761Y-65540000D01*
X108767619Y-65492380D01*
X108862857Y-65492380D01*
X109005714Y-65540000D01*
X109053333Y-65587619D01*
X109624761Y-65920952D02*
X109529523Y-65873333D01*
X109481904Y-65825714D01*
X109434285Y-65730476D01*
X109434285Y-65682857D01*
X109481904Y-65587619D01*
X109529523Y-65540000D01*
X109624761Y-65492380D01*
X109815238Y-65492380D01*
X109910476Y-65540000D01*
X109958095Y-65587619D01*
X110005714Y-65682857D01*
X110005714Y-65730476D01*
X109958095Y-65825714D01*
X109910476Y-65873333D01*
X109815238Y-65920952D01*
X109624761Y-65920952D01*
X109529523Y-65968571D01*
X109481904Y-66016190D01*
X109434285Y-66111428D01*
X109434285Y-66301904D01*
X109481904Y-66397142D01*
X109529523Y-66444761D01*
X109624761Y-66492380D01*
X109815238Y-66492380D01*
X109910476Y-66444761D01*
X109958095Y-66397142D01*
X110005714Y-66301904D01*
X110005714Y-66111428D01*
X109958095Y-66016190D01*
X109910476Y-65968571D01*
X109815238Y-65920952D01*
X109053333Y-109831142D02*
X109005714Y-109878761D01*
X108862857Y-109926380D01*
X108767619Y-109926380D01*
X108624761Y-109878761D01*
X108529523Y-109783523D01*
X108481904Y-109688285D01*
X108434285Y-109497809D01*
X108434285Y-109354952D01*
X108481904Y-109164476D01*
X108529523Y-109069238D01*
X108624761Y-108974000D01*
X108767619Y-108926380D01*
X108862857Y-108926380D01*
X109005714Y-108974000D01*
X109053333Y-109021619D01*
X109386666Y-108926380D02*
X110053333Y-108926380D01*
X109624761Y-109926380D01*
X135739142Y-140120666D02*
X135786761Y-140168285D01*
X135834380Y-140311142D01*
X135834380Y-140406380D01*
X135786761Y-140549238D01*
X135691523Y-140644476D01*
X135596285Y-140692095D01*
X135405809Y-140739714D01*
X135262952Y-140739714D01*
X135072476Y-140692095D01*
X134977238Y-140644476D01*
X134882000Y-140549238D01*
X134834380Y-140406380D01*
X134834380Y-140311142D01*
X134882000Y-140168285D01*
X134929619Y-140120666D01*
X134834380Y-139263523D02*
X134834380Y-139454000D01*
X134882000Y-139549238D01*
X134929619Y-139596857D01*
X135072476Y-139692095D01*
X135262952Y-139739714D01*
X135643904Y-139739714D01*
X135739142Y-139692095D01*
X135786761Y-139644476D01*
X135834380Y-139549238D01*
X135834380Y-139358761D01*
X135786761Y-139263523D01*
X135739142Y-139215904D01*
X135643904Y-139168285D01*
X135405809Y-139168285D01*
X135310571Y-139215904D01*
X135262952Y-139263523D01*
X135215333Y-139358761D01*
X135215333Y-139549238D01*
X135262952Y-139644476D01*
X135310571Y-139692095D01*
X135405809Y-139739714D01*
X90765333Y-66397142D02*
X90717714Y-66444761D01*
X90574857Y-66492380D01*
X90479619Y-66492380D01*
X90336761Y-66444761D01*
X90241523Y-66349523D01*
X90193904Y-66254285D01*
X90146285Y-66063809D01*
X90146285Y-65920952D01*
X90193904Y-65730476D01*
X90241523Y-65635238D01*
X90336761Y-65540000D01*
X90479619Y-65492380D01*
X90574857Y-65492380D01*
X90717714Y-65540000D01*
X90765333Y-65587619D01*
X91670095Y-65492380D02*
X91193904Y-65492380D01*
X91146285Y-65968571D01*
X91193904Y-65920952D01*
X91289142Y-65873333D01*
X91527238Y-65873333D01*
X91622476Y-65920952D01*
X91670095Y-65968571D01*
X91717714Y-66063809D01*
X91717714Y-66301904D01*
X91670095Y-66397142D01*
X91622476Y-66444761D01*
X91527238Y-66492380D01*
X91289142Y-66492380D01*
X91193904Y-66444761D01*
X91146285Y-66397142D01*
X91019333Y-110085142D02*
X90971714Y-110132761D01*
X90828857Y-110180380D01*
X90733619Y-110180380D01*
X90590761Y-110132761D01*
X90495523Y-110037523D01*
X90447904Y-109942285D01*
X90400285Y-109751809D01*
X90400285Y-109608952D01*
X90447904Y-109418476D01*
X90495523Y-109323238D01*
X90590761Y-109228000D01*
X90733619Y-109180380D01*
X90828857Y-109180380D01*
X90971714Y-109228000D01*
X91019333Y-109275619D01*
X91876476Y-109513714D02*
X91876476Y-110180380D01*
X91638380Y-109132761D02*
X91400285Y-109847047D01*
X92019333Y-109847047D01*
X109053333Y-83161142D02*
X109005714Y-83208761D01*
X108862857Y-83256380D01*
X108767619Y-83256380D01*
X108624761Y-83208761D01*
X108529523Y-83113523D01*
X108481904Y-83018285D01*
X108434285Y-82827809D01*
X108434285Y-82684952D01*
X108481904Y-82494476D01*
X108529523Y-82399238D01*
X108624761Y-82304000D01*
X108767619Y-82256380D01*
X108862857Y-82256380D01*
X109005714Y-82304000D01*
X109053333Y-82351619D01*
X109434285Y-82351619D02*
X109481904Y-82304000D01*
X109577142Y-82256380D01*
X109815238Y-82256380D01*
X109910476Y-82304000D01*
X109958095Y-82351619D01*
X110005714Y-82446857D01*
X110005714Y-82542095D01*
X109958095Y-82684952D01*
X109386666Y-83256380D01*
X110005714Y-83256380D01*
X109053333Y-97639142D02*
X109005714Y-97686761D01*
X108862857Y-97734380D01*
X108767619Y-97734380D01*
X108624761Y-97686761D01*
X108529523Y-97591523D01*
X108481904Y-97496285D01*
X108434285Y-97305809D01*
X108434285Y-97162952D01*
X108481904Y-96972476D01*
X108529523Y-96877238D01*
X108624761Y-96782000D01*
X108767619Y-96734380D01*
X108862857Y-96734380D01*
X109005714Y-96782000D01*
X109053333Y-96829619D01*
X110005714Y-97734380D02*
X109434285Y-97734380D01*
X109720000Y-97734380D02*
X109720000Y-96734380D01*
X109624761Y-96877238D01*
X109529523Y-96972476D01*
X109434285Y-97020095D01*
M02*
