M48
; DRILL file {KiCad (5.1.7)-1} date 10/21/21 20:18:17
; FORMAT={-:-/ absolute / inch / decimal}
; #@! TF.CreationDate,2021-10-21T20:18:17-07:00
; #@! TF.GenerationSoftware,Kicad,Pcbnew,(5.1.7)-1
; #@! TF.FileFunction,Plated,1,4,PTH
FMAT,2
INCH
T1C0.0118
T2C0.0157
T3C0.0315
T4C0.0354
T5C0.0394
T6C0.0669
T7C0.0787
T8C0.0906
T9C0.0984
T10C0.1181
%
G90
G05
T1
X4.95Y-3.875
X5.095Y-1.89
X5.1476Y-4.7146
X5.18Y-4.3712
X5.23Y-2.4625
X5.2675Y-2.835
X5.34Y-2.835
X5.3638Y-4.4587
X5.365Y-4.5
X5.3725Y-4.55
X5.3825Y-4.6325
X5.395Y-2.4075
X5.4275Y-4.7325
X5.47Y-3.275
X5.5064Y-4.2814
X5.5075Y-3.0775
X5.5325Y-4.3484
X5.5425Y-2.41
X5.5463Y-3.1079
X5.565Y-4.595
X5.6325Y-2.0125
X5.67Y-2.2675
X5.7125Y-2.46
X5.7185Y-4.0157
X5.7431Y-4.0724
X5.75Y-4.825
X5.75Y-4.905
X5.7874Y-4.069
X5.8225Y-4.02
X5.8694Y-3.3194
X5.8967Y-4.1877
X5.9025Y-4.355
X5.9354Y-4.1833
X5.9504Y-4.2342
X5.9827Y-4.5602
X5.995Y-4.4525
X5.9955Y-4.0996
X6.04Y-4.53
X6.075Y-4.58
X6.0775Y-3.4827
X6.0796Y-4.6175
X6.1025Y-2.5575
X6.12Y-4.7967
X6.12Y-3.725
X6.1446Y-4.6675
X6.145Y-3.98
X6.1521Y-4.0214
X6.1677Y-4.8427
X6.17Y-3.92
X6.175Y-4.8975
X6.2367Y-4.02
X6.2575Y-4.7825
X6.2675Y-2.5475
X6.2825Y-2.0
X6.29Y-4.9
X6.315Y-4.6375
X6.3225Y-2.0
X6.3475Y-1.8325
X6.42Y-2.41
X6.485Y-2.645
X6.4862Y-4.6949
X6.4875Y-1.8325
X6.645Y-2.17
X6.7815Y-2.3622
X6.885Y-4.465
X6.885Y-4.7325
X6.9225Y-4.4275
X6.9225Y-4.7325
X6.9835Y-2.0884
X6.9935Y-1.93
X7.0Y-2.19
X7.0Y-2.2325
X7.0Y-2.275
X7.02Y-2.09
X7.0575Y-2.83
X7.0925Y-2.86
T2
X4.885Y-3.835
X4.8915Y-4.7146
X5.0295Y-4.7244
X5.1585Y-2.38
X5.3001Y-2.7931
X5.42Y-2.13
X5.6594Y-4.286
X5.6988Y-4.2717
X5.75Y-2.92
X5.77Y-2.445
X5.795Y-3.87
X5.7991Y-2.9086
X5.85Y-3.8635
X5.8773Y-4.5981
X5.895Y-3.8635
X5.915Y-4.62
X5.935Y-2.13
X5.976Y-4.355
X6.0028Y-3.9383
X6.0039Y-3.7894
X6.015Y-2.57
X6.0915Y-2.495
X6.0915Y-4.4121
X6.11Y-3.595
X6.115Y-2.655
X6.149Y-4.54
X6.275Y-2.135
X6.32Y-3.64
X6.325Y-2.135
X6.33Y-4.371
X6.3459Y-4.4071
X6.35Y-3.5635
X6.39Y-4.54
X6.395Y-4.39
X6.4Y-3.565
X6.45Y-2.9481
X6.4961Y-2.8051
X6.515Y-4.42
X6.7283Y-2.8265
T3
X5.8661Y-2.2638
X5.8661Y-2.3638
X5.8661Y-2.4638
X5.8661Y-2.5638
X6.1661Y-2.2638
X6.1661Y-2.3638
X6.1661Y-2.4638
X6.1661Y-2.5638
X5.6496Y-4.4685
X5.6496Y-4.6606
X5.305Y-1.8313
X5.305Y-1.91
X6.0335Y-1.8307
X6.0335Y-1.9094
X5.65Y-1.725
X5.65Y-1.8037
T4
X6.595Y-5.15
X6.645Y-5.15
X6.695Y-5.15
X6.745Y-5.15
X5.265Y-5.15
X5.315Y-5.15
X5.365Y-5.15
X5.415Y-5.15
T5
X6.6161Y-5.0098
X6.7161Y-5.0098
X6.8161Y-5.0098
X6.9161Y-5.0098
X7.0161Y-5.0098
X7.1161Y-5.0098
X6.2193Y-1.4862
X6.3193Y-1.4862
X6.4193Y-1.4862
X6.5193Y-1.4862
X6.6193Y-1.4862
X6.7193Y-1.4862
X6.8193Y-1.4862
X6.9193Y-1.4862
X5.9252Y-2.0276
X6.0236Y-2.0276
X6.122Y-2.0276
X7.1397Y-4.17
X7.1397Y-4.27
X7.1397Y-4.37
X7.1397Y-4.47
X7.1397Y-4.57
X7.1397Y-4.67
X5.128Y-1.4862
X5.228Y-1.4862
X5.328Y-1.4862
X5.428Y-1.4862
X5.528Y-1.4862
X5.628Y-1.4862
X5.728Y-1.4862
X5.828Y-1.4862
X5.928Y-1.4862
X6.028Y-1.4862
X5.9252Y-3.0315
X6.0236Y-3.0315
X6.122Y-3.0315
X7.1358Y-3.7862
X7.1358Y-3.8862
X7.1358Y-3.9862
X6.6732Y-3.0315
X6.7717Y-3.0315
X6.8701Y-3.0315
X5.1772Y-2.0276
X5.2756Y-2.0276
X5.374Y-2.0276
X6.075Y-5.13
X6.175Y-5.13
X4.9311Y-5.0098
X5.0311Y-5.0098
X5.1311Y-5.0098
X5.2311Y-5.0098
X5.3311Y-5.0098
X5.4311Y-5.0098
X5.8575Y-5.13
X5.9575Y-5.13
X5.1772Y-3.0315
X5.2756Y-3.0315
X5.374Y-3.0315
X6.6732Y-2.0276
X6.7717Y-2.0276
X6.8701Y-2.0276
T6
X6.4488Y-2.5551
X6.4488Y-3.1929
X6.6988Y-2.5551
X6.6988Y-3.1929
X6.9488Y-2.5551
X6.9488Y-3.1929
X5.0984Y-4.2126
X5.0984Y-4.8504
X5.3484Y-4.2126
X5.3484Y-4.8504
X5.5984Y-4.2126
X5.5984Y-4.8504
X5.0984Y-2.5591
X5.0984Y-3.1969
X5.3484Y-2.5591
X5.3484Y-3.1969
X5.5984Y-2.5591
X5.5984Y-3.1969
X6.4488Y-3.3819
X6.4488Y-4.0197
X6.6988Y-3.3819
X6.6988Y-4.0197
X6.9488Y-3.3819
X6.9488Y-4.0197
X5.0984Y-3.3858
X5.0984Y-4.0236
X5.3484Y-3.3858
X5.3484Y-4.0236
X5.5984Y-3.3858
X5.5984Y-4.0236
X6.4488Y-4.2087
X6.4488Y-4.8465
X6.6988Y-4.2087
X6.6988Y-4.8465
X6.9488Y-4.2087
X6.9488Y-4.8465
T7
X5.0886Y-2.7362
X5.4626Y-2.7362
X6.5846Y-1.7323
X6.9587Y-1.7323
X5.8366Y-1.7323
X6.2106Y-1.7323
X5.8366Y-2.7362
X6.2106Y-2.7362
X6.5846Y-2.7362
X6.9587Y-2.7362
X5.0886Y-1.7323
X5.4626Y-1.7323
T8
X5.065Y-2.2441
T9
X5.0256Y-2.0669
X5.0256Y-2.4213
T10
X5.3012Y-2.2441
T5
G00X5.8386Y-3.6083
M15
G01X5.8386Y-3.6555
M16
G05
G00X6.0236Y-3.6083
M15
G01X6.0236Y-3.6555
M16
G05
G00X6.2087Y-3.6083
M15
G01X6.2087Y-3.6555
M16
G05
G00X6.5866Y-3.645
M15
G01X6.5866Y-3.5978
M16
G05
G00X6.7717Y-3.645
M15
G01X6.7717Y-3.5978
M16
G05
G00X6.9567Y-3.645
M15
G01X6.9567Y-3.5978
M16
G05
G00X5.0906Y-3.6083
M15
G01X5.0906Y-3.6555
M16
G05
G00X5.2756Y-3.6083
M15
G01X5.2756Y-3.6555
M16
G05
G00X5.4606Y-3.6083
M15
G01X5.4606Y-3.6555
M16
G05
T0
M30
