G04 #@! TF.GenerationSoftware,KiCad,Pcbnew,(5.1.5)-3*
G04 #@! TF.CreationDate,2020-04-16T22:09:37-07:00*
G04 #@! TF.ProjectId,Digital_Board_Rev_1,44696769-7461-46c5-9f42-6f6172645f52,rev?*
G04 #@! TF.SameCoordinates,Original*
G04 #@! TF.FileFunction,Paste,Top*
G04 #@! TF.FilePolarity,Positive*
%FSLAX46Y46*%
G04 Gerber Fmt 4.6, Leading zero omitted, Abs format (unit mm)*
G04 Created by KiCad (PCBNEW (5.1.5)-3) date 2020-04-16 22:09:37*
%MOMM*%
%LPD*%
G04 APERTURE LIST*
%ADD10R,1.899920X1.899920*%
%ADD11R,1.399540X1.597660*%
%ADD12O,1.597660X0.899160*%
%ADD13R,1.348740X0.398780*%
%ADD14R,1.498600X0.299720*%
%ADD15R,0.599440X0.497840*%
%ADD16R,1.198880X1.198880*%
%ADD17R,1.597660X1.498600*%
%ADD18R,0.497840X0.599440*%
%ADD19C,0.100000*%
%ADD20R,0.797560X0.899160*%
%ADD21R,1.400000X1.100000*%
%ADD22R,0.450000X1.450000*%
%ADD23R,1.498600X0.998220*%
%ADD24R,1.498600X3.997960*%
%ADD25R,1.049020X0.647700*%
%ADD26R,1.549400X1.297940*%
%ADD27R,0.899160X0.599440*%
%ADD28R,0.599440X0.899160*%
%ADD29R,1.699260X2.499360*%
%ADD30R,1.099820X1.249680*%
%ADD31R,1.498600X0.899160*%
%ADD32R,1.249680X1.099820*%
%ADD33R,0.797560X0.797560*%
%ADD34R,2.499360X1.699260*%
%ADD35R,0.899160X1.597660*%
%ADD36R,1.597660X0.899160*%
G04 APERTURE END LIST*
D10*
X26789380Y-72318880D03*
X26789380Y-69921120D03*
D11*
X29464000Y-74317860D03*
X29464000Y-67922140D03*
D12*
X26794460Y-74419460D03*
X26794460Y-67820540D03*
D13*
X29464000Y-72417940D03*
X29464000Y-71767700D03*
X29464000Y-71120000D03*
X29464000Y-70472300D03*
X29464000Y-69822060D03*
D14*
X38148260Y-80962500D03*
X38148260Y-80327500D03*
X38148260Y-79692500D03*
X38148260Y-79057500D03*
X38148260Y-78422500D03*
X38148260Y-77787500D03*
X38148260Y-77152500D03*
X38148260Y-76517500D03*
X44147740Y-76517500D03*
X44147740Y-77152500D03*
X44147740Y-77787500D03*
X44147740Y-78422500D03*
X44147740Y-79057500D03*
X44147740Y-79692500D03*
X44147740Y-80327500D03*
X44147740Y-80962500D03*
D15*
X114046000Y-56601360D03*
X114046000Y-57698640D03*
X114046000Y-39583360D03*
X114046000Y-40680640D03*
D16*
X56370220Y-107970320D03*
D17*
X55372000Y-104724200D03*
D16*
X54373780Y-107970320D03*
D18*
X43474640Y-35306000D03*
X42377360Y-35306000D03*
X58460640Y-35306000D03*
X57363360Y-35306000D03*
X73954640Y-35814000D03*
X72857360Y-35814000D03*
X89873961Y-35814000D03*
X88776681Y-35814000D03*
D19*
G36*
X104287837Y-32151982D02*
G01*
X104301185Y-32153962D01*
X104314274Y-32157241D01*
X104326979Y-32161787D01*
X104339177Y-32167556D01*
X104350751Y-32174493D01*
X104361589Y-32182531D01*
X104371587Y-32191593D01*
X104380649Y-32201591D01*
X104388687Y-32212429D01*
X104395624Y-32224003D01*
X104401393Y-32236201D01*
X104405939Y-32248906D01*
X104409218Y-32261995D01*
X104411198Y-32275343D01*
X104411860Y-32288820D01*
X104411860Y-33463820D01*
X104411198Y-33477297D01*
X104409218Y-33490645D01*
X104405939Y-33503734D01*
X104401393Y-33516439D01*
X104395624Y-33528637D01*
X104388687Y-33540211D01*
X104380649Y-33551049D01*
X104371587Y-33561047D01*
X104361589Y-33570109D01*
X104350751Y-33578147D01*
X104339177Y-33585084D01*
X104326979Y-33590853D01*
X104314274Y-33595399D01*
X104301185Y-33598678D01*
X104287837Y-33600658D01*
X104274360Y-33601320D01*
X103999360Y-33601320D01*
X103985883Y-33600658D01*
X103972535Y-33598678D01*
X103959446Y-33595399D01*
X103946741Y-33590853D01*
X103934543Y-33585084D01*
X103922969Y-33578147D01*
X103912131Y-33570109D01*
X103902133Y-33561047D01*
X103893071Y-33551049D01*
X103885033Y-33540211D01*
X103878096Y-33528637D01*
X103872327Y-33516439D01*
X103867781Y-33503734D01*
X103864502Y-33490645D01*
X103862522Y-33477297D01*
X103861860Y-33463820D01*
X103861860Y-32288820D01*
X103862522Y-32275343D01*
X103864502Y-32261995D01*
X103867781Y-32248906D01*
X103872327Y-32236201D01*
X103878096Y-32224003D01*
X103885033Y-32212429D01*
X103893071Y-32201591D01*
X103902133Y-32191593D01*
X103912131Y-32182531D01*
X103922969Y-32174493D01*
X103934543Y-32167556D01*
X103946741Y-32161787D01*
X103959446Y-32157241D01*
X103972535Y-32153962D01*
X103985883Y-32151982D01*
X103999360Y-32151320D01*
X104274360Y-32151320D01*
X104287837Y-32151982D01*
G37*
G36*
X106827837Y-32151982D02*
G01*
X106841185Y-32153962D01*
X106854274Y-32157241D01*
X106866979Y-32161787D01*
X106879177Y-32167556D01*
X106890751Y-32174493D01*
X106901589Y-32182531D01*
X106911587Y-32191593D01*
X106920649Y-32201591D01*
X106928687Y-32212429D01*
X106935624Y-32224003D01*
X106941393Y-32236201D01*
X106945939Y-32248906D01*
X106949218Y-32261995D01*
X106951198Y-32275343D01*
X106951860Y-32288820D01*
X106951860Y-33463820D01*
X106951198Y-33477297D01*
X106949218Y-33490645D01*
X106945939Y-33503734D01*
X106941393Y-33516439D01*
X106935624Y-33528637D01*
X106928687Y-33540211D01*
X106920649Y-33551049D01*
X106911587Y-33561047D01*
X106901589Y-33570109D01*
X106890751Y-33578147D01*
X106879177Y-33585084D01*
X106866979Y-33590853D01*
X106854274Y-33595399D01*
X106841185Y-33598678D01*
X106827837Y-33600658D01*
X106814360Y-33601320D01*
X106539360Y-33601320D01*
X106525883Y-33600658D01*
X106512535Y-33598678D01*
X106499446Y-33595399D01*
X106486741Y-33590853D01*
X106474543Y-33585084D01*
X106462969Y-33578147D01*
X106452131Y-33570109D01*
X106442133Y-33561047D01*
X106433071Y-33551049D01*
X106425033Y-33540211D01*
X106418096Y-33528637D01*
X106412327Y-33516439D01*
X106407781Y-33503734D01*
X106404502Y-33490645D01*
X106402522Y-33477297D01*
X106401860Y-33463820D01*
X106401860Y-32288820D01*
X106402522Y-32275343D01*
X106404502Y-32261995D01*
X106407781Y-32248906D01*
X106412327Y-32236201D01*
X106418096Y-32224003D01*
X106425033Y-32212429D01*
X106433071Y-32201591D01*
X106442133Y-32191593D01*
X106452131Y-32182531D01*
X106462969Y-32174493D01*
X106474543Y-32167556D01*
X106486741Y-32161787D01*
X106499446Y-32157241D01*
X106512535Y-32153962D01*
X106525883Y-32151982D01*
X106539360Y-32151320D01*
X106814360Y-32151320D01*
X106827837Y-32151982D01*
G37*
G36*
X106827837Y-37651982D02*
G01*
X106841185Y-37653962D01*
X106854274Y-37657241D01*
X106866979Y-37661787D01*
X106879177Y-37667556D01*
X106890751Y-37674493D01*
X106901589Y-37682531D01*
X106911587Y-37691593D01*
X106920649Y-37701591D01*
X106928687Y-37712429D01*
X106935624Y-37724003D01*
X106941393Y-37736201D01*
X106945939Y-37748906D01*
X106949218Y-37761995D01*
X106951198Y-37775343D01*
X106951860Y-37788820D01*
X106951860Y-38963820D01*
X106951198Y-38977297D01*
X106949218Y-38990645D01*
X106945939Y-39003734D01*
X106941393Y-39016439D01*
X106935624Y-39028637D01*
X106928687Y-39040211D01*
X106920649Y-39051049D01*
X106911587Y-39061047D01*
X106901589Y-39070109D01*
X106890751Y-39078147D01*
X106879177Y-39085084D01*
X106866979Y-39090853D01*
X106854274Y-39095399D01*
X106841185Y-39098678D01*
X106827837Y-39100658D01*
X106814360Y-39101320D01*
X106539360Y-39101320D01*
X106525883Y-39100658D01*
X106512535Y-39098678D01*
X106499446Y-39095399D01*
X106486741Y-39090853D01*
X106474543Y-39085084D01*
X106462969Y-39078147D01*
X106452131Y-39070109D01*
X106442133Y-39061047D01*
X106433071Y-39051049D01*
X106425033Y-39040211D01*
X106418096Y-39028637D01*
X106412327Y-39016439D01*
X106407781Y-39003734D01*
X106404502Y-38990645D01*
X106402522Y-38977297D01*
X106401860Y-38963820D01*
X106401860Y-37788820D01*
X106402522Y-37775343D01*
X106404502Y-37761995D01*
X106407781Y-37748906D01*
X106412327Y-37736201D01*
X106418096Y-37724003D01*
X106425033Y-37712429D01*
X106433071Y-37701591D01*
X106442133Y-37691593D01*
X106452131Y-37682531D01*
X106462969Y-37674493D01*
X106474543Y-37667556D01*
X106486741Y-37661787D01*
X106499446Y-37657241D01*
X106512535Y-37653962D01*
X106525883Y-37651982D01*
X106539360Y-37651320D01*
X106814360Y-37651320D01*
X106827837Y-37651982D01*
G37*
G36*
X104287837Y-37651982D02*
G01*
X104301185Y-37653962D01*
X104314274Y-37657241D01*
X104326979Y-37661787D01*
X104339177Y-37667556D01*
X104350751Y-37674493D01*
X104361589Y-37682531D01*
X104371587Y-37691593D01*
X104380649Y-37701591D01*
X104388687Y-37712429D01*
X104395624Y-37724003D01*
X104401393Y-37736201D01*
X104405939Y-37748906D01*
X104409218Y-37761995D01*
X104411198Y-37775343D01*
X104411860Y-37788820D01*
X104411860Y-38963820D01*
X104411198Y-38977297D01*
X104409218Y-38990645D01*
X104405939Y-39003734D01*
X104401393Y-39016439D01*
X104395624Y-39028637D01*
X104388687Y-39040211D01*
X104380649Y-39051049D01*
X104371587Y-39061047D01*
X104361589Y-39070109D01*
X104350751Y-39078147D01*
X104339177Y-39085084D01*
X104326979Y-39090853D01*
X104314274Y-39095399D01*
X104301185Y-39098678D01*
X104287837Y-39100658D01*
X104274360Y-39101320D01*
X103999360Y-39101320D01*
X103985883Y-39100658D01*
X103972535Y-39098678D01*
X103959446Y-39095399D01*
X103946741Y-39090853D01*
X103934543Y-39085084D01*
X103922969Y-39078147D01*
X103912131Y-39070109D01*
X103902133Y-39061047D01*
X103893071Y-39051049D01*
X103885033Y-39040211D01*
X103878096Y-39028637D01*
X103872327Y-39016439D01*
X103867781Y-39003734D01*
X103864502Y-38990645D01*
X103862522Y-38977297D01*
X103861860Y-38963820D01*
X103861860Y-37788820D01*
X103862522Y-37775343D01*
X103864502Y-37761995D01*
X103867781Y-37748906D01*
X103872327Y-37736201D01*
X103878096Y-37724003D01*
X103885033Y-37712429D01*
X103893071Y-37701591D01*
X103902133Y-37691593D01*
X103912131Y-37682531D01*
X103922969Y-37674493D01*
X103934543Y-37667556D01*
X103946741Y-37661787D01*
X103959446Y-37657241D01*
X103972535Y-37653962D01*
X103985883Y-37651982D01*
X103999360Y-37651320D01*
X104274360Y-37651320D01*
X104287837Y-37651982D01*
G37*
G36*
X97875837Y-32151982D02*
G01*
X97889185Y-32153962D01*
X97902274Y-32157241D01*
X97914979Y-32161787D01*
X97927177Y-32167556D01*
X97938751Y-32174493D01*
X97949589Y-32182531D01*
X97959587Y-32191593D01*
X97968649Y-32201591D01*
X97976687Y-32212429D01*
X97983624Y-32224003D01*
X97989393Y-32236201D01*
X97993939Y-32248906D01*
X97997218Y-32261995D01*
X97999198Y-32275343D01*
X97999860Y-32288820D01*
X97999860Y-33463820D01*
X97999198Y-33477297D01*
X97997218Y-33490645D01*
X97993939Y-33503734D01*
X97989393Y-33516439D01*
X97983624Y-33528637D01*
X97976687Y-33540211D01*
X97968649Y-33551049D01*
X97959587Y-33561047D01*
X97949589Y-33570109D01*
X97938751Y-33578147D01*
X97927177Y-33585084D01*
X97914979Y-33590853D01*
X97902274Y-33595399D01*
X97889185Y-33598678D01*
X97875837Y-33600658D01*
X97862360Y-33601320D01*
X97587360Y-33601320D01*
X97573883Y-33600658D01*
X97560535Y-33598678D01*
X97547446Y-33595399D01*
X97534741Y-33590853D01*
X97522543Y-33585084D01*
X97510969Y-33578147D01*
X97500131Y-33570109D01*
X97490133Y-33561047D01*
X97481071Y-33551049D01*
X97473033Y-33540211D01*
X97466096Y-33528637D01*
X97460327Y-33516439D01*
X97455781Y-33503734D01*
X97452502Y-33490645D01*
X97450522Y-33477297D01*
X97449860Y-33463820D01*
X97449860Y-32288820D01*
X97450522Y-32275343D01*
X97452502Y-32261995D01*
X97455781Y-32248906D01*
X97460327Y-32236201D01*
X97466096Y-32224003D01*
X97473033Y-32212429D01*
X97481071Y-32201591D01*
X97490133Y-32191593D01*
X97500131Y-32182531D01*
X97510969Y-32174493D01*
X97522543Y-32167556D01*
X97534741Y-32161787D01*
X97547446Y-32157241D01*
X97560535Y-32153962D01*
X97573883Y-32151982D01*
X97587360Y-32151320D01*
X97862360Y-32151320D01*
X97875837Y-32151982D01*
G37*
G36*
X100415837Y-32151982D02*
G01*
X100429185Y-32153962D01*
X100442274Y-32157241D01*
X100454979Y-32161787D01*
X100467177Y-32167556D01*
X100478751Y-32174493D01*
X100489589Y-32182531D01*
X100499587Y-32191593D01*
X100508649Y-32201591D01*
X100516687Y-32212429D01*
X100523624Y-32224003D01*
X100529393Y-32236201D01*
X100533939Y-32248906D01*
X100537218Y-32261995D01*
X100539198Y-32275343D01*
X100539860Y-32288820D01*
X100539860Y-33463820D01*
X100539198Y-33477297D01*
X100537218Y-33490645D01*
X100533939Y-33503734D01*
X100529393Y-33516439D01*
X100523624Y-33528637D01*
X100516687Y-33540211D01*
X100508649Y-33551049D01*
X100499587Y-33561047D01*
X100489589Y-33570109D01*
X100478751Y-33578147D01*
X100467177Y-33585084D01*
X100454979Y-33590853D01*
X100442274Y-33595399D01*
X100429185Y-33598678D01*
X100415837Y-33600658D01*
X100402360Y-33601320D01*
X100127360Y-33601320D01*
X100113883Y-33600658D01*
X100100535Y-33598678D01*
X100087446Y-33595399D01*
X100074741Y-33590853D01*
X100062543Y-33585084D01*
X100050969Y-33578147D01*
X100040131Y-33570109D01*
X100030133Y-33561047D01*
X100021071Y-33551049D01*
X100013033Y-33540211D01*
X100006096Y-33528637D01*
X100000327Y-33516439D01*
X99995781Y-33503734D01*
X99992502Y-33490645D01*
X99990522Y-33477297D01*
X99989860Y-33463820D01*
X99989860Y-32288820D01*
X99990522Y-32275343D01*
X99992502Y-32261995D01*
X99995781Y-32248906D01*
X100000327Y-32236201D01*
X100006096Y-32224003D01*
X100013033Y-32212429D01*
X100021071Y-32201591D01*
X100030133Y-32191593D01*
X100040131Y-32182531D01*
X100050969Y-32174493D01*
X100062543Y-32167556D01*
X100074741Y-32161787D01*
X100087446Y-32157241D01*
X100100535Y-32153962D01*
X100113883Y-32151982D01*
X100127360Y-32151320D01*
X100402360Y-32151320D01*
X100415837Y-32151982D01*
G37*
G36*
X100415837Y-37651982D02*
G01*
X100429185Y-37653962D01*
X100442274Y-37657241D01*
X100454979Y-37661787D01*
X100467177Y-37667556D01*
X100478751Y-37674493D01*
X100489589Y-37682531D01*
X100499587Y-37691593D01*
X100508649Y-37701591D01*
X100516687Y-37712429D01*
X100523624Y-37724003D01*
X100529393Y-37736201D01*
X100533939Y-37748906D01*
X100537218Y-37761995D01*
X100539198Y-37775343D01*
X100539860Y-37788820D01*
X100539860Y-38963820D01*
X100539198Y-38977297D01*
X100537218Y-38990645D01*
X100533939Y-39003734D01*
X100529393Y-39016439D01*
X100523624Y-39028637D01*
X100516687Y-39040211D01*
X100508649Y-39051049D01*
X100499587Y-39061047D01*
X100489589Y-39070109D01*
X100478751Y-39078147D01*
X100467177Y-39085084D01*
X100454979Y-39090853D01*
X100442274Y-39095399D01*
X100429185Y-39098678D01*
X100415837Y-39100658D01*
X100402360Y-39101320D01*
X100127360Y-39101320D01*
X100113883Y-39100658D01*
X100100535Y-39098678D01*
X100087446Y-39095399D01*
X100074741Y-39090853D01*
X100062543Y-39085084D01*
X100050969Y-39078147D01*
X100040131Y-39070109D01*
X100030133Y-39061047D01*
X100021071Y-39051049D01*
X100013033Y-39040211D01*
X100006096Y-39028637D01*
X100000327Y-39016439D01*
X99995781Y-39003734D01*
X99992502Y-38990645D01*
X99990522Y-38977297D01*
X99989860Y-38963820D01*
X99989860Y-37788820D01*
X99990522Y-37775343D01*
X99992502Y-37761995D01*
X99995781Y-37748906D01*
X100000327Y-37736201D01*
X100006096Y-37724003D01*
X100013033Y-37712429D01*
X100021071Y-37701591D01*
X100030133Y-37691593D01*
X100040131Y-37682531D01*
X100050969Y-37674493D01*
X100062543Y-37667556D01*
X100074741Y-37661787D01*
X100087446Y-37657241D01*
X100100535Y-37653962D01*
X100113883Y-37651982D01*
X100127360Y-37651320D01*
X100402360Y-37651320D01*
X100415837Y-37651982D01*
G37*
G36*
X97875837Y-37651982D02*
G01*
X97889185Y-37653962D01*
X97902274Y-37657241D01*
X97914979Y-37661787D01*
X97927177Y-37667556D01*
X97938751Y-37674493D01*
X97949589Y-37682531D01*
X97959587Y-37691593D01*
X97968649Y-37701591D01*
X97976687Y-37712429D01*
X97983624Y-37724003D01*
X97989393Y-37736201D01*
X97993939Y-37748906D01*
X97997218Y-37761995D01*
X97999198Y-37775343D01*
X97999860Y-37788820D01*
X97999860Y-38963820D01*
X97999198Y-38977297D01*
X97997218Y-38990645D01*
X97993939Y-39003734D01*
X97989393Y-39016439D01*
X97983624Y-39028637D01*
X97976687Y-39040211D01*
X97968649Y-39051049D01*
X97959587Y-39061047D01*
X97949589Y-39070109D01*
X97938751Y-39078147D01*
X97927177Y-39085084D01*
X97914979Y-39090853D01*
X97902274Y-39095399D01*
X97889185Y-39098678D01*
X97875837Y-39100658D01*
X97862360Y-39101320D01*
X97587360Y-39101320D01*
X97573883Y-39100658D01*
X97560535Y-39098678D01*
X97547446Y-39095399D01*
X97534741Y-39090853D01*
X97522543Y-39085084D01*
X97510969Y-39078147D01*
X97500131Y-39070109D01*
X97490133Y-39061047D01*
X97481071Y-39051049D01*
X97473033Y-39040211D01*
X97466096Y-39028637D01*
X97460327Y-39016439D01*
X97455781Y-39003734D01*
X97452502Y-38990645D01*
X97450522Y-38977297D01*
X97449860Y-38963820D01*
X97449860Y-37788820D01*
X97450522Y-37775343D01*
X97452502Y-37761995D01*
X97455781Y-37748906D01*
X97460327Y-37736201D01*
X97466096Y-37724003D01*
X97473033Y-37712429D01*
X97481071Y-37701591D01*
X97490133Y-37691593D01*
X97500131Y-37682531D01*
X97510969Y-37674493D01*
X97522543Y-37667556D01*
X97534741Y-37661787D01*
X97547446Y-37657241D01*
X97560535Y-37653962D01*
X97573883Y-37651982D01*
X97587360Y-37651320D01*
X97862360Y-37651320D01*
X97875837Y-37651982D01*
G37*
D15*
X73660000Y-63713360D03*
X73660000Y-64810640D03*
D19*
G36*
X77492351Y-79576361D02*
G01*
X77499632Y-79577441D01*
X77506771Y-79579229D01*
X77513701Y-79581709D01*
X77520355Y-79584856D01*
X77526668Y-79588640D01*
X77532579Y-79593024D01*
X77538033Y-79597967D01*
X77542976Y-79603421D01*
X77547360Y-79609332D01*
X77551144Y-79615645D01*
X77554291Y-79622299D01*
X77556771Y-79629229D01*
X77558559Y-79636368D01*
X77559639Y-79643649D01*
X77560000Y-79651000D01*
X77560000Y-81051000D01*
X77559639Y-81058351D01*
X77558559Y-81065632D01*
X77556771Y-81072771D01*
X77554291Y-81079701D01*
X77551144Y-81086355D01*
X77547360Y-81092668D01*
X77542976Y-81098579D01*
X77538033Y-81104033D01*
X77532579Y-81108976D01*
X77526668Y-81113360D01*
X77520355Y-81117144D01*
X77513701Y-81120291D01*
X77506771Y-81122771D01*
X77499632Y-81124559D01*
X77492351Y-81125639D01*
X77485000Y-81126000D01*
X77335000Y-81126000D01*
X77327649Y-81125639D01*
X77320368Y-81124559D01*
X77313229Y-81122771D01*
X77306299Y-81120291D01*
X77299645Y-81117144D01*
X77293332Y-81113360D01*
X77287421Y-81108976D01*
X77281967Y-81104033D01*
X77277024Y-81098579D01*
X77272640Y-81092668D01*
X77268856Y-81086355D01*
X77265709Y-81079701D01*
X77263229Y-81072771D01*
X77261441Y-81065632D01*
X77260361Y-81058351D01*
X77260000Y-81051000D01*
X77260000Y-79651000D01*
X77260361Y-79643649D01*
X77261441Y-79636368D01*
X77263229Y-79629229D01*
X77265709Y-79622299D01*
X77268856Y-79615645D01*
X77272640Y-79609332D01*
X77277024Y-79603421D01*
X77281967Y-79597967D01*
X77287421Y-79593024D01*
X77293332Y-79588640D01*
X77299645Y-79584856D01*
X77306299Y-79581709D01*
X77313229Y-79579229D01*
X77320368Y-79577441D01*
X77327649Y-79576361D01*
X77335000Y-79576000D01*
X77485000Y-79576000D01*
X77492351Y-79576361D01*
G37*
G36*
X76992351Y-79576361D02*
G01*
X76999632Y-79577441D01*
X77006771Y-79579229D01*
X77013701Y-79581709D01*
X77020355Y-79584856D01*
X77026668Y-79588640D01*
X77032579Y-79593024D01*
X77038033Y-79597967D01*
X77042976Y-79603421D01*
X77047360Y-79609332D01*
X77051144Y-79615645D01*
X77054291Y-79622299D01*
X77056771Y-79629229D01*
X77058559Y-79636368D01*
X77059639Y-79643649D01*
X77060000Y-79651000D01*
X77060000Y-81051000D01*
X77059639Y-81058351D01*
X77058559Y-81065632D01*
X77056771Y-81072771D01*
X77054291Y-81079701D01*
X77051144Y-81086355D01*
X77047360Y-81092668D01*
X77042976Y-81098579D01*
X77038033Y-81104033D01*
X77032579Y-81108976D01*
X77026668Y-81113360D01*
X77020355Y-81117144D01*
X77013701Y-81120291D01*
X77006771Y-81122771D01*
X76999632Y-81124559D01*
X76992351Y-81125639D01*
X76985000Y-81126000D01*
X76835000Y-81126000D01*
X76827649Y-81125639D01*
X76820368Y-81124559D01*
X76813229Y-81122771D01*
X76806299Y-81120291D01*
X76799645Y-81117144D01*
X76793332Y-81113360D01*
X76787421Y-81108976D01*
X76781967Y-81104033D01*
X76777024Y-81098579D01*
X76772640Y-81092668D01*
X76768856Y-81086355D01*
X76765709Y-81079701D01*
X76763229Y-81072771D01*
X76761441Y-81065632D01*
X76760361Y-81058351D01*
X76760000Y-81051000D01*
X76760000Y-79651000D01*
X76760361Y-79643649D01*
X76761441Y-79636368D01*
X76763229Y-79629229D01*
X76765709Y-79622299D01*
X76768856Y-79615645D01*
X76772640Y-79609332D01*
X76777024Y-79603421D01*
X76781967Y-79597967D01*
X76787421Y-79593024D01*
X76793332Y-79588640D01*
X76799645Y-79584856D01*
X76806299Y-79581709D01*
X76813229Y-79579229D01*
X76820368Y-79577441D01*
X76827649Y-79576361D01*
X76835000Y-79576000D01*
X76985000Y-79576000D01*
X76992351Y-79576361D01*
G37*
G36*
X76492351Y-79576361D02*
G01*
X76499632Y-79577441D01*
X76506771Y-79579229D01*
X76513701Y-79581709D01*
X76520355Y-79584856D01*
X76526668Y-79588640D01*
X76532579Y-79593024D01*
X76538033Y-79597967D01*
X76542976Y-79603421D01*
X76547360Y-79609332D01*
X76551144Y-79615645D01*
X76554291Y-79622299D01*
X76556771Y-79629229D01*
X76558559Y-79636368D01*
X76559639Y-79643649D01*
X76560000Y-79651000D01*
X76560000Y-81051000D01*
X76559639Y-81058351D01*
X76558559Y-81065632D01*
X76556771Y-81072771D01*
X76554291Y-81079701D01*
X76551144Y-81086355D01*
X76547360Y-81092668D01*
X76542976Y-81098579D01*
X76538033Y-81104033D01*
X76532579Y-81108976D01*
X76526668Y-81113360D01*
X76520355Y-81117144D01*
X76513701Y-81120291D01*
X76506771Y-81122771D01*
X76499632Y-81124559D01*
X76492351Y-81125639D01*
X76485000Y-81126000D01*
X76335000Y-81126000D01*
X76327649Y-81125639D01*
X76320368Y-81124559D01*
X76313229Y-81122771D01*
X76306299Y-81120291D01*
X76299645Y-81117144D01*
X76293332Y-81113360D01*
X76287421Y-81108976D01*
X76281967Y-81104033D01*
X76277024Y-81098579D01*
X76272640Y-81092668D01*
X76268856Y-81086355D01*
X76265709Y-81079701D01*
X76263229Y-81072771D01*
X76261441Y-81065632D01*
X76260361Y-81058351D01*
X76260000Y-81051000D01*
X76260000Y-79651000D01*
X76260361Y-79643649D01*
X76261441Y-79636368D01*
X76263229Y-79629229D01*
X76265709Y-79622299D01*
X76268856Y-79615645D01*
X76272640Y-79609332D01*
X76277024Y-79603421D01*
X76281967Y-79597967D01*
X76287421Y-79593024D01*
X76293332Y-79588640D01*
X76299645Y-79584856D01*
X76306299Y-79581709D01*
X76313229Y-79579229D01*
X76320368Y-79577441D01*
X76327649Y-79576361D01*
X76335000Y-79576000D01*
X76485000Y-79576000D01*
X76492351Y-79576361D01*
G37*
G36*
X75992351Y-79576361D02*
G01*
X75999632Y-79577441D01*
X76006771Y-79579229D01*
X76013701Y-79581709D01*
X76020355Y-79584856D01*
X76026668Y-79588640D01*
X76032579Y-79593024D01*
X76038033Y-79597967D01*
X76042976Y-79603421D01*
X76047360Y-79609332D01*
X76051144Y-79615645D01*
X76054291Y-79622299D01*
X76056771Y-79629229D01*
X76058559Y-79636368D01*
X76059639Y-79643649D01*
X76060000Y-79651000D01*
X76060000Y-81051000D01*
X76059639Y-81058351D01*
X76058559Y-81065632D01*
X76056771Y-81072771D01*
X76054291Y-81079701D01*
X76051144Y-81086355D01*
X76047360Y-81092668D01*
X76042976Y-81098579D01*
X76038033Y-81104033D01*
X76032579Y-81108976D01*
X76026668Y-81113360D01*
X76020355Y-81117144D01*
X76013701Y-81120291D01*
X76006771Y-81122771D01*
X75999632Y-81124559D01*
X75992351Y-81125639D01*
X75985000Y-81126000D01*
X75835000Y-81126000D01*
X75827649Y-81125639D01*
X75820368Y-81124559D01*
X75813229Y-81122771D01*
X75806299Y-81120291D01*
X75799645Y-81117144D01*
X75793332Y-81113360D01*
X75787421Y-81108976D01*
X75781967Y-81104033D01*
X75777024Y-81098579D01*
X75772640Y-81092668D01*
X75768856Y-81086355D01*
X75765709Y-81079701D01*
X75763229Y-81072771D01*
X75761441Y-81065632D01*
X75760361Y-81058351D01*
X75760000Y-81051000D01*
X75760000Y-79651000D01*
X75760361Y-79643649D01*
X75761441Y-79636368D01*
X75763229Y-79629229D01*
X75765709Y-79622299D01*
X75768856Y-79615645D01*
X75772640Y-79609332D01*
X75777024Y-79603421D01*
X75781967Y-79597967D01*
X75787421Y-79593024D01*
X75793332Y-79588640D01*
X75799645Y-79584856D01*
X75806299Y-79581709D01*
X75813229Y-79579229D01*
X75820368Y-79577441D01*
X75827649Y-79576361D01*
X75835000Y-79576000D01*
X75985000Y-79576000D01*
X75992351Y-79576361D01*
G37*
G36*
X75492351Y-79576361D02*
G01*
X75499632Y-79577441D01*
X75506771Y-79579229D01*
X75513701Y-79581709D01*
X75520355Y-79584856D01*
X75526668Y-79588640D01*
X75532579Y-79593024D01*
X75538033Y-79597967D01*
X75542976Y-79603421D01*
X75547360Y-79609332D01*
X75551144Y-79615645D01*
X75554291Y-79622299D01*
X75556771Y-79629229D01*
X75558559Y-79636368D01*
X75559639Y-79643649D01*
X75560000Y-79651000D01*
X75560000Y-81051000D01*
X75559639Y-81058351D01*
X75558559Y-81065632D01*
X75556771Y-81072771D01*
X75554291Y-81079701D01*
X75551144Y-81086355D01*
X75547360Y-81092668D01*
X75542976Y-81098579D01*
X75538033Y-81104033D01*
X75532579Y-81108976D01*
X75526668Y-81113360D01*
X75520355Y-81117144D01*
X75513701Y-81120291D01*
X75506771Y-81122771D01*
X75499632Y-81124559D01*
X75492351Y-81125639D01*
X75485000Y-81126000D01*
X75335000Y-81126000D01*
X75327649Y-81125639D01*
X75320368Y-81124559D01*
X75313229Y-81122771D01*
X75306299Y-81120291D01*
X75299645Y-81117144D01*
X75293332Y-81113360D01*
X75287421Y-81108976D01*
X75281967Y-81104033D01*
X75277024Y-81098579D01*
X75272640Y-81092668D01*
X75268856Y-81086355D01*
X75265709Y-81079701D01*
X75263229Y-81072771D01*
X75261441Y-81065632D01*
X75260361Y-81058351D01*
X75260000Y-81051000D01*
X75260000Y-79651000D01*
X75260361Y-79643649D01*
X75261441Y-79636368D01*
X75263229Y-79629229D01*
X75265709Y-79622299D01*
X75268856Y-79615645D01*
X75272640Y-79609332D01*
X75277024Y-79603421D01*
X75281967Y-79597967D01*
X75287421Y-79593024D01*
X75293332Y-79588640D01*
X75299645Y-79584856D01*
X75306299Y-79581709D01*
X75313229Y-79579229D01*
X75320368Y-79577441D01*
X75327649Y-79576361D01*
X75335000Y-79576000D01*
X75485000Y-79576000D01*
X75492351Y-79576361D01*
G37*
G36*
X74992351Y-79576361D02*
G01*
X74999632Y-79577441D01*
X75006771Y-79579229D01*
X75013701Y-79581709D01*
X75020355Y-79584856D01*
X75026668Y-79588640D01*
X75032579Y-79593024D01*
X75038033Y-79597967D01*
X75042976Y-79603421D01*
X75047360Y-79609332D01*
X75051144Y-79615645D01*
X75054291Y-79622299D01*
X75056771Y-79629229D01*
X75058559Y-79636368D01*
X75059639Y-79643649D01*
X75060000Y-79651000D01*
X75060000Y-81051000D01*
X75059639Y-81058351D01*
X75058559Y-81065632D01*
X75056771Y-81072771D01*
X75054291Y-81079701D01*
X75051144Y-81086355D01*
X75047360Y-81092668D01*
X75042976Y-81098579D01*
X75038033Y-81104033D01*
X75032579Y-81108976D01*
X75026668Y-81113360D01*
X75020355Y-81117144D01*
X75013701Y-81120291D01*
X75006771Y-81122771D01*
X74999632Y-81124559D01*
X74992351Y-81125639D01*
X74985000Y-81126000D01*
X74835000Y-81126000D01*
X74827649Y-81125639D01*
X74820368Y-81124559D01*
X74813229Y-81122771D01*
X74806299Y-81120291D01*
X74799645Y-81117144D01*
X74793332Y-81113360D01*
X74787421Y-81108976D01*
X74781967Y-81104033D01*
X74777024Y-81098579D01*
X74772640Y-81092668D01*
X74768856Y-81086355D01*
X74765709Y-81079701D01*
X74763229Y-81072771D01*
X74761441Y-81065632D01*
X74760361Y-81058351D01*
X74760000Y-81051000D01*
X74760000Y-79651000D01*
X74760361Y-79643649D01*
X74761441Y-79636368D01*
X74763229Y-79629229D01*
X74765709Y-79622299D01*
X74768856Y-79615645D01*
X74772640Y-79609332D01*
X74777024Y-79603421D01*
X74781967Y-79597967D01*
X74787421Y-79593024D01*
X74793332Y-79588640D01*
X74799645Y-79584856D01*
X74806299Y-79581709D01*
X74813229Y-79579229D01*
X74820368Y-79577441D01*
X74827649Y-79576361D01*
X74835000Y-79576000D01*
X74985000Y-79576000D01*
X74992351Y-79576361D01*
G37*
G36*
X74492351Y-79576361D02*
G01*
X74499632Y-79577441D01*
X74506771Y-79579229D01*
X74513701Y-79581709D01*
X74520355Y-79584856D01*
X74526668Y-79588640D01*
X74532579Y-79593024D01*
X74538033Y-79597967D01*
X74542976Y-79603421D01*
X74547360Y-79609332D01*
X74551144Y-79615645D01*
X74554291Y-79622299D01*
X74556771Y-79629229D01*
X74558559Y-79636368D01*
X74559639Y-79643649D01*
X74560000Y-79651000D01*
X74560000Y-81051000D01*
X74559639Y-81058351D01*
X74558559Y-81065632D01*
X74556771Y-81072771D01*
X74554291Y-81079701D01*
X74551144Y-81086355D01*
X74547360Y-81092668D01*
X74542976Y-81098579D01*
X74538033Y-81104033D01*
X74532579Y-81108976D01*
X74526668Y-81113360D01*
X74520355Y-81117144D01*
X74513701Y-81120291D01*
X74506771Y-81122771D01*
X74499632Y-81124559D01*
X74492351Y-81125639D01*
X74485000Y-81126000D01*
X74335000Y-81126000D01*
X74327649Y-81125639D01*
X74320368Y-81124559D01*
X74313229Y-81122771D01*
X74306299Y-81120291D01*
X74299645Y-81117144D01*
X74293332Y-81113360D01*
X74287421Y-81108976D01*
X74281967Y-81104033D01*
X74277024Y-81098579D01*
X74272640Y-81092668D01*
X74268856Y-81086355D01*
X74265709Y-81079701D01*
X74263229Y-81072771D01*
X74261441Y-81065632D01*
X74260361Y-81058351D01*
X74260000Y-81051000D01*
X74260000Y-79651000D01*
X74260361Y-79643649D01*
X74261441Y-79636368D01*
X74263229Y-79629229D01*
X74265709Y-79622299D01*
X74268856Y-79615645D01*
X74272640Y-79609332D01*
X74277024Y-79603421D01*
X74281967Y-79597967D01*
X74287421Y-79593024D01*
X74293332Y-79588640D01*
X74299645Y-79584856D01*
X74306299Y-79581709D01*
X74313229Y-79579229D01*
X74320368Y-79577441D01*
X74327649Y-79576361D01*
X74335000Y-79576000D01*
X74485000Y-79576000D01*
X74492351Y-79576361D01*
G37*
G36*
X73992351Y-79576361D02*
G01*
X73999632Y-79577441D01*
X74006771Y-79579229D01*
X74013701Y-79581709D01*
X74020355Y-79584856D01*
X74026668Y-79588640D01*
X74032579Y-79593024D01*
X74038033Y-79597967D01*
X74042976Y-79603421D01*
X74047360Y-79609332D01*
X74051144Y-79615645D01*
X74054291Y-79622299D01*
X74056771Y-79629229D01*
X74058559Y-79636368D01*
X74059639Y-79643649D01*
X74060000Y-79651000D01*
X74060000Y-81051000D01*
X74059639Y-81058351D01*
X74058559Y-81065632D01*
X74056771Y-81072771D01*
X74054291Y-81079701D01*
X74051144Y-81086355D01*
X74047360Y-81092668D01*
X74042976Y-81098579D01*
X74038033Y-81104033D01*
X74032579Y-81108976D01*
X74026668Y-81113360D01*
X74020355Y-81117144D01*
X74013701Y-81120291D01*
X74006771Y-81122771D01*
X73999632Y-81124559D01*
X73992351Y-81125639D01*
X73985000Y-81126000D01*
X73835000Y-81126000D01*
X73827649Y-81125639D01*
X73820368Y-81124559D01*
X73813229Y-81122771D01*
X73806299Y-81120291D01*
X73799645Y-81117144D01*
X73793332Y-81113360D01*
X73787421Y-81108976D01*
X73781967Y-81104033D01*
X73777024Y-81098579D01*
X73772640Y-81092668D01*
X73768856Y-81086355D01*
X73765709Y-81079701D01*
X73763229Y-81072771D01*
X73761441Y-81065632D01*
X73760361Y-81058351D01*
X73760000Y-81051000D01*
X73760000Y-79651000D01*
X73760361Y-79643649D01*
X73761441Y-79636368D01*
X73763229Y-79629229D01*
X73765709Y-79622299D01*
X73768856Y-79615645D01*
X73772640Y-79609332D01*
X73777024Y-79603421D01*
X73781967Y-79597967D01*
X73787421Y-79593024D01*
X73793332Y-79588640D01*
X73799645Y-79584856D01*
X73806299Y-79581709D01*
X73813229Y-79579229D01*
X73820368Y-79577441D01*
X73827649Y-79576361D01*
X73835000Y-79576000D01*
X73985000Y-79576000D01*
X73992351Y-79576361D01*
G37*
G36*
X73492351Y-79576361D02*
G01*
X73499632Y-79577441D01*
X73506771Y-79579229D01*
X73513701Y-79581709D01*
X73520355Y-79584856D01*
X73526668Y-79588640D01*
X73532579Y-79593024D01*
X73538033Y-79597967D01*
X73542976Y-79603421D01*
X73547360Y-79609332D01*
X73551144Y-79615645D01*
X73554291Y-79622299D01*
X73556771Y-79629229D01*
X73558559Y-79636368D01*
X73559639Y-79643649D01*
X73560000Y-79651000D01*
X73560000Y-81051000D01*
X73559639Y-81058351D01*
X73558559Y-81065632D01*
X73556771Y-81072771D01*
X73554291Y-81079701D01*
X73551144Y-81086355D01*
X73547360Y-81092668D01*
X73542976Y-81098579D01*
X73538033Y-81104033D01*
X73532579Y-81108976D01*
X73526668Y-81113360D01*
X73520355Y-81117144D01*
X73513701Y-81120291D01*
X73506771Y-81122771D01*
X73499632Y-81124559D01*
X73492351Y-81125639D01*
X73485000Y-81126000D01*
X73335000Y-81126000D01*
X73327649Y-81125639D01*
X73320368Y-81124559D01*
X73313229Y-81122771D01*
X73306299Y-81120291D01*
X73299645Y-81117144D01*
X73293332Y-81113360D01*
X73287421Y-81108976D01*
X73281967Y-81104033D01*
X73277024Y-81098579D01*
X73272640Y-81092668D01*
X73268856Y-81086355D01*
X73265709Y-81079701D01*
X73263229Y-81072771D01*
X73261441Y-81065632D01*
X73260361Y-81058351D01*
X73260000Y-81051000D01*
X73260000Y-79651000D01*
X73260361Y-79643649D01*
X73261441Y-79636368D01*
X73263229Y-79629229D01*
X73265709Y-79622299D01*
X73268856Y-79615645D01*
X73272640Y-79609332D01*
X73277024Y-79603421D01*
X73281967Y-79597967D01*
X73287421Y-79593024D01*
X73293332Y-79588640D01*
X73299645Y-79584856D01*
X73306299Y-79581709D01*
X73313229Y-79579229D01*
X73320368Y-79577441D01*
X73327649Y-79576361D01*
X73335000Y-79576000D01*
X73485000Y-79576000D01*
X73492351Y-79576361D01*
G37*
G36*
X72992351Y-79576361D02*
G01*
X72999632Y-79577441D01*
X73006771Y-79579229D01*
X73013701Y-79581709D01*
X73020355Y-79584856D01*
X73026668Y-79588640D01*
X73032579Y-79593024D01*
X73038033Y-79597967D01*
X73042976Y-79603421D01*
X73047360Y-79609332D01*
X73051144Y-79615645D01*
X73054291Y-79622299D01*
X73056771Y-79629229D01*
X73058559Y-79636368D01*
X73059639Y-79643649D01*
X73060000Y-79651000D01*
X73060000Y-81051000D01*
X73059639Y-81058351D01*
X73058559Y-81065632D01*
X73056771Y-81072771D01*
X73054291Y-81079701D01*
X73051144Y-81086355D01*
X73047360Y-81092668D01*
X73042976Y-81098579D01*
X73038033Y-81104033D01*
X73032579Y-81108976D01*
X73026668Y-81113360D01*
X73020355Y-81117144D01*
X73013701Y-81120291D01*
X73006771Y-81122771D01*
X72999632Y-81124559D01*
X72992351Y-81125639D01*
X72985000Y-81126000D01*
X72835000Y-81126000D01*
X72827649Y-81125639D01*
X72820368Y-81124559D01*
X72813229Y-81122771D01*
X72806299Y-81120291D01*
X72799645Y-81117144D01*
X72793332Y-81113360D01*
X72787421Y-81108976D01*
X72781967Y-81104033D01*
X72777024Y-81098579D01*
X72772640Y-81092668D01*
X72768856Y-81086355D01*
X72765709Y-81079701D01*
X72763229Y-81072771D01*
X72761441Y-81065632D01*
X72760361Y-81058351D01*
X72760000Y-81051000D01*
X72760000Y-79651000D01*
X72760361Y-79643649D01*
X72761441Y-79636368D01*
X72763229Y-79629229D01*
X72765709Y-79622299D01*
X72768856Y-79615645D01*
X72772640Y-79609332D01*
X72777024Y-79603421D01*
X72781967Y-79597967D01*
X72787421Y-79593024D01*
X72793332Y-79588640D01*
X72799645Y-79584856D01*
X72806299Y-79581709D01*
X72813229Y-79579229D01*
X72820368Y-79577441D01*
X72827649Y-79576361D01*
X72835000Y-79576000D01*
X72985000Y-79576000D01*
X72992351Y-79576361D01*
G37*
G36*
X72492351Y-79576361D02*
G01*
X72499632Y-79577441D01*
X72506771Y-79579229D01*
X72513701Y-79581709D01*
X72520355Y-79584856D01*
X72526668Y-79588640D01*
X72532579Y-79593024D01*
X72538033Y-79597967D01*
X72542976Y-79603421D01*
X72547360Y-79609332D01*
X72551144Y-79615645D01*
X72554291Y-79622299D01*
X72556771Y-79629229D01*
X72558559Y-79636368D01*
X72559639Y-79643649D01*
X72560000Y-79651000D01*
X72560000Y-81051000D01*
X72559639Y-81058351D01*
X72558559Y-81065632D01*
X72556771Y-81072771D01*
X72554291Y-81079701D01*
X72551144Y-81086355D01*
X72547360Y-81092668D01*
X72542976Y-81098579D01*
X72538033Y-81104033D01*
X72532579Y-81108976D01*
X72526668Y-81113360D01*
X72520355Y-81117144D01*
X72513701Y-81120291D01*
X72506771Y-81122771D01*
X72499632Y-81124559D01*
X72492351Y-81125639D01*
X72485000Y-81126000D01*
X72335000Y-81126000D01*
X72327649Y-81125639D01*
X72320368Y-81124559D01*
X72313229Y-81122771D01*
X72306299Y-81120291D01*
X72299645Y-81117144D01*
X72293332Y-81113360D01*
X72287421Y-81108976D01*
X72281967Y-81104033D01*
X72277024Y-81098579D01*
X72272640Y-81092668D01*
X72268856Y-81086355D01*
X72265709Y-81079701D01*
X72263229Y-81072771D01*
X72261441Y-81065632D01*
X72260361Y-81058351D01*
X72260000Y-81051000D01*
X72260000Y-79651000D01*
X72260361Y-79643649D01*
X72261441Y-79636368D01*
X72263229Y-79629229D01*
X72265709Y-79622299D01*
X72268856Y-79615645D01*
X72272640Y-79609332D01*
X72277024Y-79603421D01*
X72281967Y-79597967D01*
X72287421Y-79593024D01*
X72293332Y-79588640D01*
X72299645Y-79584856D01*
X72306299Y-79581709D01*
X72313229Y-79579229D01*
X72320368Y-79577441D01*
X72327649Y-79576361D01*
X72335000Y-79576000D01*
X72485000Y-79576000D01*
X72492351Y-79576361D01*
G37*
G36*
X71992351Y-79576361D02*
G01*
X71999632Y-79577441D01*
X72006771Y-79579229D01*
X72013701Y-79581709D01*
X72020355Y-79584856D01*
X72026668Y-79588640D01*
X72032579Y-79593024D01*
X72038033Y-79597967D01*
X72042976Y-79603421D01*
X72047360Y-79609332D01*
X72051144Y-79615645D01*
X72054291Y-79622299D01*
X72056771Y-79629229D01*
X72058559Y-79636368D01*
X72059639Y-79643649D01*
X72060000Y-79651000D01*
X72060000Y-81051000D01*
X72059639Y-81058351D01*
X72058559Y-81065632D01*
X72056771Y-81072771D01*
X72054291Y-81079701D01*
X72051144Y-81086355D01*
X72047360Y-81092668D01*
X72042976Y-81098579D01*
X72038033Y-81104033D01*
X72032579Y-81108976D01*
X72026668Y-81113360D01*
X72020355Y-81117144D01*
X72013701Y-81120291D01*
X72006771Y-81122771D01*
X71999632Y-81124559D01*
X71992351Y-81125639D01*
X71985000Y-81126000D01*
X71835000Y-81126000D01*
X71827649Y-81125639D01*
X71820368Y-81124559D01*
X71813229Y-81122771D01*
X71806299Y-81120291D01*
X71799645Y-81117144D01*
X71793332Y-81113360D01*
X71787421Y-81108976D01*
X71781967Y-81104033D01*
X71777024Y-81098579D01*
X71772640Y-81092668D01*
X71768856Y-81086355D01*
X71765709Y-81079701D01*
X71763229Y-81072771D01*
X71761441Y-81065632D01*
X71760361Y-81058351D01*
X71760000Y-81051000D01*
X71760000Y-79651000D01*
X71760361Y-79643649D01*
X71761441Y-79636368D01*
X71763229Y-79629229D01*
X71765709Y-79622299D01*
X71768856Y-79615645D01*
X71772640Y-79609332D01*
X71777024Y-79603421D01*
X71781967Y-79597967D01*
X71787421Y-79593024D01*
X71793332Y-79588640D01*
X71799645Y-79584856D01*
X71806299Y-79581709D01*
X71813229Y-79579229D01*
X71820368Y-79577441D01*
X71827649Y-79576361D01*
X71835000Y-79576000D01*
X71985000Y-79576000D01*
X71992351Y-79576361D01*
G37*
G36*
X71492351Y-79576361D02*
G01*
X71499632Y-79577441D01*
X71506771Y-79579229D01*
X71513701Y-79581709D01*
X71520355Y-79584856D01*
X71526668Y-79588640D01*
X71532579Y-79593024D01*
X71538033Y-79597967D01*
X71542976Y-79603421D01*
X71547360Y-79609332D01*
X71551144Y-79615645D01*
X71554291Y-79622299D01*
X71556771Y-79629229D01*
X71558559Y-79636368D01*
X71559639Y-79643649D01*
X71560000Y-79651000D01*
X71560000Y-81051000D01*
X71559639Y-81058351D01*
X71558559Y-81065632D01*
X71556771Y-81072771D01*
X71554291Y-81079701D01*
X71551144Y-81086355D01*
X71547360Y-81092668D01*
X71542976Y-81098579D01*
X71538033Y-81104033D01*
X71532579Y-81108976D01*
X71526668Y-81113360D01*
X71520355Y-81117144D01*
X71513701Y-81120291D01*
X71506771Y-81122771D01*
X71499632Y-81124559D01*
X71492351Y-81125639D01*
X71485000Y-81126000D01*
X71335000Y-81126000D01*
X71327649Y-81125639D01*
X71320368Y-81124559D01*
X71313229Y-81122771D01*
X71306299Y-81120291D01*
X71299645Y-81117144D01*
X71293332Y-81113360D01*
X71287421Y-81108976D01*
X71281967Y-81104033D01*
X71277024Y-81098579D01*
X71272640Y-81092668D01*
X71268856Y-81086355D01*
X71265709Y-81079701D01*
X71263229Y-81072771D01*
X71261441Y-81065632D01*
X71260361Y-81058351D01*
X71260000Y-81051000D01*
X71260000Y-79651000D01*
X71260361Y-79643649D01*
X71261441Y-79636368D01*
X71263229Y-79629229D01*
X71265709Y-79622299D01*
X71268856Y-79615645D01*
X71272640Y-79609332D01*
X71277024Y-79603421D01*
X71281967Y-79597967D01*
X71287421Y-79593024D01*
X71293332Y-79588640D01*
X71299645Y-79584856D01*
X71306299Y-79581709D01*
X71313229Y-79579229D01*
X71320368Y-79577441D01*
X71327649Y-79576361D01*
X71335000Y-79576000D01*
X71485000Y-79576000D01*
X71492351Y-79576361D01*
G37*
G36*
X70992351Y-79576361D02*
G01*
X70999632Y-79577441D01*
X71006771Y-79579229D01*
X71013701Y-79581709D01*
X71020355Y-79584856D01*
X71026668Y-79588640D01*
X71032579Y-79593024D01*
X71038033Y-79597967D01*
X71042976Y-79603421D01*
X71047360Y-79609332D01*
X71051144Y-79615645D01*
X71054291Y-79622299D01*
X71056771Y-79629229D01*
X71058559Y-79636368D01*
X71059639Y-79643649D01*
X71060000Y-79651000D01*
X71060000Y-81051000D01*
X71059639Y-81058351D01*
X71058559Y-81065632D01*
X71056771Y-81072771D01*
X71054291Y-81079701D01*
X71051144Y-81086355D01*
X71047360Y-81092668D01*
X71042976Y-81098579D01*
X71038033Y-81104033D01*
X71032579Y-81108976D01*
X71026668Y-81113360D01*
X71020355Y-81117144D01*
X71013701Y-81120291D01*
X71006771Y-81122771D01*
X70999632Y-81124559D01*
X70992351Y-81125639D01*
X70985000Y-81126000D01*
X70835000Y-81126000D01*
X70827649Y-81125639D01*
X70820368Y-81124559D01*
X70813229Y-81122771D01*
X70806299Y-81120291D01*
X70799645Y-81117144D01*
X70793332Y-81113360D01*
X70787421Y-81108976D01*
X70781967Y-81104033D01*
X70777024Y-81098579D01*
X70772640Y-81092668D01*
X70768856Y-81086355D01*
X70765709Y-81079701D01*
X70763229Y-81072771D01*
X70761441Y-81065632D01*
X70760361Y-81058351D01*
X70760000Y-81051000D01*
X70760000Y-79651000D01*
X70760361Y-79643649D01*
X70761441Y-79636368D01*
X70763229Y-79629229D01*
X70765709Y-79622299D01*
X70768856Y-79615645D01*
X70772640Y-79609332D01*
X70777024Y-79603421D01*
X70781967Y-79597967D01*
X70787421Y-79593024D01*
X70793332Y-79588640D01*
X70799645Y-79584856D01*
X70806299Y-79581709D01*
X70813229Y-79579229D01*
X70820368Y-79577441D01*
X70827649Y-79576361D01*
X70835000Y-79576000D01*
X70985000Y-79576000D01*
X70992351Y-79576361D01*
G37*
G36*
X70492351Y-79576361D02*
G01*
X70499632Y-79577441D01*
X70506771Y-79579229D01*
X70513701Y-79581709D01*
X70520355Y-79584856D01*
X70526668Y-79588640D01*
X70532579Y-79593024D01*
X70538033Y-79597967D01*
X70542976Y-79603421D01*
X70547360Y-79609332D01*
X70551144Y-79615645D01*
X70554291Y-79622299D01*
X70556771Y-79629229D01*
X70558559Y-79636368D01*
X70559639Y-79643649D01*
X70560000Y-79651000D01*
X70560000Y-81051000D01*
X70559639Y-81058351D01*
X70558559Y-81065632D01*
X70556771Y-81072771D01*
X70554291Y-81079701D01*
X70551144Y-81086355D01*
X70547360Y-81092668D01*
X70542976Y-81098579D01*
X70538033Y-81104033D01*
X70532579Y-81108976D01*
X70526668Y-81113360D01*
X70520355Y-81117144D01*
X70513701Y-81120291D01*
X70506771Y-81122771D01*
X70499632Y-81124559D01*
X70492351Y-81125639D01*
X70485000Y-81126000D01*
X70335000Y-81126000D01*
X70327649Y-81125639D01*
X70320368Y-81124559D01*
X70313229Y-81122771D01*
X70306299Y-81120291D01*
X70299645Y-81117144D01*
X70293332Y-81113360D01*
X70287421Y-81108976D01*
X70281967Y-81104033D01*
X70277024Y-81098579D01*
X70272640Y-81092668D01*
X70268856Y-81086355D01*
X70265709Y-81079701D01*
X70263229Y-81072771D01*
X70261441Y-81065632D01*
X70260361Y-81058351D01*
X70260000Y-81051000D01*
X70260000Y-79651000D01*
X70260361Y-79643649D01*
X70261441Y-79636368D01*
X70263229Y-79629229D01*
X70265709Y-79622299D01*
X70268856Y-79615645D01*
X70272640Y-79609332D01*
X70277024Y-79603421D01*
X70281967Y-79597967D01*
X70287421Y-79593024D01*
X70293332Y-79588640D01*
X70299645Y-79584856D01*
X70306299Y-79581709D01*
X70313229Y-79579229D01*
X70320368Y-79577441D01*
X70327649Y-79576361D01*
X70335000Y-79576000D01*
X70485000Y-79576000D01*
X70492351Y-79576361D01*
G37*
G36*
X69992351Y-79576361D02*
G01*
X69999632Y-79577441D01*
X70006771Y-79579229D01*
X70013701Y-79581709D01*
X70020355Y-79584856D01*
X70026668Y-79588640D01*
X70032579Y-79593024D01*
X70038033Y-79597967D01*
X70042976Y-79603421D01*
X70047360Y-79609332D01*
X70051144Y-79615645D01*
X70054291Y-79622299D01*
X70056771Y-79629229D01*
X70058559Y-79636368D01*
X70059639Y-79643649D01*
X70060000Y-79651000D01*
X70060000Y-81051000D01*
X70059639Y-81058351D01*
X70058559Y-81065632D01*
X70056771Y-81072771D01*
X70054291Y-81079701D01*
X70051144Y-81086355D01*
X70047360Y-81092668D01*
X70042976Y-81098579D01*
X70038033Y-81104033D01*
X70032579Y-81108976D01*
X70026668Y-81113360D01*
X70020355Y-81117144D01*
X70013701Y-81120291D01*
X70006771Y-81122771D01*
X69999632Y-81124559D01*
X69992351Y-81125639D01*
X69985000Y-81126000D01*
X69835000Y-81126000D01*
X69827649Y-81125639D01*
X69820368Y-81124559D01*
X69813229Y-81122771D01*
X69806299Y-81120291D01*
X69799645Y-81117144D01*
X69793332Y-81113360D01*
X69787421Y-81108976D01*
X69781967Y-81104033D01*
X69777024Y-81098579D01*
X69772640Y-81092668D01*
X69768856Y-81086355D01*
X69765709Y-81079701D01*
X69763229Y-81072771D01*
X69761441Y-81065632D01*
X69760361Y-81058351D01*
X69760000Y-81051000D01*
X69760000Y-79651000D01*
X69760361Y-79643649D01*
X69761441Y-79636368D01*
X69763229Y-79629229D01*
X69765709Y-79622299D01*
X69768856Y-79615645D01*
X69772640Y-79609332D01*
X69777024Y-79603421D01*
X69781967Y-79597967D01*
X69787421Y-79593024D01*
X69793332Y-79588640D01*
X69799645Y-79584856D01*
X69806299Y-79581709D01*
X69813229Y-79579229D01*
X69820368Y-79577441D01*
X69827649Y-79576361D01*
X69835000Y-79576000D01*
X69985000Y-79576000D01*
X69992351Y-79576361D01*
G37*
G36*
X68692351Y-78276361D02*
G01*
X68699632Y-78277441D01*
X68706771Y-78279229D01*
X68713701Y-78281709D01*
X68720355Y-78284856D01*
X68726668Y-78288640D01*
X68732579Y-78293024D01*
X68738033Y-78297967D01*
X68742976Y-78303421D01*
X68747360Y-78309332D01*
X68751144Y-78315645D01*
X68754291Y-78322299D01*
X68756771Y-78329229D01*
X68758559Y-78336368D01*
X68759639Y-78343649D01*
X68760000Y-78351000D01*
X68760000Y-78501000D01*
X68759639Y-78508351D01*
X68758559Y-78515632D01*
X68756771Y-78522771D01*
X68754291Y-78529701D01*
X68751144Y-78536355D01*
X68747360Y-78542668D01*
X68742976Y-78548579D01*
X68738033Y-78554033D01*
X68732579Y-78558976D01*
X68726668Y-78563360D01*
X68720355Y-78567144D01*
X68713701Y-78570291D01*
X68706771Y-78572771D01*
X68699632Y-78574559D01*
X68692351Y-78575639D01*
X68685000Y-78576000D01*
X67285000Y-78576000D01*
X67277649Y-78575639D01*
X67270368Y-78574559D01*
X67263229Y-78572771D01*
X67256299Y-78570291D01*
X67249645Y-78567144D01*
X67243332Y-78563360D01*
X67237421Y-78558976D01*
X67231967Y-78554033D01*
X67227024Y-78548579D01*
X67222640Y-78542668D01*
X67218856Y-78536355D01*
X67215709Y-78529701D01*
X67213229Y-78522771D01*
X67211441Y-78515632D01*
X67210361Y-78508351D01*
X67210000Y-78501000D01*
X67210000Y-78351000D01*
X67210361Y-78343649D01*
X67211441Y-78336368D01*
X67213229Y-78329229D01*
X67215709Y-78322299D01*
X67218856Y-78315645D01*
X67222640Y-78309332D01*
X67227024Y-78303421D01*
X67231967Y-78297967D01*
X67237421Y-78293024D01*
X67243332Y-78288640D01*
X67249645Y-78284856D01*
X67256299Y-78281709D01*
X67263229Y-78279229D01*
X67270368Y-78277441D01*
X67277649Y-78276361D01*
X67285000Y-78276000D01*
X68685000Y-78276000D01*
X68692351Y-78276361D01*
G37*
G36*
X68692351Y-77776361D02*
G01*
X68699632Y-77777441D01*
X68706771Y-77779229D01*
X68713701Y-77781709D01*
X68720355Y-77784856D01*
X68726668Y-77788640D01*
X68732579Y-77793024D01*
X68738033Y-77797967D01*
X68742976Y-77803421D01*
X68747360Y-77809332D01*
X68751144Y-77815645D01*
X68754291Y-77822299D01*
X68756771Y-77829229D01*
X68758559Y-77836368D01*
X68759639Y-77843649D01*
X68760000Y-77851000D01*
X68760000Y-78001000D01*
X68759639Y-78008351D01*
X68758559Y-78015632D01*
X68756771Y-78022771D01*
X68754291Y-78029701D01*
X68751144Y-78036355D01*
X68747360Y-78042668D01*
X68742976Y-78048579D01*
X68738033Y-78054033D01*
X68732579Y-78058976D01*
X68726668Y-78063360D01*
X68720355Y-78067144D01*
X68713701Y-78070291D01*
X68706771Y-78072771D01*
X68699632Y-78074559D01*
X68692351Y-78075639D01*
X68685000Y-78076000D01*
X67285000Y-78076000D01*
X67277649Y-78075639D01*
X67270368Y-78074559D01*
X67263229Y-78072771D01*
X67256299Y-78070291D01*
X67249645Y-78067144D01*
X67243332Y-78063360D01*
X67237421Y-78058976D01*
X67231967Y-78054033D01*
X67227024Y-78048579D01*
X67222640Y-78042668D01*
X67218856Y-78036355D01*
X67215709Y-78029701D01*
X67213229Y-78022771D01*
X67211441Y-78015632D01*
X67210361Y-78008351D01*
X67210000Y-78001000D01*
X67210000Y-77851000D01*
X67210361Y-77843649D01*
X67211441Y-77836368D01*
X67213229Y-77829229D01*
X67215709Y-77822299D01*
X67218856Y-77815645D01*
X67222640Y-77809332D01*
X67227024Y-77803421D01*
X67231967Y-77797967D01*
X67237421Y-77793024D01*
X67243332Y-77788640D01*
X67249645Y-77784856D01*
X67256299Y-77781709D01*
X67263229Y-77779229D01*
X67270368Y-77777441D01*
X67277649Y-77776361D01*
X67285000Y-77776000D01*
X68685000Y-77776000D01*
X68692351Y-77776361D01*
G37*
G36*
X68692351Y-77276361D02*
G01*
X68699632Y-77277441D01*
X68706771Y-77279229D01*
X68713701Y-77281709D01*
X68720355Y-77284856D01*
X68726668Y-77288640D01*
X68732579Y-77293024D01*
X68738033Y-77297967D01*
X68742976Y-77303421D01*
X68747360Y-77309332D01*
X68751144Y-77315645D01*
X68754291Y-77322299D01*
X68756771Y-77329229D01*
X68758559Y-77336368D01*
X68759639Y-77343649D01*
X68760000Y-77351000D01*
X68760000Y-77501000D01*
X68759639Y-77508351D01*
X68758559Y-77515632D01*
X68756771Y-77522771D01*
X68754291Y-77529701D01*
X68751144Y-77536355D01*
X68747360Y-77542668D01*
X68742976Y-77548579D01*
X68738033Y-77554033D01*
X68732579Y-77558976D01*
X68726668Y-77563360D01*
X68720355Y-77567144D01*
X68713701Y-77570291D01*
X68706771Y-77572771D01*
X68699632Y-77574559D01*
X68692351Y-77575639D01*
X68685000Y-77576000D01*
X67285000Y-77576000D01*
X67277649Y-77575639D01*
X67270368Y-77574559D01*
X67263229Y-77572771D01*
X67256299Y-77570291D01*
X67249645Y-77567144D01*
X67243332Y-77563360D01*
X67237421Y-77558976D01*
X67231967Y-77554033D01*
X67227024Y-77548579D01*
X67222640Y-77542668D01*
X67218856Y-77536355D01*
X67215709Y-77529701D01*
X67213229Y-77522771D01*
X67211441Y-77515632D01*
X67210361Y-77508351D01*
X67210000Y-77501000D01*
X67210000Y-77351000D01*
X67210361Y-77343649D01*
X67211441Y-77336368D01*
X67213229Y-77329229D01*
X67215709Y-77322299D01*
X67218856Y-77315645D01*
X67222640Y-77309332D01*
X67227024Y-77303421D01*
X67231967Y-77297967D01*
X67237421Y-77293024D01*
X67243332Y-77288640D01*
X67249645Y-77284856D01*
X67256299Y-77281709D01*
X67263229Y-77279229D01*
X67270368Y-77277441D01*
X67277649Y-77276361D01*
X67285000Y-77276000D01*
X68685000Y-77276000D01*
X68692351Y-77276361D01*
G37*
G36*
X68692351Y-76776361D02*
G01*
X68699632Y-76777441D01*
X68706771Y-76779229D01*
X68713701Y-76781709D01*
X68720355Y-76784856D01*
X68726668Y-76788640D01*
X68732579Y-76793024D01*
X68738033Y-76797967D01*
X68742976Y-76803421D01*
X68747360Y-76809332D01*
X68751144Y-76815645D01*
X68754291Y-76822299D01*
X68756771Y-76829229D01*
X68758559Y-76836368D01*
X68759639Y-76843649D01*
X68760000Y-76851000D01*
X68760000Y-77001000D01*
X68759639Y-77008351D01*
X68758559Y-77015632D01*
X68756771Y-77022771D01*
X68754291Y-77029701D01*
X68751144Y-77036355D01*
X68747360Y-77042668D01*
X68742976Y-77048579D01*
X68738033Y-77054033D01*
X68732579Y-77058976D01*
X68726668Y-77063360D01*
X68720355Y-77067144D01*
X68713701Y-77070291D01*
X68706771Y-77072771D01*
X68699632Y-77074559D01*
X68692351Y-77075639D01*
X68685000Y-77076000D01*
X67285000Y-77076000D01*
X67277649Y-77075639D01*
X67270368Y-77074559D01*
X67263229Y-77072771D01*
X67256299Y-77070291D01*
X67249645Y-77067144D01*
X67243332Y-77063360D01*
X67237421Y-77058976D01*
X67231967Y-77054033D01*
X67227024Y-77048579D01*
X67222640Y-77042668D01*
X67218856Y-77036355D01*
X67215709Y-77029701D01*
X67213229Y-77022771D01*
X67211441Y-77015632D01*
X67210361Y-77008351D01*
X67210000Y-77001000D01*
X67210000Y-76851000D01*
X67210361Y-76843649D01*
X67211441Y-76836368D01*
X67213229Y-76829229D01*
X67215709Y-76822299D01*
X67218856Y-76815645D01*
X67222640Y-76809332D01*
X67227024Y-76803421D01*
X67231967Y-76797967D01*
X67237421Y-76793024D01*
X67243332Y-76788640D01*
X67249645Y-76784856D01*
X67256299Y-76781709D01*
X67263229Y-76779229D01*
X67270368Y-76777441D01*
X67277649Y-76776361D01*
X67285000Y-76776000D01*
X68685000Y-76776000D01*
X68692351Y-76776361D01*
G37*
G36*
X68692351Y-76276361D02*
G01*
X68699632Y-76277441D01*
X68706771Y-76279229D01*
X68713701Y-76281709D01*
X68720355Y-76284856D01*
X68726668Y-76288640D01*
X68732579Y-76293024D01*
X68738033Y-76297967D01*
X68742976Y-76303421D01*
X68747360Y-76309332D01*
X68751144Y-76315645D01*
X68754291Y-76322299D01*
X68756771Y-76329229D01*
X68758559Y-76336368D01*
X68759639Y-76343649D01*
X68760000Y-76351000D01*
X68760000Y-76501000D01*
X68759639Y-76508351D01*
X68758559Y-76515632D01*
X68756771Y-76522771D01*
X68754291Y-76529701D01*
X68751144Y-76536355D01*
X68747360Y-76542668D01*
X68742976Y-76548579D01*
X68738033Y-76554033D01*
X68732579Y-76558976D01*
X68726668Y-76563360D01*
X68720355Y-76567144D01*
X68713701Y-76570291D01*
X68706771Y-76572771D01*
X68699632Y-76574559D01*
X68692351Y-76575639D01*
X68685000Y-76576000D01*
X67285000Y-76576000D01*
X67277649Y-76575639D01*
X67270368Y-76574559D01*
X67263229Y-76572771D01*
X67256299Y-76570291D01*
X67249645Y-76567144D01*
X67243332Y-76563360D01*
X67237421Y-76558976D01*
X67231967Y-76554033D01*
X67227024Y-76548579D01*
X67222640Y-76542668D01*
X67218856Y-76536355D01*
X67215709Y-76529701D01*
X67213229Y-76522771D01*
X67211441Y-76515632D01*
X67210361Y-76508351D01*
X67210000Y-76501000D01*
X67210000Y-76351000D01*
X67210361Y-76343649D01*
X67211441Y-76336368D01*
X67213229Y-76329229D01*
X67215709Y-76322299D01*
X67218856Y-76315645D01*
X67222640Y-76309332D01*
X67227024Y-76303421D01*
X67231967Y-76297967D01*
X67237421Y-76293024D01*
X67243332Y-76288640D01*
X67249645Y-76284856D01*
X67256299Y-76281709D01*
X67263229Y-76279229D01*
X67270368Y-76277441D01*
X67277649Y-76276361D01*
X67285000Y-76276000D01*
X68685000Y-76276000D01*
X68692351Y-76276361D01*
G37*
G36*
X68692351Y-75776361D02*
G01*
X68699632Y-75777441D01*
X68706771Y-75779229D01*
X68713701Y-75781709D01*
X68720355Y-75784856D01*
X68726668Y-75788640D01*
X68732579Y-75793024D01*
X68738033Y-75797967D01*
X68742976Y-75803421D01*
X68747360Y-75809332D01*
X68751144Y-75815645D01*
X68754291Y-75822299D01*
X68756771Y-75829229D01*
X68758559Y-75836368D01*
X68759639Y-75843649D01*
X68760000Y-75851000D01*
X68760000Y-76001000D01*
X68759639Y-76008351D01*
X68758559Y-76015632D01*
X68756771Y-76022771D01*
X68754291Y-76029701D01*
X68751144Y-76036355D01*
X68747360Y-76042668D01*
X68742976Y-76048579D01*
X68738033Y-76054033D01*
X68732579Y-76058976D01*
X68726668Y-76063360D01*
X68720355Y-76067144D01*
X68713701Y-76070291D01*
X68706771Y-76072771D01*
X68699632Y-76074559D01*
X68692351Y-76075639D01*
X68685000Y-76076000D01*
X67285000Y-76076000D01*
X67277649Y-76075639D01*
X67270368Y-76074559D01*
X67263229Y-76072771D01*
X67256299Y-76070291D01*
X67249645Y-76067144D01*
X67243332Y-76063360D01*
X67237421Y-76058976D01*
X67231967Y-76054033D01*
X67227024Y-76048579D01*
X67222640Y-76042668D01*
X67218856Y-76036355D01*
X67215709Y-76029701D01*
X67213229Y-76022771D01*
X67211441Y-76015632D01*
X67210361Y-76008351D01*
X67210000Y-76001000D01*
X67210000Y-75851000D01*
X67210361Y-75843649D01*
X67211441Y-75836368D01*
X67213229Y-75829229D01*
X67215709Y-75822299D01*
X67218856Y-75815645D01*
X67222640Y-75809332D01*
X67227024Y-75803421D01*
X67231967Y-75797967D01*
X67237421Y-75793024D01*
X67243332Y-75788640D01*
X67249645Y-75784856D01*
X67256299Y-75781709D01*
X67263229Y-75779229D01*
X67270368Y-75777441D01*
X67277649Y-75776361D01*
X67285000Y-75776000D01*
X68685000Y-75776000D01*
X68692351Y-75776361D01*
G37*
G36*
X68692351Y-75276361D02*
G01*
X68699632Y-75277441D01*
X68706771Y-75279229D01*
X68713701Y-75281709D01*
X68720355Y-75284856D01*
X68726668Y-75288640D01*
X68732579Y-75293024D01*
X68738033Y-75297967D01*
X68742976Y-75303421D01*
X68747360Y-75309332D01*
X68751144Y-75315645D01*
X68754291Y-75322299D01*
X68756771Y-75329229D01*
X68758559Y-75336368D01*
X68759639Y-75343649D01*
X68760000Y-75351000D01*
X68760000Y-75501000D01*
X68759639Y-75508351D01*
X68758559Y-75515632D01*
X68756771Y-75522771D01*
X68754291Y-75529701D01*
X68751144Y-75536355D01*
X68747360Y-75542668D01*
X68742976Y-75548579D01*
X68738033Y-75554033D01*
X68732579Y-75558976D01*
X68726668Y-75563360D01*
X68720355Y-75567144D01*
X68713701Y-75570291D01*
X68706771Y-75572771D01*
X68699632Y-75574559D01*
X68692351Y-75575639D01*
X68685000Y-75576000D01*
X67285000Y-75576000D01*
X67277649Y-75575639D01*
X67270368Y-75574559D01*
X67263229Y-75572771D01*
X67256299Y-75570291D01*
X67249645Y-75567144D01*
X67243332Y-75563360D01*
X67237421Y-75558976D01*
X67231967Y-75554033D01*
X67227024Y-75548579D01*
X67222640Y-75542668D01*
X67218856Y-75536355D01*
X67215709Y-75529701D01*
X67213229Y-75522771D01*
X67211441Y-75515632D01*
X67210361Y-75508351D01*
X67210000Y-75501000D01*
X67210000Y-75351000D01*
X67210361Y-75343649D01*
X67211441Y-75336368D01*
X67213229Y-75329229D01*
X67215709Y-75322299D01*
X67218856Y-75315645D01*
X67222640Y-75309332D01*
X67227024Y-75303421D01*
X67231967Y-75297967D01*
X67237421Y-75293024D01*
X67243332Y-75288640D01*
X67249645Y-75284856D01*
X67256299Y-75281709D01*
X67263229Y-75279229D01*
X67270368Y-75277441D01*
X67277649Y-75276361D01*
X67285000Y-75276000D01*
X68685000Y-75276000D01*
X68692351Y-75276361D01*
G37*
G36*
X68692351Y-74776361D02*
G01*
X68699632Y-74777441D01*
X68706771Y-74779229D01*
X68713701Y-74781709D01*
X68720355Y-74784856D01*
X68726668Y-74788640D01*
X68732579Y-74793024D01*
X68738033Y-74797967D01*
X68742976Y-74803421D01*
X68747360Y-74809332D01*
X68751144Y-74815645D01*
X68754291Y-74822299D01*
X68756771Y-74829229D01*
X68758559Y-74836368D01*
X68759639Y-74843649D01*
X68760000Y-74851000D01*
X68760000Y-75001000D01*
X68759639Y-75008351D01*
X68758559Y-75015632D01*
X68756771Y-75022771D01*
X68754291Y-75029701D01*
X68751144Y-75036355D01*
X68747360Y-75042668D01*
X68742976Y-75048579D01*
X68738033Y-75054033D01*
X68732579Y-75058976D01*
X68726668Y-75063360D01*
X68720355Y-75067144D01*
X68713701Y-75070291D01*
X68706771Y-75072771D01*
X68699632Y-75074559D01*
X68692351Y-75075639D01*
X68685000Y-75076000D01*
X67285000Y-75076000D01*
X67277649Y-75075639D01*
X67270368Y-75074559D01*
X67263229Y-75072771D01*
X67256299Y-75070291D01*
X67249645Y-75067144D01*
X67243332Y-75063360D01*
X67237421Y-75058976D01*
X67231967Y-75054033D01*
X67227024Y-75048579D01*
X67222640Y-75042668D01*
X67218856Y-75036355D01*
X67215709Y-75029701D01*
X67213229Y-75022771D01*
X67211441Y-75015632D01*
X67210361Y-75008351D01*
X67210000Y-75001000D01*
X67210000Y-74851000D01*
X67210361Y-74843649D01*
X67211441Y-74836368D01*
X67213229Y-74829229D01*
X67215709Y-74822299D01*
X67218856Y-74815645D01*
X67222640Y-74809332D01*
X67227024Y-74803421D01*
X67231967Y-74797967D01*
X67237421Y-74793024D01*
X67243332Y-74788640D01*
X67249645Y-74784856D01*
X67256299Y-74781709D01*
X67263229Y-74779229D01*
X67270368Y-74777441D01*
X67277649Y-74776361D01*
X67285000Y-74776000D01*
X68685000Y-74776000D01*
X68692351Y-74776361D01*
G37*
G36*
X68692351Y-74276361D02*
G01*
X68699632Y-74277441D01*
X68706771Y-74279229D01*
X68713701Y-74281709D01*
X68720355Y-74284856D01*
X68726668Y-74288640D01*
X68732579Y-74293024D01*
X68738033Y-74297967D01*
X68742976Y-74303421D01*
X68747360Y-74309332D01*
X68751144Y-74315645D01*
X68754291Y-74322299D01*
X68756771Y-74329229D01*
X68758559Y-74336368D01*
X68759639Y-74343649D01*
X68760000Y-74351000D01*
X68760000Y-74501000D01*
X68759639Y-74508351D01*
X68758559Y-74515632D01*
X68756771Y-74522771D01*
X68754291Y-74529701D01*
X68751144Y-74536355D01*
X68747360Y-74542668D01*
X68742976Y-74548579D01*
X68738033Y-74554033D01*
X68732579Y-74558976D01*
X68726668Y-74563360D01*
X68720355Y-74567144D01*
X68713701Y-74570291D01*
X68706771Y-74572771D01*
X68699632Y-74574559D01*
X68692351Y-74575639D01*
X68685000Y-74576000D01*
X67285000Y-74576000D01*
X67277649Y-74575639D01*
X67270368Y-74574559D01*
X67263229Y-74572771D01*
X67256299Y-74570291D01*
X67249645Y-74567144D01*
X67243332Y-74563360D01*
X67237421Y-74558976D01*
X67231967Y-74554033D01*
X67227024Y-74548579D01*
X67222640Y-74542668D01*
X67218856Y-74536355D01*
X67215709Y-74529701D01*
X67213229Y-74522771D01*
X67211441Y-74515632D01*
X67210361Y-74508351D01*
X67210000Y-74501000D01*
X67210000Y-74351000D01*
X67210361Y-74343649D01*
X67211441Y-74336368D01*
X67213229Y-74329229D01*
X67215709Y-74322299D01*
X67218856Y-74315645D01*
X67222640Y-74309332D01*
X67227024Y-74303421D01*
X67231967Y-74297967D01*
X67237421Y-74293024D01*
X67243332Y-74288640D01*
X67249645Y-74284856D01*
X67256299Y-74281709D01*
X67263229Y-74279229D01*
X67270368Y-74277441D01*
X67277649Y-74276361D01*
X67285000Y-74276000D01*
X68685000Y-74276000D01*
X68692351Y-74276361D01*
G37*
G36*
X68692351Y-73776361D02*
G01*
X68699632Y-73777441D01*
X68706771Y-73779229D01*
X68713701Y-73781709D01*
X68720355Y-73784856D01*
X68726668Y-73788640D01*
X68732579Y-73793024D01*
X68738033Y-73797967D01*
X68742976Y-73803421D01*
X68747360Y-73809332D01*
X68751144Y-73815645D01*
X68754291Y-73822299D01*
X68756771Y-73829229D01*
X68758559Y-73836368D01*
X68759639Y-73843649D01*
X68760000Y-73851000D01*
X68760000Y-74001000D01*
X68759639Y-74008351D01*
X68758559Y-74015632D01*
X68756771Y-74022771D01*
X68754291Y-74029701D01*
X68751144Y-74036355D01*
X68747360Y-74042668D01*
X68742976Y-74048579D01*
X68738033Y-74054033D01*
X68732579Y-74058976D01*
X68726668Y-74063360D01*
X68720355Y-74067144D01*
X68713701Y-74070291D01*
X68706771Y-74072771D01*
X68699632Y-74074559D01*
X68692351Y-74075639D01*
X68685000Y-74076000D01*
X67285000Y-74076000D01*
X67277649Y-74075639D01*
X67270368Y-74074559D01*
X67263229Y-74072771D01*
X67256299Y-74070291D01*
X67249645Y-74067144D01*
X67243332Y-74063360D01*
X67237421Y-74058976D01*
X67231967Y-74054033D01*
X67227024Y-74048579D01*
X67222640Y-74042668D01*
X67218856Y-74036355D01*
X67215709Y-74029701D01*
X67213229Y-74022771D01*
X67211441Y-74015632D01*
X67210361Y-74008351D01*
X67210000Y-74001000D01*
X67210000Y-73851000D01*
X67210361Y-73843649D01*
X67211441Y-73836368D01*
X67213229Y-73829229D01*
X67215709Y-73822299D01*
X67218856Y-73815645D01*
X67222640Y-73809332D01*
X67227024Y-73803421D01*
X67231967Y-73797967D01*
X67237421Y-73793024D01*
X67243332Y-73788640D01*
X67249645Y-73784856D01*
X67256299Y-73781709D01*
X67263229Y-73779229D01*
X67270368Y-73777441D01*
X67277649Y-73776361D01*
X67285000Y-73776000D01*
X68685000Y-73776000D01*
X68692351Y-73776361D01*
G37*
G36*
X68692351Y-73276361D02*
G01*
X68699632Y-73277441D01*
X68706771Y-73279229D01*
X68713701Y-73281709D01*
X68720355Y-73284856D01*
X68726668Y-73288640D01*
X68732579Y-73293024D01*
X68738033Y-73297967D01*
X68742976Y-73303421D01*
X68747360Y-73309332D01*
X68751144Y-73315645D01*
X68754291Y-73322299D01*
X68756771Y-73329229D01*
X68758559Y-73336368D01*
X68759639Y-73343649D01*
X68760000Y-73351000D01*
X68760000Y-73501000D01*
X68759639Y-73508351D01*
X68758559Y-73515632D01*
X68756771Y-73522771D01*
X68754291Y-73529701D01*
X68751144Y-73536355D01*
X68747360Y-73542668D01*
X68742976Y-73548579D01*
X68738033Y-73554033D01*
X68732579Y-73558976D01*
X68726668Y-73563360D01*
X68720355Y-73567144D01*
X68713701Y-73570291D01*
X68706771Y-73572771D01*
X68699632Y-73574559D01*
X68692351Y-73575639D01*
X68685000Y-73576000D01*
X67285000Y-73576000D01*
X67277649Y-73575639D01*
X67270368Y-73574559D01*
X67263229Y-73572771D01*
X67256299Y-73570291D01*
X67249645Y-73567144D01*
X67243332Y-73563360D01*
X67237421Y-73558976D01*
X67231967Y-73554033D01*
X67227024Y-73548579D01*
X67222640Y-73542668D01*
X67218856Y-73536355D01*
X67215709Y-73529701D01*
X67213229Y-73522771D01*
X67211441Y-73515632D01*
X67210361Y-73508351D01*
X67210000Y-73501000D01*
X67210000Y-73351000D01*
X67210361Y-73343649D01*
X67211441Y-73336368D01*
X67213229Y-73329229D01*
X67215709Y-73322299D01*
X67218856Y-73315645D01*
X67222640Y-73309332D01*
X67227024Y-73303421D01*
X67231967Y-73297967D01*
X67237421Y-73293024D01*
X67243332Y-73288640D01*
X67249645Y-73284856D01*
X67256299Y-73281709D01*
X67263229Y-73279229D01*
X67270368Y-73277441D01*
X67277649Y-73276361D01*
X67285000Y-73276000D01*
X68685000Y-73276000D01*
X68692351Y-73276361D01*
G37*
G36*
X68692351Y-72776361D02*
G01*
X68699632Y-72777441D01*
X68706771Y-72779229D01*
X68713701Y-72781709D01*
X68720355Y-72784856D01*
X68726668Y-72788640D01*
X68732579Y-72793024D01*
X68738033Y-72797967D01*
X68742976Y-72803421D01*
X68747360Y-72809332D01*
X68751144Y-72815645D01*
X68754291Y-72822299D01*
X68756771Y-72829229D01*
X68758559Y-72836368D01*
X68759639Y-72843649D01*
X68760000Y-72851000D01*
X68760000Y-73001000D01*
X68759639Y-73008351D01*
X68758559Y-73015632D01*
X68756771Y-73022771D01*
X68754291Y-73029701D01*
X68751144Y-73036355D01*
X68747360Y-73042668D01*
X68742976Y-73048579D01*
X68738033Y-73054033D01*
X68732579Y-73058976D01*
X68726668Y-73063360D01*
X68720355Y-73067144D01*
X68713701Y-73070291D01*
X68706771Y-73072771D01*
X68699632Y-73074559D01*
X68692351Y-73075639D01*
X68685000Y-73076000D01*
X67285000Y-73076000D01*
X67277649Y-73075639D01*
X67270368Y-73074559D01*
X67263229Y-73072771D01*
X67256299Y-73070291D01*
X67249645Y-73067144D01*
X67243332Y-73063360D01*
X67237421Y-73058976D01*
X67231967Y-73054033D01*
X67227024Y-73048579D01*
X67222640Y-73042668D01*
X67218856Y-73036355D01*
X67215709Y-73029701D01*
X67213229Y-73022771D01*
X67211441Y-73015632D01*
X67210361Y-73008351D01*
X67210000Y-73001000D01*
X67210000Y-72851000D01*
X67210361Y-72843649D01*
X67211441Y-72836368D01*
X67213229Y-72829229D01*
X67215709Y-72822299D01*
X67218856Y-72815645D01*
X67222640Y-72809332D01*
X67227024Y-72803421D01*
X67231967Y-72797967D01*
X67237421Y-72793024D01*
X67243332Y-72788640D01*
X67249645Y-72784856D01*
X67256299Y-72781709D01*
X67263229Y-72779229D01*
X67270368Y-72777441D01*
X67277649Y-72776361D01*
X67285000Y-72776000D01*
X68685000Y-72776000D01*
X68692351Y-72776361D01*
G37*
G36*
X68692351Y-72276361D02*
G01*
X68699632Y-72277441D01*
X68706771Y-72279229D01*
X68713701Y-72281709D01*
X68720355Y-72284856D01*
X68726668Y-72288640D01*
X68732579Y-72293024D01*
X68738033Y-72297967D01*
X68742976Y-72303421D01*
X68747360Y-72309332D01*
X68751144Y-72315645D01*
X68754291Y-72322299D01*
X68756771Y-72329229D01*
X68758559Y-72336368D01*
X68759639Y-72343649D01*
X68760000Y-72351000D01*
X68760000Y-72501000D01*
X68759639Y-72508351D01*
X68758559Y-72515632D01*
X68756771Y-72522771D01*
X68754291Y-72529701D01*
X68751144Y-72536355D01*
X68747360Y-72542668D01*
X68742976Y-72548579D01*
X68738033Y-72554033D01*
X68732579Y-72558976D01*
X68726668Y-72563360D01*
X68720355Y-72567144D01*
X68713701Y-72570291D01*
X68706771Y-72572771D01*
X68699632Y-72574559D01*
X68692351Y-72575639D01*
X68685000Y-72576000D01*
X67285000Y-72576000D01*
X67277649Y-72575639D01*
X67270368Y-72574559D01*
X67263229Y-72572771D01*
X67256299Y-72570291D01*
X67249645Y-72567144D01*
X67243332Y-72563360D01*
X67237421Y-72558976D01*
X67231967Y-72554033D01*
X67227024Y-72548579D01*
X67222640Y-72542668D01*
X67218856Y-72536355D01*
X67215709Y-72529701D01*
X67213229Y-72522771D01*
X67211441Y-72515632D01*
X67210361Y-72508351D01*
X67210000Y-72501000D01*
X67210000Y-72351000D01*
X67210361Y-72343649D01*
X67211441Y-72336368D01*
X67213229Y-72329229D01*
X67215709Y-72322299D01*
X67218856Y-72315645D01*
X67222640Y-72309332D01*
X67227024Y-72303421D01*
X67231967Y-72297967D01*
X67237421Y-72293024D01*
X67243332Y-72288640D01*
X67249645Y-72284856D01*
X67256299Y-72281709D01*
X67263229Y-72279229D01*
X67270368Y-72277441D01*
X67277649Y-72276361D01*
X67285000Y-72276000D01*
X68685000Y-72276000D01*
X68692351Y-72276361D01*
G37*
G36*
X68692351Y-71776361D02*
G01*
X68699632Y-71777441D01*
X68706771Y-71779229D01*
X68713701Y-71781709D01*
X68720355Y-71784856D01*
X68726668Y-71788640D01*
X68732579Y-71793024D01*
X68738033Y-71797967D01*
X68742976Y-71803421D01*
X68747360Y-71809332D01*
X68751144Y-71815645D01*
X68754291Y-71822299D01*
X68756771Y-71829229D01*
X68758559Y-71836368D01*
X68759639Y-71843649D01*
X68760000Y-71851000D01*
X68760000Y-72001000D01*
X68759639Y-72008351D01*
X68758559Y-72015632D01*
X68756771Y-72022771D01*
X68754291Y-72029701D01*
X68751144Y-72036355D01*
X68747360Y-72042668D01*
X68742976Y-72048579D01*
X68738033Y-72054033D01*
X68732579Y-72058976D01*
X68726668Y-72063360D01*
X68720355Y-72067144D01*
X68713701Y-72070291D01*
X68706771Y-72072771D01*
X68699632Y-72074559D01*
X68692351Y-72075639D01*
X68685000Y-72076000D01*
X67285000Y-72076000D01*
X67277649Y-72075639D01*
X67270368Y-72074559D01*
X67263229Y-72072771D01*
X67256299Y-72070291D01*
X67249645Y-72067144D01*
X67243332Y-72063360D01*
X67237421Y-72058976D01*
X67231967Y-72054033D01*
X67227024Y-72048579D01*
X67222640Y-72042668D01*
X67218856Y-72036355D01*
X67215709Y-72029701D01*
X67213229Y-72022771D01*
X67211441Y-72015632D01*
X67210361Y-72008351D01*
X67210000Y-72001000D01*
X67210000Y-71851000D01*
X67210361Y-71843649D01*
X67211441Y-71836368D01*
X67213229Y-71829229D01*
X67215709Y-71822299D01*
X67218856Y-71815645D01*
X67222640Y-71809332D01*
X67227024Y-71803421D01*
X67231967Y-71797967D01*
X67237421Y-71793024D01*
X67243332Y-71788640D01*
X67249645Y-71784856D01*
X67256299Y-71781709D01*
X67263229Y-71779229D01*
X67270368Y-71777441D01*
X67277649Y-71776361D01*
X67285000Y-71776000D01*
X68685000Y-71776000D01*
X68692351Y-71776361D01*
G37*
G36*
X68692351Y-71276361D02*
G01*
X68699632Y-71277441D01*
X68706771Y-71279229D01*
X68713701Y-71281709D01*
X68720355Y-71284856D01*
X68726668Y-71288640D01*
X68732579Y-71293024D01*
X68738033Y-71297967D01*
X68742976Y-71303421D01*
X68747360Y-71309332D01*
X68751144Y-71315645D01*
X68754291Y-71322299D01*
X68756771Y-71329229D01*
X68758559Y-71336368D01*
X68759639Y-71343649D01*
X68760000Y-71351000D01*
X68760000Y-71501000D01*
X68759639Y-71508351D01*
X68758559Y-71515632D01*
X68756771Y-71522771D01*
X68754291Y-71529701D01*
X68751144Y-71536355D01*
X68747360Y-71542668D01*
X68742976Y-71548579D01*
X68738033Y-71554033D01*
X68732579Y-71558976D01*
X68726668Y-71563360D01*
X68720355Y-71567144D01*
X68713701Y-71570291D01*
X68706771Y-71572771D01*
X68699632Y-71574559D01*
X68692351Y-71575639D01*
X68685000Y-71576000D01*
X67285000Y-71576000D01*
X67277649Y-71575639D01*
X67270368Y-71574559D01*
X67263229Y-71572771D01*
X67256299Y-71570291D01*
X67249645Y-71567144D01*
X67243332Y-71563360D01*
X67237421Y-71558976D01*
X67231967Y-71554033D01*
X67227024Y-71548579D01*
X67222640Y-71542668D01*
X67218856Y-71536355D01*
X67215709Y-71529701D01*
X67213229Y-71522771D01*
X67211441Y-71515632D01*
X67210361Y-71508351D01*
X67210000Y-71501000D01*
X67210000Y-71351000D01*
X67210361Y-71343649D01*
X67211441Y-71336368D01*
X67213229Y-71329229D01*
X67215709Y-71322299D01*
X67218856Y-71315645D01*
X67222640Y-71309332D01*
X67227024Y-71303421D01*
X67231967Y-71297967D01*
X67237421Y-71293024D01*
X67243332Y-71288640D01*
X67249645Y-71284856D01*
X67256299Y-71281709D01*
X67263229Y-71279229D01*
X67270368Y-71277441D01*
X67277649Y-71276361D01*
X67285000Y-71276000D01*
X68685000Y-71276000D01*
X68692351Y-71276361D01*
G37*
G36*
X68692351Y-70776361D02*
G01*
X68699632Y-70777441D01*
X68706771Y-70779229D01*
X68713701Y-70781709D01*
X68720355Y-70784856D01*
X68726668Y-70788640D01*
X68732579Y-70793024D01*
X68738033Y-70797967D01*
X68742976Y-70803421D01*
X68747360Y-70809332D01*
X68751144Y-70815645D01*
X68754291Y-70822299D01*
X68756771Y-70829229D01*
X68758559Y-70836368D01*
X68759639Y-70843649D01*
X68760000Y-70851000D01*
X68760000Y-71001000D01*
X68759639Y-71008351D01*
X68758559Y-71015632D01*
X68756771Y-71022771D01*
X68754291Y-71029701D01*
X68751144Y-71036355D01*
X68747360Y-71042668D01*
X68742976Y-71048579D01*
X68738033Y-71054033D01*
X68732579Y-71058976D01*
X68726668Y-71063360D01*
X68720355Y-71067144D01*
X68713701Y-71070291D01*
X68706771Y-71072771D01*
X68699632Y-71074559D01*
X68692351Y-71075639D01*
X68685000Y-71076000D01*
X67285000Y-71076000D01*
X67277649Y-71075639D01*
X67270368Y-71074559D01*
X67263229Y-71072771D01*
X67256299Y-71070291D01*
X67249645Y-71067144D01*
X67243332Y-71063360D01*
X67237421Y-71058976D01*
X67231967Y-71054033D01*
X67227024Y-71048579D01*
X67222640Y-71042668D01*
X67218856Y-71036355D01*
X67215709Y-71029701D01*
X67213229Y-71022771D01*
X67211441Y-71015632D01*
X67210361Y-71008351D01*
X67210000Y-71001000D01*
X67210000Y-70851000D01*
X67210361Y-70843649D01*
X67211441Y-70836368D01*
X67213229Y-70829229D01*
X67215709Y-70822299D01*
X67218856Y-70815645D01*
X67222640Y-70809332D01*
X67227024Y-70803421D01*
X67231967Y-70797967D01*
X67237421Y-70793024D01*
X67243332Y-70788640D01*
X67249645Y-70784856D01*
X67256299Y-70781709D01*
X67263229Y-70779229D01*
X67270368Y-70777441D01*
X67277649Y-70776361D01*
X67285000Y-70776000D01*
X68685000Y-70776000D01*
X68692351Y-70776361D01*
G37*
G36*
X69992351Y-68226361D02*
G01*
X69999632Y-68227441D01*
X70006771Y-68229229D01*
X70013701Y-68231709D01*
X70020355Y-68234856D01*
X70026668Y-68238640D01*
X70032579Y-68243024D01*
X70038033Y-68247967D01*
X70042976Y-68253421D01*
X70047360Y-68259332D01*
X70051144Y-68265645D01*
X70054291Y-68272299D01*
X70056771Y-68279229D01*
X70058559Y-68286368D01*
X70059639Y-68293649D01*
X70060000Y-68301000D01*
X70060000Y-69701000D01*
X70059639Y-69708351D01*
X70058559Y-69715632D01*
X70056771Y-69722771D01*
X70054291Y-69729701D01*
X70051144Y-69736355D01*
X70047360Y-69742668D01*
X70042976Y-69748579D01*
X70038033Y-69754033D01*
X70032579Y-69758976D01*
X70026668Y-69763360D01*
X70020355Y-69767144D01*
X70013701Y-69770291D01*
X70006771Y-69772771D01*
X69999632Y-69774559D01*
X69992351Y-69775639D01*
X69985000Y-69776000D01*
X69835000Y-69776000D01*
X69827649Y-69775639D01*
X69820368Y-69774559D01*
X69813229Y-69772771D01*
X69806299Y-69770291D01*
X69799645Y-69767144D01*
X69793332Y-69763360D01*
X69787421Y-69758976D01*
X69781967Y-69754033D01*
X69777024Y-69748579D01*
X69772640Y-69742668D01*
X69768856Y-69736355D01*
X69765709Y-69729701D01*
X69763229Y-69722771D01*
X69761441Y-69715632D01*
X69760361Y-69708351D01*
X69760000Y-69701000D01*
X69760000Y-68301000D01*
X69760361Y-68293649D01*
X69761441Y-68286368D01*
X69763229Y-68279229D01*
X69765709Y-68272299D01*
X69768856Y-68265645D01*
X69772640Y-68259332D01*
X69777024Y-68253421D01*
X69781967Y-68247967D01*
X69787421Y-68243024D01*
X69793332Y-68238640D01*
X69799645Y-68234856D01*
X69806299Y-68231709D01*
X69813229Y-68229229D01*
X69820368Y-68227441D01*
X69827649Y-68226361D01*
X69835000Y-68226000D01*
X69985000Y-68226000D01*
X69992351Y-68226361D01*
G37*
G36*
X70492351Y-68226361D02*
G01*
X70499632Y-68227441D01*
X70506771Y-68229229D01*
X70513701Y-68231709D01*
X70520355Y-68234856D01*
X70526668Y-68238640D01*
X70532579Y-68243024D01*
X70538033Y-68247967D01*
X70542976Y-68253421D01*
X70547360Y-68259332D01*
X70551144Y-68265645D01*
X70554291Y-68272299D01*
X70556771Y-68279229D01*
X70558559Y-68286368D01*
X70559639Y-68293649D01*
X70560000Y-68301000D01*
X70560000Y-69701000D01*
X70559639Y-69708351D01*
X70558559Y-69715632D01*
X70556771Y-69722771D01*
X70554291Y-69729701D01*
X70551144Y-69736355D01*
X70547360Y-69742668D01*
X70542976Y-69748579D01*
X70538033Y-69754033D01*
X70532579Y-69758976D01*
X70526668Y-69763360D01*
X70520355Y-69767144D01*
X70513701Y-69770291D01*
X70506771Y-69772771D01*
X70499632Y-69774559D01*
X70492351Y-69775639D01*
X70485000Y-69776000D01*
X70335000Y-69776000D01*
X70327649Y-69775639D01*
X70320368Y-69774559D01*
X70313229Y-69772771D01*
X70306299Y-69770291D01*
X70299645Y-69767144D01*
X70293332Y-69763360D01*
X70287421Y-69758976D01*
X70281967Y-69754033D01*
X70277024Y-69748579D01*
X70272640Y-69742668D01*
X70268856Y-69736355D01*
X70265709Y-69729701D01*
X70263229Y-69722771D01*
X70261441Y-69715632D01*
X70260361Y-69708351D01*
X70260000Y-69701000D01*
X70260000Y-68301000D01*
X70260361Y-68293649D01*
X70261441Y-68286368D01*
X70263229Y-68279229D01*
X70265709Y-68272299D01*
X70268856Y-68265645D01*
X70272640Y-68259332D01*
X70277024Y-68253421D01*
X70281967Y-68247967D01*
X70287421Y-68243024D01*
X70293332Y-68238640D01*
X70299645Y-68234856D01*
X70306299Y-68231709D01*
X70313229Y-68229229D01*
X70320368Y-68227441D01*
X70327649Y-68226361D01*
X70335000Y-68226000D01*
X70485000Y-68226000D01*
X70492351Y-68226361D01*
G37*
G36*
X70992351Y-68226361D02*
G01*
X70999632Y-68227441D01*
X71006771Y-68229229D01*
X71013701Y-68231709D01*
X71020355Y-68234856D01*
X71026668Y-68238640D01*
X71032579Y-68243024D01*
X71038033Y-68247967D01*
X71042976Y-68253421D01*
X71047360Y-68259332D01*
X71051144Y-68265645D01*
X71054291Y-68272299D01*
X71056771Y-68279229D01*
X71058559Y-68286368D01*
X71059639Y-68293649D01*
X71060000Y-68301000D01*
X71060000Y-69701000D01*
X71059639Y-69708351D01*
X71058559Y-69715632D01*
X71056771Y-69722771D01*
X71054291Y-69729701D01*
X71051144Y-69736355D01*
X71047360Y-69742668D01*
X71042976Y-69748579D01*
X71038033Y-69754033D01*
X71032579Y-69758976D01*
X71026668Y-69763360D01*
X71020355Y-69767144D01*
X71013701Y-69770291D01*
X71006771Y-69772771D01*
X70999632Y-69774559D01*
X70992351Y-69775639D01*
X70985000Y-69776000D01*
X70835000Y-69776000D01*
X70827649Y-69775639D01*
X70820368Y-69774559D01*
X70813229Y-69772771D01*
X70806299Y-69770291D01*
X70799645Y-69767144D01*
X70793332Y-69763360D01*
X70787421Y-69758976D01*
X70781967Y-69754033D01*
X70777024Y-69748579D01*
X70772640Y-69742668D01*
X70768856Y-69736355D01*
X70765709Y-69729701D01*
X70763229Y-69722771D01*
X70761441Y-69715632D01*
X70760361Y-69708351D01*
X70760000Y-69701000D01*
X70760000Y-68301000D01*
X70760361Y-68293649D01*
X70761441Y-68286368D01*
X70763229Y-68279229D01*
X70765709Y-68272299D01*
X70768856Y-68265645D01*
X70772640Y-68259332D01*
X70777024Y-68253421D01*
X70781967Y-68247967D01*
X70787421Y-68243024D01*
X70793332Y-68238640D01*
X70799645Y-68234856D01*
X70806299Y-68231709D01*
X70813229Y-68229229D01*
X70820368Y-68227441D01*
X70827649Y-68226361D01*
X70835000Y-68226000D01*
X70985000Y-68226000D01*
X70992351Y-68226361D01*
G37*
G36*
X71492351Y-68226361D02*
G01*
X71499632Y-68227441D01*
X71506771Y-68229229D01*
X71513701Y-68231709D01*
X71520355Y-68234856D01*
X71526668Y-68238640D01*
X71532579Y-68243024D01*
X71538033Y-68247967D01*
X71542976Y-68253421D01*
X71547360Y-68259332D01*
X71551144Y-68265645D01*
X71554291Y-68272299D01*
X71556771Y-68279229D01*
X71558559Y-68286368D01*
X71559639Y-68293649D01*
X71560000Y-68301000D01*
X71560000Y-69701000D01*
X71559639Y-69708351D01*
X71558559Y-69715632D01*
X71556771Y-69722771D01*
X71554291Y-69729701D01*
X71551144Y-69736355D01*
X71547360Y-69742668D01*
X71542976Y-69748579D01*
X71538033Y-69754033D01*
X71532579Y-69758976D01*
X71526668Y-69763360D01*
X71520355Y-69767144D01*
X71513701Y-69770291D01*
X71506771Y-69772771D01*
X71499632Y-69774559D01*
X71492351Y-69775639D01*
X71485000Y-69776000D01*
X71335000Y-69776000D01*
X71327649Y-69775639D01*
X71320368Y-69774559D01*
X71313229Y-69772771D01*
X71306299Y-69770291D01*
X71299645Y-69767144D01*
X71293332Y-69763360D01*
X71287421Y-69758976D01*
X71281967Y-69754033D01*
X71277024Y-69748579D01*
X71272640Y-69742668D01*
X71268856Y-69736355D01*
X71265709Y-69729701D01*
X71263229Y-69722771D01*
X71261441Y-69715632D01*
X71260361Y-69708351D01*
X71260000Y-69701000D01*
X71260000Y-68301000D01*
X71260361Y-68293649D01*
X71261441Y-68286368D01*
X71263229Y-68279229D01*
X71265709Y-68272299D01*
X71268856Y-68265645D01*
X71272640Y-68259332D01*
X71277024Y-68253421D01*
X71281967Y-68247967D01*
X71287421Y-68243024D01*
X71293332Y-68238640D01*
X71299645Y-68234856D01*
X71306299Y-68231709D01*
X71313229Y-68229229D01*
X71320368Y-68227441D01*
X71327649Y-68226361D01*
X71335000Y-68226000D01*
X71485000Y-68226000D01*
X71492351Y-68226361D01*
G37*
G36*
X71992351Y-68226361D02*
G01*
X71999632Y-68227441D01*
X72006771Y-68229229D01*
X72013701Y-68231709D01*
X72020355Y-68234856D01*
X72026668Y-68238640D01*
X72032579Y-68243024D01*
X72038033Y-68247967D01*
X72042976Y-68253421D01*
X72047360Y-68259332D01*
X72051144Y-68265645D01*
X72054291Y-68272299D01*
X72056771Y-68279229D01*
X72058559Y-68286368D01*
X72059639Y-68293649D01*
X72060000Y-68301000D01*
X72060000Y-69701000D01*
X72059639Y-69708351D01*
X72058559Y-69715632D01*
X72056771Y-69722771D01*
X72054291Y-69729701D01*
X72051144Y-69736355D01*
X72047360Y-69742668D01*
X72042976Y-69748579D01*
X72038033Y-69754033D01*
X72032579Y-69758976D01*
X72026668Y-69763360D01*
X72020355Y-69767144D01*
X72013701Y-69770291D01*
X72006771Y-69772771D01*
X71999632Y-69774559D01*
X71992351Y-69775639D01*
X71985000Y-69776000D01*
X71835000Y-69776000D01*
X71827649Y-69775639D01*
X71820368Y-69774559D01*
X71813229Y-69772771D01*
X71806299Y-69770291D01*
X71799645Y-69767144D01*
X71793332Y-69763360D01*
X71787421Y-69758976D01*
X71781967Y-69754033D01*
X71777024Y-69748579D01*
X71772640Y-69742668D01*
X71768856Y-69736355D01*
X71765709Y-69729701D01*
X71763229Y-69722771D01*
X71761441Y-69715632D01*
X71760361Y-69708351D01*
X71760000Y-69701000D01*
X71760000Y-68301000D01*
X71760361Y-68293649D01*
X71761441Y-68286368D01*
X71763229Y-68279229D01*
X71765709Y-68272299D01*
X71768856Y-68265645D01*
X71772640Y-68259332D01*
X71777024Y-68253421D01*
X71781967Y-68247967D01*
X71787421Y-68243024D01*
X71793332Y-68238640D01*
X71799645Y-68234856D01*
X71806299Y-68231709D01*
X71813229Y-68229229D01*
X71820368Y-68227441D01*
X71827649Y-68226361D01*
X71835000Y-68226000D01*
X71985000Y-68226000D01*
X71992351Y-68226361D01*
G37*
G36*
X72492351Y-68226361D02*
G01*
X72499632Y-68227441D01*
X72506771Y-68229229D01*
X72513701Y-68231709D01*
X72520355Y-68234856D01*
X72526668Y-68238640D01*
X72532579Y-68243024D01*
X72538033Y-68247967D01*
X72542976Y-68253421D01*
X72547360Y-68259332D01*
X72551144Y-68265645D01*
X72554291Y-68272299D01*
X72556771Y-68279229D01*
X72558559Y-68286368D01*
X72559639Y-68293649D01*
X72560000Y-68301000D01*
X72560000Y-69701000D01*
X72559639Y-69708351D01*
X72558559Y-69715632D01*
X72556771Y-69722771D01*
X72554291Y-69729701D01*
X72551144Y-69736355D01*
X72547360Y-69742668D01*
X72542976Y-69748579D01*
X72538033Y-69754033D01*
X72532579Y-69758976D01*
X72526668Y-69763360D01*
X72520355Y-69767144D01*
X72513701Y-69770291D01*
X72506771Y-69772771D01*
X72499632Y-69774559D01*
X72492351Y-69775639D01*
X72485000Y-69776000D01*
X72335000Y-69776000D01*
X72327649Y-69775639D01*
X72320368Y-69774559D01*
X72313229Y-69772771D01*
X72306299Y-69770291D01*
X72299645Y-69767144D01*
X72293332Y-69763360D01*
X72287421Y-69758976D01*
X72281967Y-69754033D01*
X72277024Y-69748579D01*
X72272640Y-69742668D01*
X72268856Y-69736355D01*
X72265709Y-69729701D01*
X72263229Y-69722771D01*
X72261441Y-69715632D01*
X72260361Y-69708351D01*
X72260000Y-69701000D01*
X72260000Y-68301000D01*
X72260361Y-68293649D01*
X72261441Y-68286368D01*
X72263229Y-68279229D01*
X72265709Y-68272299D01*
X72268856Y-68265645D01*
X72272640Y-68259332D01*
X72277024Y-68253421D01*
X72281967Y-68247967D01*
X72287421Y-68243024D01*
X72293332Y-68238640D01*
X72299645Y-68234856D01*
X72306299Y-68231709D01*
X72313229Y-68229229D01*
X72320368Y-68227441D01*
X72327649Y-68226361D01*
X72335000Y-68226000D01*
X72485000Y-68226000D01*
X72492351Y-68226361D01*
G37*
G36*
X72992351Y-68226361D02*
G01*
X72999632Y-68227441D01*
X73006771Y-68229229D01*
X73013701Y-68231709D01*
X73020355Y-68234856D01*
X73026668Y-68238640D01*
X73032579Y-68243024D01*
X73038033Y-68247967D01*
X73042976Y-68253421D01*
X73047360Y-68259332D01*
X73051144Y-68265645D01*
X73054291Y-68272299D01*
X73056771Y-68279229D01*
X73058559Y-68286368D01*
X73059639Y-68293649D01*
X73060000Y-68301000D01*
X73060000Y-69701000D01*
X73059639Y-69708351D01*
X73058559Y-69715632D01*
X73056771Y-69722771D01*
X73054291Y-69729701D01*
X73051144Y-69736355D01*
X73047360Y-69742668D01*
X73042976Y-69748579D01*
X73038033Y-69754033D01*
X73032579Y-69758976D01*
X73026668Y-69763360D01*
X73020355Y-69767144D01*
X73013701Y-69770291D01*
X73006771Y-69772771D01*
X72999632Y-69774559D01*
X72992351Y-69775639D01*
X72985000Y-69776000D01*
X72835000Y-69776000D01*
X72827649Y-69775639D01*
X72820368Y-69774559D01*
X72813229Y-69772771D01*
X72806299Y-69770291D01*
X72799645Y-69767144D01*
X72793332Y-69763360D01*
X72787421Y-69758976D01*
X72781967Y-69754033D01*
X72777024Y-69748579D01*
X72772640Y-69742668D01*
X72768856Y-69736355D01*
X72765709Y-69729701D01*
X72763229Y-69722771D01*
X72761441Y-69715632D01*
X72760361Y-69708351D01*
X72760000Y-69701000D01*
X72760000Y-68301000D01*
X72760361Y-68293649D01*
X72761441Y-68286368D01*
X72763229Y-68279229D01*
X72765709Y-68272299D01*
X72768856Y-68265645D01*
X72772640Y-68259332D01*
X72777024Y-68253421D01*
X72781967Y-68247967D01*
X72787421Y-68243024D01*
X72793332Y-68238640D01*
X72799645Y-68234856D01*
X72806299Y-68231709D01*
X72813229Y-68229229D01*
X72820368Y-68227441D01*
X72827649Y-68226361D01*
X72835000Y-68226000D01*
X72985000Y-68226000D01*
X72992351Y-68226361D01*
G37*
G36*
X73492351Y-68226361D02*
G01*
X73499632Y-68227441D01*
X73506771Y-68229229D01*
X73513701Y-68231709D01*
X73520355Y-68234856D01*
X73526668Y-68238640D01*
X73532579Y-68243024D01*
X73538033Y-68247967D01*
X73542976Y-68253421D01*
X73547360Y-68259332D01*
X73551144Y-68265645D01*
X73554291Y-68272299D01*
X73556771Y-68279229D01*
X73558559Y-68286368D01*
X73559639Y-68293649D01*
X73560000Y-68301000D01*
X73560000Y-69701000D01*
X73559639Y-69708351D01*
X73558559Y-69715632D01*
X73556771Y-69722771D01*
X73554291Y-69729701D01*
X73551144Y-69736355D01*
X73547360Y-69742668D01*
X73542976Y-69748579D01*
X73538033Y-69754033D01*
X73532579Y-69758976D01*
X73526668Y-69763360D01*
X73520355Y-69767144D01*
X73513701Y-69770291D01*
X73506771Y-69772771D01*
X73499632Y-69774559D01*
X73492351Y-69775639D01*
X73485000Y-69776000D01*
X73335000Y-69776000D01*
X73327649Y-69775639D01*
X73320368Y-69774559D01*
X73313229Y-69772771D01*
X73306299Y-69770291D01*
X73299645Y-69767144D01*
X73293332Y-69763360D01*
X73287421Y-69758976D01*
X73281967Y-69754033D01*
X73277024Y-69748579D01*
X73272640Y-69742668D01*
X73268856Y-69736355D01*
X73265709Y-69729701D01*
X73263229Y-69722771D01*
X73261441Y-69715632D01*
X73260361Y-69708351D01*
X73260000Y-69701000D01*
X73260000Y-68301000D01*
X73260361Y-68293649D01*
X73261441Y-68286368D01*
X73263229Y-68279229D01*
X73265709Y-68272299D01*
X73268856Y-68265645D01*
X73272640Y-68259332D01*
X73277024Y-68253421D01*
X73281967Y-68247967D01*
X73287421Y-68243024D01*
X73293332Y-68238640D01*
X73299645Y-68234856D01*
X73306299Y-68231709D01*
X73313229Y-68229229D01*
X73320368Y-68227441D01*
X73327649Y-68226361D01*
X73335000Y-68226000D01*
X73485000Y-68226000D01*
X73492351Y-68226361D01*
G37*
G36*
X73992351Y-68226361D02*
G01*
X73999632Y-68227441D01*
X74006771Y-68229229D01*
X74013701Y-68231709D01*
X74020355Y-68234856D01*
X74026668Y-68238640D01*
X74032579Y-68243024D01*
X74038033Y-68247967D01*
X74042976Y-68253421D01*
X74047360Y-68259332D01*
X74051144Y-68265645D01*
X74054291Y-68272299D01*
X74056771Y-68279229D01*
X74058559Y-68286368D01*
X74059639Y-68293649D01*
X74060000Y-68301000D01*
X74060000Y-69701000D01*
X74059639Y-69708351D01*
X74058559Y-69715632D01*
X74056771Y-69722771D01*
X74054291Y-69729701D01*
X74051144Y-69736355D01*
X74047360Y-69742668D01*
X74042976Y-69748579D01*
X74038033Y-69754033D01*
X74032579Y-69758976D01*
X74026668Y-69763360D01*
X74020355Y-69767144D01*
X74013701Y-69770291D01*
X74006771Y-69772771D01*
X73999632Y-69774559D01*
X73992351Y-69775639D01*
X73985000Y-69776000D01*
X73835000Y-69776000D01*
X73827649Y-69775639D01*
X73820368Y-69774559D01*
X73813229Y-69772771D01*
X73806299Y-69770291D01*
X73799645Y-69767144D01*
X73793332Y-69763360D01*
X73787421Y-69758976D01*
X73781967Y-69754033D01*
X73777024Y-69748579D01*
X73772640Y-69742668D01*
X73768856Y-69736355D01*
X73765709Y-69729701D01*
X73763229Y-69722771D01*
X73761441Y-69715632D01*
X73760361Y-69708351D01*
X73760000Y-69701000D01*
X73760000Y-68301000D01*
X73760361Y-68293649D01*
X73761441Y-68286368D01*
X73763229Y-68279229D01*
X73765709Y-68272299D01*
X73768856Y-68265645D01*
X73772640Y-68259332D01*
X73777024Y-68253421D01*
X73781967Y-68247967D01*
X73787421Y-68243024D01*
X73793332Y-68238640D01*
X73799645Y-68234856D01*
X73806299Y-68231709D01*
X73813229Y-68229229D01*
X73820368Y-68227441D01*
X73827649Y-68226361D01*
X73835000Y-68226000D01*
X73985000Y-68226000D01*
X73992351Y-68226361D01*
G37*
G36*
X74492351Y-68226361D02*
G01*
X74499632Y-68227441D01*
X74506771Y-68229229D01*
X74513701Y-68231709D01*
X74520355Y-68234856D01*
X74526668Y-68238640D01*
X74532579Y-68243024D01*
X74538033Y-68247967D01*
X74542976Y-68253421D01*
X74547360Y-68259332D01*
X74551144Y-68265645D01*
X74554291Y-68272299D01*
X74556771Y-68279229D01*
X74558559Y-68286368D01*
X74559639Y-68293649D01*
X74560000Y-68301000D01*
X74560000Y-69701000D01*
X74559639Y-69708351D01*
X74558559Y-69715632D01*
X74556771Y-69722771D01*
X74554291Y-69729701D01*
X74551144Y-69736355D01*
X74547360Y-69742668D01*
X74542976Y-69748579D01*
X74538033Y-69754033D01*
X74532579Y-69758976D01*
X74526668Y-69763360D01*
X74520355Y-69767144D01*
X74513701Y-69770291D01*
X74506771Y-69772771D01*
X74499632Y-69774559D01*
X74492351Y-69775639D01*
X74485000Y-69776000D01*
X74335000Y-69776000D01*
X74327649Y-69775639D01*
X74320368Y-69774559D01*
X74313229Y-69772771D01*
X74306299Y-69770291D01*
X74299645Y-69767144D01*
X74293332Y-69763360D01*
X74287421Y-69758976D01*
X74281967Y-69754033D01*
X74277024Y-69748579D01*
X74272640Y-69742668D01*
X74268856Y-69736355D01*
X74265709Y-69729701D01*
X74263229Y-69722771D01*
X74261441Y-69715632D01*
X74260361Y-69708351D01*
X74260000Y-69701000D01*
X74260000Y-68301000D01*
X74260361Y-68293649D01*
X74261441Y-68286368D01*
X74263229Y-68279229D01*
X74265709Y-68272299D01*
X74268856Y-68265645D01*
X74272640Y-68259332D01*
X74277024Y-68253421D01*
X74281967Y-68247967D01*
X74287421Y-68243024D01*
X74293332Y-68238640D01*
X74299645Y-68234856D01*
X74306299Y-68231709D01*
X74313229Y-68229229D01*
X74320368Y-68227441D01*
X74327649Y-68226361D01*
X74335000Y-68226000D01*
X74485000Y-68226000D01*
X74492351Y-68226361D01*
G37*
G36*
X74992351Y-68226361D02*
G01*
X74999632Y-68227441D01*
X75006771Y-68229229D01*
X75013701Y-68231709D01*
X75020355Y-68234856D01*
X75026668Y-68238640D01*
X75032579Y-68243024D01*
X75038033Y-68247967D01*
X75042976Y-68253421D01*
X75047360Y-68259332D01*
X75051144Y-68265645D01*
X75054291Y-68272299D01*
X75056771Y-68279229D01*
X75058559Y-68286368D01*
X75059639Y-68293649D01*
X75060000Y-68301000D01*
X75060000Y-69701000D01*
X75059639Y-69708351D01*
X75058559Y-69715632D01*
X75056771Y-69722771D01*
X75054291Y-69729701D01*
X75051144Y-69736355D01*
X75047360Y-69742668D01*
X75042976Y-69748579D01*
X75038033Y-69754033D01*
X75032579Y-69758976D01*
X75026668Y-69763360D01*
X75020355Y-69767144D01*
X75013701Y-69770291D01*
X75006771Y-69772771D01*
X74999632Y-69774559D01*
X74992351Y-69775639D01*
X74985000Y-69776000D01*
X74835000Y-69776000D01*
X74827649Y-69775639D01*
X74820368Y-69774559D01*
X74813229Y-69772771D01*
X74806299Y-69770291D01*
X74799645Y-69767144D01*
X74793332Y-69763360D01*
X74787421Y-69758976D01*
X74781967Y-69754033D01*
X74777024Y-69748579D01*
X74772640Y-69742668D01*
X74768856Y-69736355D01*
X74765709Y-69729701D01*
X74763229Y-69722771D01*
X74761441Y-69715632D01*
X74760361Y-69708351D01*
X74760000Y-69701000D01*
X74760000Y-68301000D01*
X74760361Y-68293649D01*
X74761441Y-68286368D01*
X74763229Y-68279229D01*
X74765709Y-68272299D01*
X74768856Y-68265645D01*
X74772640Y-68259332D01*
X74777024Y-68253421D01*
X74781967Y-68247967D01*
X74787421Y-68243024D01*
X74793332Y-68238640D01*
X74799645Y-68234856D01*
X74806299Y-68231709D01*
X74813229Y-68229229D01*
X74820368Y-68227441D01*
X74827649Y-68226361D01*
X74835000Y-68226000D01*
X74985000Y-68226000D01*
X74992351Y-68226361D01*
G37*
G36*
X75492351Y-68226361D02*
G01*
X75499632Y-68227441D01*
X75506771Y-68229229D01*
X75513701Y-68231709D01*
X75520355Y-68234856D01*
X75526668Y-68238640D01*
X75532579Y-68243024D01*
X75538033Y-68247967D01*
X75542976Y-68253421D01*
X75547360Y-68259332D01*
X75551144Y-68265645D01*
X75554291Y-68272299D01*
X75556771Y-68279229D01*
X75558559Y-68286368D01*
X75559639Y-68293649D01*
X75560000Y-68301000D01*
X75560000Y-69701000D01*
X75559639Y-69708351D01*
X75558559Y-69715632D01*
X75556771Y-69722771D01*
X75554291Y-69729701D01*
X75551144Y-69736355D01*
X75547360Y-69742668D01*
X75542976Y-69748579D01*
X75538033Y-69754033D01*
X75532579Y-69758976D01*
X75526668Y-69763360D01*
X75520355Y-69767144D01*
X75513701Y-69770291D01*
X75506771Y-69772771D01*
X75499632Y-69774559D01*
X75492351Y-69775639D01*
X75485000Y-69776000D01*
X75335000Y-69776000D01*
X75327649Y-69775639D01*
X75320368Y-69774559D01*
X75313229Y-69772771D01*
X75306299Y-69770291D01*
X75299645Y-69767144D01*
X75293332Y-69763360D01*
X75287421Y-69758976D01*
X75281967Y-69754033D01*
X75277024Y-69748579D01*
X75272640Y-69742668D01*
X75268856Y-69736355D01*
X75265709Y-69729701D01*
X75263229Y-69722771D01*
X75261441Y-69715632D01*
X75260361Y-69708351D01*
X75260000Y-69701000D01*
X75260000Y-68301000D01*
X75260361Y-68293649D01*
X75261441Y-68286368D01*
X75263229Y-68279229D01*
X75265709Y-68272299D01*
X75268856Y-68265645D01*
X75272640Y-68259332D01*
X75277024Y-68253421D01*
X75281967Y-68247967D01*
X75287421Y-68243024D01*
X75293332Y-68238640D01*
X75299645Y-68234856D01*
X75306299Y-68231709D01*
X75313229Y-68229229D01*
X75320368Y-68227441D01*
X75327649Y-68226361D01*
X75335000Y-68226000D01*
X75485000Y-68226000D01*
X75492351Y-68226361D01*
G37*
G36*
X75992351Y-68226361D02*
G01*
X75999632Y-68227441D01*
X76006771Y-68229229D01*
X76013701Y-68231709D01*
X76020355Y-68234856D01*
X76026668Y-68238640D01*
X76032579Y-68243024D01*
X76038033Y-68247967D01*
X76042976Y-68253421D01*
X76047360Y-68259332D01*
X76051144Y-68265645D01*
X76054291Y-68272299D01*
X76056771Y-68279229D01*
X76058559Y-68286368D01*
X76059639Y-68293649D01*
X76060000Y-68301000D01*
X76060000Y-69701000D01*
X76059639Y-69708351D01*
X76058559Y-69715632D01*
X76056771Y-69722771D01*
X76054291Y-69729701D01*
X76051144Y-69736355D01*
X76047360Y-69742668D01*
X76042976Y-69748579D01*
X76038033Y-69754033D01*
X76032579Y-69758976D01*
X76026668Y-69763360D01*
X76020355Y-69767144D01*
X76013701Y-69770291D01*
X76006771Y-69772771D01*
X75999632Y-69774559D01*
X75992351Y-69775639D01*
X75985000Y-69776000D01*
X75835000Y-69776000D01*
X75827649Y-69775639D01*
X75820368Y-69774559D01*
X75813229Y-69772771D01*
X75806299Y-69770291D01*
X75799645Y-69767144D01*
X75793332Y-69763360D01*
X75787421Y-69758976D01*
X75781967Y-69754033D01*
X75777024Y-69748579D01*
X75772640Y-69742668D01*
X75768856Y-69736355D01*
X75765709Y-69729701D01*
X75763229Y-69722771D01*
X75761441Y-69715632D01*
X75760361Y-69708351D01*
X75760000Y-69701000D01*
X75760000Y-68301000D01*
X75760361Y-68293649D01*
X75761441Y-68286368D01*
X75763229Y-68279229D01*
X75765709Y-68272299D01*
X75768856Y-68265645D01*
X75772640Y-68259332D01*
X75777024Y-68253421D01*
X75781967Y-68247967D01*
X75787421Y-68243024D01*
X75793332Y-68238640D01*
X75799645Y-68234856D01*
X75806299Y-68231709D01*
X75813229Y-68229229D01*
X75820368Y-68227441D01*
X75827649Y-68226361D01*
X75835000Y-68226000D01*
X75985000Y-68226000D01*
X75992351Y-68226361D01*
G37*
G36*
X76492351Y-68226361D02*
G01*
X76499632Y-68227441D01*
X76506771Y-68229229D01*
X76513701Y-68231709D01*
X76520355Y-68234856D01*
X76526668Y-68238640D01*
X76532579Y-68243024D01*
X76538033Y-68247967D01*
X76542976Y-68253421D01*
X76547360Y-68259332D01*
X76551144Y-68265645D01*
X76554291Y-68272299D01*
X76556771Y-68279229D01*
X76558559Y-68286368D01*
X76559639Y-68293649D01*
X76560000Y-68301000D01*
X76560000Y-69701000D01*
X76559639Y-69708351D01*
X76558559Y-69715632D01*
X76556771Y-69722771D01*
X76554291Y-69729701D01*
X76551144Y-69736355D01*
X76547360Y-69742668D01*
X76542976Y-69748579D01*
X76538033Y-69754033D01*
X76532579Y-69758976D01*
X76526668Y-69763360D01*
X76520355Y-69767144D01*
X76513701Y-69770291D01*
X76506771Y-69772771D01*
X76499632Y-69774559D01*
X76492351Y-69775639D01*
X76485000Y-69776000D01*
X76335000Y-69776000D01*
X76327649Y-69775639D01*
X76320368Y-69774559D01*
X76313229Y-69772771D01*
X76306299Y-69770291D01*
X76299645Y-69767144D01*
X76293332Y-69763360D01*
X76287421Y-69758976D01*
X76281967Y-69754033D01*
X76277024Y-69748579D01*
X76272640Y-69742668D01*
X76268856Y-69736355D01*
X76265709Y-69729701D01*
X76263229Y-69722771D01*
X76261441Y-69715632D01*
X76260361Y-69708351D01*
X76260000Y-69701000D01*
X76260000Y-68301000D01*
X76260361Y-68293649D01*
X76261441Y-68286368D01*
X76263229Y-68279229D01*
X76265709Y-68272299D01*
X76268856Y-68265645D01*
X76272640Y-68259332D01*
X76277024Y-68253421D01*
X76281967Y-68247967D01*
X76287421Y-68243024D01*
X76293332Y-68238640D01*
X76299645Y-68234856D01*
X76306299Y-68231709D01*
X76313229Y-68229229D01*
X76320368Y-68227441D01*
X76327649Y-68226361D01*
X76335000Y-68226000D01*
X76485000Y-68226000D01*
X76492351Y-68226361D01*
G37*
G36*
X76992351Y-68226361D02*
G01*
X76999632Y-68227441D01*
X77006771Y-68229229D01*
X77013701Y-68231709D01*
X77020355Y-68234856D01*
X77026668Y-68238640D01*
X77032579Y-68243024D01*
X77038033Y-68247967D01*
X77042976Y-68253421D01*
X77047360Y-68259332D01*
X77051144Y-68265645D01*
X77054291Y-68272299D01*
X77056771Y-68279229D01*
X77058559Y-68286368D01*
X77059639Y-68293649D01*
X77060000Y-68301000D01*
X77060000Y-69701000D01*
X77059639Y-69708351D01*
X77058559Y-69715632D01*
X77056771Y-69722771D01*
X77054291Y-69729701D01*
X77051144Y-69736355D01*
X77047360Y-69742668D01*
X77042976Y-69748579D01*
X77038033Y-69754033D01*
X77032579Y-69758976D01*
X77026668Y-69763360D01*
X77020355Y-69767144D01*
X77013701Y-69770291D01*
X77006771Y-69772771D01*
X76999632Y-69774559D01*
X76992351Y-69775639D01*
X76985000Y-69776000D01*
X76835000Y-69776000D01*
X76827649Y-69775639D01*
X76820368Y-69774559D01*
X76813229Y-69772771D01*
X76806299Y-69770291D01*
X76799645Y-69767144D01*
X76793332Y-69763360D01*
X76787421Y-69758976D01*
X76781967Y-69754033D01*
X76777024Y-69748579D01*
X76772640Y-69742668D01*
X76768856Y-69736355D01*
X76765709Y-69729701D01*
X76763229Y-69722771D01*
X76761441Y-69715632D01*
X76760361Y-69708351D01*
X76760000Y-69701000D01*
X76760000Y-68301000D01*
X76760361Y-68293649D01*
X76761441Y-68286368D01*
X76763229Y-68279229D01*
X76765709Y-68272299D01*
X76768856Y-68265645D01*
X76772640Y-68259332D01*
X76777024Y-68253421D01*
X76781967Y-68247967D01*
X76787421Y-68243024D01*
X76793332Y-68238640D01*
X76799645Y-68234856D01*
X76806299Y-68231709D01*
X76813229Y-68229229D01*
X76820368Y-68227441D01*
X76827649Y-68226361D01*
X76835000Y-68226000D01*
X76985000Y-68226000D01*
X76992351Y-68226361D01*
G37*
G36*
X77492351Y-68226361D02*
G01*
X77499632Y-68227441D01*
X77506771Y-68229229D01*
X77513701Y-68231709D01*
X77520355Y-68234856D01*
X77526668Y-68238640D01*
X77532579Y-68243024D01*
X77538033Y-68247967D01*
X77542976Y-68253421D01*
X77547360Y-68259332D01*
X77551144Y-68265645D01*
X77554291Y-68272299D01*
X77556771Y-68279229D01*
X77558559Y-68286368D01*
X77559639Y-68293649D01*
X77560000Y-68301000D01*
X77560000Y-69701000D01*
X77559639Y-69708351D01*
X77558559Y-69715632D01*
X77556771Y-69722771D01*
X77554291Y-69729701D01*
X77551144Y-69736355D01*
X77547360Y-69742668D01*
X77542976Y-69748579D01*
X77538033Y-69754033D01*
X77532579Y-69758976D01*
X77526668Y-69763360D01*
X77520355Y-69767144D01*
X77513701Y-69770291D01*
X77506771Y-69772771D01*
X77499632Y-69774559D01*
X77492351Y-69775639D01*
X77485000Y-69776000D01*
X77335000Y-69776000D01*
X77327649Y-69775639D01*
X77320368Y-69774559D01*
X77313229Y-69772771D01*
X77306299Y-69770291D01*
X77299645Y-69767144D01*
X77293332Y-69763360D01*
X77287421Y-69758976D01*
X77281967Y-69754033D01*
X77277024Y-69748579D01*
X77272640Y-69742668D01*
X77268856Y-69736355D01*
X77265709Y-69729701D01*
X77263229Y-69722771D01*
X77261441Y-69715632D01*
X77260361Y-69708351D01*
X77260000Y-69701000D01*
X77260000Y-68301000D01*
X77260361Y-68293649D01*
X77261441Y-68286368D01*
X77263229Y-68279229D01*
X77265709Y-68272299D01*
X77268856Y-68265645D01*
X77272640Y-68259332D01*
X77277024Y-68253421D01*
X77281967Y-68247967D01*
X77287421Y-68243024D01*
X77293332Y-68238640D01*
X77299645Y-68234856D01*
X77306299Y-68231709D01*
X77313229Y-68229229D01*
X77320368Y-68227441D01*
X77327649Y-68226361D01*
X77335000Y-68226000D01*
X77485000Y-68226000D01*
X77492351Y-68226361D01*
G37*
G36*
X80042351Y-70776361D02*
G01*
X80049632Y-70777441D01*
X80056771Y-70779229D01*
X80063701Y-70781709D01*
X80070355Y-70784856D01*
X80076668Y-70788640D01*
X80082579Y-70793024D01*
X80088033Y-70797967D01*
X80092976Y-70803421D01*
X80097360Y-70809332D01*
X80101144Y-70815645D01*
X80104291Y-70822299D01*
X80106771Y-70829229D01*
X80108559Y-70836368D01*
X80109639Y-70843649D01*
X80110000Y-70851000D01*
X80110000Y-71001000D01*
X80109639Y-71008351D01*
X80108559Y-71015632D01*
X80106771Y-71022771D01*
X80104291Y-71029701D01*
X80101144Y-71036355D01*
X80097360Y-71042668D01*
X80092976Y-71048579D01*
X80088033Y-71054033D01*
X80082579Y-71058976D01*
X80076668Y-71063360D01*
X80070355Y-71067144D01*
X80063701Y-71070291D01*
X80056771Y-71072771D01*
X80049632Y-71074559D01*
X80042351Y-71075639D01*
X80035000Y-71076000D01*
X78635000Y-71076000D01*
X78627649Y-71075639D01*
X78620368Y-71074559D01*
X78613229Y-71072771D01*
X78606299Y-71070291D01*
X78599645Y-71067144D01*
X78593332Y-71063360D01*
X78587421Y-71058976D01*
X78581967Y-71054033D01*
X78577024Y-71048579D01*
X78572640Y-71042668D01*
X78568856Y-71036355D01*
X78565709Y-71029701D01*
X78563229Y-71022771D01*
X78561441Y-71015632D01*
X78560361Y-71008351D01*
X78560000Y-71001000D01*
X78560000Y-70851000D01*
X78560361Y-70843649D01*
X78561441Y-70836368D01*
X78563229Y-70829229D01*
X78565709Y-70822299D01*
X78568856Y-70815645D01*
X78572640Y-70809332D01*
X78577024Y-70803421D01*
X78581967Y-70797967D01*
X78587421Y-70793024D01*
X78593332Y-70788640D01*
X78599645Y-70784856D01*
X78606299Y-70781709D01*
X78613229Y-70779229D01*
X78620368Y-70777441D01*
X78627649Y-70776361D01*
X78635000Y-70776000D01*
X80035000Y-70776000D01*
X80042351Y-70776361D01*
G37*
G36*
X80042351Y-71276361D02*
G01*
X80049632Y-71277441D01*
X80056771Y-71279229D01*
X80063701Y-71281709D01*
X80070355Y-71284856D01*
X80076668Y-71288640D01*
X80082579Y-71293024D01*
X80088033Y-71297967D01*
X80092976Y-71303421D01*
X80097360Y-71309332D01*
X80101144Y-71315645D01*
X80104291Y-71322299D01*
X80106771Y-71329229D01*
X80108559Y-71336368D01*
X80109639Y-71343649D01*
X80110000Y-71351000D01*
X80110000Y-71501000D01*
X80109639Y-71508351D01*
X80108559Y-71515632D01*
X80106771Y-71522771D01*
X80104291Y-71529701D01*
X80101144Y-71536355D01*
X80097360Y-71542668D01*
X80092976Y-71548579D01*
X80088033Y-71554033D01*
X80082579Y-71558976D01*
X80076668Y-71563360D01*
X80070355Y-71567144D01*
X80063701Y-71570291D01*
X80056771Y-71572771D01*
X80049632Y-71574559D01*
X80042351Y-71575639D01*
X80035000Y-71576000D01*
X78635000Y-71576000D01*
X78627649Y-71575639D01*
X78620368Y-71574559D01*
X78613229Y-71572771D01*
X78606299Y-71570291D01*
X78599645Y-71567144D01*
X78593332Y-71563360D01*
X78587421Y-71558976D01*
X78581967Y-71554033D01*
X78577024Y-71548579D01*
X78572640Y-71542668D01*
X78568856Y-71536355D01*
X78565709Y-71529701D01*
X78563229Y-71522771D01*
X78561441Y-71515632D01*
X78560361Y-71508351D01*
X78560000Y-71501000D01*
X78560000Y-71351000D01*
X78560361Y-71343649D01*
X78561441Y-71336368D01*
X78563229Y-71329229D01*
X78565709Y-71322299D01*
X78568856Y-71315645D01*
X78572640Y-71309332D01*
X78577024Y-71303421D01*
X78581967Y-71297967D01*
X78587421Y-71293024D01*
X78593332Y-71288640D01*
X78599645Y-71284856D01*
X78606299Y-71281709D01*
X78613229Y-71279229D01*
X78620368Y-71277441D01*
X78627649Y-71276361D01*
X78635000Y-71276000D01*
X80035000Y-71276000D01*
X80042351Y-71276361D01*
G37*
G36*
X80042351Y-71776361D02*
G01*
X80049632Y-71777441D01*
X80056771Y-71779229D01*
X80063701Y-71781709D01*
X80070355Y-71784856D01*
X80076668Y-71788640D01*
X80082579Y-71793024D01*
X80088033Y-71797967D01*
X80092976Y-71803421D01*
X80097360Y-71809332D01*
X80101144Y-71815645D01*
X80104291Y-71822299D01*
X80106771Y-71829229D01*
X80108559Y-71836368D01*
X80109639Y-71843649D01*
X80110000Y-71851000D01*
X80110000Y-72001000D01*
X80109639Y-72008351D01*
X80108559Y-72015632D01*
X80106771Y-72022771D01*
X80104291Y-72029701D01*
X80101144Y-72036355D01*
X80097360Y-72042668D01*
X80092976Y-72048579D01*
X80088033Y-72054033D01*
X80082579Y-72058976D01*
X80076668Y-72063360D01*
X80070355Y-72067144D01*
X80063701Y-72070291D01*
X80056771Y-72072771D01*
X80049632Y-72074559D01*
X80042351Y-72075639D01*
X80035000Y-72076000D01*
X78635000Y-72076000D01*
X78627649Y-72075639D01*
X78620368Y-72074559D01*
X78613229Y-72072771D01*
X78606299Y-72070291D01*
X78599645Y-72067144D01*
X78593332Y-72063360D01*
X78587421Y-72058976D01*
X78581967Y-72054033D01*
X78577024Y-72048579D01*
X78572640Y-72042668D01*
X78568856Y-72036355D01*
X78565709Y-72029701D01*
X78563229Y-72022771D01*
X78561441Y-72015632D01*
X78560361Y-72008351D01*
X78560000Y-72001000D01*
X78560000Y-71851000D01*
X78560361Y-71843649D01*
X78561441Y-71836368D01*
X78563229Y-71829229D01*
X78565709Y-71822299D01*
X78568856Y-71815645D01*
X78572640Y-71809332D01*
X78577024Y-71803421D01*
X78581967Y-71797967D01*
X78587421Y-71793024D01*
X78593332Y-71788640D01*
X78599645Y-71784856D01*
X78606299Y-71781709D01*
X78613229Y-71779229D01*
X78620368Y-71777441D01*
X78627649Y-71776361D01*
X78635000Y-71776000D01*
X80035000Y-71776000D01*
X80042351Y-71776361D01*
G37*
G36*
X80042351Y-72276361D02*
G01*
X80049632Y-72277441D01*
X80056771Y-72279229D01*
X80063701Y-72281709D01*
X80070355Y-72284856D01*
X80076668Y-72288640D01*
X80082579Y-72293024D01*
X80088033Y-72297967D01*
X80092976Y-72303421D01*
X80097360Y-72309332D01*
X80101144Y-72315645D01*
X80104291Y-72322299D01*
X80106771Y-72329229D01*
X80108559Y-72336368D01*
X80109639Y-72343649D01*
X80110000Y-72351000D01*
X80110000Y-72501000D01*
X80109639Y-72508351D01*
X80108559Y-72515632D01*
X80106771Y-72522771D01*
X80104291Y-72529701D01*
X80101144Y-72536355D01*
X80097360Y-72542668D01*
X80092976Y-72548579D01*
X80088033Y-72554033D01*
X80082579Y-72558976D01*
X80076668Y-72563360D01*
X80070355Y-72567144D01*
X80063701Y-72570291D01*
X80056771Y-72572771D01*
X80049632Y-72574559D01*
X80042351Y-72575639D01*
X80035000Y-72576000D01*
X78635000Y-72576000D01*
X78627649Y-72575639D01*
X78620368Y-72574559D01*
X78613229Y-72572771D01*
X78606299Y-72570291D01*
X78599645Y-72567144D01*
X78593332Y-72563360D01*
X78587421Y-72558976D01*
X78581967Y-72554033D01*
X78577024Y-72548579D01*
X78572640Y-72542668D01*
X78568856Y-72536355D01*
X78565709Y-72529701D01*
X78563229Y-72522771D01*
X78561441Y-72515632D01*
X78560361Y-72508351D01*
X78560000Y-72501000D01*
X78560000Y-72351000D01*
X78560361Y-72343649D01*
X78561441Y-72336368D01*
X78563229Y-72329229D01*
X78565709Y-72322299D01*
X78568856Y-72315645D01*
X78572640Y-72309332D01*
X78577024Y-72303421D01*
X78581967Y-72297967D01*
X78587421Y-72293024D01*
X78593332Y-72288640D01*
X78599645Y-72284856D01*
X78606299Y-72281709D01*
X78613229Y-72279229D01*
X78620368Y-72277441D01*
X78627649Y-72276361D01*
X78635000Y-72276000D01*
X80035000Y-72276000D01*
X80042351Y-72276361D01*
G37*
G36*
X80042351Y-72776361D02*
G01*
X80049632Y-72777441D01*
X80056771Y-72779229D01*
X80063701Y-72781709D01*
X80070355Y-72784856D01*
X80076668Y-72788640D01*
X80082579Y-72793024D01*
X80088033Y-72797967D01*
X80092976Y-72803421D01*
X80097360Y-72809332D01*
X80101144Y-72815645D01*
X80104291Y-72822299D01*
X80106771Y-72829229D01*
X80108559Y-72836368D01*
X80109639Y-72843649D01*
X80110000Y-72851000D01*
X80110000Y-73001000D01*
X80109639Y-73008351D01*
X80108559Y-73015632D01*
X80106771Y-73022771D01*
X80104291Y-73029701D01*
X80101144Y-73036355D01*
X80097360Y-73042668D01*
X80092976Y-73048579D01*
X80088033Y-73054033D01*
X80082579Y-73058976D01*
X80076668Y-73063360D01*
X80070355Y-73067144D01*
X80063701Y-73070291D01*
X80056771Y-73072771D01*
X80049632Y-73074559D01*
X80042351Y-73075639D01*
X80035000Y-73076000D01*
X78635000Y-73076000D01*
X78627649Y-73075639D01*
X78620368Y-73074559D01*
X78613229Y-73072771D01*
X78606299Y-73070291D01*
X78599645Y-73067144D01*
X78593332Y-73063360D01*
X78587421Y-73058976D01*
X78581967Y-73054033D01*
X78577024Y-73048579D01*
X78572640Y-73042668D01*
X78568856Y-73036355D01*
X78565709Y-73029701D01*
X78563229Y-73022771D01*
X78561441Y-73015632D01*
X78560361Y-73008351D01*
X78560000Y-73001000D01*
X78560000Y-72851000D01*
X78560361Y-72843649D01*
X78561441Y-72836368D01*
X78563229Y-72829229D01*
X78565709Y-72822299D01*
X78568856Y-72815645D01*
X78572640Y-72809332D01*
X78577024Y-72803421D01*
X78581967Y-72797967D01*
X78587421Y-72793024D01*
X78593332Y-72788640D01*
X78599645Y-72784856D01*
X78606299Y-72781709D01*
X78613229Y-72779229D01*
X78620368Y-72777441D01*
X78627649Y-72776361D01*
X78635000Y-72776000D01*
X80035000Y-72776000D01*
X80042351Y-72776361D01*
G37*
G36*
X80042351Y-73276361D02*
G01*
X80049632Y-73277441D01*
X80056771Y-73279229D01*
X80063701Y-73281709D01*
X80070355Y-73284856D01*
X80076668Y-73288640D01*
X80082579Y-73293024D01*
X80088033Y-73297967D01*
X80092976Y-73303421D01*
X80097360Y-73309332D01*
X80101144Y-73315645D01*
X80104291Y-73322299D01*
X80106771Y-73329229D01*
X80108559Y-73336368D01*
X80109639Y-73343649D01*
X80110000Y-73351000D01*
X80110000Y-73501000D01*
X80109639Y-73508351D01*
X80108559Y-73515632D01*
X80106771Y-73522771D01*
X80104291Y-73529701D01*
X80101144Y-73536355D01*
X80097360Y-73542668D01*
X80092976Y-73548579D01*
X80088033Y-73554033D01*
X80082579Y-73558976D01*
X80076668Y-73563360D01*
X80070355Y-73567144D01*
X80063701Y-73570291D01*
X80056771Y-73572771D01*
X80049632Y-73574559D01*
X80042351Y-73575639D01*
X80035000Y-73576000D01*
X78635000Y-73576000D01*
X78627649Y-73575639D01*
X78620368Y-73574559D01*
X78613229Y-73572771D01*
X78606299Y-73570291D01*
X78599645Y-73567144D01*
X78593332Y-73563360D01*
X78587421Y-73558976D01*
X78581967Y-73554033D01*
X78577024Y-73548579D01*
X78572640Y-73542668D01*
X78568856Y-73536355D01*
X78565709Y-73529701D01*
X78563229Y-73522771D01*
X78561441Y-73515632D01*
X78560361Y-73508351D01*
X78560000Y-73501000D01*
X78560000Y-73351000D01*
X78560361Y-73343649D01*
X78561441Y-73336368D01*
X78563229Y-73329229D01*
X78565709Y-73322299D01*
X78568856Y-73315645D01*
X78572640Y-73309332D01*
X78577024Y-73303421D01*
X78581967Y-73297967D01*
X78587421Y-73293024D01*
X78593332Y-73288640D01*
X78599645Y-73284856D01*
X78606299Y-73281709D01*
X78613229Y-73279229D01*
X78620368Y-73277441D01*
X78627649Y-73276361D01*
X78635000Y-73276000D01*
X80035000Y-73276000D01*
X80042351Y-73276361D01*
G37*
G36*
X80042351Y-73776361D02*
G01*
X80049632Y-73777441D01*
X80056771Y-73779229D01*
X80063701Y-73781709D01*
X80070355Y-73784856D01*
X80076668Y-73788640D01*
X80082579Y-73793024D01*
X80088033Y-73797967D01*
X80092976Y-73803421D01*
X80097360Y-73809332D01*
X80101144Y-73815645D01*
X80104291Y-73822299D01*
X80106771Y-73829229D01*
X80108559Y-73836368D01*
X80109639Y-73843649D01*
X80110000Y-73851000D01*
X80110000Y-74001000D01*
X80109639Y-74008351D01*
X80108559Y-74015632D01*
X80106771Y-74022771D01*
X80104291Y-74029701D01*
X80101144Y-74036355D01*
X80097360Y-74042668D01*
X80092976Y-74048579D01*
X80088033Y-74054033D01*
X80082579Y-74058976D01*
X80076668Y-74063360D01*
X80070355Y-74067144D01*
X80063701Y-74070291D01*
X80056771Y-74072771D01*
X80049632Y-74074559D01*
X80042351Y-74075639D01*
X80035000Y-74076000D01*
X78635000Y-74076000D01*
X78627649Y-74075639D01*
X78620368Y-74074559D01*
X78613229Y-74072771D01*
X78606299Y-74070291D01*
X78599645Y-74067144D01*
X78593332Y-74063360D01*
X78587421Y-74058976D01*
X78581967Y-74054033D01*
X78577024Y-74048579D01*
X78572640Y-74042668D01*
X78568856Y-74036355D01*
X78565709Y-74029701D01*
X78563229Y-74022771D01*
X78561441Y-74015632D01*
X78560361Y-74008351D01*
X78560000Y-74001000D01*
X78560000Y-73851000D01*
X78560361Y-73843649D01*
X78561441Y-73836368D01*
X78563229Y-73829229D01*
X78565709Y-73822299D01*
X78568856Y-73815645D01*
X78572640Y-73809332D01*
X78577024Y-73803421D01*
X78581967Y-73797967D01*
X78587421Y-73793024D01*
X78593332Y-73788640D01*
X78599645Y-73784856D01*
X78606299Y-73781709D01*
X78613229Y-73779229D01*
X78620368Y-73777441D01*
X78627649Y-73776361D01*
X78635000Y-73776000D01*
X80035000Y-73776000D01*
X80042351Y-73776361D01*
G37*
G36*
X80042351Y-74276361D02*
G01*
X80049632Y-74277441D01*
X80056771Y-74279229D01*
X80063701Y-74281709D01*
X80070355Y-74284856D01*
X80076668Y-74288640D01*
X80082579Y-74293024D01*
X80088033Y-74297967D01*
X80092976Y-74303421D01*
X80097360Y-74309332D01*
X80101144Y-74315645D01*
X80104291Y-74322299D01*
X80106771Y-74329229D01*
X80108559Y-74336368D01*
X80109639Y-74343649D01*
X80110000Y-74351000D01*
X80110000Y-74501000D01*
X80109639Y-74508351D01*
X80108559Y-74515632D01*
X80106771Y-74522771D01*
X80104291Y-74529701D01*
X80101144Y-74536355D01*
X80097360Y-74542668D01*
X80092976Y-74548579D01*
X80088033Y-74554033D01*
X80082579Y-74558976D01*
X80076668Y-74563360D01*
X80070355Y-74567144D01*
X80063701Y-74570291D01*
X80056771Y-74572771D01*
X80049632Y-74574559D01*
X80042351Y-74575639D01*
X80035000Y-74576000D01*
X78635000Y-74576000D01*
X78627649Y-74575639D01*
X78620368Y-74574559D01*
X78613229Y-74572771D01*
X78606299Y-74570291D01*
X78599645Y-74567144D01*
X78593332Y-74563360D01*
X78587421Y-74558976D01*
X78581967Y-74554033D01*
X78577024Y-74548579D01*
X78572640Y-74542668D01*
X78568856Y-74536355D01*
X78565709Y-74529701D01*
X78563229Y-74522771D01*
X78561441Y-74515632D01*
X78560361Y-74508351D01*
X78560000Y-74501000D01*
X78560000Y-74351000D01*
X78560361Y-74343649D01*
X78561441Y-74336368D01*
X78563229Y-74329229D01*
X78565709Y-74322299D01*
X78568856Y-74315645D01*
X78572640Y-74309332D01*
X78577024Y-74303421D01*
X78581967Y-74297967D01*
X78587421Y-74293024D01*
X78593332Y-74288640D01*
X78599645Y-74284856D01*
X78606299Y-74281709D01*
X78613229Y-74279229D01*
X78620368Y-74277441D01*
X78627649Y-74276361D01*
X78635000Y-74276000D01*
X80035000Y-74276000D01*
X80042351Y-74276361D01*
G37*
G36*
X80042351Y-74776361D02*
G01*
X80049632Y-74777441D01*
X80056771Y-74779229D01*
X80063701Y-74781709D01*
X80070355Y-74784856D01*
X80076668Y-74788640D01*
X80082579Y-74793024D01*
X80088033Y-74797967D01*
X80092976Y-74803421D01*
X80097360Y-74809332D01*
X80101144Y-74815645D01*
X80104291Y-74822299D01*
X80106771Y-74829229D01*
X80108559Y-74836368D01*
X80109639Y-74843649D01*
X80110000Y-74851000D01*
X80110000Y-75001000D01*
X80109639Y-75008351D01*
X80108559Y-75015632D01*
X80106771Y-75022771D01*
X80104291Y-75029701D01*
X80101144Y-75036355D01*
X80097360Y-75042668D01*
X80092976Y-75048579D01*
X80088033Y-75054033D01*
X80082579Y-75058976D01*
X80076668Y-75063360D01*
X80070355Y-75067144D01*
X80063701Y-75070291D01*
X80056771Y-75072771D01*
X80049632Y-75074559D01*
X80042351Y-75075639D01*
X80035000Y-75076000D01*
X78635000Y-75076000D01*
X78627649Y-75075639D01*
X78620368Y-75074559D01*
X78613229Y-75072771D01*
X78606299Y-75070291D01*
X78599645Y-75067144D01*
X78593332Y-75063360D01*
X78587421Y-75058976D01*
X78581967Y-75054033D01*
X78577024Y-75048579D01*
X78572640Y-75042668D01*
X78568856Y-75036355D01*
X78565709Y-75029701D01*
X78563229Y-75022771D01*
X78561441Y-75015632D01*
X78560361Y-75008351D01*
X78560000Y-75001000D01*
X78560000Y-74851000D01*
X78560361Y-74843649D01*
X78561441Y-74836368D01*
X78563229Y-74829229D01*
X78565709Y-74822299D01*
X78568856Y-74815645D01*
X78572640Y-74809332D01*
X78577024Y-74803421D01*
X78581967Y-74797967D01*
X78587421Y-74793024D01*
X78593332Y-74788640D01*
X78599645Y-74784856D01*
X78606299Y-74781709D01*
X78613229Y-74779229D01*
X78620368Y-74777441D01*
X78627649Y-74776361D01*
X78635000Y-74776000D01*
X80035000Y-74776000D01*
X80042351Y-74776361D01*
G37*
G36*
X80042351Y-75276361D02*
G01*
X80049632Y-75277441D01*
X80056771Y-75279229D01*
X80063701Y-75281709D01*
X80070355Y-75284856D01*
X80076668Y-75288640D01*
X80082579Y-75293024D01*
X80088033Y-75297967D01*
X80092976Y-75303421D01*
X80097360Y-75309332D01*
X80101144Y-75315645D01*
X80104291Y-75322299D01*
X80106771Y-75329229D01*
X80108559Y-75336368D01*
X80109639Y-75343649D01*
X80110000Y-75351000D01*
X80110000Y-75501000D01*
X80109639Y-75508351D01*
X80108559Y-75515632D01*
X80106771Y-75522771D01*
X80104291Y-75529701D01*
X80101144Y-75536355D01*
X80097360Y-75542668D01*
X80092976Y-75548579D01*
X80088033Y-75554033D01*
X80082579Y-75558976D01*
X80076668Y-75563360D01*
X80070355Y-75567144D01*
X80063701Y-75570291D01*
X80056771Y-75572771D01*
X80049632Y-75574559D01*
X80042351Y-75575639D01*
X80035000Y-75576000D01*
X78635000Y-75576000D01*
X78627649Y-75575639D01*
X78620368Y-75574559D01*
X78613229Y-75572771D01*
X78606299Y-75570291D01*
X78599645Y-75567144D01*
X78593332Y-75563360D01*
X78587421Y-75558976D01*
X78581967Y-75554033D01*
X78577024Y-75548579D01*
X78572640Y-75542668D01*
X78568856Y-75536355D01*
X78565709Y-75529701D01*
X78563229Y-75522771D01*
X78561441Y-75515632D01*
X78560361Y-75508351D01*
X78560000Y-75501000D01*
X78560000Y-75351000D01*
X78560361Y-75343649D01*
X78561441Y-75336368D01*
X78563229Y-75329229D01*
X78565709Y-75322299D01*
X78568856Y-75315645D01*
X78572640Y-75309332D01*
X78577024Y-75303421D01*
X78581967Y-75297967D01*
X78587421Y-75293024D01*
X78593332Y-75288640D01*
X78599645Y-75284856D01*
X78606299Y-75281709D01*
X78613229Y-75279229D01*
X78620368Y-75277441D01*
X78627649Y-75276361D01*
X78635000Y-75276000D01*
X80035000Y-75276000D01*
X80042351Y-75276361D01*
G37*
G36*
X80042351Y-75776361D02*
G01*
X80049632Y-75777441D01*
X80056771Y-75779229D01*
X80063701Y-75781709D01*
X80070355Y-75784856D01*
X80076668Y-75788640D01*
X80082579Y-75793024D01*
X80088033Y-75797967D01*
X80092976Y-75803421D01*
X80097360Y-75809332D01*
X80101144Y-75815645D01*
X80104291Y-75822299D01*
X80106771Y-75829229D01*
X80108559Y-75836368D01*
X80109639Y-75843649D01*
X80110000Y-75851000D01*
X80110000Y-76001000D01*
X80109639Y-76008351D01*
X80108559Y-76015632D01*
X80106771Y-76022771D01*
X80104291Y-76029701D01*
X80101144Y-76036355D01*
X80097360Y-76042668D01*
X80092976Y-76048579D01*
X80088033Y-76054033D01*
X80082579Y-76058976D01*
X80076668Y-76063360D01*
X80070355Y-76067144D01*
X80063701Y-76070291D01*
X80056771Y-76072771D01*
X80049632Y-76074559D01*
X80042351Y-76075639D01*
X80035000Y-76076000D01*
X78635000Y-76076000D01*
X78627649Y-76075639D01*
X78620368Y-76074559D01*
X78613229Y-76072771D01*
X78606299Y-76070291D01*
X78599645Y-76067144D01*
X78593332Y-76063360D01*
X78587421Y-76058976D01*
X78581967Y-76054033D01*
X78577024Y-76048579D01*
X78572640Y-76042668D01*
X78568856Y-76036355D01*
X78565709Y-76029701D01*
X78563229Y-76022771D01*
X78561441Y-76015632D01*
X78560361Y-76008351D01*
X78560000Y-76001000D01*
X78560000Y-75851000D01*
X78560361Y-75843649D01*
X78561441Y-75836368D01*
X78563229Y-75829229D01*
X78565709Y-75822299D01*
X78568856Y-75815645D01*
X78572640Y-75809332D01*
X78577024Y-75803421D01*
X78581967Y-75797967D01*
X78587421Y-75793024D01*
X78593332Y-75788640D01*
X78599645Y-75784856D01*
X78606299Y-75781709D01*
X78613229Y-75779229D01*
X78620368Y-75777441D01*
X78627649Y-75776361D01*
X78635000Y-75776000D01*
X80035000Y-75776000D01*
X80042351Y-75776361D01*
G37*
G36*
X80042351Y-76276361D02*
G01*
X80049632Y-76277441D01*
X80056771Y-76279229D01*
X80063701Y-76281709D01*
X80070355Y-76284856D01*
X80076668Y-76288640D01*
X80082579Y-76293024D01*
X80088033Y-76297967D01*
X80092976Y-76303421D01*
X80097360Y-76309332D01*
X80101144Y-76315645D01*
X80104291Y-76322299D01*
X80106771Y-76329229D01*
X80108559Y-76336368D01*
X80109639Y-76343649D01*
X80110000Y-76351000D01*
X80110000Y-76501000D01*
X80109639Y-76508351D01*
X80108559Y-76515632D01*
X80106771Y-76522771D01*
X80104291Y-76529701D01*
X80101144Y-76536355D01*
X80097360Y-76542668D01*
X80092976Y-76548579D01*
X80088033Y-76554033D01*
X80082579Y-76558976D01*
X80076668Y-76563360D01*
X80070355Y-76567144D01*
X80063701Y-76570291D01*
X80056771Y-76572771D01*
X80049632Y-76574559D01*
X80042351Y-76575639D01*
X80035000Y-76576000D01*
X78635000Y-76576000D01*
X78627649Y-76575639D01*
X78620368Y-76574559D01*
X78613229Y-76572771D01*
X78606299Y-76570291D01*
X78599645Y-76567144D01*
X78593332Y-76563360D01*
X78587421Y-76558976D01*
X78581967Y-76554033D01*
X78577024Y-76548579D01*
X78572640Y-76542668D01*
X78568856Y-76536355D01*
X78565709Y-76529701D01*
X78563229Y-76522771D01*
X78561441Y-76515632D01*
X78560361Y-76508351D01*
X78560000Y-76501000D01*
X78560000Y-76351000D01*
X78560361Y-76343649D01*
X78561441Y-76336368D01*
X78563229Y-76329229D01*
X78565709Y-76322299D01*
X78568856Y-76315645D01*
X78572640Y-76309332D01*
X78577024Y-76303421D01*
X78581967Y-76297967D01*
X78587421Y-76293024D01*
X78593332Y-76288640D01*
X78599645Y-76284856D01*
X78606299Y-76281709D01*
X78613229Y-76279229D01*
X78620368Y-76277441D01*
X78627649Y-76276361D01*
X78635000Y-76276000D01*
X80035000Y-76276000D01*
X80042351Y-76276361D01*
G37*
G36*
X80042351Y-76776361D02*
G01*
X80049632Y-76777441D01*
X80056771Y-76779229D01*
X80063701Y-76781709D01*
X80070355Y-76784856D01*
X80076668Y-76788640D01*
X80082579Y-76793024D01*
X80088033Y-76797967D01*
X80092976Y-76803421D01*
X80097360Y-76809332D01*
X80101144Y-76815645D01*
X80104291Y-76822299D01*
X80106771Y-76829229D01*
X80108559Y-76836368D01*
X80109639Y-76843649D01*
X80110000Y-76851000D01*
X80110000Y-77001000D01*
X80109639Y-77008351D01*
X80108559Y-77015632D01*
X80106771Y-77022771D01*
X80104291Y-77029701D01*
X80101144Y-77036355D01*
X80097360Y-77042668D01*
X80092976Y-77048579D01*
X80088033Y-77054033D01*
X80082579Y-77058976D01*
X80076668Y-77063360D01*
X80070355Y-77067144D01*
X80063701Y-77070291D01*
X80056771Y-77072771D01*
X80049632Y-77074559D01*
X80042351Y-77075639D01*
X80035000Y-77076000D01*
X78635000Y-77076000D01*
X78627649Y-77075639D01*
X78620368Y-77074559D01*
X78613229Y-77072771D01*
X78606299Y-77070291D01*
X78599645Y-77067144D01*
X78593332Y-77063360D01*
X78587421Y-77058976D01*
X78581967Y-77054033D01*
X78577024Y-77048579D01*
X78572640Y-77042668D01*
X78568856Y-77036355D01*
X78565709Y-77029701D01*
X78563229Y-77022771D01*
X78561441Y-77015632D01*
X78560361Y-77008351D01*
X78560000Y-77001000D01*
X78560000Y-76851000D01*
X78560361Y-76843649D01*
X78561441Y-76836368D01*
X78563229Y-76829229D01*
X78565709Y-76822299D01*
X78568856Y-76815645D01*
X78572640Y-76809332D01*
X78577024Y-76803421D01*
X78581967Y-76797967D01*
X78587421Y-76793024D01*
X78593332Y-76788640D01*
X78599645Y-76784856D01*
X78606299Y-76781709D01*
X78613229Y-76779229D01*
X78620368Y-76777441D01*
X78627649Y-76776361D01*
X78635000Y-76776000D01*
X80035000Y-76776000D01*
X80042351Y-76776361D01*
G37*
G36*
X80042351Y-77276361D02*
G01*
X80049632Y-77277441D01*
X80056771Y-77279229D01*
X80063701Y-77281709D01*
X80070355Y-77284856D01*
X80076668Y-77288640D01*
X80082579Y-77293024D01*
X80088033Y-77297967D01*
X80092976Y-77303421D01*
X80097360Y-77309332D01*
X80101144Y-77315645D01*
X80104291Y-77322299D01*
X80106771Y-77329229D01*
X80108559Y-77336368D01*
X80109639Y-77343649D01*
X80110000Y-77351000D01*
X80110000Y-77501000D01*
X80109639Y-77508351D01*
X80108559Y-77515632D01*
X80106771Y-77522771D01*
X80104291Y-77529701D01*
X80101144Y-77536355D01*
X80097360Y-77542668D01*
X80092976Y-77548579D01*
X80088033Y-77554033D01*
X80082579Y-77558976D01*
X80076668Y-77563360D01*
X80070355Y-77567144D01*
X80063701Y-77570291D01*
X80056771Y-77572771D01*
X80049632Y-77574559D01*
X80042351Y-77575639D01*
X80035000Y-77576000D01*
X78635000Y-77576000D01*
X78627649Y-77575639D01*
X78620368Y-77574559D01*
X78613229Y-77572771D01*
X78606299Y-77570291D01*
X78599645Y-77567144D01*
X78593332Y-77563360D01*
X78587421Y-77558976D01*
X78581967Y-77554033D01*
X78577024Y-77548579D01*
X78572640Y-77542668D01*
X78568856Y-77536355D01*
X78565709Y-77529701D01*
X78563229Y-77522771D01*
X78561441Y-77515632D01*
X78560361Y-77508351D01*
X78560000Y-77501000D01*
X78560000Y-77351000D01*
X78560361Y-77343649D01*
X78561441Y-77336368D01*
X78563229Y-77329229D01*
X78565709Y-77322299D01*
X78568856Y-77315645D01*
X78572640Y-77309332D01*
X78577024Y-77303421D01*
X78581967Y-77297967D01*
X78587421Y-77293024D01*
X78593332Y-77288640D01*
X78599645Y-77284856D01*
X78606299Y-77281709D01*
X78613229Y-77279229D01*
X78620368Y-77277441D01*
X78627649Y-77276361D01*
X78635000Y-77276000D01*
X80035000Y-77276000D01*
X80042351Y-77276361D01*
G37*
G36*
X80042351Y-77776361D02*
G01*
X80049632Y-77777441D01*
X80056771Y-77779229D01*
X80063701Y-77781709D01*
X80070355Y-77784856D01*
X80076668Y-77788640D01*
X80082579Y-77793024D01*
X80088033Y-77797967D01*
X80092976Y-77803421D01*
X80097360Y-77809332D01*
X80101144Y-77815645D01*
X80104291Y-77822299D01*
X80106771Y-77829229D01*
X80108559Y-77836368D01*
X80109639Y-77843649D01*
X80110000Y-77851000D01*
X80110000Y-78001000D01*
X80109639Y-78008351D01*
X80108559Y-78015632D01*
X80106771Y-78022771D01*
X80104291Y-78029701D01*
X80101144Y-78036355D01*
X80097360Y-78042668D01*
X80092976Y-78048579D01*
X80088033Y-78054033D01*
X80082579Y-78058976D01*
X80076668Y-78063360D01*
X80070355Y-78067144D01*
X80063701Y-78070291D01*
X80056771Y-78072771D01*
X80049632Y-78074559D01*
X80042351Y-78075639D01*
X80035000Y-78076000D01*
X78635000Y-78076000D01*
X78627649Y-78075639D01*
X78620368Y-78074559D01*
X78613229Y-78072771D01*
X78606299Y-78070291D01*
X78599645Y-78067144D01*
X78593332Y-78063360D01*
X78587421Y-78058976D01*
X78581967Y-78054033D01*
X78577024Y-78048579D01*
X78572640Y-78042668D01*
X78568856Y-78036355D01*
X78565709Y-78029701D01*
X78563229Y-78022771D01*
X78561441Y-78015632D01*
X78560361Y-78008351D01*
X78560000Y-78001000D01*
X78560000Y-77851000D01*
X78560361Y-77843649D01*
X78561441Y-77836368D01*
X78563229Y-77829229D01*
X78565709Y-77822299D01*
X78568856Y-77815645D01*
X78572640Y-77809332D01*
X78577024Y-77803421D01*
X78581967Y-77797967D01*
X78587421Y-77793024D01*
X78593332Y-77788640D01*
X78599645Y-77784856D01*
X78606299Y-77781709D01*
X78613229Y-77779229D01*
X78620368Y-77777441D01*
X78627649Y-77776361D01*
X78635000Y-77776000D01*
X80035000Y-77776000D01*
X80042351Y-77776361D01*
G37*
G36*
X80042351Y-78276361D02*
G01*
X80049632Y-78277441D01*
X80056771Y-78279229D01*
X80063701Y-78281709D01*
X80070355Y-78284856D01*
X80076668Y-78288640D01*
X80082579Y-78293024D01*
X80088033Y-78297967D01*
X80092976Y-78303421D01*
X80097360Y-78309332D01*
X80101144Y-78315645D01*
X80104291Y-78322299D01*
X80106771Y-78329229D01*
X80108559Y-78336368D01*
X80109639Y-78343649D01*
X80110000Y-78351000D01*
X80110000Y-78501000D01*
X80109639Y-78508351D01*
X80108559Y-78515632D01*
X80106771Y-78522771D01*
X80104291Y-78529701D01*
X80101144Y-78536355D01*
X80097360Y-78542668D01*
X80092976Y-78548579D01*
X80088033Y-78554033D01*
X80082579Y-78558976D01*
X80076668Y-78563360D01*
X80070355Y-78567144D01*
X80063701Y-78570291D01*
X80056771Y-78572771D01*
X80049632Y-78574559D01*
X80042351Y-78575639D01*
X80035000Y-78576000D01*
X78635000Y-78576000D01*
X78627649Y-78575639D01*
X78620368Y-78574559D01*
X78613229Y-78572771D01*
X78606299Y-78570291D01*
X78599645Y-78567144D01*
X78593332Y-78563360D01*
X78587421Y-78558976D01*
X78581967Y-78554033D01*
X78577024Y-78548579D01*
X78572640Y-78542668D01*
X78568856Y-78536355D01*
X78565709Y-78529701D01*
X78563229Y-78522771D01*
X78561441Y-78515632D01*
X78560361Y-78508351D01*
X78560000Y-78501000D01*
X78560000Y-78351000D01*
X78560361Y-78343649D01*
X78561441Y-78336368D01*
X78563229Y-78329229D01*
X78565709Y-78322299D01*
X78568856Y-78315645D01*
X78572640Y-78309332D01*
X78577024Y-78303421D01*
X78581967Y-78297967D01*
X78587421Y-78293024D01*
X78593332Y-78288640D01*
X78599645Y-78284856D01*
X78606299Y-78281709D01*
X78613229Y-78279229D01*
X78620368Y-78277441D01*
X78627649Y-78276361D01*
X78635000Y-78276000D01*
X80035000Y-78276000D01*
X80042351Y-78276361D01*
G37*
D20*
X38100000Y-46245780D03*
X39049960Y-48242220D03*
X37150040Y-48242220D03*
X52832000Y-46245780D03*
X53781960Y-48242220D03*
X51882040Y-48242220D03*
X68326000Y-47007780D03*
X69275960Y-49004220D03*
X67376040Y-49004220D03*
X84328000Y-47007780D03*
X85277960Y-49004220D03*
X83378040Y-49004220D03*
D21*
X118618000Y-43422000D03*
X118618000Y-41922000D03*
X116818000Y-41922000D03*
D22*
X115768000Y-45622000D03*
X116418000Y-45622000D03*
X117068000Y-45622000D03*
X117718000Y-45622000D03*
X118368000Y-45622000D03*
X119018000Y-45622000D03*
X119668000Y-45622000D03*
X119668000Y-39722000D03*
X119018000Y-39722000D03*
X118368000Y-39722000D03*
X117718000Y-39722000D03*
X117068000Y-39722000D03*
X116418000Y-39722000D03*
X115768000Y-39722000D03*
D21*
X116818000Y-43422000D03*
X118502000Y-60440000D03*
X118502000Y-58940000D03*
X116702000Y-58940000D03*
D22*
X115652000Y-62640000D03*
X116302000Y-62640000D03*
X116952000Y-62640000D03*
X117602000Y-62640000D03*
X118252000Y-62640000D03*
X118902000Y-62640000D03*
X119552000Y-62640000D03*
X119552000Y-56740000D03*
X118902000Y-56740000D03*
X118252000Y-56740000D03*
X117602000Y-56740000D03*
X116952000Y-56740000D03*
X116302000Y-56740000D03*
X115652000Y-56740000D03*
D21*
X116702000Y-60440000D03*
D23*
X49837340Y-69862700D03*
X49837340Y-67564000D03*
X49837340Y-65265300D03*
D24*
X56334660Y-67564000D03*
D25*
X92496640Y-77020420D03*
X88351360Y-77020420D03*
X92496640Y-74871580D03*
X88351360Y-74871580D03*
D26*
X109382560Y-122082560D03*
X101437440Y-122082560D03*
X109382560Y-117185440D03*
X101437440Y-117185440D03*
X97698560Y-122082560D03*
X89753440Y-122082560D03*
X97698560Y-117185440D03*
X89753440Y-117185440D03*
D18*
X59395360Y-86106000D03*
X60492640Y-86106000D03*
X59395360Y-84582000D03*
X60492640Y-84582000D03*
X59395360Y-83058000D03*
X60492640Y-83058000D03*
X86400640Y-81534000D03*
X85303360Y-81534000D03*
X86400640Y-85090000D03*
X85303360Y-85090000D03*
D16*
X112758220Y-108224320D03*
D17*
X111760000Y-104978200D03*
D16*
X110761780Y-108224320D03*
X98788220Y-108478320D03*
D17*
X97790000Y-105232200D03*
D16*
X96791780Y-108478320D03*
X84564220Y-108224320D03*
D17*
X83566000Y-104978200D03*
D16*
X82567780Y-108224320D03*
X70340220Y-108478320D03*
D17*
X69342000Y-105232200D03*
D16*
X68343780Y-108478320D03*
X42400220Y-108224320D03*
D17*
X41402000Y-104978200D03*
D16*
X40403780Y-108224320D03*
D27*
X82042000Y-59702700D03*
X82042000Y-61201300D03*
D18*
X73873360Y-84074000D03*
X74970640Y-84074000D03*
D28*
X43929300Y-37084000D03*
X42430700Y-37084000D03*
X58915300Y-37084000D03*
X57416700Y-37084000D03*
X42430700Y-38862000D03*
X43929300Y-38862000D03*
X57416700Y-38862000D03*
X58915300Y-38862000D03*
X42430700Y-40640000D03*
X43929300Y-40640000D03*
X57416700Y-40640000D03*
X58915300Y-40640000D03*
X74409300Y-37592000D03*
X72910700Y-37592000D03*
X90411300Y-37592000D03*
X88912700Y-37592000D03*
X72910700Y-39370000D03*
X74409300Y-39370000D03*
X88912700Y-39370000D03*
X90411300Y-39370000D03*
X72910700Y-41148000D03*
X74409300Y-41148000D03*
X88912700Y-41148000D03*
X90411300Y-41148000D03*
D15*
X56388000Y-72684640D03*
X56388000Y-71587360D03*
D18*
X31668720Y-77470000D03*
X32766000Y-77470000D03*
X35600640Y-77470000D03*
X34503360Y-77470000D03*
D15*
X41402000Y-72684640D03*
X41402000Y-71587360D03*
D29*
X42672000Y-62958980D03*
X42672000Y-58961020D03*
D30*
X88460400Y-81419720D03*
X90959760Y-81419720D03*
X88412320Y-85090000D03*
X90911680Y-85090000D03*
D31*
X57429400Y-83832700D03*
X57429400Y-85331300D03*
X54330600Y-85331300D03*
X54330600Y-83832700D03*
D32*
X42672000Y-45191680D03*
X42672000Y-42692320D03*
X57658000Y-45191680D03*
X57658000Y-42692320D03*
X73152000Y-45699680D03*
X73152000Y-43200320D03*
X89154000Y-45699680D03*
X89154000Y-43200320D03*
D33*
X52590700Y-72644000D03*
X54089300Y-72644000D03*
X32512000Y-80759300D03*
X32512000Y-79260700D03*
X34544000Y-80759300D03*
X34544000Y-79260700D03*
X45453300Y-72644000D03*
X43954700Y-72644000D03*
D34*
X38066980Y-69850000D03*
X34069020Y-69850000D03*
D18*
X112054640Y-102362000D03*
X110957360Y-102362000D03*
X98084640Y-102362000D03*
X96987360Y-102362000D03*
X83860640Y-102362000D03*
X82763360Y-102362000D03*
X69636640Y-102108000D03*
X68539360Y-102108000D03*
X56936640Y-101600000D03*
X55839360Y-101600000D03*
X41442640Y-101854000D03*
X40345360Y-101854000D03*
D15*
X75184000Y-64810640D03*
X75184000Y-63713360D03*
X76708000Y-63713360D03*
X76708000Y-64810640D03*
X83058000Y-72938640D03*
X83058000Y-71841360D03*
X81534000Y-72938640D03*
X81534000Y-71841360D03*
D18*
X70693280Y-67056000D03*
X69596000Y-67056000D03*
X76413360Y-84074000D03*
X77510640Y-84074000D03*
X82590640Y-75438000D03*
X81493360Y-75438000D03*
D35*
X74498200Y-86106000D03*
X77393800Y-86106000D03*
X51638200Y-62484000D03*
X54533800Y-62484000D03*
D36*
X46990000Y-66878200D03*
X46990000Y-69773800D03*
D15*
X46482000Y-78699360D03*
X46482000Y-79796640D03*
X43434000Y-68793360D03*
X43434000Y-69890640D03*
X41402000Y-68793360D03*
X41402000Y-69890640D03*
M02*
