M48
; DRILL file {KiCad (5.1.7)-1} date 10/21/21 20:27:46
; FORMAT={-:-/ absolute / inch / decimal}
; #@! TF.CreationDate,2021-10-21T20:27:46-07:00
; #@! TF.GenerationSoftware,Kicad,Pcbnew,(5.1.7)-1
; #@! TF.FileFunction,Plated,1,4,PTH
FMAT,2
INCH
T1C0.0157
T2C0.0295
T3C0.0315
T4C0.0319
T5C0.0394
%
G90
G05
T1
X3.6713Y-2.0866
X3.8189Y-5.8169
X4.2717Y-5.7874
X4.56Y-2.49
X4.5669Y-5.9154
X4.575Y-2.41
X4.8903Y-2.2751
X5.0591Y-5.8465
X5.2052Y-2.1934
X5.5118Y-5.7776
X5.5989Y-2.1048
T2
X5.055Y-1.715
X5.355Y-1.715
T3
X4.005Y-2.23
X4.005Y-2.43
X4.205Y-2.33
X3.563Y-5.7087
X3.7598Y-5.7087
X5.5709Y-5.7087
X5.7677Y-5.7087
X5.2165Y-2.0819
X5.2165Y-2.3819
X4.1783Y-5.1181
X4.4783Y-5.1181
X4.3602Y-5.7087
X4.4602Y-5.9087
X4.5602Y-5.7087
X5.3543Y-2.0768
X5.3543Y-2.3768
X5.4823Y-2.0079
X5.4823Y-2.1079
X5.4823Y-2.2079
X5.4823Y-2.3079
X5.7823Y-2.0079
X5.7823Y-2.1079
X5.7823Y-2.2079
X5.7823Y-2.3079
X4.8524Y-5.1181
X5.1524Y-5.1181
X4.7638Y-5.7154
X4.7638Y-5.9154
X4.9638Y-5.8154
X4.64Y-1.725
X4.94Y-1.725
X3.8929Y-5.6693
X3.8929Y-5.9693
X3.9929Y-5.6693
X3.9929Y-5.9693
X4.0929Y-5.6693
X4.0929Y-5.9693
X4.1929Y-5.6693
X4.1929Y-5.9693
X4.635Y-1.97
X4.935Y-1.97
X4.7835Y-5.2559
X4.7835Y-5.4528
X4.5472Y-5.2559
X4.5472Y-5.4528
X4.5965Y-4.198
X4.5965Y-4.498
X4.7835Y-2.0819
X4.7835Y-2.3819
X4.8835Y-2.0819
X4.8835Y-2.3819
X4.9835Y-2.0819
X4.9835Y-2.3819
X5.0835Y-2.0819
X5.0835Y-2.3819
X5.5709Y-1.7953
X5.7677Y-1.7953
X5.1378Y-5.6646
X5.1378Y-5.9646
X5.2378Y-5.6646
X5.2378Y-5.9646
X5.3378Y-5.6646
X5.3378Y-5.9646
X5.4378Y-5.6646
X5.4378Y-5.9646
X4.515Y-1.705
X4.515Y-2.005
X3.5484Y-2.4508
X3.8484Y-2.4508
X5.4776Y-2.4409
X5.7776Y-2.4409
X3.5827Y-1.7953
X3.7795Y-1.7953
X4.7343Y-4.198
X4.7343Y-4.498
X4.5965Y-4.7244
X4.5965Y-5.0244
X5.2763Y-1.92
X5.355Y-1.92
X4.7343Y-2.645
X4.7343Y-2.945
X4.41Y-2.23
X4.41Y-2.43
X4.61Y-2.33
X3.5531Y-2.0079
X3.5531Y-2.1079
X3.5531Y-2.2079
X3.5531Y-2.3079
X3.8531Y-2.0079
X3.8531Y-2.1079
X3.8531Y-2.2079
X3.8531Y-2.3079
X4.7343Y-4.7244
X4.7343Y-5.0244
X5.05Y-1.92
X5.1287Y-1.92
X4.63Y-1.86
X4.93Y-1.86
T4
X4.1732Y-5.3937
X4.1929Y-5.5315
X4.2795Y-5.5315
X4.2992Y-5.3937
X5.0197Y-5.3937
X5.0394Y-5.5315
X5.126Y-5.5315
X5.1457Y-5.3937
X3.878Y-5.3937
X3.8976Y-5.5315
X3.9843Y-5.5315
X4.0039Y-5.3937
X3.5827Y-5.395
X3.6024Y-5.5328
X3.689Y-5.5328
X3.7087Y-5.395
X5.315Y-5.3937
X5.3346Y-5.5315
X5.4213Y-5.5315
X5.4409Y-5.3937
X5.6102Y-5.3937
X5.6299Y-5.5315
X5.7165Y-5.5315
X5.7362Y-5.3937
T5
X3.7697Y-1.5945
X3.8697Y-1.5945
X3.9697Y-1.5945
X4.0697Y-1.5945
X4.1697Y-1.5945
X4.2697Y-1.5945
X4.3697Y-1.5945
X4.4697Y-1.5945
X4.5697Y-1.5945
X4.6697Y-1.5945
X5.2579Y-5.1181
X5.3579Y-5.1181
X5.4579Y-5.1181
X5.5579Y-5.1181
X5.6579Y-5.1181
X5.7579Y-5.1181
X4.861Y-1.5945
X4.961Y-1.5945
X5.061Y-1.5945
X5.161Y-1.5945
X5.261Y-1.5945
X5.361Y-1.5945
X5.461Y-1.5945
X5.561Y-1.5945
X3.5728Y-5.1181
X3.6728Y-5.1181
X3.7728Y-5.1181
X3.8728Y-5.1181
X3.9728Y-5.1181
X4.0728Y-5.1181
T0
M30
